<svg xmlns="http://www.w3.org/2000/svg" width="106.176" height="92.992" viewBox="0 0 106.176 92.992">
  <g id="Grupo_80262" data-name="Grupo 80262" transform="translate(0 14.857) rotate(-9)">
    <path id="Trazado_113591" data-name="Trazado 113591" d="M958.755,221.3c-6.639.835-8.483,7.079-7.723,12.93.654,5.029,4.037,9.876,3.725,15-.222,3.642-3.955,2.7-6.474,2.058-3.184-.811-6.487-1.955-9.82-1.7-2.541.193-5.112,1.55-5.892,4.145-.665,2.21.609,4.225,2.2,5.659,4.665,4.192,11.827,5.988,17.542,8.137,2.12.8,8.744,1.669,9.283,4.215.375,1.78-3.523,1.885-4.655,1.967-4.212.309-8.412-.241-12.621-.146-2.768.062-9.752.412-9.123,4.68.43,2.9,3.575,5.173,5.9,6.515a71.96,71.96,0,0,0,10.888,5.048,94.9,94.9,0,0,0,14.609,3.819,108.834,108.834,0,0,0,14.45,2.134c2.225.138,4.451.1,6.674.288a1.125,1.125,0,0,0,.807.945,74.411,74.411,0,0,0,13.027,3.085c3.48.445,7.277.387,10.211-1.8,3.332-2.478,5.274-6.657,7.616-9.985,2.155-3.066,4.778-5.96,6.328-9.4,1.591-3.533,3.153-9.647-1.093-12.022-5.4-3.015-11.709,2.447-17.039,3.007-1.3.136-3.513.017-4.062-1.492-.373-1.031.4-2.235.934-3.062a34.579,34.579,0,0,1,6.094-6.5c3.758-3.412,8.295-7.2,5.984-12.9-2.628-6.48-11.2-6.814-16.274-3.173a18.737,18.737,0,0,0-5.964,8.234,31.006,31.006,0,0,0-1.4,4.167c-.638,2.406-2.212,3.574-4.618,2.023-3.675-2.367-4.9-7.927-6.322-11.728a68.211,68.211,0,0,0-5.818-12.584C972.239,226.67,966.861,220.276,958.755,221.3Z" transform="translate(-932.391 -221.188)" fill="#add031"/>
    <g id="Grupo_80153" data-name="Grupo 80153" transform="translate(25.644 10.582)">
      <path id="Trazado_113592" data-name="Trazado 113592" d="M945.58,227.368a49.018,49.018,0,0,0,2.535,11.327,82.126,82.126,0,0,0,4.651,9.993A119.911,119.911,0,0,0,965.257,267.4a124.034,124.034,0,0,0,16.056,16.206q4.1,3.472,8.444,6.659c3.015,2.208,6.39,4.937,10.1,5.764.488.109.934-.512.517-.889-2.634-2.381-6.03-3.97-8.931-6.021-3.033-2.146-5.978-4.437-8.83-6.818a111.573,111.573,0,0,1-15.045-15.428,120.844,120.844,0,0,1-12.127-18.208c-3.6-6.589-7.005-14.074-8.375-21.5-.152-.831-1.6-.65-1.492.2Z" transform="translate(-945.574 -226.627)" fill="#4f9638"/>
    </g>
    <g id="Grupo_80154" data-name="Grupo 80154" transform="translate(70.627 49.079)">
      <path id="Trazado_113593" data-name="Trazado 113593" d="M969.787,266.64c2.148-3.344,4.173-6.768,6.359-10.086,1.068-1.62,2.173-3.216,3.352-4.756,1.239-1.62,2.677-3.14,3.764-4.867.171-.27-.181-.658-.457-.457a20.573,20.573,0,0,0-3.986,4.241c-1.237,1.6-2.4,3.264-3.513,4.955-2.249,3.414-4.317,6.943-6.515,10.388-.4.63.6,1.208,1,.584Z" transform="translate(-968.698 -246.418)" fill="#4f9638"/>
    </g>
    <g id="Grupo_80155" data-name="Grupo 80155" transform="translate(38.159 7.936)">
      <path id="Trazado_113594" data-name="Trazado 113594" d="M957.28,258.6c1.947-5.281,1.541-11.287.6-16.731a68.394,68.394,0,0,0-2.2-9.057c-.761-2.408-1.535-5.367-3.078-7.408-.2-.268-.694-.13-.584.247.7,2.364,1.926,4.595,2.7,6.954a68.926,68.926,0,0,1,2.247,8.76c1.031,5.5,1.836,11.736.072,17.171-.049.15.181.208.235.064Z" transform="translate(-952.008 -225.267)" fill="#4f9638"/>
    </g>
    <g id="Grupo_80156" data-name="Grupo 80156" transform="translate(2.34 34.465)">
      <path id="Trazado_113595" data-name="Trazado 113595" d="M968.933,245.22c-3.167-.294-6.271-.4-9.429-.844-3.013-.418-6.058-.578-9.065-1.049a80.509,80.509,0,0,1-9.1-1.91c-2.482-.691-4.83-2.371-7.421-2.511a.338.338,0,0,0-.169.624c4.978,3.175,11.259,4.307,17.015,5.095,2.85.389,5.723.619,8.586.881,3.21.294,6.375.054,9.582.231.335.018.327-.486,0-.517Z" transform="translate(-933.594 -238.905)" fill="#4f9638"/>
    </g>
    <g id="Grupo_80157" data-name="Grupo 80157" transform="translate(8.229 57.266)">
      <path id="Trazado_113596" data-name="Trazado 113596" d="M936.856,251.507c6.707,3.188,14.076,4.461,21.433,5.2a80.633,80.633,0,0,0,11.913.142c1.928-.093,3.856-.216,5.783-.3,1.729-.078,3.671.233,5.223-.6a.491.491,0,0,0,0-.84c-1.373-.7-2.885-.418-4.4-.358-1.928.078-3.856.185-5.783.268a94.5,94.5,0,0,1-11.57-.086,98.687,98.687,0,0,1-22.239-4.285c-.5-.16-.852.628-.364.86Z" transform="translate(-936.622 -250.626)" fill="#4f9638"/>
    </g>
    <g id="Grupo_80158" data-name="Grupo 80158" transform="translate(55.153 22.441)">
      <path id="Trazado_113597" data-name="Trazado 113597" d="M961.2,266.072c1.432-3.488,2.918-6.9,4.653-10.25a61.16,61.16,0,0,1,6.017-9.09,45.453,45.453,0,0,1,7.7-7.435c1.27-1.035,2.434-2.192,3.721-3.206,1.154-.907,2.782-1.515,3.782-2.548a.475.475,0,0,0-.208-.788c-2.653-.416-5.544,3.367-7.3,4.91-1.358,1.194-2.856,2.206-4.165,3.461-1.461,1.4-2.729,2.974-4.107,4.455a37.549,37.549,0,0,0-6.455,9.332,97.861,97.861,0,0,0-4.081,11.039c-.1.282.331.385.44.121Z" transform="translate(-960.744 -232.724)" fill="#4f9638"/>
    </g>
  </g>
</svg>
