<svg xmlns="http://www.w3.org/2000/svg" width="818.246" height="818.246" viewBox="0 0 818.246 818.246">
  <g id="Grupo_980464" data-name="Grupo 980464" transform="translate(-50 395.5)">
    <g id="Grupo_980426" data-name="Grupo 980426" transform="translate(341.817 -358.648)">
      <path id="Trazado_626622" data-name="Trazado 626622" d="M18.212,0V86.774H0" fill="none" stroke="#12263f" stroke-linejoin="round" stroke-width="3"/>
    </g>
    <g id="Grupo_980427" data-name="Grupo 980427" transform="translate(360.029 -358.648)">
      <path id="Trazado_626623" data-name="Trazado 626623" d="M0,0V155.652H208.9v17.9" fill="none" stroke="#12263f" stroke-linejoin="round" stroke-width="3"/>
    </g>
    <g id="Grupo_980428" data-name="Grupo 980428" transform="translate(242.188 -358.648)">
      <path id="Trazado_626624" data-name="Trazado 626624" d="M117.841,0V155.652H0v17.9" fill="none" stroke="#12263f" stroke-linejoin="round" stroke-width="3"/>
    </g>
    <path id="Trazado_626625" data-name="Trazado 626625" d="M156-394H325.263v35.352H156Z" transform="translate(119.398 0)" fill="#fff"/>
    <g id="Grupo_980429" data-name="Grupo 980429" transform="translate(275.398 -394)">
      <path id="Trazado_626626" data-name="Trazado 626626" d="M0,0H169.263V35.352H0Z" fill="none" stroke="#12263f" stroke-linejoin="round" stroke-width="3"/>
    </g>
    <g id="Grupo_980430" data-name="Grupo 980430" transform="translate(338.004 -385.717)">
      <path id="Trazado_678203" data-name="Trazado 678203" d="M6.533-5.205H4.2V0H1.27V-14.219H6.553A5.972,5.972,0,0,1,10.439-13.1a3.876,3.876,0,0,1,1.367,3.174,4.374,4.374,0,0,1-.63,2.427A4.3,4.3,0,0,1,9.268-5.947L12.344-.137V0H9.2ZM4.2-7.578H6.563A2.42,2.42,0,0,0,8.271-8.14a2.007,2.007,0,0,0,.605-1.548,2.148,2.148,0,0,0-.571-1.582,2.374,2.374,0,0,0-1.753-.576H4.2ZM19.971,0a3.134,3.134,0,0,1-.283-.947A3.415,3.415,0,0,1,17.021.2a3.752,3.752,0,0,1-2.573-.9,2.89,2.89,0,0,1-1.021-2.266,2.986,2.986,0,0,1,1.245-2.578,6.144,6.144,0,0,1,3.6-.908h1.3v-.605a1.741,1.741,0,0,0-.376-1.172,1.479,1.479,0,0,0-1.187-.439,1.682,1.682,0,0,0-1.118.342,1.161,1.161,0,0,0-.405.938H13.662a2.835,2.835,0,0,1,.566-1.7,3.744,3.744,0,0,1,1.6-1.226,5.837,5.837,0,0,1,2.324-.444,4.611,4.611,0,0,1,3.1.981A3.433,3.433,0,0,1,22.4-7.021v4.58a5.052,5.052,0,0,0,.42,2.275V0ZM17.637-1.963a2.431,2.431,0,0,0,1.152-.278,1.828,1.828,0,0,0,.781-.747V-4.8H18.516Q16.4-4.8,16.26-3.34l-.01.166a1.13,1.13,0,0,0,.371.869A1.441,1.441,0,0,0,17.637-1.963ZM27.617,0H24.795V-10.566h2.822Zm-.83-14.854h3.076l-2.705,3.027H24.863Zm6.5,12.578h5.166V0h-8.77V-1.719l4.971-6.572H29.834v-2.275H38.3V-8.9Z" transform="translate(0 18)" fill="#12263f"/>
    </g>
    <path id="Trazado_626627" data-name="Trazado 626627" d="M51.5-299H433.948v58.921H51.5Z" transform="translate(0 108.544)" fill="#fff"/>
    <g id="Grupo_980431" data-name="Grupo 980431" transform="translate(51.5 -190.456)">
      <path id="Trazado_626628" data-name="Trazado 626628" d="M0,0H382.448V58.921H0Z" fill="none" stroke="#12263f" stroke-linejoin="round" stroke-width="3"/>
    </g>
    <path id="Trazado_626629" data-name="Trazado 626629" d="M246.5-296.5H445.758v114.627H246.5Z" transform="translate(222.8 111.4)" fill="#fff"/>
    <g id="Grupo_980432" data-name="Grupo 980432" transform="translate(469.3 -185.1)">
      <path id="Trazado_626630" data-name="Trazado 626630" d="M0,0H199.258V114.627H0Z" fill="none" stroke="#12263f" stroke-linejoin="round" stroke-width="3"/>
    </g>
    <path id="Trazado_626631" data-name="Trazado 626631" d="M76-360.5H313.825v115.573H76Z" transform="translate(27.993 24.475)" fill="#fff"/>
    <g id="Grupo_980437" data-name="Grupo 980437" transform="translate(103.993 -328.338)">
      <path id="Trazado_626632" data-name="Trazado 626632" d="M0,0H237.825V107.886H0Z" fill="none" stroke="#12263f" stroke-linejoin="round" stroke-width="3"/>
    </g>
    <g id="Grupo_980442" data-name="Grupo 980442" transform="translate(151.751 -170.391)">
      <text id="Estructura_externa" data-name="Estructura externa" transform="translate(0 18)" fill="#12263f" font-size="20" font-family="Roboto-Bold, Roboto" font-weight="700"><tspan x="0" y="0">Estructura externa</tspan></text>
    </g>
    <path id="Trazado_626633" data-name="Trazado 626633" d="M51.5-264H433.948v58.92H51.5Z" transform="translate(0 148.533)" fill="#fff"/>
    <g id="Grupo_980443" data-name="Grupo 980443" transform="translate(51.5 -115.467)">
      <path id="Trazado_626634" data-name="Trazado 626634" d="M0,0H382.448V58.921H0Z" fill="none" stroke="#12263f" stroke-linejoin="round" stroke-width="3"/>
    </g>
    <path id="Trazado_626635" data-name="Trazado 626635" d="M51.5-226H433.948v57.849H51.5Z" transform="translate(0 191.951)" fill="#fff"/>
    <g id="Grupo_980444" data-name="Grupo 980444" transform="translate(51.5 -34.049)">
      <path id="Trazado_626636" data-name="Trazado 626636" d="M0,0H382.448V57.849H0Z" fill="none" stroke="#12263f" stroke-linejoin="round" stroke-width="3"/>
    </g>
    <path id="Trazado_626637" data-name="Trazado 626637" d="M51.5-188.5H433.948v57.849H51.5Z" transform="translate(0 234.797)" fill="#fff"/>
    <g id="Grupo_980445" data-name="Grupo 980445" transform="translate(51.5 46.297)">
      <path id="Trazado_626638" data-name="Trazado 626638" d="M0,0H382.448V57.849H0Z" fill="none" stroke="#12263f" stroke-linejoin="round" stroke-width="3"/>
    </g>
    <path id="Trazado_626639" data-name="Trazado 626639" d="M51.5-151H866.746v58.92H51.5Z" transform="translate(0 277.643)" fill="#fff"/>
    <g id="Grupo_980446" data-name="Grupo 980446" transform="translate(51.5 126.643)">
      <path id="Trazado_626640" data-name="Trazado 626640" d="M0,0H815.246V58.921H0Z" fill="none" stroke="#12263f" stroke-linejoin="round" stroke-width="3"/>
    </g>
    <path id="Trazado_626641" data-name="Trazado 626641" d="M51.5-113.5H618.208v58.92H51.5Z" transform="translate(0 320.489)" fill="#fff"/>
    <g id="Grupo_980447" data-name="Grupo 980447" transform="translate(51.5 206.989)">
      <path id="Trazado_626642" data-name="Trazado 626642" d="M0,0H566.708V58.921H0Z" fill="none" stroke="#12263f" stroke-linejoin="round" stroke-width="3"/>
    </g>
    <path id="Trazado_626643" data-name="Trazado 626643" d="M51.5-75.5H685.7v57.849H51.5Z" transform="translate(0 363.907)" fill="#fff"/>
    <g id="Grupo_980448" data-name="Grupo 980448" transform="translate(51.5 288.407)">
      <path id="Trazado_626644" data-name="Trazado 626644" d="M0,0H634.2V57.849H0Z" fill="none" stroke="#12263f" stroke-linejoin="round" stroke-width="3"/>
    </g>
    <path id="Trazado_626645" data-name="Trazado 626645" d="M51.5-40.5H433.948V17.349H51.5Z" transform="translate(0 403.896)" fill="#fff"/>
    <g id="Grupo_980449" data-name="Grupo 980449" transform="translate(51.5 363.396)">
      <path id="Trazado_626646" data-name="Trazado 626646" d="M0,0H382.448V57.849H0Z" fill="none" stroke="#12263f" stroke-linejoin="round" stroke-width="3"/>
    </g>
    <g id="Grupo_980450" data-name="Grupo 980450" transform="translate(113.46 -97.007)">
      <text id="Cuello_se_une_la_raíz_y_el_tallo_" data-name="Cuello (se une la raíz y el tallo)" transform="translate(0 18)" fill="#12263f" font-size="20" font-family="Roboto-Regular, Roboto"><tspan x="0" y="0">Cuello (se une la raíz y el tallo)</tspan></text>
    </g>
    <g id="Grupo_980451" data-name="Grupo 980451" transform="translate(147.251 -16.125)">
      <text id="Zona_de_ramificación" data-name="Zona de ramificación" transform="translate(0 18)" fill="#12263f" font-size="20" font-family="Roboto-Regular, Roboto"><tspan x="0" y="0">Zona de ramificación</tspan></text>
    </g>
    <g id="Grupo_980452" data-name="Grupo 980452" transform="translate(74.383 64.221)">
      <text id="Zona_de_pilífera_pelos_absorbentes_" data-name="Zona de pilífera (pelos absorbentes)" transform="translate(0 18)" fill="#12263f" font-size="20" font-family="Roboto-Regular, Roboto"><tspan x="0" y="0">Zona de pilífera (pelos absorbentes)</tspan></text>
    </g>
    <g id="Grupo_980453" data-name="Grupo 980453" transform="translate(98.432 165.209)">
      <text id="Zona_de_diferenciación_se_diferencian_los_tejidos_meristemáticos_en_tejidos_definitivos_" data-name="Zona de diferenciación (se diferencian los tejidos meristemáticos en tejidos definitivos)" transform="translate(-22.932)" fill="#12263f" font-size="20" font-family="Roboto-Regular, Roboto"><tspan x="0" y="0">Zona de diferenciación (se diferencian los tejidos meristemáticos en tejidos definitivos)</tspan></text>
    </g>
    <g id="Grupo_980454" data-name="Grupo 980454" transform="translate(88.5 225.449)">
      <text id="Zona_de_elongación_crecimiento_en_longitud_de_la_raíz_" data-name="Zona de elongación (crecimiento en longitud de la raíz)" transform="translate(0 18)" fill="#12263f" font-size="20" font-family="Roboto-Regular, Roboto"><tspan x="0" y="0">Zona de elongación (crecimiento en longitud de la raíz)</tspan></text>
    </g>
    <g id="Grupo_980455" data-name="Grupo 980455" transform="translate(105.249 330.187)">
      <text id="Meristema_apical_determina_el_crecimiento_en_longitud_de_la_raíz_" data-name="Meristema apical (determina el crecimiento en longitud de la raíz) " transform="translate(-29.749 -3)" fill="#12263f" font-size="20" font-family="Roboto-Regular, Roboto"><tspan x="0" y="0">Meristema apical (determina el crecimiento en longitud de la raíz) </tspan></text>
    </g>
    <g id="Grupo_980456" data-name="Grupo 980456" transform="translate(214.5 383.32)">
      <text id="Cofia" transform="translate(0 18)" fill="#12263f" font-size="20" font-family="Roboto-Regular, Roboto"><tspan x="0" y="0">Cofia</tspan></text>
    </g>
    <path id="Trazado_678204" data-name="Trazado 678204" d="M27.16,14.35a8.8,8.8,0,0,1-.7,3.647,5.326,5.326,0,0,1-1.992,2.378,5.481,5.481,0,0,1-3.008.82,5.3,5.3,0,0,1-5-3.179,8.439,8.439,0,0,1-.737-3.54V13.451a8.691,8.691,0,0,1,.713-3.623,5.272,5.272,0,0,1,5-3.242,5.512,5.512,0,0,1,3.013.825A5.316,5.316,0,0,1,26.457,9.8a8.838,8.838,0,0,1,.7,3.647Zm-1.865-.918A6.375,6.375,0,0,0,24.279,9.55,3.35,3.35,0,0,0,21.438,8.2a3.314,3.314,0,0,0-2.8,1.353A6.245,6.245,0,0,0,17.59,13.3V14.35A6.384,6.384,0,0,0,18.62,18.2a3.328,3.328,0,0,0,2.837,1.4A3.314,3.314,0,0,0,24.27,18.28a6.348,6.348,0,0,0,1.025-3.794ZM22.355,2.953h2.188L21.926,5.824l-1.455,0Zm12.441,9.1a5.414,5.414,0,0,0-.889-.068A2.381,2.381,0,0,0,31.5,13.5V21H29.689V10.434h1.758l.029,1.221A2.813,2.813,0,0,1,34,10.238a1.846,1.846,0,0,1,.8.137Zm1.23,3.574A6.21,6.21,0,0,1,37.17,11.7a3.939,3.939,0,0,1,6.045-.093l.088-1.172h1.65V20.746a4.3,4.3,0,0,1-1.216,3.232,4.487,4.487,0,0,1-3.267,1.182,5.435,5.435,0,0,1-2.236-.488,3.85,3.85,0,0,1-1.67-1.338L37.5,22.25a3.533,3.533,0,0,0,2.842,1.436,2.768,2.768,0,0,0,2.056-.742,2.837,2.837,0,0,0,.737-2.09v-.908a3.713,3.713,0,0,1-2.959,1.25,3.609,3.609,0,0,1-3-1.494A6.529,6.529,0,0,1,36.027,15.629Zm1.816.205a4.738,4.738,0,0,0,.732,2.808,2.38,2.38,0,0,0,2.051,1.021,2.646,2.646,0,0,0,2.51-1.553V13.285a2.677,2.677,0,0,0-2.49-1.514A2.4,2.4,0,0,0,38.586,12.8,5.16,5.16,0,0,0,37.844,15.834ZM54.2,21a3.8,3.8,0,0,1-.254-1.113A4.031,4.031,0,0,1,50.939,21.2a3.73,3.73,0,0,1-2.563-.884,2.859,2.859,0,0,1-1-2.241,2.987,2.987,0,0,1,1.255-2.563,5.916,5.916,0,0,1,3.53-.913h1.758v-.83a2.029,2.029,0,0,0-.566-1.509,2.276,2.276,0,0,0-1.67-.562,2.634,2.634,0,0,0-1.621.488,1.439,1.439,0,0,0-.654,1.182H47.59a2.493,2.493,0,0,1,.562-1.528,3.832,3.832,0,0,1,1.523-1.167,5.125,5.125,0,0,1,2.114-.43,4.177,4.177,0,0,1,2.861.913,3.294,3.294,0,0,1,1.074,2.515v4.863a5.946,5.946,0,0,0,.371,2.314V21Zm-3-1.377a3.175,3.175,0,0,0,1.611-.439,2.658,2.658,0,0,0,1.1-1.143V15.873H52.5q-3.32,0-3.32,1.943a1.645,1.645,0,0,0,.566,1.328A2.177,2.177,0,0,0,51.2,19.623Zm9.063-9.189.059,1.328a3.851,3.851,0,0,1,3.164-1.523q3.35,0,3.379,3.779V21H65.061V14.008a2.432,2.432,0,0,0-.522-1.689,2.094,2.094,0,0,0-1.6-.547,2.607,2.607,0,0,0-1.543.469,3.183,3.183,0,0,0-1.035,1.23V21H58.557V10.434Zm8.848,5.186a6.241,6.241,0,0,1,.61-2.793,4.553,4.553,0,0,1,1.7-1.914,4.626,4.626,0,0,1,2.485-.674A4.456,4.456,0,0,1,77.4,11.732a5.748,5.748,0,0,1,1.333,3.975v.127a6.3,6.3,0,0,1-.591,2.769,4.486,4.486,0,0,1-1.689,1.909,4.679,4.679,0,0,1-2.524.684A4.445,4.445,0,0,1,70.446,19.7a5.719,5.719,0,0,1-1.333-3.955Zm1.816.215a4.52,4.52,0,0,0,.815,2.822,2.763,2.763,0,0,0,4.37-.015,4.943,4.943,0,0,0,.811-3.022A4.513,4.513,0,0,0,76.1,12.8a2.623,2.623,0,0,0-2.192-1.079,2.594,2.594,0,0,0-2.158,1.064A4.906,4.906,0,0,0,70.93,15.834Zm14.59-.205A6.21,6.21,0,0,1,86.662,11.7a3.939,3.939,0,0,1,6.045-.093l.088-1.172h1.65V20.746a4.3,4.3,0,0,1-1.216,3.232,4.487,4.487,0,0,1-3.267,1.182,5.435,5.435,0,0,1-2.236-.488,3.85,3.85,0,0,1-1.67-1.338l.938-1.084a3.533,3.533,0,0,0,2.842,1.436,2.768,2.768,0,0,0,2.056-.742,2.837,2.837,0,0,0,.737-2.09v-.908A3.713,3.713,0,0,1,89.67,21.2a3.609,3.609,0,0,1-3-1.494A6.529,6.529,0,0,1,85.52,15.629Zm1.816.205a4.738,4.738,0,0,0,.732,2.808,2.38,2.38,0,0,0,2.051,1.021,2.646,2.646,0,0,0,2.51-1.553V13.285a2.677,2.677,0,0,0-2.49-1.514A2.4,2.4,0,0,0,88.078,12.8,5.16,5.16,0,0,0,87.336,15.834ZM101.555,21.2a4.617,4.617,0,0,1-3.5-1.411,5.237,5.237,0,0,1-1.348-3.774v-.332a6.341,6.341,0,0,1,.6-2.808,4.685,4.685,0,0,1,1.68-1.934,4.223,4.223,0,0,1,2.339-.7,3.957,3.957,0,0,1,3.2,1.357,5.877,5.877,0,0,1,1.143,3.887v.752H98.518a3.756,3.756,0,0,0,.913,2.524,2.87,2.87,0,0,0,2.222.962,3.147,3.147,0,0,0,1.621-.391,4.073,4.073,0,0,0,1.162-1.035l1.1.859A4.437,4.437,0,0,1,101.555,21.2Zm-.225-9.473a2.41,2.41,0,0,0-1.836.8,3.869,3.869,0,0,0-.918,2.231h5.293v-.137a3.441,3.441,0,0,0-.742-2.134A2.269,2.269,0,0,0,101.33,11.723Zm8.145-1.289.059,1.328a3.85,3.85,0,0,1,3.164-1.523q3.35,0,3.379,3.779V21H114.27V14.008a2.432,2.432,0,0,0-.522-1.689,2.094,2.094,0,0,0-1.6-.547,2.607,2.607,0,0,0-1.543.469,3.183,3.183,0,0,0-1.035,1.23V21h-1.807V10.434ZM123.186,21.2a4.617,4.617,0,0,1-3.5-1.411,5.237,5.237,0,0,1-1.348-3.774v-.332a6.341,6.341,0,0,1,.6-2.808,4.685,4.685,0,0,1,1.68-1.934,4.223,4.223,0,0,1,2.339-.7,3.957,3.957,0,0,1,3.2,1.357,5.877,5.877,0,0,1,1.143,3.887v.752h-7.158a3.756,3.756,0,0,0,.913,2.524,2.87,2.87,0,0,0,2.222.962,3.147,3.147,0,0,0,1.621-.391,4.073,4.073,0,0,0,1.162-1.035l1.1.859A4.437,4.437,0,0,1,123.186,21.2Zm-.225-9.473a2.41,2.41,0,0,0-1.836.8,3.869,3.869,0,0,0-.918,2.231H125.5v-.137a3.441,3.441,0,0,0-.742-2.134A2.269,2.269,0,0,0,122.961,11.723Zm11.543.332a5.414,5.414,0,0,0-.889-.068A2.381,2.381,0,0,0,131.2,13.5V21H129.4V10.434h1.758l.029,1.221a2.813,2.813,0,0,1,2.52-1.416,1.846,1.846,0,0,1,.8.137ZM142.3,21a3.8,3.8,0,0,1-.254-1.113,4.031,4.031,0,0,1-3.008,1.309,3.73,3.73,0,0,1-2.563-.884,2.859,2.859,0,0,1-1-2.241,2.987,2.987,0,0,1,1.255-2.563,5.916,5.916,0,0,1,3.53-.913h1.758v-.83a2.029,2.029,0,0,0-.566-1.509,2.276,2.276,0,0,0-1.67-.562,2.634,2.634,0,0,0-1.621.488,1.439,1.439,0,0,0-.654,1.182h-1.816a2.493,2.493,0,0,1,.562-1.528,3.832,3.832,0,0,1,1.523-1.167,5.125,5.125,0,0,1,2.114-.43,4.177,4.177,0,0,1,2.861.913,3.294,3.294,0,0,1,1.074,2.515v4.863a5.946,5.946,0,0,0,.371,2.314V21Zm-3-1.377a3.175,3.175,0,0,0,1.611-.439,2.658,2.658,0,0,0,1.1-1.143V15.873H140.6q-3.32,0-3.32,1.943a1.645,1.645,0,0,0,.566,1.328A2.177,2.177,0,0,0,139.3,19.623ZM148.615,21h-1.807V6h1.807Zm4.59-10.566.049,1.172a3.9,3.9,0,0,1,3.135-1.367,3.021,3.021,0,0,1,3.018,1.7,4,4,0,0,1,1.372-1.23,4.052,4.052,0,0,1,2-.469q3.477,0,3.535,3.682V21H164.5V14.027a2.426,2.426,0,0,0-.518-1.694,2.279,2.279,0,0,0-1.738-.562,2.4,2.4,0,0,0-1.67.6,2.436,2.436,0,0,0-.771,1.616V21H157.99V14.076a2.016,2.016,0,0,0-2.256-2.3,2.417,2.417,0,0,0-2.432,1.514V21H151.5V10.434ZM173.42,21.2a4.617,4.617,0,0,1-3.5-1.411,5.237,5.237,0,0,1-1.348-3.774v-.332a6.341,6.341,0,0,1,.6-2.808,4.685,4.685,0,0,1,1.68-1.934,4.223,4.223,0,0,1,2.339-.7,3.957,3.957,0,0,1,3.2,1.357,5.877,5.877,0,0,1,1.143,3.887v.752h-7.158a3.756,3.756,0,0,0,.913,2.524,2.87,2.87,0,0,0,2.222.962,3.147,3.147,0,0,0,1.621-.391,4.073,4.073,0,0,0,1.162-1.035l1.1.859A4.437,4.437,0,0,1,173.42,21.2Zm-.225-9.473a2.41,2.41,0,0,0-1.836.8,3.868,3.868,0,0,0-.918,2.231h5.293v-.137a3.441,3.441,0,0,0-.742-2.134A2.269,2.269,0,0,0,173.2,11.723Zm8.145-1.289.059,1.328a3.851,3.851,0,0,1,3.164-1.523q3.35,0,3.379,3.779V21h-1.807V14.008a2.433,2.433,0,0,0-.522-1.689,2.094,2.094,0,0,0-1.6-.547,2.607,2.607,0,0,0-1.543.469,3.183,3.183,0,0,0-1.035,1.23V21h-1.807V10.434Zm11.777-2.559v2.559h1.973v1.4h-1.973v6.561a1.467,1.467,0,0,0,.264.953,1.11,1.11,0,0,0,.9.318,4.374,4.374,0,0,0,.859-.117V21a5.268,5.268,0,0,1-1.387.194,2.25,2.25,0,0,1-1.826-.732,3.147,3.147,0,0,1-.615-2.08V11.83h-1.924v-1.4h1.924V7.875Zm8.467,13.32a4.617,4.617,0,0,1-3.5-1.411,5.237,5.237,0,0,1-1.348-3.774v-.332a6.341,6.341,0,0,1,.6-2.808,4.685,4.685,0,0,1,1.68-1.934,4.223,4.223,0,0,1,2.339-.7,3.957,3.957,0,0,1,3.2,1.357,5.877,5.877,0,0,1,1.143,3.887v.752h-7.158a3.756,3.756,0,0,0,.913,2.524,2.87,2.87,0,0,0,2.222.962,3.147,3.147,0,0,0,1.621-.391,4.073,4.073,0,0,0,1.162-1.035l1.1.859A4.437,4.437,0,0,1,201.584,21.2Zm-.225-9.473a2.41,2.41,0,0,0-1.836.8,3.868,3.868,0,0,0-.918,2.231H203.9v-.137a3.441,3.441,0,0,0-.742-2.134A2.269,2.269,0,0,0,201.359,11.723ZM13.024,44.2a1.33,1.33,0,0,0-.552-1.138,5.311,5.311,0,0,0-1.924-.7,9.1,9.1,0,0,1-2.178-.7,3.1,3.1,0,0,1-1.191-.977,2.336,2.336,0,0,1-.386-1.348,2.741,2.741,0,0,1,1.1-2.2,4.291,4.291,0,0,1,2.808-.9,4.415,4.415,0,0,1,2.915.928,2.947,2.947,0,0,1,1.118,2.373H12.917a1.631,1.631,0,0,0-.63-1.279,2.36,2.36,0,0,0-1.587-.537,2.47,2.47,0,0,0-1.543.43A1.353,1.353,0,0,0,8.6,39.275a1.1,1.1,0,0,0,.518.986,6.368,6.368,0,0,0,1.87.635,9.744,9.744,0,0,1,2.192.723,3.2,3.2,0,0,1,1.245,1.011,2.485,2.485,0,0,1,.405,1.44A2.7,2.7,0,0,1,13.7,46.341a4.752,4.752,0,0,1-2.939.854,5.321,5.321,0,0,1-2.246-.449,3.653,3.653,0,0,1-1.528-1.255,3.025,3.025,0,0,1-.552-1.743H8.239a1.87,1.87,0,0,0,.728,1.44,2.822,2.822,0,0,0,1.792.532,2.913,2.913,0,0,0,1.646-.415A1.275,1.275,0,0,0,13.024,44.2Zm10.684,1.758a3.837,3.837,0,0,1-3.1,1.24,3.285,3.285,0,0,1-2.573-.981,4.248,4.248,0,0,1-.894-2.905V36.434h1.807V43.26q0,2.4,1.953,2.4a2.7,2.7,0,0,0,2.754-1.543V36.434h1.807V47H23.747Zm13.447-4.121a6.283,6.283,0,0,1-1.113,3.892,3.557,3.557,0,0,1-2.988,1.47,3.683,3.683,0,0,1-3.1-1.416L29.87,47H28.21V32h1.807v5.6a3.663,3.663,0,0,1,3.018-1.357,3.579,3.579,0,0,1,3.022,1.455,6.471,6.471,0,0,1,1.1,3.984Zm-1.807-.205a4.882,4.882,0,0,0-.713-2.852,2.36,2.36,0,0,0-2.051-1.006,2.652,2.652,0,0,0-2.568,1.66V44a2.727,2.727,0,0,0,2.588,1.66,2.347,2.347,0,0,0,2.021-1.006A5.192,5.192,0,0,0,35.349,41.629Zm6.533-7.754v2.559h1.973v1.4H41.882v6.561a1.467,1.467,0,0,0,.264.953,1.11,1.11,0,0,0,.9.318,4.374,4.374,0,0,0,.859-.117V47a5.268,5.268,0,0,1-1.387.194,2.25,2.25,0,0,1-1.826-.732,3.147,3.147,0,0,1-.615-2.08V37.83H38.151v-1.4h1.924V33.875ZM50.349,47.2a4.617,4.617,0,0,1-3.5-1.411A5.237,5.237,0,0,1,45.5,42.01v-.332a6.341,6.341,0,0,1,.6-2.808,4.685,4.685,0,0,1,1.68-1.934,4.223,4.223,0,0,1,2.339-.7,3.957,3.957,0,0,1,3.2,1.357,5.877,5.877,0,0,1,1.143,3.887v.752H47.312a3.756,3.756,0,0,0,.913,2.524,2.87,2.87,0,0,0,2.222.962,3.147,3.147,0,0,0,1.621-.391,4.073,4.073,0,0,0,1.162-1.035l1.1.859A4.437,4.437,0,0,1,50.349,47.2Zm-.225-9.473a2.41,2.41,0,0,0-1.836.8,3.868,3.868,0,0,0-.918,2.231h5.293v-.137a3.441,3.441,0,0,0-.742-2.134A2.269,2.269,0,0,0,50.124,37.723Zm11.543.332a5.414,5.414,0,0,0-.889-.068A2.381,2.381,0,0,0,58.366,39.5V47H56.56V36.434h1.758l.029,1.221a2.813,2.813,0,0,1,2.52-1.416,1.846,1.846,0,0,1,.8.137Zm6.768,0a5.414,5.414,0,0,0-.889-.068A2.381,2.381,0,0,0,65.134,39.5V47H63.327V36.434h1.758l.029,1.221a2.813,2.813,0,0,1,2.52-1.416,1.846,1.846,0,0,1,.8.137ZM76.618,47a3.8,3.8,0,0,1-.254-1.113A4.031,4.031,0,0,1,73.356,47.2a3.73,3.73,0,0,1-2.563-.884,2.859,2.859,0,0,1-1-2.241,2.987,2.987,0,0,1,1.255-2.563,5.916,5.916,0,0,1,3.53-.913h1.758v-.83a2.029,2.029,0,0,0-.566-1.509,2.276,2.276,0,0,0-1.67-.562,2.634,2.634,0,0,0-1.621.488,1.439,1.439,0,0,0-.654,1.182H70.007a2.493,2.493,0,0,1,.562-1.528,3.832,3.832,0,0,1,1.523-1.167,5.125,5.125,0,0,1,2.114-.43,4.177,4.177,0,0,1,2.861.913,3.294,3.294,0,0,1,1.074,2.515v4.863a5.946,5.946,0,0,0,.371,2.314V47Zm-3-1.377a3.175,3.175,0,0,0,1.611-.439,2.658,2.658,0,0,0,1.1-1.143V41.873H74.919q-3.32,0-3.32,1.943a1.645,1.645,0,0,0,.566,1.328A2.177,2.177,0,0,0,73.62,45.623ZM75.29,32h2.188L74.86,34.871l-1.455,0Zm7.393,4.434.059,1.328a3.85,3.85,0,0,1,3.164-1.523q3.35,0,3.379,3.779V47H87.478V40.008a2.432,2.432,0,0,0-.522-1.689,2.094,2.094,0,0,0-1.6-.547,2.607,2.607,0,0,0-1.543.469,3.183,3.183,0,0,0-1.035,1.23V47H80.974V36.434ZM96.394,47.2a4.617,4.617,0,0,1-3.5-1.411A5.237,5.237,0,0,1,91.55,42.01v-.332a6.341,6.341,0,0,1,.6-2.808,4.685,4.685,0,0,1,1.68-1.934,4.223,4.223,0,0,1,2.339-.7,3.957,3.957,0,0,1,3.2,1.357,5.877,5.877,0,0,1,1.143,3.887v.752H93.356a3.756,3.756,0,0,0,.913,2.524,2.87,2.87,0,0,0,2.222.962,3.147,3.147,0,0,0,1.621-.391,4.073,4.073,0,0,0,1.162-1.035l1.1.859A4.437,4.437,0,0,1,96.394,47.2Zm-.225-9.473a2.41,2.41,0,0,0-1.836.8,3.869,3.869,0,0,0-.918,2.231h5.293v-.137a3.441,3.441,0,0,0-.742-2.134A2.269,2.269,0,0,0,96.169,37.723Zm5.957,3.9a6.241,6.241,0,0,1,.61-2.793,4.553,4.553,0,0,1,1.7-1.914,4.626,4.626,0,0,1,2.485-.674,4.456,4.456,0,0,1,3.491,1.494,5.748,5.748,0,0,1,1.333,3.975v.127a6.3,6.3,0,0,1-.591,2.769,4.486,4.486,0,0,1-1.689,1.909,4.679,4.679,0,0,1-2.524.684,4.445,4.445,0,0,1-3.481-1.494,5.719,5.719,0,0,1-1.333-3.955Zm1.816.215a4.52,4.52,0,0,0,.815,2.822,2.763,2.763,0,0,0,4.37-.015,4.943,4.943,0,0,0,.811-3.022,4.513,4.513,0,0,0-.825-2.817,2.623,2.623,0,0,0-2.192-1.079,2.594,2.594,0,0,0-2.158,1.064A4.906,4.906,0,0,0,103.942,41.834Zm10.01,8-1.025-.7a4.712,4.712,0,0,0,.957-2.637V44.861h1.768v1.416a4.448,4.448,0,0,1-.483,1.973A4.618,4.618,0,0,1,113.952,49.832Zm8.5-8.2a6.2,6.2,0,0,1,1.143-3.94,4.032,4.032,0,0,1,6.025-.19l.078-1.064h1.66V51.063h-1.807V46.023a3.792,3.792,0,0,1-2.91,1.172,3.644,3.644,0,0,1-3.052-1.489,6.34,6.34,0,0,1-1.138-3.95Zm1.807.205a4.7,4.7,0,0,0,.767,2.852,2.438,2.438,0,0,0,2.065,1.035,2.705,2.705,0,0,0,2.461-1.426V39.119a2.714,2.714,0,0,0-2.441-1.4,2.457,2.457,0,0,0-2.08,1.04A5.118,5.118,0,0,0,124.255,41.834Zm16.523,4.121a3.837,3.837,0,0,1-3.1,1.24,3.285,3.285,0,0,1-2.573-.981,4.248,4.248,0,0,1-.894-2.905V36.434h1.807V43.26q0,2.4,1.953,2.4a2.7,2.7,0,0,0,2.754-1.543V36.434h1.807V47h-1.719Zm8.887,1.24a4.617,4.617,0,0,1-3.5-1.411,5.237,5.237,0,0,1-1.348-3.774v-.332a6.341,6.341,0,0,1,.6-2.808,4.685,4.685,0,0,1,1.68-1.934,4.223,4.223,0,0,1,2.339-.7,3.957,3.957,0,0,1,3.2,1.357,5.877,5.877,0,0,1,1.143,3.887v.752h-7.158a3.756,3.756,0,0,0,.913,2.524,2.87,2.87,0,0,0,2.222.962,3.147,3.147,0,0,0,1.621-.391,4.073,4.073,0,0,0,1.162-1.035l1.1.859A4.437,4.437,0,0,1,149.665,47.2Zm-.225-9.473a2.41,2.41,0,0,0-1.836.8,3.868,3.868,0,0,0-.918,2.231h5.293v-.137a3.441,3.441,0,0,0-.742-2.134A2.269,2.269,0,0,0,149.44,37.723Zm20.332,4.111a6.283,6.283,0,0,1-1.113,3.892,3.557,3.557,0,0,1-2.988,1.47,3.683,3.683,0,0,1-3.1-1.416L162.487,47h-1.66V32h1.807v5.6a3.663,3.663,0,0,1,3.018-1.357,3.579,3.579,0,0,1,3.022,1.455,6.471,6.471,0,0,1,1.1,3.984Zm-1.807-.205a4.882,4.882,0,0,0-.713-2.852,2.36,2.36,0,0,0-2.051-1.006,2.652,2.652,0,0,0-2.568,1.66V44a2.727,2.727,0,0,0,2.588,1.66,2.347,2.347,0,0,0,2.021-1.006A5.192,5.192,0,0,0,167.966,41.629Zm9.189-3.574a5.414,5.414,0,0,0-.889-.068,2.381,2.381,0,0,0-2.412,1.514V47h-1.807V36.434h1.758l.029,1.221a2.813,2.813,0,0,1,2.52-1.416,1.846,1.846,0,0,1,.8.137ZM180.778,47h-1.807V36.434h1.807Zm-1.953-13.369a1.078,1.078,0,0,1,.269-.742,1.008,1.008,0,0,1,.8-.3,1.024,1.024,0,0,1,.8.3,1.067,1.067,0,0,1,.273.742,1.032,1.032,0,0,1-.273.732,1.043,1.043,0,0,1-.8.293,1.026,1.026,0,0,1-.8-.293A1.043,1.043,0,0,1,178.825,33.631Zm6.553,2.8.059,1.328a3.851,3.851,0,0,1,3.164-1.523q3.35,0,3.379,3.779V47h-1.807V40.008a2.433,2.433,0,0,0-.522-1.689,2.094,2.094,0,0,0-1.6-.547,2.607,2.607,0,0,0-1.543.469,3.183,3.183,0,0,0-1.035,1.23V47h-1.807V36.434Zm8.887,5.2a6.19,6.19,0,0,1,1.152-3.911,3.921,3.921,0,0,1,5.957-.21V32h1.807V47h-1.66l-.088-1.133a3.679,3.679,0,0,1-3.018,1.328,3.609,3.609,0,0,1-2.993-1.5,6.26,6.26,0,0,1-1.157-3.926Zm1.807.205a4.687,4.687,0,0,0,.742,2.813,2.4,2.4,0,0,0,2.051,1.016,2.636,2.636,0,0,0,2.51-1.543V39.266a2.656,2.656,0,0,0-2.49-1.494,2.411,2.411,0,0,0-2.07,1.025A5.16,5.16,0,0,0,196.071,41.834ZM212.507,47a3.8,3.8,0,0,1-.254-1.113,4.031,4.031,0,0,1-3.008,1.309,3.73,3.73,0,0,1-2.563-.884,2.859,2.859,0,0,1-1-2.241,2.987,2.987,0,0,1,1.255-2.563,5.916,5.916,0,0,1,3.53-.913h1.758v-.83a2.029,2.029,0,0,0-.566-1.509,2.276,2.276,0,0,0-1.67-.562,2.634,2.634,0,0,0-1.621.488,1.439,1.439,0,0,0-.654,1.182H205.9a2.493,2.493,0,0,1,.562-1.528,3.832,3.832,0,0,1,1.523-1.167,5.125,5.125,0,0,1,2.114-.43,4.177,4.177,0,0,1,2.861.913,3.294,3.294,0,0,1,1.074,2.515v4.863a5.946,5.946,0,0,0,.371,2.314V47Zm-3-1.377a3.175,3.175,0,0,0,1.611-.439,2.658,2.658,0,0,0,1.1-1.143V41.873h-1.416q-3.32,0-3.32,1.943a1.645,1.645,0,0,0,.566,1.328A2.177,2.177,0,0,0,209.509,45.623ZM19.47,73a3.8,3.8,0,0,1-.254-1.113A4.031,4.031,0,0,1,16.208,73.2a3.73,3.73,0,0,1-2.563-.884,2.859,2.859,0,0,1-1-2.241A2.987,2.987,0,0,1,13.9,67.507a5.916,5.916,0,0,1,3.53-.913h1.758v-.83a2.029,2.029,0,0,0-.566-1.509,2.276,2.276,0,0,0-1.67-.562,2.634,2.634,0,0,0-1.621.488,1.439,1.439,0,0,0-.654,1.182H12.858a2.493,2.493,0,0,1,.562-1.528,3.832,3.832,0,0,1,1.523-1.167,5.125,5.125,0,0,1,2.114-.43,4.177,4.177,0,0,1,2.861.913,3.294,3.294,0,0,1,1.074,2.515v4.863a5.946,5.946,0,0,0,.371,2.314V73Zm-3-1.377a3.175,3.175,0,0,0,1.611-.439,2.658,2.658,0,0,0,1.1-1.143V67.873H17.771q-3.32,0-3.32,1.943a1.645,1.645,0,0,0,.566,1.328A2.177,2.177,0,0,0,16.472,71.623Zm9.063-9.189.059,1.328a3.85,3.85,0,0,1,3.164-1.523q3.35,0,3.379,3.779V73H30.329V66.008a2.432,2.432,0,0,0-.522-1.689,2.094,2.094,0,0,0-1.6-.547,2.607,2.607,0,0,0-1.543.469,3.183,3.183,0,0,0-1.035,1.23V73H23.825V62.434ZM39.1,71.721a2.6,2.6,0,0,0,1.689-.586,2.061,2.061,0,0,0,.8-1.465H43.3a3.276,3.276,0,0,1-.625,1.729,4.116,4.116,0,0,1-1.538,1.309A4.438,4.438,0,0,1,39.1,73.2a4.353,4.353,0,0,1-3.433-1.44,5.737,5.737,0,0,1-1.274-3.94v-.3a6.361,6.361,0,0,1,.566-2.744A4.314,4.314,0,0,1,36.584,62.9a4.619,4.619,0,0,1,2.5-.664A4.238,4.238,0,0,1,42.043,63.3,3.8,3.8,0,0,1,43.3,66.066H41.589a2.49,2.49,0,0,0-.776-1.685,2.415,2.415,0,0,0-1.724-.659,2.529,2.529,0,0,0-2.134.991A4.655,4.655,0,0,0,36.2,67.58v.342a4.562,4.562,0,0,0,.752,2.813A2.541,2.541,0,0,0,39.1,71.721ZM47.292,73H45.485V58h1.807Zm9.414,0a3.8,3.8,0,0,1-.254-1.113A4.031,4.031,0,0,1,53.444,73.2a3.73,3.73,0,0,1-2.563-.884,2.859,2.859,0,0,1-1-2.241,2.987,2.987,0,0,1,1.255-2.563,5.916,5.916,0,0,1,3.53-.913h1.758v-.83a2.029,2.029,0,0,0-.566-1.509,2.276,2.276,0,0,0-1.67-.562,2.634,2.634,0,0,0-1.621.488,1.439,1.439,0,0,0-.654,1.182H50.095a2.493,2.493,0,0,1,.562-1.528,3.832,3.832,0,0,1,1.523-1.167,5.125,5.125,0,0,1,2.114-.43,4.177,4.177,0,0,1,2.861.913,3.294,3.294,0,0,1,1.074,2.515v4.863a5.946,5.946,0,0,0,.371,2.314V73Zm-3-1.377a3.175,3.175,0,0,0,1.611-.439,2.658,2.658,0,0,0,1.1-1.143V67.873H55.007q-3.32,0-3.32,1.943a1.645,1.645,0,0,0,.566,1.328A2.177,2.177,0,0,0,53.708,71.623Zm9.219-9.189V74.221q0,3.047-2.764,3.047a3.371,3.371,0,0,1-1.1-.175V75.656a3.493,3.493,0,0,0,.82.078,1.227,1.227,0,0,0,.923-.327,1.619,1.619,0,0,0,.317-1.139V62.434Zm-1.992-2.8a1.083,1.083,0,0,1,.269-.737.987.987,0,0,1,.786-.308,1.024,1.024,0,0,1,.8.3,1.067,1.067,0,0,1,.273.742,1.032,1.032,0,0,1-.273.732,1.043,1.043,0,0,1-.8.293,1.01,1.01,0,0,1-.791-.293A1.054,1.054,0,0,1,60.935,59.631ZM70.222,73.2a4.617,4.617,0,0,1-3.5-1.411,5.237,5.237,0,0,1-1.348-3.774v-.332a6.341,6.341,0,0,1,.6-2.808,4.685,4.685,0,0,1,1.68-1.934,4.223,4.223,0,0,1,2.339-.7A3.957,3.957,0,0,1,73.2,63.6a5.877,5.877,0,0,1,1.143,3.887v.752H67.185a3.756,3.756,0,0,0,.913,2.524,2.87,2.87,0,0,0,2.222.962,3.147,3.147,0,0,0,1.621-.391A4.073,4.073,0,0,0,73.1,70.295l1.1.859A4.437,4.437,0,0,1,70.222,73.2ZM70,63.723a2.41,2.41,0,0,0-1.836.8,3.869,3.869,0,0,0-.918,2.231h5.293v-.137a3.441,3.441,0,0,0-.742-2.134A2.269,2.269,0,0,0,70,63.723Zm14.844,6.631,2.461-7.92h1.934l-4.248,12.2Q84,77.268,81.853,77.268l-.342-.029-.674-.127V75.646l.488.039a2.4,2.4,0,0,0,1.431-.371,2.686,2.686,0,0,0,.845-1.357l.4-1.074-3.77-10.449H82.2ZM102.321,73a3.8,3.8,0,0,1-.254-1.113A4.031,4.031,0,0,1,99.06,73.2a3.73,3.73,0,0,1-2.563-.884,2.859,2.859,0,0,1-1-2.241,2.987,2.987,0,0,1,1.255-2.563,5.916,5.916,0,0,1,3.53-.913h1.758v-.83a2.029,2.029,0,0,0-.566-1.509,2.276,2.276,0,0,0-1.67-.562,2.634,2.634,0,0,0-1.621.488,1.439,1.439,0,0,0-.654,1.182H95.71a2.493,2.493,0,0,1,.562-1.528,3.832,3.832,0,0,1,1.523-1.167,5.125,5.125,0,0,1,2.114-.43,4.177,4.177,0,0,1,2.861.913,3.294,3.294,0,0,1,1.074,2.515v4.863a5.946,5.946,0,0,0,.371,2.314V73Zm-3-1.377a3.175,3.175,0,0,0,1.611-.439,2.658,2.658,0,0,0,1.1-1.143V67.873h-1.416q-3.32,0-3.32,1.943a1.645,1.645,0,0,0,.566,1.328A2.177,2.177,0,0,0,99.323,71.623Zm16.3-3.789a6.283,6.283,0,0,1-1.113,3.892,3.557,3.557,0,0,1-2.988,1.47,3.683,3.683,0,0,1-3.1-1.416L108.337,73h-1.66V58h1.807v5.6a3.663,3.663,0,0,1,3.018-1.357,3.579,3.579,0,0,1,3.022,1.455,6.471,6.471,0,0,1,1.1,3.984Zm-1.807-.205a4.882,4.882,0,0,0-.713-2.852,2.36,2.36,0,0,0-2.051-1.006,2.652,2.652,0,0,0-2.568,1.66V70a2.727,2.727,0,0,0,2.588,1.66,2.347,2.347,0,0,0,2.021-1.006A5.192,5.192,0,0,0,113.815,67.629ZM124.05,70.2a1.33,1.33,0,0,0-.552-1.138,5.311,5.311,0,0,0-1.924-.7,9.1,9.1,0,0,1-2.178-.7,3.1,3.1,0,0,1-1.191-.977,2.336,2.336,0,0,1-.386-1.348,2.741,2.741,0,0,1,1.1-2.2,4.291,4.291,0,0,1,2.808-.9,4.415,4.415,0,0,1,2.915.928,2.947,2.947,0,0,1,1.118,2.373h-1.816a1.631,1.631,0,0,0-.63-1.279,2.36,2.36,0,0,0-1.587-.537,2.47,2.47,0,0,0-1.543.43,1.353,1.353,0,0,0-.557,1.123,1.1,1.1,0,0,0,.518.986,6.368,6.368,0,0,0,1.87.635,9.744,9.744,0,0,1,2.192.723,3.2,3.2,0,0,1,1.245,1.011,2.485,2.485,0,0,1,.405,1.44,2.7,2.7,0,0,1-1.133,2.271,4.752,4.752,0,0,1-2.939.854,5.321,5.321,0,0,1-2.246-.449,3.653,3.653,0,0,1-1.528-1.255,3.025,3.025,0,0,1-.552-1.743h1.807a1.87,1.87,0,0,0,.728,1.44,2.822,2.822,0,0,0,1.792.532,2.913,2.913,0,0,0,1.646-.415A1.275,1.275,0,0,0,124.05,70.2Zm3.682-2.578a6.241,6.241,0,0,1,.61-2.793,4.553,4.553,0,0,1,1.7-1.914,4.626,4.626,0,0,1,2.485-.674,4.456,4.456,0,0,1,3.491,1.494,5.748,5.748,0,0,1,1.333,3.975v.127a6.3,6.3,0,0,1-.591,2.769,4.486,4.486,0,0,1-1.689,1.909,4.679,4.679,0,0,1-2.524.684,4.445,4.445,0,0,1-3.481-1.494,5.719,5.719,0,0,1-1.333-3.955Zm1.816.215a4.52,4.52,0,0,0,.815,2.822,2.763,2.763,0,0,0,4.37-.015,4.943,4.943,0,0,0,.811-3.022,4.513,4.513,0,0,0-.825-2.817,2.623,2.623,0,0,0-2.192-1.079,2.594,2.594,0,0,0-2.158,1.064A4.906,4.906,0,0,0,129.548,67.834Zm15.176-3.779a5.414,5.414,0,0,0-.889-.068,2.381,2.381,0,0,0-2.412,1.514V73h-1.807V62.434h1.758l.029,1.221a2.813,2.813,0,0,1,2.52-1.416,1.846,1.846,0,0,1,.8.137Zm5.713,7.666a2.6,2.6,0,0,0,1.689-.586,2.061,2.061,0,0,0,.8-1.465h1.709a3.276,3.276,0,0,1-.625,1.729,4.116,4.116,0,0,1-1.538,1.309,4.438,4.438,0,0,1-2.036.488A4.353,4.353,0,0,1,147,71.755a5.737,5.737,0,0,1-1.274-3.94v-.3a6.361,6.361,0,0,1,.566-2.744,4.314,4.314,0,0,1,1.626-1.865,4.619,4.619,0,0,1,2.5-.664,4.238,4.238,0,0,1,2.954,1.064,3.8,3.8,0,0,1,1.255,2.764h-1.709a2.49,2.49,0,0,0-.776-1.685,2.415,2.415,0,0,0-1.724-.659,2.529,2.529,0,0,0-2.134.991,4.655,4.655,0,0,0-.757,2.866v.342a4.562,4.562,0,0,0,.752,2.813A2.541,2.541,0,0,0,150.437,71.721ZM158.63,73h-1.807V62.434h1.807Zm-1.953-13.369a1.078,1.078,0,0,1,.269-.742,1.008,1.008,0,0,1,.8-.3,1.024,1.024,0,0,1,.8.3,1.067,1.067,0,0,1,.273.742,1.032,1.032,0,0,1-.273.732,1.043,1.043,0,0,1-.8.293,1.026,1.026,0,0,1-.8-.293A1.043,1.043,0,0,1,156.677,59.631Zm4.365,7.988a6.241,6.241,0,0,1,.61-2.793,4.553,4.553,0,0,1,1.7-1.914,4.626,4.626,0,0,1,2.485-.674,4.456,4.456,0,0,1,3.491,1.494,5.748,5.748,0,0,1,1.333,3.975v.127a6.3,6.3,0,0,1-.591,2.769,4.486,4.486,0,0,1-1.689,1.909,4.679,4.679,0,0,1-2.524.684,4.445,4.445,0,0,1-3.481-1.494,5.719,5.719,0,0,1-1.333-3.955Zm1.816.215a4.52,4.52,0,0,0,.815,2.822,2.763,2.763,0,0,0,4.37-.015,4.943,4.943,0,0,0,.811-3.022,4.513,4.513,0,0,0-.825-2.817,2.623,2.623,0,0,0-2.192-1.079,2.594,2.594,0,0,0-2.158,1.064A4.906,4.906,0,0,0,162.858,67.834Zm3.8-9.834h2.188l-2.617,2.871-1.455,0Zm7.979,4.434.059,1.328a3.851,3.851,0,0,1,3.164-1.523q3.35,0,3.379,3.779V73h-1.807V66.008a2.433,2.433,0,0,0-.522-1.689,2.094,2.094,0,0,0-1.6-.547,2.607,2.607,0,0,0-1.543.469,3.183,3.183,0,0,0-1.035,1.23V73h-1.807V62.434Zm13.838,5.2a6.19,6.19,0,0,1,1.152-3.911,3.921,3.921,0,0,1,5.957-.21V58h1.807V73h-1.66l-.088-1.133a3.679,3.679,0,0,1-3.018,1.328,3.609,3.609,0,0,1-2.993-1.5,6.26,6.26,0,0,1-1.157-3.926Zm1.807.205a4.687,4.687,0,0,0,.742,2.813,2.4,2.4,0,0,0,2.051,1.016,2.636,2.636,0,0,0,2.51-1.543V65.266a2.656,2.656,0,0,0-2.49-1.494,2.411,2.411,0,0,0-2.07,1.025A5.16,5.16,0,0,0,190.28,67.834Zm14.3,5.361a4.617,4.617,0,0,1-3.5-1.411,5.237,5.237,0,0,1-1.348-3.774v-.332a6.341,6.341,0,0,1,.6-2.808,4.685,4.685,0,0,1,1.68-1.934,4.223,4.223,0,0,1,2.339-.7,3.957,3.957,0,0,1,3.2,1.357,5.877,5.877,0,0,1,1.143,3.887v.752H201.54a3.756,3.756,0,0,0,.913,2.524,2.87,2.87,0,0,0,2.222.962,3.147,3.147,0,0,0,1.621-.391,4.073,4.073,0,0,0,1.162-1.035l1.1.859A4.437,4.437,0,0,1,204.577,73.2Zm-.225-9.473a2.41,2.41,0,0,0-1.836.8,3.868,3.868,0,0,0-.918,2.231h5.293v-.137a3.441,3.441,0,0,0-.742-2.134A2.269,2.269,0,0,0,204.353,63.723ZM66.3,88.434l.059,1.328a3.85,3.85,0,0,1,3.164-1.523q3.35,0,3.379,3.779V99H71.1V92.008a2.432,2.432,0,0,0-.522-1.689,2.094,2.094,0,0,0-1.6-.547,2.607,2.607,0,0,0-1.543.469,3.183,3.183,0,0,0-1.035,1.23V99H64.592V88.434Zm15.85,9.521a3.837,3.837,0,0,1-3.1,1.24,3.285,3.285,0,0,1-2.573-.981,4.248,4.248,0,0,1-.894-2.905V88.434h1.807V95.26q0,2.4,1.953,2.4A2.7,2.7,0,0,0,82.1,96.119V88.434h1.807V99H82.189ZM89.1,85.875v2.559h1.973v1.4H89.1v6.561a1.467,1.467,0,0,0,.264.953,1.11,1.11,0,0,0,.9.318,4.374,4.374,0,0,0,.859-.117V99a5.268,5.268,0,0,1-1.387.194,2.25,2.25,0,0,1-1.826-.732,3.147,3.147,0,0,1-.615-2.08V89.83H85.373v-1.4H87.3V85.875Zm9.189,4.18a5.414,5.414,0,0,0-.889-.068A2.381,2.381,0,0,0,94.992,91.5V99H93.186V88.434h1.758l.029,1.221a2.813,2.813,0,0,1,2.52-1.416,1.846,1.846,0,0,1,.8.137ZM101.916,99h-1.807V88.434h1.807ZM99.963,85.631a1.078,1.078,0,0,1,.269-.742,1.008,1.008,0,0,1,.8-.3,1.024,1.024,0,0,1,.8.3,1.067,1.067,0,0,1,.273.742,1.032,1.032,0,0,1-.273.732,1.043,1.043,0,0,1-.8.293,1.026,1.026,0,0,1-.8-.293A1.043,1.043,0,0,1,99.963,85.631ZM109.191,99.2a4.617,4.617,0,0,1-3.5-1.411,5.237,5.237,0,0,1-1.348-3.774v-.332a6.341,6.341,0,0,1,.6-2.808,4.685,4.685,0,0,1,1.68-1.934,4.223,4.223,0,0,1,2.339-.7,3.957,3.957,0,0,1,3.2,1.357,5.877,5.877,0,0,1,1.143,3.887v.752h-7.158a3.756,3.756,0,0,0,.913,2.524,2.87,2.87,0,0,0,2.222.962,3.147,3.147,0,0,0,1.621-.391,4.073,4.073,0,0,0,1.162-1.035l1.1.859A4.437,4.437,0,0,1,109.191,99.2Zm-.225-9.473a2.41,2.41,0,0,0-1.836.8,3.869,3.869,0,0,0-.918,2.231h5.293v-.137a3.441,3.441,0,0,0-.742-2.134A2.269,2.269,0,0,0,108.967,89.723Zm8.145-1.289.059,1.328a3.85,3.85,0,0,1,3.164-1.523q3.35,0,3.379,3.779V99h-1.807V92.008a2.432,2.432,0,0,0-.522-1.689,2.094,2.094,0,0,0-1.6-.547,2.607,2.607,0,0,0-1.543.469,3.183,3.183,0,0,0-1.035,1.23V99H115.4V88.434Zm11.777-2.559v2.559h1.973v1.4h-1.973v6.561a1.467,1.467,0,0,0,.264.953,1.11,1.11,0,0,0,.9.318,4.374,4.374,0,0,0,.859-.117V99a5.268,5.268,0,0,1-1.387.194,2.25,2.25,0,0,1-1.826-.732,3.147,3.147,0,0,1-.615-2.08V89.83h-1.924v-1.4h1.924V85.875Zm8.467,13.32a4.617,4.617,0,0,1-3.5-1.411,5.237,5.237,0,0,1-1.348-3.774v-.332a6.341,6.341,0,0,1,.6-2.808,4.685,4.685,0,0,1,1.68-1.934,4.223,4.223,0,0,1,2.339-.7,3.957,3.957,0,0,1,3.2,1.357,5.877,5.877,0,0,1,1.143,3.887v.752h-7.158a3.756,3.756,0,0,0,.913,2.524,2.87,2.87,0,0,0,2.222.962,3.147,3.147,0,0,0,1.621-.391,4.073,4.073,0,0,0,1.162-1.035l1.1.859A4.437,4.437,0,0,1,137.355,99.2Zm-.225-9.473a2.41,2.41,0,0,0-1.836.8,3.868,3.868,0,0,0-.918,2.231h5.293v-.137a3.441,3.441,0,0,0-.742-2.134A2.269,2.269,0,0,0,137.131,89.723ZM149.719,96.2a1.33,1.33,0,0,0-.552-1.138,5.311,5.311,0,0,0-1.924-.7,9.1,9.1,0,0,1-2.178-.7,3.1,3.1,0,0,1-1.191-.977,2.336,2.336,0,0,1-.386-1.348,2.741,2.741,0,0,1,1.1-2.2,4.29,4.29,0,0,1,2.808-.9,4.415,4.415,0,0,1,2.915.928,2.947,2.947,0,0,1,1.118,2.373h-1.816a1.631,1.631,0,0,0-.63-1.279,2.36,2.36,0,0,0-1.587-.537,2.47,2.47,0,0,0-1.543.43,1.353,1.353,0,0,0-.557,1.123,1.1,1.1,0,0,0,.518.986,6.368,6.368,0,0,0,1.87.635,9.744,9.744,0,0,1,2.192.723,3.2,3.2,0,0,1,1.245,1.011,2.485,2.485,0,0,1,.405,1.44,2.7,2.7,0,0,1-1.133,2.271,4.752,4.752,0,0,1-2.939.854,5.321,5.321,0,0,1-2.246-.449,3.653,3.653,0,0,1-1.528-1.255,3.025,3.025,0,0,1-.552-1.743h1.807a1.87,1.87,0,0,0,.728,1.44,2.822,2.822,0,0,0,1.792.532,2.913,2.913,0,0,0,1.646-.415A1.275,1.275,0,0,0,149.719,96.2Zm4.2,1.855a1.131,1.131,0,0,1,.278-.781,1.061,1.061,0,0,1,.835-.312,1.092,1.092,0,0,1,.845.313,1.109,1.109,0,0,1,.288.781,1.048,1.048,0,0,1-.288.752,1.112,1.112,0,0,1-.845.3,1,1,0,0,1-1.113-1.055Z" transform="translate(113.5 -326.897)" fill="#12263f"/>
    <path id="Trazado_678205" data-name="Trazado 678205" d="M12.3,14.428H6.143v5.039H13.3V21H4.268V6.781H13.2V8.314H6.143v4.58H12.3Zm9.2,3.77a1.33,1.33,0,0,0-.552-1.138,5.311,5.311,0,0,0-1.924-.7,9.1,9.1,0,0,1-2.178-.7,3.1,3.1,0,0,1-1.191-.977,2.336,2.336,0,0,1-.386-1.348,2.741,2.741,0,0,1,1.1-2.2,4.291,4.291,0,0,1,2.808-.9,4.415,4.415,0,0,1,2.915.928,2.947,2.947,0,0,1,1.118,2.373H21.4a1.631,1.631,0,0,0-.63-1.279,2.36,2.36,0,0,0-1.587-.537,2.47,2.47,0,0,0-1.543.43,1.353,1.353,0,0,0-.557,1.123,1.1,1.1,0,0,0,.518.986,6.368,6.368,0,0,0,1.87.635,9.744,9.744,0,0,1,2.192.723,3.2,3.2,0,0,1,1.245,1.011,2.485,2.485,0,0,1,.405,1.44,2.7,2.7,0,0,1-1.133,2.271,4.752,4.752,0,0,1-2.939.854,5.321,5.321,0,0,1-2.246-.449,3.653,3.653,0,0,1-1.528-1.255,3.025,3.025,0,0,1-.552-1.743h1.807a1.87,1.87,0,0,0,.728,1.44,2.822,2.822,0,0,0,1.792.532,2.913,2.913,0,0,0,1.646-.415A1.275,1.275,0,0,0,21.5,18.2ZM28.115,7.875v2.559h1.973v1.4H28.115v6.561a1.467,1.467,0,0,0,.264.953,1.11,1.11,0,0,0,.9.318,4.374,4.374,0,0,0,.859-.117V21a5.268,5.268,0,0,1-1.387.194,2.25,2.25,0,0,1-1.826-.732,3.147,3.147,0,0,1-.615-2.08V11.83H24.385v-1.4h1.924V7.875Zm9.189,4.18a5.414,5.414,0,0,0-.889-.068A2.381,2.381,0,0,0,34,13.5V21H32.2V10.434h1.758l.029,1.221a2.813,2.813,0,0,1,2.52-1.416,1.846,1.846,0,0,1,.8.137Zm8.184,7.9a3.837,3.837,0,0,1-3.1,1.24,3.285,3.285,0,0,1-2.573-.981,4.248,4.248,0,0,1-.894-2.905V10.434h1.807V17.26q0,2.4,1.953,2.4a2.7,2.7,0,0,0,2.754-1.543V10.434h1.807V21H45.527Zm8.74-.234a2.6,2.6,0,0,0,1.689-.586,2.061,2.061,0,0,0,.8-1.465h1.709A3.276,3.276,0,0,1,57.8,19.4a4.116,4.116,0,0,1-1.538,1.309,4.438,4.438,0,0,1-2.036.488,4.353,4.353,0,0,1-3.433-1.44,5.737,5.737,0,0,1-1.274-3.94v-.3a6.361,6.361,0,0,1,.566-2.744A4.314,4.314,0,0,1,51.714,10.9a4.619,4.619,0,0,1,2.5-.664A4.238,4.238,0,0,1,57.173,11.3a3.8,3.8,0,0,1,1.255,2.764H56.719a2.49,2.49,0,0,0-.776-1.685,2.415,2.415,0,0,0-1.724-.659,2.529,2.529,0,0,0-2.134.991,4.655,4.655,0,0,0-.757,2.866v.342a4.562,4.562,0,0,0,.752,2.813A2.541,2.541,0,0,0,54.229,19.721ZM62.91,7.875v2.559h1.973v1.4H62.91v6.561a1.467,1.467,0,0,0,.264.953,1.11,1.11,0,0,0,.9.318,4.374,4.374,0,0,0,.859-.117V21a5.268,5.268,0,0,1-1.387.194,2.25,2.25,0,0,1-1.826-.732,3.147,3.147,0,0,1-.615-2.08V11.83H59.18v-1.4H61.1V7.875Zm10.605,12.08a3.837,3.837,0,0,1-3.1,1.24,3.285,3.285,0,0,1-2.573-.981,4.248,4.248,0,0,1-.894-2.905V10.434H68.76V17.26q0,2.4,1.953,2.4a2.7,2.7,0,0,0,2.754-1.543V10.434h1.807V21H73.555Zm9.609-7.9a5.414,5.414,0,0,0-.889-.068A2.381,2.381,0,0,0,79.824,13.5V21H78.018V10.434h1.758l.029,1.221a2.813,2.813,0,0,1,2.52-1.416,1.846,1.846,0,0,1,.8.137ZM90.918,21a3.8,3.8,0,0,1-.254-1.113A4.031,4.031,0,0,1,87.656,21.2a3.73,3.73,0,0,1-2.563-.884,2.859,2.859,0,0,1-1-2.241,2.987,2.987,0,0,1,1.255-2.563,5.916,5.916,0,0,1,3.53-.913h1.758v-.83a2.029,2.029,0,0,0-.566-1.509,2.276,2.276,0,0,0-1.67-.562,2.634,2.634,0,0,0-1.621.488,1.439,1.439,0,0,0-.654,1.182H84.307a2.493,2.493,0,0,1,.562-1.528,3.832,3.832,0,0,1,1.523-1.167,5.125,5.125,0,0,1,2.114-.43,4.177,4.177,0,0,1,2.861.913,3.294,3.294,0,0,1,1.074,2.515v4.863a5.946,5.946,0,0,0,.371,2.314V21Zm-3-1.377a3.175,3.175,0,0,0,1.611-.439,2.658,2.658,0,0,0,1.1-1.143V15.873H89.219q-3.32,0-3.32,1.943a1.645,1.645,0,0,0,.566,1.328A2.177,2.177,0,0,0,87.92,19.623ZM102.188,21h-1.807V10.434h1.807ZM100.234,7.631a1.078,1.078,0,0,1,.269-.742,1.008,1.008,0,0,1,.8-.3,1.024,1.024,0,0,1,.8.3,1.067,1.067,0,0,1,.273.742,1.032,1.032,0,0,1-.273.732,1.043,1.043,0,0,1-.8.293,1.026,1.026,0,0,1-.8-.293A1.043,1.043,0,0,1,100.234,7.631Zm6.553,2.8.059,1.328a3.85,3.85,0,0,1,3.164-1.523q3.35,0,3.379,3.779V21h-1.807V14.008a2.432,2.432,0,0,0-.522-1.689,2.094,2.094,0,0,0-1.6-.547,2.607,2.607,0,0,0-1.543.469,3.183,3.183,0,0,0-1.035,1.23V21h-1.807V10.434Zm11.777-2.559v2.559h1.973v1.4h-1.973v6.561a1.467,1.467,0,0,0,.264.953,1.11,1.11,0,0,0,.9.318,4.374,4.374,0,0,0,.859-.117V21a5.268,5.268,0,0,1-1.387.194,2.25,2.25,0,0,1-1.826-.732,3.147,3.147,0,0,1-.615-2.08V11.83h-1.924v-1.4h1.924V7.875Zm8.467,13.32a4.617,4.617,0,0,1-3.5-1.411,5.237,5.237,0,0,1-1.348-3.774v-.332a6.341,6.341,0,0,1,.6-2.808,4.685,4.685,0,0,1,1.68-1.934,4.223,4.223,0,0,1,2.339-.7,3.957,3.957,0,0,1,3.2,1.357,5.877,5.877,0,0,1,1.143,3.887v.752h-7.158a3.756,3.756,0,0,0,.913,2.524,2.87,2.87,0,0,0,2.222.962,3.147,3.147,0,0,0,1.621-.391,4.073,4.073,0,0,0,1.162-1.035l1.1.859A4.437,4.437,0,0,1,127.031,21.2Zm-.225-9.473a2.41,2.41,0,0,0-1.836.8,3.869,3.869,0,0,0-.918,2.231h5.293v-.137a3.441,3.441,0,0,0-.742-2.134A2.269,2.269,0,0,0,126.807,11.723Zm11.543.332a5.414,5.414,0,0,0-.889-.068,2.381,2.381,0,0,0-2.412,1.514V21h-1.807V10.434H135l.029,1.221a2.813,2.813,0,0,1,2.52-1.416,1.846,1.846,0,0,1,.8.137Zm3.369-1.621.059,1.328a3.851,3.851,0,0,1,3.164-1.523q3.35,0,3.379,3.779V21h-1.807V14.008a2.433,2.433,0,0,0-.522-1.689,2.094,2.094,0,0,0-1.6-.547,2.607,2.607,0,0,0-1.543.469,3.183,3.183,0,0,0-1.035,1.23V21H140.01V10.434ZM157.568,21a3.8,3.8,0,0,1-.254-1.113,4.031,4.031,0,0,1-3.008,1.309,3.73,3.73,0,0,1-2.563-.884,2.859,2.859,0,0,1-1-2.241A2.987,2.987,0,0,1,152,15.507a5.916,5.916,0,0,1,3.53-.913h1.758v-.83a2.029,2.029,0,0,0-.566-1.509,2.276,2.276,0,0,0-1.67-.562,2.634,2.634,0,0,0-1.621.488,1.439,1.439,0,0,0-.654,1.182h-1.816a2.493,2.493,0,0,1,.562-1.528,3.832,3.832,0,0,1,1.523-1.167,5.125,5.125,0,0,1,2.114-.43,4.177,4.177,0,0,1,2.861.913,3.294,3.294,0,0,1,1.074,2.515v4.863a5.946,5.946,0,0,0,.371,2.314V21Zm-3-1.377a3.175,3.175,0,0,0,1.611-.439,2.658,2.658,0,0,0,1.1-1.143V15.873h-1.416q-3.32,0-3.32,1.943a1.645,1.645,0,0,0,.566,1.328A2.177,2.177,0,0,0,154.57,19.623Zm11.865-3.994a6.19,6.19,0,0,1,1.152-3.911,3.921,3.921,0,0,1,5.957-.21V6h1.807V21h-1.66l-.088-1.133a3.679,3.679,0,0,1-3.018,1.328,3.609,3.609,0,0,1-2.993-1.5,6.26,6.26,0,0,1-1.157-3.926Zm1.807.205a4.687,4.687,0,0,0,.742,2.813,2.4,2.4,0,0,0,2.051,1.016,2.636,2.636,0,0,0,2.51-1.543V13.266a2.656,2.656,0,0,0-2.49-1.494,2.411,2.411,0,0,0-2.07,1.025A5.16,5.16,0,0,0,168.242,15.834Zm14.3,5.361a4.617,4.617,0,0,1-3.5-1.411A5.237,5.237,0,0,1,177.7,16.01v-.332a6.341,6.341,0,0,1,.6-2.808,4.685,4.685,0,0,1,1.68-1.934,4.223,4.223,0,0,1,2.339-.7,3.957,3.957,0,0,1,3.2,1.357,5.877,5.877,0,0,1,1.143,3.887v.752H179.5a3.756,3.756,0,0,0,.913,2.524,2.87,2.87,0,0,0,2.222.962,3.147,3.147,0,0,0,1.621-.391,4.073,4.073,0,0,0,1.162-1.035l1.1.859A4.437,4.437,0,0,1,182.539,21.2Zm-.225-9.473a2.41,2.41,0,0,0-1.836.8,3.868,3.868,0,0,0-.918,2.231h5.293v-.137a3.441,3.441,0,0,0-.742-2.134A2.269,2.269,0,0,0,182.314,11.723ZM13.354,47H11.548V32h1.807Zm9.414,0a3.8,3.8,0,0,1-.254-1.113A4.031,4.031,0,0,1,19.507,47.2a3.73,3.73,0,0,1-2.563-.884,2.859,2.859,0,0,1-1-2.241A2.987,2.987,0,0,1,17.2,41.507a5.916,5.916,0,0,1,3.53-.913h1.758v-.83a2.029,2.029,0,0,0-.566-1.509,2.276,2.276,0,0,0-1.67-.562,2.634,2.634,0,0,0-1.621.488,1.439,1.439,0,0,0-.654,1.182H16.157a2.493,2.493,0,0,1,.562-1.528,3.832,3.832,0,0,1,1.523-1.167,5.125,5.125,0,0,1,2.114-.43,4.177,4.177,0,0,1,2.861.913,3.294,3.294,0,0,1,1.074,2.515v4.863a5.946,5.946,0,0,0,.371,2.314V47Zm-3-1.377a3.175,3.175,0,0,0,1.611-.439,2.658,2.658,0,0,0,1.1-1.143V41.873H21.069q-3.32,0-3.32,1.943a1.645,1.645,0,0,0,.566,1.328A2.177,2.177,0,0,0,19.771,45.623Zm17.412-7.568a5.414,5.414,0,0,0-.889-.068A2.381,2.381,0,0,0,33.882,39.5V47H32.075V36.434h1.758l.029,1.221a2.813,2.813,0,0,1,2.52-1.416,1.846,1.846,0,0,1,.8.137ZM44.976,47a3.8,3.8,0,0,1-.254-1.113A4.031,4.031,0,0,1,41.714,47.2a3.73,3.73,0,0,1-2.563-.884,2.859,2.859,0,0,1-1-2.241A2.987,2.987,0,0,1,39.4,41.507a5.916,5.916,0,0,1,3.53-.913h1.758v-.83a2.029,2.029,0,0,0-.566-1.509,2.276,2.276,0,0,0-1.67-.562,2.634,2.634,0,0,0-1.621.488,1.439,1.439,0,0,0-.654,1.182H38.364a2.493,2.493,0,0,1,.562-1.528,3.832,3.832,0,0,1,1.523-1.167,5.125,5.125,0,0,1,2.114-.43,4.177,4.177,0,0,1,2.861.913A3.294,3.294,0,0,1,46.5,39.666v4.863a5.946,5.946,0,0,0,.371,2.314V47Zm-3-1.377a3.175,3.175,0,0,0,1.611-.439,2.658,2.658,0,0,0,1.1-1.143V41.873H43.276q-3.32,0-3.32,1.943a1.645,1.645,0,0,0,.566,1.328A2.177,2.177,0,0,0,41.978,45.623ZM51.294,47H49.478V36.434h1.816Zm.02-14.99H53.5l-2.617,2.871-1.455,0Zm4.658,13.516h6.182V47H53.765V45.672l5.83-7.744H53.853V36.434H61.86v1.279Zm8.154,4.307-1.025-.7a4.712,4.712,0,0,0,.957-2.637V44.861h1.768v1.416a4.448,4.448,0,0,1-.483,1.973A4.618,4.618,0,0,1,64.126,49.832Zm8.5-8.2a6.19,6.19,0,0,1,1.152-3.911,3.921,3.921,0,0,1,5.957-.21V32h1.807V47h-1.66l-.088-1.133A3.679,3.679,0,0,1,76.772,47.2a3.609,3.609,0,0,1-2.993-1.5,6.26,6.26,0,0,1-1.157-3.926Zm1.807.205a4.687,4.687,0,0,0,.742,2.813,2.4,2.4,0,0,0,2.051,1.016,2.636,2.636,0,0,0,2.51-1.543V39.266a2.656,2.656,0,0,0-2.49-1.494,2.411,2.411,0,0,0-2.07,1.025A5.16,5.16,0,0,0,74.429,41.834Zm14.3,5.361a4.617,4.617,0,0,1-3.5-1.411,5.237,5.237,0,0,1-1.348-3.774v-.332a6.341,6.341,0,0,1,.6-2.808,4.685,4.685,0,0,1,1.68-1.934,4.223,4.223,0,0,1,2.339-.7A3.957,3.957,0,0,1,91.7,37.6a5.877,5.877,0,0,1,1.143,3.887v.752H85.688a3.756,3.756,0,0,0,.913,2.524,2.87,2.87,0,0,0,2.222.962,3.147,3.147,0,0,0,1.621-.391,4.073,4.073,0,0,0,1.162-1.035l1.1.859A4.437,4.437,0,0,1,88.726,47.2ZM88.5,37.723a2.41,2.41,0,0,0-1.836.8,3.869,3.869,0,0,0-.918,2.231H91.04v-.137a3.441,3.441,0,0,0-.742-2.134A2.269,2.269,0,0,0,88.5,37.723Zm15.361,4.111a6.327,6.327,0,0,1-1.1,3.887A3.537,3.537,0,0,1,99.771,47.2a3.875,3.875,0,0,1-3.027-1.221v5.088H94.937V36.434h1.65l.088,1.172a3.722,3.722,0,0,1,3.066-1.367,3.6,3.6,0,0,1,3.013,1.436,6.4,6.4,0,0,1,1.108,3.994Zm-1.807-.205a4.669,4.669,0,0,0-.762-2.822,2.454,2.454,0,0,0-2.09-1.035,2.656,2.656,0,0,0-2.461,1.455v5.049a2.661,2.661,0,0,0,2.48,1.445,2.442,2.442,0,0,0,2.065-1.03A5.1,5.1,0,0,0,102.056,41.629Zm8.486,5.566a4.617,4.617,0,0,1-3.5-1.411A5.237,5.237,0,0,1,105.7,42.01v-.332a6.341,6.341,0,0,1,.6-2.808,4.685,4.685,0,0,1,1.68-1.934,4.223,4.223,0,0,1,2.339-.7,3.957,3.957,0,0,1,3.2,1.357,5.877,5.877,0,0,1,1.143,3.887v.752H107.5a3.756,3.756,0,0,0,.913,2.524,2.87,2.87,0,0,0,2.222.962,3.147,3.147,0,0,0,1.621-.391,4.073,4.073,0,0,0,1.162-1.035l1.1.859A4.437,4.437,0,0,1,110.542,47.2Zm-.225-9.473a2.41,2.41,0,0,0-1.836.8,3.869,3.869,0,0,0-.918,2.231h5.293v-.137a3.441,3.441,0,0,0-.742-2.134A2.269,2.269,0,0,0,110.317,37.723Zm8.145-1.289.059,1.328a3.85,3.85,0,0,1,3.164-1.523q3.35,0,3.379,3.779V47h-1.807V40.008a2.432,2.432,0,0,0-.522-1.689,2.094,2.094,0,0,0-1.6-.547,2.607,2.607,0,0,0-1.543.469,3.183,3.183,0,0,0-1.035,1.23V47h-1.807V36.434Zm8.887,5.2a6.19,6.19,0,0,1,1.152-3.911,3.921,3.921,0,0,1,5.957-.21V32h1.807V47H134.6l-.088-1.133A3.679,3.679,0,0,1,131.5,47.2a3.609,3.609,0,0,1-2.993-1.5,6.26,6.26,0,0,1-1.157-3.926Zm1.807.205a4.687,4.687,0,0,0,.742,2.813,2.4,2.4,0,0,0,2.051,1.016,2.636,2.636,0,0,0,2.51-1.543V39.266a2.656,2.656,0,0,0-2.49-1.494A2.411,2.411,0,0,0,129.9,38.8,5.16,5.16,0,0,0,129.155,41.834Zm14.3,5.361a4.617,4.617,0,0,1-3.5-1.411,5.237,5.237,0,0,1-1.348-3.774v-.332a6.341,6.341,0,0,1,.6-2.808,4.685,4.685,0,0,1,1.68-1.934,4.223,4.223,0,0,1,2.339-.7,3.957,3.957,0,0,1,3.2,1.357,5.877,5.877,0,0,1,1.143,3.887v.752h-7.158a3.756,3.756,0,0,0,.913,2.524,2.87,2.87,0,0,0,2.222.962,3.147,3.147,0,0,0,1.621-.391,4.073,4.073,0,0,0,1.162-1.035l1.1.859A4.437,4.437,0,0,1,143.452,47.2Zm-.225-9.473a2.41,2.41,0,0,0-1.836.8,3.868,3.868,0,0,0-.918,2.231h5.293v-.137a3.441,3.441,0,0,0-.742-2.134A2.269,2.269,0,0,0,143.228,37.723Zm10.947,3.906a6.19,6.19,0,0,1,1.152-3.911,3.921,3.921,0,0,1,5.957-.21V32h1.807V47h-1.66l-.088-1.133a3.679,3.679,0,0,1-3.018,1.328,3.609,3.609,0,0,1-2.993-1.5,6.26,6.26,0,0,1-1.157-3.926Zm1.807.205a4.687,4.687,0,0,0,.742,2.813,2.4,2.4,0,0,0,2.051,1.016,2.636,2.636,0,0,0,2.51-1.543V39.266a2.656,2.656,0,0,0-2.49-1.494,2.411,2.411,0,0,0-2.07,1.025A5.16,5.16,0,0,0,155.981,41.834Zm14.3,5.361a4.617,4.617,0,0,1-3.5-1.411,5.237,5.237,0,0,1-1.348-3.774v-.332a6.341,6.341,0,0,1,.6-2.808,4.685,4.685,0,0,1,1.68-1.934,4.223,4.223,0,0,1,2.339-.7,3.957,3.957,0,0,1,3.2,1.357,5.877,5.877,0,0,1,1.143,3.887v.752h-7.158a3.756,3.756,0,0,0,.913,2.524,2.87,2.87,0,0,0,2.222.962A3.147,3.147,0,0,0,172,45.33a4.073,4.073,0,0,0,1.162-1.035l1.1.859A4.437,4.437,0,0,1,170.278,47.2Zm-.225-9.473a2.41,2.41,0,0,0-1.836.8,3.868,3.868,0,0,0-.918,2.231h5.293v-.137a3.441,3.441,0,0,0-.742-2.134A2.269,2.269,0,0,0,170.054,37.723Zm8.4,9.277h-1.807V32h1.807ZM7.886,67.629a6.19,6.19,0,0,1,1.152-3.911,3.644,3.644,0,0,1,3.018-1.479A3.665,3.665,0,0,1,15,63.508V58H16.8V73h-1.66l-.088-1.133A3.679,3.679,0,0,1,12.036,73.2a3.609,3.609,0,0,1-2.993-1.5,6.26,6.26,0,0,1-1.157-3.926Zm1.807.205a4.687,4.687,0,0,0,.742,2.813,2.4,2.4,0,0,0,2.051,1.016A2.636,2.636,0,0,0,15,70.119V65.266a2.656,2.656,0,0,0-2.49-1.494,2.411,2.411,0,0,0-2.07,1.025A5.16,5.16,0,0,0,9.692,67.834Zm14.3,5.361a4.617,4.617,0,0,1-3.5-1.411,5.237,5.237,0,0,1-1.348-3.774v-.332a6.341,6.341,0,0,1,.6-2.808,4.685,4.685,0,0,1,1.68-1.934,4.223,4.223,0,0,1,2.339-.7,3.957,3.957,0,0,1,3.2,1.357,5.877,5.877,0,0,1,1.143,3.887v.752H20.952a3.756,3.756,0,0,0,.913,2.524,2.87,2.87,0,0,0,2.222.962,3.147,3.147,0,0,0,1.621-.391,4.073,4.073,0,0,0,1.162-1.035l1.1.859A4.437,4.437,0,0,1,23.989,73.2Zm-.225-9.473a2.41,2.41,0,0,0-1.836.8,3.869,3.869,0,0,0-.918,2.231H26.3v-.137a3.441,3.441,0,0,0-.742-2.134A2.269,2.269,0,0,0,23.765,63.723ZM36.353,70.2A1.33,1.33,0,0,0,35.8,69.06a5.311,5.311,0,0,0-1.924-.7,9.1,9.1,0,0,1-2.178-.7,3.1,3.1,0,0,1-1.191-.977,2.336,2.336,0,0,1-.386-1.348,2.741,2.741,0,0,1,1.1-2.2,4.291,4.291,0,0,1,2.808-.9,4.415,4.415,0,0,1,2.915.928,2.947,2.947,0,0,1,1.118,2.373H36.245a1.631,1.631,0,0,0-.63-1.279,2.36,2.36,0,0,0-1.587-.537,2.47,2.47,0,0,0-1.543.43,1.353,1.353,0,0,0-.557,1.123,1.1,1.1,0,0,0,.518.986,6.368,6.368,0,0,0,1.87.635,9.744,9.744,0,0,1,2.192.723,3.2,3.2,0,0,1,1.245,1.011,2.485,2.485,0,0,1,.405,1.44,2.7,2.7,0,0,1-1.133,2.271,4.752,4.752,0,0,1-2.939.854,5.321,5.321,0,0,1-2.246-.449,3.653,3.653,0,0,1-1.528-1.255,3.025,3.025,0,0,1-.552-1.743h1.807a1.87,1.87,0,0,0,.728,1.44,2.822,2.822,0,0,0,1.792.532,2.913,2.913,0,0,0,1.646-.415A1.275,1.275,0,0,0,36.353,70.2ZM47.036,73a3.8,3.8,0,0,1-.254-1.113A4.031,4.031,0,0,1,43.774,73.2a3.73,3.73,0,0,1-2.563-.884,2.859,2.859,0,0,1-1-2.241,2.987,2.987,0,0,1,1.255-2.563A5.916,5.916,0,0,1,45,66.594h1.758v-.83a2.029,2.029,0,0,0-.566-1.509,2.276,2.276,0,0,0-1.67-.562,2.634,2.634,0,0,0-1.621.488,1.439,1.439,0,0,0-.654,1.182H40.425a2.493,2.493,0,0,1,.562-1.528,3.832,3.832,0,0,1,1.523-1.167,5.125,5.125,0,0,1,2.114-.43,4.177,4.177,0,0,1,2.861.913,3.294,3.294,0,0,1,1.074,2.515v4.863a5.946,5.946,0,0,0,.371,2.314V73Zm-3-1.377a3.175,3.175,0,0,0,1.611-.439,2.658,2.658,0,0,0,1.1-1.143V67.873H45.337q-3.32,0-3.32,1.943a1.645,1.645,0,0,0,.566,1.328A2.177,2.177,0,0,0,44.038,71.623ZM56.5,64.055a5.414,5.414,0,0,0-.889-.068A2.381,2.381,0,0,0,53.2,65.5V73H51.392V62.434h1.758l.029,1.221a2.813,2.813,0,0,1,2.52-1.416,1.846,1.846,0,0,1,.8.137Zm6.768,0a5.414,5.414,0,0,0-.889-.068A2.381,2.381,0,0,0,59.966,65.5V73H58.159V62.434h1.758l.029,1.221a2.813,2.813,0,0,1,2.52-1.416,1.846,1.846,0,0,1,.8.137Zm.986,3.564a6.241,6.241,0,0,1,.61-2.793,4.553,4.553,0,0,1,1.7-1.914,4.626,4.626,0,0,1,2.485-.674,4.456,4.456,0,0,1,3.491,1.494,5.748,5.748,0,0,1,1.333,3.975v.127a6.3,6.3,0,0,1-.591,2.769,4.486,4.486,0,0,1-1.689,1.909,4.679,4.679,0,0,1-2.524.684A4.445,4.445,0,0,1,65.586,71.7a5.719,5.719,0,0,1-1.333-3.955Zm1.816.215a4.52,4.52,0,0,0,.815,2.822,2.763,2.763,0,0,0,4.37-.015,4.943,4.943,0,0,0,.811-3.022A4.513,4.513,0,0,0,71.24,64.8a2.623,2.623,0,0,0-2.192-1.079,2.594,2.594,0,0,0-2.158,1.064A4.906,4.906,0,0,0,66.069,67.834ZM78.1,73H76.294V58H78.1Zm4.854,0H81.147V58h1.807Zm2.412-5.381a6.241,6.241,0,0,1,.61-2.793,4.553,4.553,0,0,1,1.7-1.914,4.626,4.626,0,0,1,2.485-.674,4.456,4.456,0,0,1,3.491,1.494,5.748,5.748,0,0,1,1.333,3.975v.127a6.3,6.3,0,0,1-.591,2.769,4.486,4.486,0,0,1-1.689,1.909,4.679,4.679,0,0,1-2.524.684A4.445,4.445,0,0,1,86.7,71.7a5.719,5.719,0,0,1-1.333-3.955Zm1.816.215A4.52,4.52,0,0,0,88,70.656a2.763,2.763,0,0,0,4.37-.015,4.943,4.943,0,0,0,.811-3.022,4.513,4.513,0,0,0-.825-2.817,2.623,2.623,0,0,0-2.192-1.079A2.594,2.594,0,0,0,88,64.787,4.906,4.906,0,0,0,87.183,67.834Zm18.477,2.52,2.461-7.92h1.934l-4.248,12.2q-.986,2.637-3.135,2.637l-.342-.029-.674-.127V75.646l.488.039a2.4,2.4,0,0,0,1.431-.371,2.686,2.686,0,0,0,.845-1.357l.4-1.074-3.77-10.449h1.973ZM118.579,73h-1.807V58h1.807Zm9.414,0a3.8,3.8,0,0,1-.254-1.113,4.031,4.031,0,0,1-3.008,1.309,3.73,3.73,0,0,1-2.563-.884,2.859,2.859,0,0,1-1-2.241,2.987,2.987,0,0,1,1.255-2.563,5.916,5.916,0,0,1,3.53-.913h1.758v-.83a2.029,2.029,0,0,0-.566-1.509,2.276,2.276,0,0,0-1.67-.562,2.634,2.634,0,0,0-1.621.488,1.439,1.439,0,0,0-.654,1.182h-1.816a2.493,2.493,0,0,1,.562-1.528,3.832,3.832,0,0,1,1.523-1.167,5.125,5.125,0,0,1,2.114-.43,4.177,4.177,0,0,1,2.861.913,3.294,3.294,0,0,1,1.074,2.515v4.863a5.946,5.946,0,0,0,.371,2.314V73Zm-3-1.377a3.175,3.175,0,0,0,1.611-.439,2.658,2.658,0,0,0,1.1-1.143V67.873h-1.416q-3.32,0-3.32,1.943a1.645,1.645,0,0,0,.566,1.328A2.177,2.177,0,0,0,125,71.623Zm16.543.1a2.6,2.6,0,0,0,1.689-.586,2.061,2.061,0,0,0,.8-1.465h1.709a3.276,3.276,0,0,1-.625,1.729,4.116,4.116,0,0,1-1.538,1.309,4.438,4.438,0,0,1-2.036.488,4.353,4.353,0,0,1-3.433-1.44,5.737,5.737,0,0,1-1.274-3.94v-.3a6.361,6.361,0,0,1,.566-2.744,4.314,4.314,0,0,1,1.626-1.865,4.619,4.619,0,0,1,2.5-.664,4.238,4.238,0,0,1,2.954,1.064,3.8,3.8,0,0,1,1.255,2.764h-1.709a2.49,2.49,0,0,0-.776-1.685,2.415,2.415,0,0,0-1.724-.659,2.529,2.529,0,0,0-2.134.991,4.655,4.655,0,0,0-.757,2.866v.342a4.562,4.562,0,0,0,.752,2.813A2.541,2.541,0,0,0,141.538,71.721ZM149.731,73h-1.807V58h1.807Zm9.414,0a3.8,3.8,0,0,1-.254-1.113,4.031,4.031,0,0,1-3.008,1.309,3.73,3.73,0,0,1-2.563-.884,2.859,2.859,0,0,1-1-2.241,2.987,2.987,0,0,1,1.255-2.563,5.916,5.916,0,0,1,3.53-.913h1.758v-.83a2.029,2.029,0,0,0-.566-1.509,2.276,2.276,0,0,0-1.67-.562,2.634,2.634,0,0,0-1.621.488,1.439,1.439,0,0,0-.654,1.182h-1.816a2.493,2.493,0,0,1,.562-1.528,3.832,3.832,0,0,1,1.523-1.167,5.125,5.125,0,0,1,2.114-.43,4.177,4.177,0,0,1,2.861.913,3.294,3.294,0,0,1,1.074,2.515v4.863a5.946,5.946,0,0,0,.371,2.314V73Zm-3-1.377a3.175,3.175,0,0,0,1.611-.439,2.658,2.658,0,0,0,1.1-1.143V67.873h-1.416q-3.32,0-3.32,1.943a1.645,1.645,0,0,0,.566,1.328A2.177,2.177,0,0,0,156.147,71.623ZM169.653,70.2a1.33,1.33,0,0,0-.552-1.138,5.311,5.311,0,0,0-1.924-.7,9.1,9.1,0,0,1-2.178-.7,3.1,3.1,0,0,1-1.191-.977,2.336,2.336,0,0,1-.386-1.348,2.741,2.741,0,0,1,1.1-2.2,4.291,4.291,0,0,1,2.808-.9,4.415,4.415,0,0,1,2.915.928,2.947,2.947,0,0,1,1.118,2.373h-1.816a1.631,1.631,0,0,0-.63-1.279,2.36,2.36,0,0,0-1.587-.537,2.47,2.47,0,0,0-1.543.43,1.353,1.353,0,0,0-.557,1.123,1.1,1.1,0,0,0,.518.986,6.368,6.368,0,0,0,1.87.635,9.744,9.744,0,0,1,2.192.723,3.2,3.2,0,0,1,1.245,1.011,2.485,2.485,0,0,1,.405,1.44,2.7,2.7,0,0,1-1.133,2.271,4.752,4.752,0,0,1-2.939.854,5.321,5.321,0,0,1-2.246-.449,3.653,3.653,0,0,1-1.528-1.255,3.025,3.025,0,0,1-.552-1.743h1.807a1.87,1.87,0,0,0,.728,1.44,2.822,2.822,0,0,0,1.792.532,2.913,2.913,0,0,0,1.646-.415A1.275,1.275,0,0,0,169.653,70.2Zm8.545,3a4.617,4.617,0,0,1-3.5-1.411,5.237,5.237,0,0,1-1.348-3.774v-.332a6.341,6.341,0,0,1,.6-2.808,4.685,4.685,0,0,1,1.68-1.934,4.223,4.223,0,0,1,2.339-.7,3.957,3.957,0,0,1,3.2,1.357,5.877,5.877,0,0,1,1.143,3.887v.752h-7.158a3.756,3.756,0,0,0,.913,2.524,2.87,2.87,0,0,0,2.222.962,3.147,3.147,0,0,0,1.621-.391,4.073,4.073,0,0,0,1.162-1.035l1.1.859A4.437,4.437,0,0,1,178.2,73.2Zm-.225-9.473a2.41,2.41,0,0,0-1.836.8,3.868,3.868,0,0,0-.918,2.231h5.293v-.137a3.441,3.441,0,0,0-.742-2.134A2.269,2.269,0,0,0,177.974,63.723ZM52.183,93.629a6.19,6.19,0,0,1,1.152-3.911,3.921,3.921,0,0,1,5.957-.21V84H61.1V99h-1.66l-.088-1.133A3.679,3.679,0,0,1,56.333,99.2a3.609,3.609,0,0,1-2.993-1.5,6.26,6.26,0,0,1-1.157-3.926Zm1.807.205a4.687,4.687,0,0,0,.742,2.813,2.4,2.4,0,0,0,2.051,1.016,2.636,2.636,0,0,0,2.51-1.543V91.266a2.656,2.656,0,0,0-2.49-1.494,2.411,2.411,0,0,0-2.07,1.025A5.16,5.16,0,0,0,53.989,93.834Zm14.3,5.361a4.617,4.617,0,0,1-3.5-1.411,5.237,5.237,0,0,1-1.348-3.774v-.332a6.341,6.341,0,0,1,.6-2.808,4.685,4.685,0,0,1,1.68-1.934,4.223,4.223,0,0,1,2.339-.7,3.957,3.957,0,0,1,3.2,1.357,5.877,5.877,0,0,1,1.143,3.887v.752H65.249a3.756,3.756,0,0,0,.913,2.524,2.87,2.87,0,0,0,2.222.962A3.147,3.147,0,0,0,70,97.33a4.073,4.073,0,0,0,1.162-1.035l1.1.859A4.437,4.437,0,0,1,68.286,99.2Zm-.225-9.473a2.41,2.41,0,0,0-1.836.8,3.869,3.869,0,0,0-.918,2.231H70.6v-.137a3.441,3.441,0,0,0-.742-2.134A2.269,2.269,0,0,0,68.062,89.723Zm20.313,4.111a6.327,6.327,0,0,1-1.1,3.887A3.537,3.537,0,0,1,84.282,99.2a3.875,3.875,0,0,1-3.027-1.221v5.088H79.448V88.434H81.1l.088,1.172a3.722,3.722,0,0,1,3.066-1.367,3.6,3.6,0,0,1,3.013,1.436,6.4,6.4,0,0,1,1.108,3.994Zm-1.807-.205a4.669,4.669,0,0,0-.762-2.822,2.454,2.454,0,0,0-2.09-1.035,2.656,2.656,0,0,0-2.461,1.455v5.049a2.661,2.661,0,0,0,2.48,1.445A2.442,2.442,0,0,0,85.8,96.69,5.1,5.1,0,0,0,86.567,93.629ZM92.632,99H90.825V84h1.807Zm9.414,0a3.8,3.8,0,0,1-.254-1.113A4.031,4.031,0,0,1,98.784,99.2a3.73,3.73,0,0,1-2.563-.884,2.859,2.859,0,0,1-1-2.241,2.987,2.987,0,0,1,1.255-2.563,5.916,5.916,0,0,1,3.53-.913h1.758v-.83a2.029,2.029,0,0,0-.566-1.509,2.276,2.276,0,0,0-1.67-.562,2.634,2.634,0,0,0-1.621.488,1.439,1.439,0,0,0-.654,1.182H95.435A2.493,2.493,0,0,1,96,89.835a3.832,3.832,0,0,1,1.523-1.167,5.125,5.125,0,0,1,2.114-.43,4.177,4.177,0,0,1,2.861.913,3.294,3.294,0,0,1,1.074,2.515v4.863a5.946,5.946,0,0,0,.371,2.314V99Zm-3-1.377a3.175,3.175,0,0,0,1.611-.439,2.658,2.658,0,0,0,1.1-1.143V93.873h-1.416q-3.32,0-3.32,1.943a1.645,1.645,0,0,0,.566,1.328A2.177,2.177,0,0,0,99.048,97.623Zm9.063-9.189.059,1.328a3.85,3.85,0,0,1,3.164-1.523q3.35,0,3.379,3.779V99h-1.807V92.008a2.432,2.432,0,0,0-.522-1.689,2.094,2.094,0,0,0-1.6-.547,2.607,2.607,0,0,0-1.543.469,3.183,3.183,0,0,0-1.035,1.23V99H106.4V88.434Zm11.777-2.559v2.559h1.973v1.4h-1.973v6.561a1.467,1.467,0,0,0,.264.953,1.11,1.11,0,0,0,.9.318,4.374,4.374,0,0,0,.859-.117V99a5.268,5.268,0,0,1-1.387.194,2.25,2.25,0,0,1-1.826-.732,3.147,3.147,0,0,1-.615-2.08V89.83h-1.924v-1.4h1.924V85.875ZM130.493,99a3.8,3.8,0,0,1-.254-1.113,4.031,4.031,0,0,1-3.008,1.309,3.73,3.73,0,0,1-2.563-.884,2.859,2.859,0,0,1-1-2.241,2.987,2.987,0,0,1,1.255-2.563,5.916,5.916,0,0,1,3.53-.913h1.758v-.83a2.029,2.029,0,0,0-.566-1.509,2.276,2.276,0,0,0-1.67-.562,2.634,2.634,0,0,0-1.621.488,1.439,1.439,0,0,0-.654,1.182h-1.816a2.493,2.493,0,0,1,.562-1.528,3.832,3.832,0,0,1,1.523-1.167,5.125,5.125,0,0,1,2.114-.43,4.177,4.177,0,0,1,2.861.913,3.294,3.294,0,0,1,1.074,2.515v4.863a5.946,5.946,0,0,0,.371,2.314V99Zm-3-1.377a3.175,3.175,0,0,0,1.611-.439,2.658,2.658,0,0,0,1.1-1.143V93.873h-1.416q-3.32,0-3.32,1.943a1.645,1.645,0,0,0,.566,1.328A2.177,2.177,0,0,0,127.5,97.623Zm7.393.43a1.131,1.131,0,0,1,.278-.781,1.061,1.061,0,0,1,.835-.312,1.092,1.092,0,0,1,.845.313,1.109,1.109,0,0,1,.288.781,1.048,1.048,0,0,1-.288.752,1.112,1.112,0,0,1-.845.3,1,1,0,0,1-1.113-1.055Z" transform="translate(473.5 -178.897)" fill="#12263f"/>
  </g>
</svg>
