<svg xmlns="http://www.w3.org/2000/svg" xmlns:xlink="http://www.w3.org/1999/xlink" width="107" height="107" viewBox="0 0 107 107">
  <defs>
    <clipPath id="clip-path">
      <rect id="Rectángulo_35020" data-name="Rectángulo 35020" width="107" height="107" transform="translate(323.177 9657.177)" fill="#01f6ff" stroke="#707070" stroke-width="1"/>
    </clipPath>
  </defs>
  <g id="Enmascarar_grupo_189" data-name="Enmascarar grupo 189" transform="translate(-323.177 -9657.177)" clip-path="url(#clip-path)">
    <g id="bioquimica" transform="translate(337.363 9657)">
      <path id="Trazado_671874" data-name="Trazado 671874" d="M76.1,71.043l-21.479-25.6V27.369h-6.29L35.754,47.731,57.77,96.877h6.29A15.723,15.723,0,0,0,76.1,71.043Z" transform="translate(-2.73 8.905)" fill="#aaf4f9"/>
      <path id="Trazado_671875" data-name="Trazado 671875" d="M65.623,75.089V59.135l-9.568-11.4V27.369H37.185V45.442l-21.479,25.6A15.723,15.723,0,0,0,27.749,96.877H65.491A15.743,15.743,0,0,0,81.216,81.151Z" transform="translate(-10.451 8.905)" fill="#dffdff"/>
      <path id="Trazado_671876" data-name="Trazado 671876" d="M51.536,25h-6.29v6.29h6.29a3.145,3.145,0,0,0,0-6.29Z" transform="translate(0.358 8.133)" fill="#5ae6ef"/>
      <path id="Trazado_671877" data-name="Trazado 671877" d="M53.8,28.141A3.145,3.145,0,0,0,50.651,25H31.78a3.145,3.145,0,1,0,0,6.29H50.651A3.145,3.145,0,0,0,53.8,28.141Z" transform="translate(-5.046 8.133)" fill="#aaf4f9"/>
      <path id="Trazado_671878" data-name="Trazado 671878" d="M40.5,26.348l11.11-15.3L65.661,1.187A25.162,25.162,0,0,1,40.5,26.348Z" transform="translate(-1.186 0.386)" fill="#3db462"/>
      <path id="Trazado_671879" data-name="Trazado 671879" d="M65.661,1.187,40.5,26.348A25.162,25.162,0,0,1,65.661,1.187Z" transform="translate(-1.186 0.386)" fill="#59cc3a"/>
      <path id="Trazado_671880" data-name="Trazado 671880" d="M46.677,26.348l-11.11-15.3L21.515,1.187A25.162,25.162,0,0,0,46.677,26.348Z" transform="translate(-7.363 0.386)" fill="#59cc3a"/>
      <path id="Trazado_671881" data-name="Trazado 671881" d="M21.515,1.187,46.677,26.348A25.162,25.162,0,0,0,21.515,1.187Z" transform="translate(-7.363 0.386)" fill="#90d766"/>
      <path id="Trazado_671882" data-name="Trazado 671882" d="M67.392,67.288,54.009,51.337h-6.29l6.158,31.451h6.29A9.446,9.446,0,0,0,69.6,73.353,9.315,9.315,0,0,0,67.392,67.288Z" transform="translate(1.163 16.703)" fill="#09d7e5"/>
      <path id="Trazado_671883" data-name="Trazado 671883" d="M73.382,73.353a9.315,9.315,0,0,0-2.211-6.065L57.789,51.337H32.363L18.977,67.291a9.31,9.31,0,0,0-2.208,6.062A9.446,9.446,0,0,0,26.2,82.788H63.947A9.446,9.446,0,0,0,73.382,73.353Z" transform="translate(-8.907 16.703)" fill="#5ae6ef"/>
      <path id="Trazado_671884" data-name="Trazado 671884" d="M47.063,28.306A26.764,26.764,0,0,0,73.8,1.573,1.572,1.572,0,0,0,72.224,0,26.779,26.779,0,0,0,47.063,17.7,26.779,26.779,0,0,0,21.9,0a1.572,1.572,0,0,0-1.573,1.573A26.764,26.764,0,0,0,47.063,28.306ZM70.6,3.2a23.624,23.624,0,0,1-21.905,21.9A23.624,23.624,0,0,1,70.6,3.2Zm-25.161,21.9A23.624,23.624,0,0,1,23.529,3.2,23.624,23.624,0,0,1,45.434,25.106Z" transform="translate(-7.749)"/>
      <path id="Trazado_671885" data-name="Trazado 671885" d="M85.415,71.19,64.3,46.027V32.975a4.717,4.717,0,0,0-1.573-9.165H37.571A4.717,4.717,0,0,0,36,32.974V46.027L14.888,71.189A17.3,17.3,0,0,0,28.135,99.607H72.167A17.3,17.3,0,0,0,85.415,71.19ZM37.571,26.955H62.732a1.573,1.573,0,1,1,0,3.145H37.571a1.573,1.573,0,1,1,0-3.145Zm34.6,69.508H28.135A14.15,14.15,0,0,1,17.3,73.212l21.479-25.6a1.573,1.573,0,0,0,.368-1.011V33.245H61.159V46.6a1.572,1.572,0,0,0,.368,1.011l21.48,25.6a14.15,14.15,0,0,1-10.839,23.25Z" transform="translate(-10.837 7.747)"/>
      <path id="Trazado_671886" data-name="Trazado 671886" d="M79.052,66.663,65.67,50.712a1.573,1.573,0,0,0-1.2-.562H32.749a1.573,1.573,0,0,0-1.2.562L26.873,56.28a1.573,1.573,0,0,0,2.41,2.021l4.2-5.006h30.25l12.912,15.39a7.763,7.763,0,0,1,1.842,5.054A7.872,7.872,0,0,1,70.623,81.6H26.591a7.872,7.872,0,0,1-7.863-7.863,7.757,7.757,0,0,1,1.84-5.051l4.671-5.568A1.573,1.573,0,0,0,22.83,61.1l-4.67,5.567a10.865,10.865,0,0,0-2.576,7.074A11.02,11.02,0,0,0,26.591,84.747H70.623A11.02,11.02,0,0,0,81.631,73.739,10.87,10.87,0,0,0,79.052,66.663Z" transform="translate(-9.293 16.317)"/>
    </g>
  </g>
</svg>
