<svg xmlns="http://www.w3.org/2000/svg" width="228.38" height="223.108" viewBox="0 0 228.38 223.108">
  <g id="Weed_control" data-name="Weed control" transform="translate(-312.88 -335)">
    <circle id="Elipse_4875" data-name="Elipse 4875" cx="111.156" cy="111.156" r="111.156" transform="translate(313.465 335)" fill="#f2e6dc"/>
    <g id="Grupo_84571" data-name="Grupo 84571" transform="translate(434.565 344.247)">
      <path id="Trazado_118276" data-name="Trazado 118276" d="M1411.041,425.282l-.048-.01a18.522,18.522,0,0,1-14.46-14.422h0l-.01.048a18.522,18.522,0,0,1-14.422,14.46h0l.048.01a18.522,18.522,0,0,1,14.46,14.422h0l.01-.048a18.521,18.521,0,0,1,14.422-14.46Z" transform="translate(-1373.431 -410.851)" fill="#fff"/>
      <path id="Trazado_118277" data-name="Trazado 118277" d="M1590.471,665.192l-.023,0a9.072,9.072,0,0,1-7.083-7.064h0l0,.023a9.072,9.072,0,0,1-7.064,7.083h0l.023,0a9.073,9.073,0,0,1,7.083,7.064h0l0-.023a9.072,9.072,0,0,1,7.064-7.083Z" transform="translate(-1543.95 -627.976)" fill="#f7f1eb"/>
      <path id="Trazado_118278" data-name="Trazado 118278" d="M1325.156,600.5l-.023,0a9.072,9.072,0,0,1-7.083-7.064h0l0,.023a9.072,9.072,0,0,1-7.064,7.083h0l.023,0a9.072,9.072,0,0,1,7.083,7.064h0l0-.023a9.072,9.072,0,0,1,7.064-7.083Z" transform="translate(-1310.981 -571.173)" fill="#fff"/>
    </g>
    <path id="Trazado_118279" data-name="Trazado 118279" d="M1573.625,844.855a.122.122,0,0,1-.056-.231l1.3-.666a.122.122,0,0,1,.111.217l-1.3.666A.121.121,0,0,1,1573.625,844.855Zm2.605-1.331a.122.122,0,0,1-.056-.231l1.3-.666a.122.122,0,0,1,.111.217l-1.3.666A.121.121,0,0,1,1576.231,843.523Zm2.605-1.332a.122.122,0,0,1-.056-.231l1.3-.666a.122.122,0,0,1,.111.217l-1.3.666A.12.12,0,0,1,1578.836,842.192Zm2.606-1.331a.122.122,0,0,1-.056-.231l1.3-.666a.122.122,0,0,1,.111.217l-1.3.666A.122.122,0,0,1,1581.442,840.86Zm2.605-1.332a.122.122,0,0,1-.056-.231l1.3-.665a.122.122,0,1,1,.111.217l-1.3.666A.121.121,0,0,1,1584.047,839.529Zm2.605-1.331a.122.122,0,0,1-.056-.23l1.3-.666a.122.122,0,0,1,.111.217l-1.3.666A.122.122,0,0,1,1586.653,838.2Zm2.605-1.331a.122.122,0,0,1-.056-.23l.19-.1a.122.122,0,1,1,.111.217l-.191.1A.121.121,0,0,1,1589.258,836.866Z" transform="translate(-1106.933 -440.38)" fill="#fff"/>
    <path id="Trazado_118280" data-name="Trazado 118280" d="M1573.626,893.7a.122.122,0,0,1-.023-.242l1.437-.276a.122.122,0,0,1,.046.24l-1.437.276Zm2.873-.553a.122.122,0,0,1-.023-.242l1.437-.276a.122.122,0,1,1,.046.24l-1.437.276Zm2.874-.553a.122.122,0,0,1-.023-.242l1.437-.276a.122.122,0,1,1,.046.24l-1.437.276Zm2.873-.552a.122.122,0,0,1-.023-.242l1.437-.276a.122.122,0,0,1,.046.24l-1.437.276Zm2.873-.553a.122.122,0,0,1-.023-.242l1.437-.276a.122.122,0,1,1,.046.24l-1.437.276Zm2.874-.553a.122.122,0,0,1-.023-.242l1.437-.276a.122.122,0,0,1,.046.24l-1.437.276Zm2.873-.553a.122.122,0,0,1-.023-.242l.91-.175a.122.122,0,1,1,.046.24l-.91.175Z" transform="translate(-1106.933 -487.307)" fill="#fff"/>
    <path id="Trazado_118281" data-name="Trazado 118281" d="M1591.951,937.973h0l-.776-.022a.122.122,0,0,1,.007-.244l.776.022a.122.122,0,0,1,0,.244Zm-2.239-.064h0l-1.463-.042a.122.122,0,0,1-.118-.125.124.124,0,0,1,.125-.118l1.463.042a.122.122,0,0,1,0,.244Zm-2.925-.084h0l-1.463-.042a.122.122,0,0,1,.007-.244l1.462.042a.122.122,0,0,1,0,.244Zm-2.925-.084h0l-1.462-.042a.122.122,0,0,1-.118-.125.125.125,0,0,1,.125-.118l1.462.042a.122.122,0,0,1,0,.244Zm-2.925-.083h0l-1.462-.042a.122.122,0,0,1,.007-.244l1.462.042a.122.122,0,0,1,0,.244Zm-2.925-.084h0l-1.462-.042a.122.122,0,0,1-.119-.125.126.126,0,0,1,.125-.118l1.462.042a.122.122,0,0,1,0,.244Zm-2.925-.083h0l-1.462-.042a.122.122,0,0,1-.119-.125.12.12,0,0,1,.125-.118l1.462.042a.122.122,0,0,1,0,.244Z" transform="translate(-1106.933 -528.786)" fill="#fff"/>
    <path id="Trazado_118282" data-name="Trazado 118282" d="M1591.078,957.479a.121.121,0,0,1-.035-.005l-.637-.191a.122.122,0,0,1,.07-.234l.637.191a.122.122,0,0,1-.035.239Zm-2.038-.611a.124.124,0,0,1-.035-.005l-1.4-.42a.122.122,0,1,1,.07-.234l1.4.42a.122.122,0,0,1-.035.239Zm-2.8-.841a.121.121,0,0,1-.035-.005l-1.4-.42a.122.122,0,1,1,.07-.234l1.4.42a.122.122,0,0,1-.035.239Zm-2.8-.841a.125.125,0,0,1-.035-.005l-1.4-.421a.122.122,0,1,1,.07-.233l1.4.42a.122.122,0,0,1-.035.239Zm-2.8-.841a.125.125,0,0,1-.035-.005l-1.4-.42a.122.122,0,0,1,.07-.234l1.4.42a.122.122,0,0,1-.035.239Zm-2.8-.841a.125.125,0,0,1-.035-.005l-1.4-.42a.122.122,0,0,1,.07-.234l1.4.42a.122.122,0,0,1-.035.239Zm-2.8-.841a.12.12,0,0,1-.035-.005l-1.4-.42a.122.122,0,0,1,.07-.234l1.4.42a.122.122,0,0,1-.035.239Z" transform="translate(-1106.933 -541.777)" fill="#fff"/>
    <g id="Grupo_84580" data-name="Grupo 84580" transform="translate(312.88 365.557)">
      <path id="Trazado_118283" data-name="Trazado 118283" d="M1041.307,987.483c24.8,18.317,26.172,32.013,19.819,39.019s-29.427-1.5-42.825-13.649-19.108-27.677-12.755-34.683S1026.746,976.728,1041.307,987.483Z" transform="translate(-918.819 -927.581)" fill="#fff"/>
      <rect id="Rectángulo_34187" data-name="Rectángulo 34187" width="53.915" height="70.677" transform="translate(28.274 40.318)" fill="#363e44"/>
      <g id="Grupo_84574" data-name="Grupo 84574" transform="translate(67.174 12.981)">
        <g id="Grupo_84573" data-name="Grupo 84573" transform="translate(0)">
          <path id="Trazado_118284" data-name="Trazado 118284" d="M884.548,715.683c-2.911,2.556-12.414-2.585-12.414-2.585L865.957,703a9.87,9.87,0,0,1,8.8-10.832h0a9.87,9.87,0,0,1,10.832,8.8S887.513,713.079,884.548,715.683Z" transform="translate(-865.654 -692.116)" fill="#e2a18d"/>
          <rect id="Rectángulo_34188" data-name="Rectángulo 34188" width="13.699" height="24.951" transform="matrix(0.995, -0.103, 0.103, 0.995, 0.291, 10.775)" fill="#e2a18d"/>
          <g id="Grupo_84572" data-name="Grupo 84572" transform="translate(9.127 10.049)">
            <path id="Trazado_118285" data-name="Trazado 118285" d="M938.723,776.219a9.39,9.39,0,0,1,3.873-1.379c.462-.048-.027,3.739-.488,3.575A9.412,9.412,0,0,1,938.723,776.219Z" transform="translate(-938.723 -774.803)" fill="#fff"/>
            <path id="Trazado_118286" data-name="Trazado 118286" d="M966.574,774.58a6.615,6.615,0,0,0-1.433,0,3.692,3.692,0,0,0-.495,3.574,6.667,6.667,0,0,0,1.477.35,8.828,8.828,0,0,0,5.31-1.376A8.829,8.829,0,0,0,966.574,774.58Z" transform="translate(-961.264 -774.539)" fill="#363e44"/>
          </g>
          <path id="Trazado_118287" data-name="Trazado 118287" d="M1019.552,786.881s3.052,2.6,2.984,3.377c-.081.927-3.091,1.8-3.091,1.8S1019.626,786.88,1019.552,786.881Z" transform="translate(-1000.477 -775.328)" fill="#e2a18d"/>
          <path id="Trazado_118288" data-name="Trazado 118288" d="M984.476,833.964a1.626,1.626,0,0,1-.742-.178,1.653,1.653,0,0,1-.891-1.488.122.122,0,0,1,.122-.12h0a.122.122,0,0,1,.12.124,1.393,1.393,0,0,0,2.268,1.111.122.122,0,1,1,.152.19A1.651,1.651,0,0,1,984.476,833.964Z" transform="translate(-968.337 -815.102)" fill="#363e44"/>
          <path id="Trazado_118289" data-name="Trazado 118289" d="M908.287,793.148c1.579.725,4.479,3.025,9.424,2.792a12.01,12.01,0,0,0,5.468-1.92,8.643,8.643,0,0,1,.989,4.829c-.053.561-.974,4.959-3.854,6.007-3.238,1.177-9.744-.451-13.366-4.261C907.3,798.616,908.461,795.184,908.287,793.148Z" transform="translate(-901.696 -780.83)" fill="#fff"/>
          <path id="Trazado_118290" data-name="Trazado 118290" d="M925.609,866.929H925.6a23.98,23.98,0,0,1-8.963-3.273.122.122,0,1,1,.131-.206,23.714,23.714,0,0,0,8.857,3.236.122.122,0,0,1-.012.243Z" transform="translate(-910.15 -842.544)" fill="#363e44"/>
          <rect id="Rectángulo_34189" data-name="Rectángulo 34189" width="18.325" height="7.522" transform="translate(0 29.014) rotate(-3.716)" fill="#fff"/>
          <path id="Trazado_118291" data-name="Trazado 118291" d="M883.348,788.864a.122.122,0,0,1-.028,0,4.724,4.724,0,0,1-3.463-3.258c-.384-1.372.036-3.046,1.4-3.473a3.03,3.03,0,0,1,3.061,1.214.122.122,0,1,1-.194.148,2.82,2.82,0,0,0-2.8-1.13c-1.225.383-1.593,1.915-1.24,3.175a4.477,4.477,0,0,0,3.283,3.086.122.122,0,0,1-.028.241Z" transform="translate(-877.788 -771.079)" fill="#363e44"/>
          <path id="Trazado_118292" data-name="Trazado 118292" d="M894.016,801.106a.117.117,0,0,1-.028,0,1.521,1.521,0,0,1-1.114-1.05.913.913,0,0,1,.483-1.159,1.008,1.008,0,0,1,1.023.4.122.122,0,0,1-.194.148.768.768,0,0,0-.756-.314c-.319.1-.414.524-.32.86a1.274,1.274,0,0,0,.935.878.122.122,0,0,1-.027.241Z" transform="translate(-889.298 -785.85)" fill="#363e44"/>
        </g>
      </g>
      <path id="Trazado_118293" data-name="Trazado 118293" d="M626.12,1377.51c2.649,10.377,15.764,65.006,22.606,92.776-15.474.418-27.575.3-42.994.418-1.248-8.222-4.887-27.837-6.143-36.807-2.845,7.837-9.176,29.178-11.707,36.528-13.962-.175-24.084-.175-39.343-.415,6.312-26.364,20.242-78.816,24.4-95.7C588.888,1375.557,610.169,1376.258,626.12,1377.51Z" transform="translate(-519.809 -1278.153)" fill="#363e44"/>
      <path id="Trazado_118294" data-name="Trazado 118294" d="M612.56,1709.58l-.021,0-10.206-1.765a.122.122,0,0,1,.041-.24l10.095,1.745,7.5-29.785-9.529-2a.122.122,0,0,1,.05-.239l9.653,2.026a.122.122,0,0,1,.093.149l-7.563,30.018A.122.122,0,0,1,612.56,1709.58Z" transform="translate(-566.955 -1544.201)" fill="#fff"/>
      <path id="Trazado_118295" data-name="Trazado 118295" d="M661.251,1744.8l-.025,0-9.541-1.978a.122.122,0,1,1,.05-.239l9.541,1.978a.122.122,0,0,1-.025.241Z" transform="translate(-610.294 -1601.532)" fill="#fff"/>
      <g id="Grupo_84575" data-name="Grupo 84575" transform="translate(6.336 43.865)">
        <path id="Trazado_118296" data-name="Trazado 118296" d="M365.38,1004.678c-5.759-22.252,36.65-61.258,75.508-59.161,19.243,1.039,32.806,10.377,38.444,14.749L469.1,976.093c2.034,17.727.993,34.607-.577,40.366-14.886,1.407-46.856,3.146-62.043,4.188-2.356-9.162-1.06-26.069.746-34.958-1.907,1.955-19,15.463-20.9,17.418C381.348,1008.082,367.573,1013.151,365.38,1004.678Z" transform="translate(-364.851 -945.437)" fill="#fff"/>
      </g>
      <path id="Trazado_118297" data-name="Trazado 118297" d="M1054.36,951.13a63.025,63.025,0,0,1,13.319,3.778c-.4,5.256-.856,11.465.526,18.794a11.816,11.816,0,0,0,7.156,9.186s.349,7.626.931,13.559c-4.552-3.371-12.979-5.554-18.512-20.585A59.575,59.575,0,0,1,1054.36,951.13Z" transform="translate(-963.821 -906.57)" fill="#363e44"/>
      <g id="Grupo_84576" data-name="Grupo 84576" transform="translate(48.186 38.694)">
        <rect id="Rectángulo_34190" data-name="Rectángulo 34190" width="121.376" height="4.898" transform="matrix(0.657, -0.754, 0.754, 0.657, 0, 103.624)" fill="#ffd092"/>
        <path id="Trazado_118298" data-name="Trazado 118298" d="M1376.516,944.036a.122.122,0,0,1-.092-.2l3.776-4.334a15.379,15.379,0,0,1,10.609-5.274.122.122,0,0,1,.017.243,15.135,15.135,0,0,0-10.441,5.191l-3.776,4.334A.121.121,0,0,1,1376.516,944.036Z" transform="translate(-1294.92 -930.422)" fill="#ffd092"/>
        <path id="Trazado_118299" data-name="Trazado 118299" d="M1502.261,903.021l.466,6.77-8.25-2.387-.061-.889Z" transform="translate(-1398.553 -903.021)" fill="#ffd092"/>
      </g>
      <g id="Grupo_84577" data-name="Grupo 84577" transform="translate(117.635 48.425)">
        <path id="Trazado_118300" data-name="Trazado 118300" d="M1312.54,1046.263c18.151-16.347,26.721-24.131,30.786-27.623a9.865,9.865,0,0,1,2.339-1.563c4.317-2.031,7.434.574,12.948.509,6.256-.073,9.737-3.657,10.781-2.447.726.841-.207,2.563-3.233,5.1h0c2.52-1.66,6.036-3.762,6.95-2.367.968,1.668-2.873,4.622-5.284,6.3,2.918-2.026,5.076-2.23,5.391-1.326.5,1.424-1.4,3.523-5.362,6.051h0c3.222-.982,4.151-.739,4.234.128.153,1.585-3.142,3.6-6.329,4.938a19.948,19.948,0,0,1-8.974,1.329h0a270.93,270.93,0,0,0-19.728,27.236Z" transform="translate(-1308.3 -1010.981)" fill="#efbc73"/>
        <path id="Trazado_118301" data-name="Trazado 118301" d="M1277.883,1210.172a.122.122,0,0,1-.081-.213c3.4-2.994,7.747-6.895,11.241-10.029,1.072-.962,2.069-1.856,2.94-2.636a.122.122,0,0,1,.163.182c-.872.78-1.868,1.674-2.94,2.636-3.494,3.135-7.843,7.036-11.243,10.031A.122.122,0,0,1,1277.883,1210.172Z" transform="translate(-1277.761 -1171.119)" fill="#363e44"/>
        <path id="Trazado_118302" data-name="Trazado 118302" d="M1581.653,990.676c4.375-4.38,5.025-6.887,4.309-7.558-1.2-1.129-6.47,1.081-13.671,6.677C1574.877,990.274,1579.067,990.2,1581.653,990.676Z" transform="translate(-1536.383 -982.832)" fill="#efbc73"/>
        <path id="Trazado_118303" data-name="Trazado 118303" d="M1615.3,1029.845h-.014a52.568,52.568,0,0,0-6.455-.295h0a.122.122,0,0,1,0-.244,53.028,53.028,0,0,1,6.489.3.122.122,0,0,1-.014.243Z" transform="translate(-1568.36 -1023.631)" fill="#363e44"/>
        <path id="Trazado_118304" data-name="Trazado 118304" d="M1706.818,1054.313a.122.122,0,0,1-.007-.244,8.9,8.9,0,0,0,2.205-.319,20.073,20.073,0,0,0,3.828-1.813.122.122,0,1,1,.124.21,19.987,19.987,0,0,1-3.881,1.837,9.1,9.1,0,0,1-2.263.33Z" transform="translate(-1654.401 -1043.496)" fill="#363e44"/>
        <path id="Trazado_118305" data-name="Trazado 118305" d="M1723.5,1087.415a.122.122,0,0,1-.006-.244,15.659,15.659,0,0,0,2.966-.6,17.206,17.206,0,0,0,2.452-1.1.122.122,0,1,1,.113.216,17.439,17.439,0,0,1-2.489,1.112,16.017,16.017,0,0,1-3.03.616Z" transform="translate(-1669.054 -1072.945)" fill="#363e44"/>
        <path id="Trazado_118306" data-name="Trazado 118306" d="M1721.342,1131.068a.122.122,0,0,1-.006-.244,12.141,12.141,0,0,0,2.212-.321,12.854,12.854,0,0,0,3.024-1.1.122.122,0,0,1,.119.213,13.082,13.082,0,0,1-3.086,1.128,12.385,12.385,0,0,1-2.257.328Z" transform="translate(-1667.155 -1111.517)" fill="#363e44"/>
      </g>
      <path id="Trazado_118307" data-name="Trazado 118307" d="M325.975,1519.13a12.183,12.183,0,0,1-8.74-3.108c-2.707-2.582-4.253-6.751-4.351-11.739-.113-5.706,1.659-12.409,5.123-19.383,4.09-8.233,10.464-16.845,18.946-25.6a.122.122,0,0,1,.175.17c-21.219,21.9-24.145,37.47-24,44.8.1,4.923,1.616,9.031,4.276,11.568,2.333,2.224,5.588,3.237,9.678,3.009,5.269-.293,11.523-2.649,18.086-6.812a88.709,88.709,0,0,0,19.878-17.828.122.122,0,1,1,.187.157,88.952,88.952,0,0,1-19.934,17.877c-6.6,4.186-12.892,6.554-18.2,6.85Q326.525,1519.13,325.975,1519.13Z" transform="translate(-312.879 -1352.757)" fill="#ffd092"/>
      <g id="Grupo_84578" data-name="Grupo 84578" transform="translate(6.515 92.928)">
        <path id="Trazado_118308" data-name="Trazado 118308" d="M389.135,1354.4c9.155,5.883,31.4,18.671,33.523,20.006,3.966,2.5,12.567,7.577,11.453,10.593a3.309,3.309,0,0,1-2.676,1.925,3.346,3.346,0,0,1-.673,3.64,3.5,3.5,0,0,1-3.036.87,2.807,2.807,0,0,1,.066,2.848,2.94,2.94,0,0,1-3.8.9,3.286,3.286,0,0,1-.813,2.234,3.449,3.449,0,0,1-3.713.77c-3.526-2.214-9.586-4.766-16.648-8.262-16.587-8.209-36.5-18.837-36.5-18.837S372.719,1356.194,389.135,1354.4Z" transform="translate(-366.32 -1353.607)" fill="#efbc73"/>
        <path id="Trazado_118309" data-name="Trazado 118309" d="M548.007,1350.987a.121.121,0,0,1-.065-.019c-2.327-1.455-3.785-2.371-4.588-2.882a.122.122,0,1,1,.131-.206c.8.51,2.26,1.426,4.586,2.881a.122.122,0,0,1-.065.225Z" transform="translate(-521.722 -1347.862)" fill="#363e44"/>
        <path id="Trazado_118310" data-name="Trazado 118310" d="M869.123,1573.993a.122.122,0,0,1-.1-.193l1.21-1.67a.122.122,0,1,1,.2.143l-1.21,1.67A.121.121,0,0,1,869.123,1573.993Z" transform="translate(-807.715 -1544.744)" fill="#363e44"/>
        <path id="Trazado_118311" data-name="Trazado 118311" d="M843.989,1608.783a.12.12,0,0,1-.071-.023.122.122,0,0,1-.027-.17l1.21-1.67a.122.122,0,0,1,.2.143l-1.21,1.67A.122.122,0,0,1,843.989,1608.783Z" transform="translate(-785.646 -1575.292)" fill="#363e44"/>
        <path id="Trazado_118312" data-name="Trazado 118312" d="M818.786,1644.488a.122.122,0,0,1-.1-.193l1.21-1.67a.122.122,0,1,1,.2.143l-1.21,1.67A.122.122,0,0,1,818.786,1644.488Z" transform="translate(-763.516 -1606.644)" fill="#363e44"/>
        <path id="Trazado_118313" data-name="Trazado 118313" d="M795.262,1676.4a.12.12,0,0,1-.071-.023.122.122,0,0,1-.027-.17l1.21-1.67a.122.122,0,0,1,.2.143l-1.21,1.67A.122.122,0,0,1,795.262,1676.4Z" transform="translate(-742.86 -1634.664)" fill="#363e44"/>
      </g>
      <path id="Trazado_118314" data-name="Trazado 118314" d="M689.147,958.764a77.531,77.531,0,0,0-12.772,5.063c1.253,5.12,1.854,11.584,2.406,19.022.709,9.569-3.218,18.732-3.218,18.732s-1.624,6.187-3.3,10.883c3.944-4.066,14.291-14.574,17.308-30.3A52.817,52.817,0,0,0,689.147,958.764Z" transform="translate(-628.452 -913.274)" fill="#363e44"/>
      <g id="Grupo_84579" data-name="Grupo 84579" transform="translate(44.058 0)">
        <path id="Trazado_118315" data-name="Trazado 118315" d="M800.915,739.643a.12.12,0,0,1-.033,0,43.114,43.114,0,0,1-21.254-13.651A46.146,46.146,0,0,1,769,698.951a.122.122,0,0,1,.115-.129.118.118,0,0,1,.128.115,45.9,45.9,0,0,0,10.568,26.892,43.172,43.172,0,0,0,21.033,13.546,86.234,86.234,0,0,0,6.256-20.034,87.705,87.705,0,0,0-1.008-36.077.122.122,0,0,1,.237-.056,87.945,87.945,0,0,1,1.01,36.176,86.476,86.476,0,0,1-6.316,20.186A.122.122,0,0,1,800.915,739.643Z" transform="translate(-757.452 -671.231)" fill="#776e42"/>
        <ellipse id="Elipse_4876" data-name="Elipse 4876" cx="30.891" cy="6.806" rx="30.891" ry="6.806" transform="translate(0 24.616) rotate(-23.48)" fill="#8b865c"/>
        <path id="Trazado_118316" data-name="Trazado 118316" d="M857.8,616.909c-8.274-7.8-11.408-8.964-12.566-8.144-1.106.783-.419,3.38-1.862,4.072-1.554.746-3.363-1.782-4.77-1.4s-2.491,3.681-1.629,15.474A32.451,32.451,0,0,0,857.8,616.909Z" transform="translate(-816.868 -605.749)" fill="#776e42"/>
        <path id="Trazado_118317" data-name="Trazado 118317" d="M1000.605,1163.933h0a.122.122,0,0,1-.12-.124,33.788,33.788,0,0,0-4.759-17.9,45.6,45.6,0,0,0-4.6,13.04.122.122,0,0,1-.24-.045,45.865,45.865,0,0,1,4.725-13.3.122.122,0,0,1,.1-.064.129.129,0,0,1,.107.059,34.034,34.034,0,0,1,4.9,18.215A.122.122,0,0,1,1000.605,1163.933Z" transform="translate(-952.283 -1077.278)" fill="#776e42"/>
        <path id="Trazado_118318" data-name="Trazado 118318" d="M987.729,1249.626a.785.785,0,1,1-.785-.785A.785.785,0,0,1,987.729,1249.626Z" transform="translate(-948.132 -1167.985)" fill="#8b865c"/>
        <path id="Trazado_118319" data-name="Trazado 118319" d="M1064.623,1289.172a.785.785,0,1,1-.785-.785A.785.785,0,0,1,1064.623,1289.172Z" transform="translate(-1015.651 -1202.71)" fill="#8b865c"/>
        <circle id="Elipse_4877" data-name="Elipse 4877" cx="1.004" cy="1.004" r="1.004" transform="translate(42.295 67.243)" fill="#8b865c"/>
      </g>
      <path id="Trazado_118320" data-name="Trazado 118320" d="M1174.643,1692.772a.122.122,0,0,1-.118-.092l-7.563-30.018a.122.122,0,0,1,.1-.15l10.006-1.92a.122.122,0,1,1,.046.24l-9.879,1.9,7.5,29.782,9.545-1.725a.122.122,0,1,1,.043.24l-9.657,1.745Z" transform="translate(-1062.832 -1529.536)" fill="#fff"/>
      <path id="Trazado_118321" data-name="Trazado 118321" d="M1185.212,1727.229a.122.122,0,0,1-.025-.241l9.541-1.978a.122.122,0,0,1,.05.239l-9.541,1.978Z" transform="translate(-1078.753 -1586.099)" fill="#fff"/>
    </g>
    <g id="Grupo_84586" data-name="Grupo 84586" transform="translate(451.555 368.962)">
      <g id="Grupo_84581" data-name="Grupo 84581" transform="translate(17.993 35.476)">
        <path id="Trazado_118322" data-name="Trazado 118322" d="M1634.8,908.833c-3.125-4.288-10.651-5.391-17-3.144l5.446,3.044-9.861-.749c-.161.116-.322.232-.478.355-9.876,7.736-14.6,21.183-14.979,23.7a42.468,42.468,0,0,1,11.543-3.807l7.373-7.879-2.5,7.54c5.281-.094,11.131.307,15.35-1.287C1637.1,923.811,1638.138,913.412,1634.8,908.833Z" transform="translate(-1597.93 -904.552)" fill="#776e42"/>
        <path id="Trazado_118323" data-name="Trazado 118323" d="M1659.616,1065.657a.122.122,0,0,1-.122-.118,101.446,101.446,0,0,1,3.32-29.88,115.5,115.5,0,0,1,7.047-19.483,110.272,110.272,0,0,0,5.694-14.9,56.168,56.168,0,0,0,2.192-19.88c-.767-8.716-4.071-15.017-9.82-18.727-8.786-5.669-21.4-.737-25.544.884a42.137,42.137,0,0,0-17.228,12.7.122.122,0,1,1-.189-.154,42.383,42.383,0,0,1,17.328-12.777,51.893,51.893,0,0,1,11.032-3.165c5.987-.916,10.944-.141,14.734,2.3a19.975,19.975,0,0,1,7.2,8.278,30.64,30.64,0,0,1,2.731,10.632,56.42,56.42,0,0,1-2.2,19.971,111.87,111.87,0,0,1-5.7,14.931,115.307,115.307,0,0,0-7.034,19.447,101.2,101.2,0,0,0-3.312,29.808.122.122,0,0,1-.117.126Z" transform="translate(-1621.646 -953.053)" fill="#9e9569"/>
      </g>
      <g id="Grupo_84582" data-name="Grupo 84582" transform="translate(2.946)">
        <path id="Trazado_118324" data-name="Trazado 118324" d="M1503.441,615.48c-4.2-3.237-11.737-2.181-17.2,1.76l6.082,1.391-9.675,2.052c-.122.157-.243.314-.359.475-7.3,10.2-8.063,24.434-7.715,26.957a42.466,42.466,0,0,1,10.008-6.9l4.862-9.633-.279,7.939c5.042-1.575,10.769-2.833,14.37-5.548C1509.862,629.208,1507.932,618.938,1503.441,615.48Z" transform="translate(-1474.51 -613.566)" fill="#8b865c"/>
        <path id="Trazado_118325" data-name="Trazado 118325" d="M1549.288,744.466a.122.122,0,0,1-.116-.084,101.454,101.454,0,0,1-5.21-29.608,115.5,115.5,0,0,1,1.288-20.679,110.255,110.255,0,0,0,1.277-15.9,56.174,56.174,0,0,0-3.483-19.7c-3.185-8.15-8.127-13.268-14.687-15.213-10.025-2.972-20.745,5.306-24.267,8.026a42.138,42.138,0,0,0-12.964,17.033.122.122,0,1,1-.225-.095,42.378,42.378,0,0,1,13.04-17.131,51.886,51.886,0,0,1,9.7-6.138c5.488-2.562,10.464-3.211,14.788-1.929a19.976,19.976,0,0,1,9.236,5.922,30.646,30.646,0,0,1,5.609,9.436,56.426,56.426,0,0,1,3.5,19.785,111.888,111.888,0,0,1-1.28,15.932,115.291,115.291,0,0,0-1.286,20.64,101.2,101.2,0,0,0,5.2,29.537.122.122,0,0,1-.077.154A.126.126,0,0,1,1549.288,744.466Z" transform="translate(-1488.896 -638.897)" fill="#9e9569"/>
      </g>
      <g id="Grupo_84583" data-name="Grupo 84583" transform="translate(22.903 71.542)">
        <path id="Trazado_118326" data-name="Trazado 118326" d="M1935.138,1201.776c4.474-2.852,11.884-1.133,16.974,3.275l-6.181.847,9.455,2.9c.107.167.215.334.315.5,6.373,10.806,5.868,25.052,5.3,27.534a42.457,42.457,0,0,0-9.358-7.756l-3.99-10.026-.425,7.932c-4.882-2.015-10.476-3.776-13.822-6.8C1927.527,1214.881,1930.36,1204.822,1935.138,1201.776Z" transform="translate(-1894.512 -1200.378)" fill="#8b865c"/>
        <path id="Trazado_118327" data-name="Trazado 118327" d="M1638.325,1322.4a.119.119,0,0,1-.048-.01.122.122,0,0,1-.063-.16c2.818-6.493,6.4-19.538,7.792-31.907a115.306,115.306,0,0,0,.546-20.673,111.858,111.858,0,0,1,.136-15.983,56.42,56.42,0,0,1,5.238-19.4,30.636,30.636,0,0,1,6.422-8.9,19.973,19.973,0,0,1,9.724-5.081c4.421-.894,9.319.193,14.559,3.231a51.91,51.91,0,0,1,9.116,6.972,42.382,42.382,0,0,1,11.471,18.219.122.122,0,0,1-.232.074,42.14,42.14,0,0,0-11.4-18.114c-3.268-3.021-13.213-12.216-23.461-10.143-6.707,1.356-12.082,6.017-15.976,13.853a56.166,56.166,0,0,0-5.213,19.309,110.255,110.255,0,0,0-.136,15.951,115.5,115.5,0,0,1-.547,20.711c-1.4,12.393-4.986,25.467-7.811,31.977A.122.122,0,0,1,1638.325,1322.4Z" transform="translate(-1638.203 -1217.589)" fill="#9e9569"/>
      </g>
      <g id="Grupo_84584" data-name="Grupo 84584" transform="translate(2 89.535)">
        <path id="Trazado_118328" data-name="Trazado 118328" d="M1503.62,1352.24c-3.124-4.288-10.651-5.391-17-3.143l5.446,3.044-9.861-.749c-.161.116-.322.232-.478.355-9.876,7.736-14.6,21.183-14.979,23.7a42.461,42.461,0,0,1,11.543-3.807l7.374-7.879-2.5,7.54c5.281-.094,11.131.307,15.35-1.287C1505.925,1367.218,1506.958,1356.819,1503.62,1352.24Z" transform="translate(-1466.75 -1347.959)" fill="#776e42"/>
        <path id="Trazado_118329" data-name="Trazado 118329" d="M1546.93,1428.536a.122.122,0,0,1-.122-.121c-.078-7.279-1.887-17.064-10.062-22.339-8.785-5.669-21.4-.737-25.544.884a42.137,42.137,0,0,0-17.228,12.7.122.122,0,0,1-.189-.154,42.383,42.383,0,0,1,17.328-12.777,51.91,51.91,0,0,1,11.032-3.165c5.987-.916,10.944-.141,14.734,2.3a20.512,20.512,0,0,1,7.91,9.92,35.034,35.034,0,0,1,2.264,12.621.122.122,0,0,1-.121.123Z" transform="translate(-1490.465 -1396.46)" fill="#9e9569"/>
      </g>
      <g id="Grupo_84585" data-name="Grupo 84585" transform="translate(0 123.083)">
        <path id="Trazado_118330" data-name="Trazado 118330" d="M1469.573,1633.091c-5.057-1.6-11.776,1.962-15.559,7.532l6.191-.772-8.391,5.235c-.061.189-.122.378-.175.569-3.378,12.082.775,25.718,1.965,27.97a42.462,42.462,0,0,1,7.047-9.9l1.277-10.715,2.451,7.556c4.2-3.2,9.152-6.344,11.608-10.126C1480.3,1643.8,1474.975,1634.805,1469.573,1633.091Z" transform="translate(-1450.343 -1631.537)" fill="#8b865c"/>
        <path id="Trazado_118331" data-name="Trazado 118331" d="M1477.594,1659.8h-.006a.122.122,0,0,1-.116-.128,42.38,42.38,0,0,1,6.4-20.557,51.9,51.9,0,0,1,7.015-9.083c4.282-4.284,8.736-6.594,13.237-6.868.426-.026.855-.039,1.281-.036a.122.122,0,0,1,0,.244h0c-.419,0-.845.01-1.266.036-10.437.634-17.681,12.078-20.061,15.838a42.137,42.137,0,0,0-6.36,20.438A.122.122,0,0,1,1477.594,1659.8Z" transform="translate(-1474.164 -1623.131)" fill="#9e9569"/>
      </g>
      <path id="Trazado_118332" data-name="Trazado 118332" d="M1840.661,719.955a.12.12,0,0,1-.049-.01.122.122,0,0,1-.066-.073,8.479,8.479,0,0,1,4.778-10.782.122.122,0,0,1,.166.073,8.479,8.479,0,0,1-4.778,10.782A.12.12,0,0,1,1840.661,719.955Zm4.636-10.583a8.207,8.207,0,1,0-.238,6.049A9.631,9.631,0,0,0,1845.3,709.372Z" transform="translate(-1792.591 -697.434)" fill="#9e9569"/>
      <path id="Trazado_118333" data-name="Trazado 118333" d="M1947.3,853.178a.122.122,0,0,1-.122-.13,8.479,8.479,0,0,1,8.508-8.167.125.125,0,0,1,.091.038.121.121,0,0,1,.034.093,8.479,8.479,0,0,1-8.507,8.167Zm8.254-8.046a8.207,8.207,0,0,0-8.118,7.794,8.207,8.207,0,0,0,8.118-7.794Z" transform="translate(-1886.606 -816.679)" fill="#9e9569"/>
      <path id="Trazado_118334" data-name="Trazado 118334" d="M1850.385,1116.533a8.653,8.653,0,0,1-4.105-.941,10,10,0,0,1-4.04-4.914.121.121,0,0,1,.008-.1.123.123,0,0,1,.078-.061,8.479,8.479,0,0,1,10.36,5.635.122.122,0,0,1-.086.159A10.585,10.585,0,0,1,1850.385,1116.533Zm-7.865-5.805a8.207,8.207,0,0,0,9.887,5.377,8.207,8.207,0,0,0-9.887-5.377Z" transform="translate(-1794.455 -1049.739)" fill="#9e9569"/>
      <path id="Trazado_118335" data-name="Trazado 118335" d="M1710.777,1661.135a8.321,8.321,0,0,1-.849-.037.122.122,0,0,1-.1-.147,8.478,8.478,0,0,1,9.615-6.828.122.122,0,0,1,.1.148,10,10,0,0,1-3.426,5.36A9.482,9.482,0,0,1,1710.777,1661.135Zm-.682-.267a8.207,8.207,0,1,0,3.3-5.078A9.63,9.63,0,0,0,1710.1,1660.868Z" transform="translate(-1678.186 -1527.228)" fill="#9e9569"/>
      <path id="Trazado_118336" data-name="Trazado 118336" d="M1781.94,1285.326c-.122,0-.244,0-.367-.01a10,10,0,0,1-5.757-2.705.122.122,0,0,1,.01-.18,8.479,8.479,0,0,1,11.776.645.122.122,0,0,1-.01.18A10.193,10.193,0,0,1,1781.94,1285.326Zm-5.851-2.791a8.207,8.207,0,0,0,11.237.616,8.207,8.207,0,0,0-11.237-.616Z" transform="translate(-1736.104 -1199.067)" fill="#9e9569"/>
    </g>
  </g>
</svg>
