<svg xmlns="http://www.w3.org/2000/svg" width="294.805" height="77.676" viewBox="0 0 294.805 77.676">
  <g id="Grupo_983644" data-name="Grupo 983644" transform="translate(6735.133 9838.054)">
    <path id="Trazado_626477" data-name="Trazado 626477" d="M9.359,0H285.446c5.169,0,9.359,1.157,9.359,2.583V75.092c0,1.427-4.19,2.583-9.359,2.583H9.359C4.19,77.676,0,76.519,0,75.092V2.583C0,1.157,4.19,0,9.359,0Z" transform="translate(-6735.133 -9838.054)" fill="#f6f6f6"/>
    <path id="Trazado_674654" data-name="Trazado 674654" d="M32.138-17.931q0,9-3.723,13.761T17.514.6Q10.425.6,6.672-4.081T2.83-17.484v-7.982q0-9.084,3.768-13.791t10.857-4.706q7.089,0,10.842,4.661t3.842,13.388ZM23.53-26.707q0-5.4-1.474-7.856a4.982,4.982,0,0,0-4.6-2.46,4.894,4.894,0,0,0-4.483,2.34q-1.445,2.34-1.534,7.319v10.554q0,5.307,1.445,7.886a4.917,4.917,0,0,0,4.632,2.579,4.834,4.834,0,0,0,4.557-2.474q1.4-2.474,1.459-7.573Zm43.9-11.855L50.665,0H41.58l16.8-36.427H36.814v-6.94H67.434Z" transform="translate(-6535.133 -9775.716)" fill="#e2e2e2"/>
  </g>
</svg>
