<svg xmlns="http://www.w3.org/2000/svg" xmlns:xlink="http://www.w3.org/1999/xlink" width="85" height="85" viewBox="0 0 85 85">
  <defs>
    <clipPath id="clip-path">
      <rect id="Rectángulo_34443" data-name="Rectángulo 34443" width="85" height="85" transform="translate(1156 10935)" fill="#fff" stroke="#707070" stroke-width="1"/>
    </clipPath>
  </defs>
  <g id="Grupo_85314" data-name="Grupo 85314" transform="translate(-200 -6251)">
    <circle id="Elipse_4907" data-name="Elipse 4907" cx="42.5" cy="42.5" r="42.5" transform="translate(200 6251)" fill="#0b481e"/>
    <g id="Enmascarar_grupo_121" data-name="Enmascarar grupo 121" transform="translate(-956 -4684)" clip-path="url(#clip-path)">
      <g id="cavar" transform="translate(1156 10938.867)">
        <g id="Grupo_84930" data-name="Grupo 84930" transform="translate(25.468 23.879)">
          <path id="Trazado_119465" data-name="Trazado 119465" d="M23.332,25.626C17.115,27,14.8,34.512,16.978,40.36c1.953-6.778,22.076-10.585,28.763-13.969l-5.365-8.36C26.593,15.647,28.264,24.538,23.332,25.626Z" transform="translate(-16.18 -17.627)" fill="#aa6a51" fill-rule="evenodd"/>
        </g>
        <g id="Grupo_84931" data-name="Grupo 84931" transform="translate(40.564 23.878)">
          <path id="Trazado_119466" data-name="Trazado 119466" d="M34.316,17.938a16.363,16.363,0,0,0-7.718.272,13.229,13.229,0,0,1-.828,11.143l13.76-2.847-4.4-6.644Z" transform="translate(-25.77 -17.627)" fill="#935b44" fill-rule="evenodd"/>
        </g>
        <g id="Grupo_84932" data-name="Grupo 84932" transform="translate(23.228 12.755)">
          <path id="Trazado_119467" data-name="Trazado 119467" d="M39.928,20.333l1.525,3.586,1.661,3.91L28,35.48c-8.24,4.173-11.836,7.393-12.89,11.059a10.21,10.21,0,0,0-.268,4.027L45.768,38.372a6.976,6.976,0,0,0,3.972-9l-3.487-8.8a1.818,1.818,0,0,1,1.026-2.356l5.793-2.281c.547-1.081-.1-4.09-2.132-5.374l-8.165,3.22a5.048,5.048,0,0,0-2.847,6.553Z" transform="translate(-14.757 -10.561)" fill="#f3f0f3" fill-rule="evenodd"/>
        </g>
        <g id="Grupo_84933" data-name="Grupo 84933" transform="translate(23.23 12.755)">
          <path id="Trazado_119468" data-name="Trazado 119468" d="M15,46.938a10.543,10.543,0,0,0-.165,3.628L45.767,38.372a6.976,6.976,0,0,0,3.972-9l-3.487-8.8a1.818,1.818,0,0,1,1.026-2.356l5.793-2.281c.153-1.247-.241-4.131-2.132-5.374l-2.791,1.1q.078.26.184.521l.249.634c.866,2.187.913,1.967-1.134,2.774l-2.489.981a2.9,2.9,0,0,0-1.511,3.807l3.191,8.064c1.412,3.553-.4,6.384-3.967,7.787Z" transform="translate(-14.758 -10.561)" fill="#e2dee2" fill-rule="evenodd"/>
        </g>
        <g id="Grupo_84934" data-name="Grupo 84934" transform="translate(59.411 6.541)">
          <path id="Trazado_119469" data-name="Trazado 119469" d="M38.233,15.376l.249.634a6.946,6.946,0,0,0,8.485,4.079l-.424-7.261L41.631,6.613a6.9,6.9,0,0,0-3.4,8.763Z" transform="translate(-37.743 -6.613)" fill="#025f80" fill-rule="evenodd"/>
        </g>
        <g id="Grupo_84935" data-name="Grupo 84935" transform="translate(63.298 1.244)">
          <path id="Trazado_119470" data-name="Trazado 119470" d="M40.213,8.544,45.55,22.02a5.4,5.4,0,0,0,.527-.183l12.2-4.806a3.769,3.769,0,0,0,2.127-4.9l-2.574-6.5a3.785,3.785,0,0,0-4.908-2.122l-12.2,4.807q-.261.106-.508.225Z" transform="translate(-40.213 -3.248)" fill="#ffbd86" fill-rule="evenodd"/>
        </g>
        <g id="Grupo_84936" data-name="Grupo 84936" transform="translate(1.245 48.921)">
          <path id="Trazado_119471" data-name="Trazado 119471" d="M15.954,42.61H2.3A1.517,1.517,0,0,0,.791,44.121V59.128A1.51,1.51,0,0,0,2.3,60.634H81.786A1.514,1.514,0,0,0,83.3,59.128V44.121c0-2.629-2.494-4.2-4.918-4.3a4.173,4.173,0,0,0-4.024-3.45c-2.466,0-2.856-.347-3.657-.906-3.412-2.4-5.426-2.741-8.527,0-.729.643-.828.906-3.294.906a4.173,4.173,0,0,0-4.024,3.45c-6.363-.6-8.287,3.844-8.612,4.821-.753,2.253-5.591,1.7-7.29,5.6C36.4,56.124,25.417,55.185,22.9,49.665c-1.694-3.718-3.925-6.97-6.946-7.055Z" transform="translate(-0.791 -33.536)" fill="#aa6a51" fill-rule="evenodd"/>
        </g>
        <g id="Grupo_84937" data-name="Grupo 84937" transform="translate(62.249 48.92)">
          <path id="Trazado_119472" data-name="Trazado 119472" d="M47.424,38.63a4.172,4.172,0,0,1,4.019,3.45c2.424.1,4.918,1.671,4.918,4.3V60.634h3.177a1.514,1.514,0,0,0,1.515-1.507V44.121c0-2.629-2.494-4.2-4.918-4.3a4.173,4.173,0,0,0-4.024-3.45c-2.466,0-2.856-.347-3.657-.906-3.412-2.4-5.426-2.741-8.527,0-.141.127-.263.239-.381.338a8.894,8.894,0,0,1,4.221,1.92c.8.559,1.191.906,3.656.906Z" transform="translate(-39.546 -33.536)" fill="#935b44" fill-rule="evenodd"/>
        </g>
        <g id="Grupo_84938" data-name="Grupo 84938" transform="translate(12.238 57.994)">
          <path id="Trazado_119473" data-name="Trazado 119473" d="M7.775,39.3c3.021.085,4.8,3.337,6.5,7.055,1.628,3.577,6.809,5.229,10.956,4.356-2.767-.549-5.29-2.056-6.339-4.356-1.694-3.718-3.925-6.97-6.946-7.055Z" transform="translate(-7.775 -39.301)" fill="#935b44" fill-rule="evenodd"/>
        </g>
        <g id="Grupo_84939" data-name="Grupo 84939" transform="translate(59.43 13.253)">
          <path id="Trazado_119474" data-name="Trazado 119474" d="M45.177,13.134a6.965,6.965,0,0,1-7.421-2.258,6.785,6.785,0,0,0,.471,2.051l.249.634a6.946,6.946,0,0,0,8.485,4.079l-.292-5.032Z" transform="translate(-37.755 -10.877)" fill="#024c67" fill-rule="evenodd"/>
        </g>
        <g id="Grupo_84940" data-name="Grupo 84940" transform="translate(66.851 5.644)">
          <path id="Trazado_119475" data-name="Trazado 119475" d="M42.48,15.933l1.578,3.987a.554.554,0,0,0,.718.314l.005,0,12.2-4.806a3.769,3.769,0,0,0,2.127-4.9L57.327,6.043a3.768,3.768,0,0,1-2.132,4.877L43,15.726c-.174.07-.353.131-.527.183Z" transform="translate(-42.47 -6.043)" fill="#f6a96c" fill-rule="evenodd"/>
        </g>
        <g id="Grupo_84941" data-name="Grupo 84941" transform="translate(0 0)">
          <path id="Trazado_119476" data-name="Trazado 119476" d="M53.1,43.6a1.245,1.245,0,1,0,0-2.49H38.909a1.245,1.245,0,0,0,0,2.49Z" transform="translate(21.622 19.73)"/>
          <path id="Trazado_119477" data-name="Trazado 119477" d="M6.153,47.457A1.245,1.245,0,0,0,7.4,48.7H16.97a1.245,1.245,0,0,0,0-2.49H7.4a1.245,1.245,0,0,0-1.245,1.245Z" transform="translate(3.532 22.661)"/>
          <path id="Trazado_119478" data-name="Trazado 119478" d="M79.8,39.124a5.386,5.386,0,0,0-4.988-3.548c-1.972,0-2.246-.192-2.846-.613l-.095-.066c-3.518-2.473-6.293-3.251-10.067.085l-.16.143c-.4.356-.5.452-2.311.452a5.378,5.378,0,0,0-4.929,3.4c-6.74-.13-8.681,5.1-8.888,5.725-.147.441-1.054.807-2.015,1.194-1.721.694-4.077,1.645-5.236,4.308-.874,2.01-3.168,3.226-6.135,3.253-3.459.032-6.6-1.554-7.647-3.855-.355-.779-.654-1.537-.943-2.271-1.1-2.789-2.135-5.422-5.318-5.512H11.989a1.245,1.245,0,1,0,0,2.49h6.184c1.394.047,1.947,1.121,3.055,3.934.287.728.612,1.553.994,2.392,1.695,3.715,6.209,5.346,9.935,5.312,3.98-.035,7.119-1.811,8.4-4.75.752-1.729,2.344-2.371,3.884-2.992,1.442-.582,2.933-1.183,3.445-2.716.251-.755,1.785-4.5,7.313-3.974a1.245,1.245,0,0,0,1.339-1,2.936,2.936,0,0,1,2.8-2.445c2.4,0,3.038-.246,3.977-1.092l.142-.127c2.472-2.185,3.779-2.17,6.99.088l.093.065c.941.66,1.65,1.065,4.276,1.065a2.935,2.935,0,0,1,2.8,2.445,1.245,1.245,0,0,0,1.169,1c1.806.077,3.726,1.174,3.726,3.056V53.4H46.361a1.245,1.245,0,1,0,0,2.49H82.51v3.688a.27.27,0,0,1-.27.262H2.756a.264.264,0,0,1-.265-.262V50.05H13.476a1.245,1.245,0,1,0,0-2.49H2.49V44.571a.269.269,0,0,1,.265-.266H6.238a1.245,1.245,0,0,0,0-2.49H2.756A2.759,2.759,0,0,0,0,44.571V59.577a2.757,2.757,0,0,0,2.756,2.752H82.24A2.759,2.759,0,0,0,85,59.577V44.571c0-3.081-2.537-5-5.2-5.447Z" transform="translate(0 14.935)"/>
          <path id="Trazado_119479" data-name="Trazado 119479" d="M14.055,55.353a1.245,1.245,0,0,0,1.695,1.023l13.868-5.468a1.245,1.245,0,0,0-.913-2.317l-12.24,4.826c.157-3.867,2.776-7.225,12.549-12.175l15.116-7.651a1.245,1.245,0,0,0,.584-1.6l-3.179-7.481a3.8,3.8,0,0,1,2.151-4.923l6.657-2.625a8.3,8.3,0,0,0,.382,1.252l.252.64a8.337,8.337,0,0,0,.578,1.168L47.272,21.71a3.067,3.067,0,0,0-1.725,3.973l3.487,8.8a5.576,5.576,0,0,1-.084,4.3,5.752,5.752,0,0,1-3.187,3.086L33.951,46.521a1.245,1.245,0,1,0,.913,2.317l11.812-4.656a8.224,8.224,0,0,0,4.559-4.412,8.05,8.05,0,0,0,.114-6.208l-3.487-8.8a.573.573,0,0,1,.324-.74l5.055-1.99a8.277,8.277,0,0,0,5.372,1.98,8.091,8.091,0,0,0,2.34-.345l.013,0,.014,0q.046-.014.09-.031L73.8,18.643a5.014,5.014,0,0,0,2.829-6.513l-2.574-6.5a5.038,5.038,0,0,0-6.524-2.821L54.82,7.84c-.03.012-.06.025-.089.039l-.023.012-.006,0A8.247,8.247,0,0,0,50.2,14.346l-7.425,2.928a6.293,6.293,0,0,0-3.652,7.888c-7.657-.592-10.095,2.822-11.915,5.37-1.058,1.482-1.713,2.333-2.873,2.588a9.924,9.924,0,0,0-6.843,5.6,14,14,0,0,0-1.069,8.324,10.542,10.542,0,0,0-2.365,8.31ZM68.441,5.125a2.543,2.543,0,0,1,3.295,1.421l2.574,6.5a2.524,2.524,0,0,1-1.424,3.278l-11.57,4.536L56.9,9.7ZM54.68,10.868,58.9,21.518a5.689,5.689,0,0,1-5.608-3.579l-.25-.634a5.639,5.639,0,0,1,1.641-6.437ZM24.869,35.551c2.149-.473,3.274-2.049,4.362-3.573,1.814-2.54,3.688-5.164,10.984-4.2l1.75,4.117L27.888,39.021a47.62,47.62,0,0,0-9.182,5.723C18.663,40.65,20.714,36.472,24.869,35.551Z" transform="translate(8.019 -2.457)"/>
        </g>
      </g>
    </g>
  </g>
</svg>
