<svg xmlns="http://www.w3.org/2000/svg" xmlns:xlink="http://www.w3.org/1999/xlink" width="102" height="102" viewBox="0 0 102 102">
  <defs>
    <clipPath id="clip-path">
      <rect id="Rectángulo_34639" data-name="Rectángulo 34639" width="102" height="102" transform="translate(224 5029)" fill="#01f6ff" stroke="#707070" stroke-width="1"/>
    </clipPath>
  </defs>
  <g id="Enmascarar_grupo_154" data-name="Enmascarar grupo 154" transform="translate(-224 -5029)" clip-path="url(#clip-path)">
    <g id="sostenible" transform="translate(224 5029)">
      <circle id="Elipse_5090" data-name="Elipse 5090" cx="34.564" cy="34.564" r="34.564" transform="translate(16.436 16.436)" fill="#fff"/>
      <path id="Trazado_121572" data-name="Trazado 121572" d="M63.379,32.547a5.978,5.978,0,0,0-6.631-2.808l-3.216-.027V49.676l3.216-.027a5.976,5.976,0,0,0,5.747-9.955A5.978,5.978,0,0,0,63.379,32.547Z" fill="#f72349"/>
      <path id="Trazado_121573" data-name="Trazado 121573" d="M57.4,32.547a6,6,0,0,0-.449-.662c.014-.168.023-.337.023-.508a5.976,5.976,0,0,0-11.724-1.638,5.976,5.976,0,0,0-5.747,9.955,5.976,5.976,0,0,0,5.747,9.955,5.976,5.976,0,0,0,11.724-1.638c0-.171-.009-.34-.023-.508a5.941,5.941,0,0,0-.435-7.809A5.978,5.978,0,0,0,57.4,32.547Z" fill="#fa4350"/>
      <path id="Trazado_121574" data-name="Trazado 121574" d="M34.365,52.615A25.54,25.54,0,0,0,25.4,51,25.6,25.6,0,0,0,51,76.6Z" fill="#73d093"/>
      <path id="Trazado_121575" data-name="Trazado 121575" d="M34.365,52.615C34.365,65.861,41.813,76.6,51,76.6A25.608,25.608,0,0,0,34.365,52.615Z" fill="#96e192"/>
      <path id="Trazado_121576" data-name="Trazado 121576" d="M67.635,52.615,51,76.6A25.6,25.6,0,0,0,76.6,51,25.544,25.544,0,0,0,67.635,52.615Z" fill="#73d093"/>
      <path id="Trazado_121577" data-name="Trazado 121577" d="M67.635,52.615A25.608,25.608,0,0,0,51,76.6C60.187,76.6,67.635,65.862,67.635,52.615Z" fill="#96e192"/>
      <path id="Trazado_121578" data-name="Trazado 121578" d="M91.672,33.332,91.541,51c0,27.341-18.151,49.506-40.541,49.506A49.506,49.506,0,0,0,100.506,51Z" fill="#46a99a"/>
      <path id="Trazado_121579" data-name="Trazado 121579" d="M94.529,51a55.431,55.431,0,0,0-2.857-17.668l-.131-.262L82.576,51A31.576,31.576,0,0,1,51,82.576v17.93C75.041,100.506,94.529,78.341,94.529,51Z" fill="#50bf94"/>
      <path id="Trazado_121580" data-name="Trazado 121580" d="M51,82.576A31.576,31.576,0,0,1,19.424,51H1.494A49.506,49.506,0,0,0,51,100.506l8.965-8.965Z" fill="#96e192"/>
      <path id="Trazado_121581" data-name="Trazado 121581" d="M19.424,51A31.576,31.576,0,0,1,51,19.424V1.494A49.506,49.506,0,0,0,1.494,51l8.965,8.965Z" fill="#e7e6e6"/>
      <path id="Trazado_121582" data-name="Trazado 121582" d="M51,1.494,91.541,39.047l2.636,5.624L100.506,51A49.506,49.506,0,0,0,51,1.494Z" fill="#30bbec"/>
      <path id="Trazado_121583" data-name="Trazado 121583" d="M51,1.494l-8.965,8.965L51,19.424A31.576,31.576,0,0,1,82.576,51l8.965-8.965,2.636,2.636C91.444,20.318,73.155,1.494,51,1.494Z" fill="#4ad0ff"/>
      <circle id="Elipse_5091" data-name="Elipse 5091" cx="4.482" cy="4.482" r="4.482" transform="translate(46.518 35.212)" fill="#fc9f63"/>
      <path id="Trazado_121584" data-name="Trazado 121584" d="M76.6,49.506A27.142,27.142,0,0,0,51,67.721,27.142,27.142,0,0,0,25.4,49.506,1.494,1.494,0,0,0,23.906,51a27.094,27.094,0,0,0,54.188,0A1.494,1.494,0,0,0,76.6,49.506ZM66.062,54.922c-.728,10.566-6.4,18.989-13.513,20.067A24.15,24.15,0,0,1,66.062,54.922ZM49.452,74.989c-7.114-1.078-12.785-9.5-13.513-20.067A24.15,24.15,0,0,1,49.452,74.989ZM26.943,52.543a23.944,23.944,0,0,1,5.946,1.142A31.118,31.118,0,0,0,38.01,70.426q.587.846,1.219,1.6A24.137,24.137,0,0,1,26.943,52.543ZM62.771,72.029q.631-.758,1.219-1.6a31.118,31.118,0,0,0,5.121-16.741,23.962,23.962,0,0,1,5.946-1.142A24.137,24.137,0,0,1,62.771,72.029Z"/>
      <path id="Trazado_121585" data-name="Trazado 121585" d="M87.063,14.937A51,51,0,0,0,14.937,87.063,51,51,0,0,0,87.063,14.937Zm11.8,32.309L92.6,40.979a1.494,1.494,0,0,0-2.113,0L81.52,49.943A1.5,1.5,0,0,0,81.082,51a30.058,30.058,0,1,1-.866-7.187,1.494,1.494,0,0,0,2.9-.712,33.237,33.237,0,0,0-11.559-18,32.7,32.7,0,0,0-19.934-7.161l-7.477-7.477L51.611,3A48.075,48.075,0,0,1,98.866,47.247ZM47.247,3.134,40.979,9.4a1.494,1.494,0,0,0,0,2.113l6.591,6.591A33.118,33.118,0,0,0,17.938,50.373l-7.479,7.479L3,50.389A48.075,48.075,0,0,1,47.247,3.134ZM3.134,54.753,9.4,61.021a1.494,1.494,0,0,0,2.113,0l6.591-6.591A33.118,33.118,0,0,0,50.373,84.063l7.479,7.479L50.389,99A48.075,48.075,0,0,1,3.134,54.753ZM54.753,98.866,61.021,92.6a1.494,1.494,0,0,0,0-2.113L54.43,83.893A33.12,33.12,0,0,0,84.064,51.625l7.476-7.476L99,51.611A48.075,48.075,0,0,1,54.753,98.866Z"/>
      <path id="Trazado_121586" data-name="Trazado 121586" d="M51,45.671a5.977,5.977,0,1,0-5.977-5.977A5.983,5.983,0,0,0,51,45.671Zm0-8.965a2.988,2.988,0,1,1-2.988,2.988A2.992,2.992,0,0,1,51,36.706Z"/>
      <path id="Trazado_121587" data-name="Trazado 121587" d="M37.327,47.588A7.507,7.507,0,0,0,44.3,51.306a7.469,7.469,0,0,0,13.408,0,7.469,7.469,0,0,0,6.7-11.612,7.469,7.469,0,0,0-6.7-11.612,7.469,7.469,0,0,0-13.408,0,7.469,7.469,0,0,0-6.7,11.612,7.506,7.506,0,0,0-.265,7.894Zm3.25-8.934a4.482,4.482,0,0,1,4.31-7.466,1.494,1.494,0,0,0,1.8-1.04,4.482,4.482,0,0,1,8.621,0,1.5,1.5,0,0,0,1.8,1.04,4.482,4.482,0,0,1,4.31,7.466,1.494,1.494,0,0,0,0,2.08,4.482,4.482,0,0,1-4.31,7.466,1.5,1.5,0,0,0-1.8,1.04,4.482,4.482,0,0,1-8.621,0,1.492,1.492,0,0,0-1.8-1.04,4.482,4.482,0,0,1-4.31-7.466,1.5,1.5,0,0,0,0-2.081Z"/>
    </g>
  </g>
</svg>
