<svg xmlns="http://www.w3.org/2000/svg" width="417.631" height="384.055" viewBox="0 0 417.631 384.055">
  <g id="Grupo_980322" data-name="Grupo 980322" transform="translate(-705 -2786)">
    <g id="Grupo_980315" data-name="Grupo 980315" transform="translate(705 2786)">
      <path id="Trazado_626479" data-name="Trazado 626479" d="M271.765,227.067c-5.155,39.509,8.281,80.073-61.421,149.75a80.408,80.408,0,1,0,83.2,119.464c29.328-50.721-15.491-88.364,58.17-166.58-25.246-21.085-51.9-26.171-69.388-56.484-8.213-14.23-11.892-28.485-10.564-46.151Z" transform="translate(-143.483 -152.516)" fill="#deebad" fill-rule="evenodd"/>
      <path id="Trazado_626480" data-name="Trazado 626480" d="M573.484,392.724c-31.4-44.561-87.231-31.255-118.453-147.952a80.406,80.406,0,1,0-145.055,12.349c29.3,50.78,84.364,30.683,115.251,133.987,30.6-11.357,48.31-31.442,83.125-31.641,25.6-.15,49.353,11.465,65.132,33.257Z" transform="translate(-171.129 -136.419)" fill="#cee284" fill-rule="evenodd"/>
      <path id="Trazado_626481" data-name="Trazado 626481" d="M271.273,564.678c42.179-12.869,66.746-53.035,170.271-25.244A80.414,80.414,0,1,0,503.4,407.625c-58.515-.032-68.726,57.488-173,32.965-5.476,32.154,3.226,57.62-14.161,87.754a77.684,77.684,0,0,1-44.966,36.335Z" transform="translate(-166.175 -184.578)" fill="#adce32" fill-rule="evenodd"/>
      <path id="Trazado_626482" data-name="Trazado 626482" d="M281.514,460.267a64.494,64.494,0,1,0-23.623,88.1,64.6,64.6,0,0,0,23.623-88.1Z" transform="translate(-146.628 -188.202)" fill="#12263f" fill-rule="evenodd"/>
      <path id="Trazado_626483" data-name="Trazado 626483" d="M439.273,187.958a64.516,64.516,0,1,0-23.6,88.135,64.656,64.656,0,0,0,23.6-88.135Z" transform="translate(-174.636 -139.85)" fill="#12263f" fill-rule="evenodd"/>
      <path id="Trazado_626484" data-name="Trazado 626484" d="M597.752,459.853a64.516,64.516,0,1,0-23.662,88.119,64.677,64.677,0,0,0,23.662-88.119Z" transform="translate(-202.775 -188.126)" fill="#12263f" fill-rule="evenodd"/>
    </g>
    <path id="Trazado_674651" data-name="Trazado 674651" d="M8.979-8.884H5.713V0h-2.2V-8.884H.293v-1.78H8.979ZM15.374-2.2H11.521L10.789,0H8.452l3.97-10.664h2.036L18.45,0H16.113Zm-3.259-1.78H14.78L13.44-7.969Zm11.147-3.01,2-3.677h2.527L24.683-5.376,27.869,0H25.313L23.262-3.735,21.211,0H18.655l3.186-5.376-3.105-5.288h2.527Zm14.29,1.9a6.438,6.438,0,0,1-.557,2.761A4.192,4.192,0,0,1,35.4-.5a4.407,4.407,0,0,1-2.377.645,4.437,4.437,0,0,1-2.366-.637,4.233,4.233,0,0,1-1.611-1.82,6.253,6.253,0,0,1-.579-2.721v-.527a6.4,6.4,0,0,1,.568-2.772,4.226,4.226,0,0,1,1.6-1.838,4.412,4.412,0,0,1,2.369-.641,4.412,4.412,0,0,1,2.369.641,4.226,4.226,0,0,1,1.6,1.838,6.386,6.386,0,0,1,.568,2.765Zm-2.227-.483a4.488,4.488,0,0,0-.6-2.549,1.957,1.957,0,0,0-1.714-.872,1.958,1.958,0,0,0-1.707.861A4.436,4.436,0,0,0,30.7-5.61v.52a4.544,4.544,0,0,0,.6,2.534,1.952,1.952,0,0,0,1.729.9,1.935,1.935,0,0,0,1.7-.868,4.517,4.517,0,0,0,.6-2.531ZM47.82,0h-2.2L41.345-7.017V0h-2.2V-10.664h2.2L45.63-3.633v-7.031h2.19ZM58.5-5.09a6.438,6.438,0,0,1-.557,2.761A4.192,4.192,0,0,1,56.349-.5a4.407,4.407,0,0,1-2.377.645,4.437,4.437,0,0,1-2.366-.637A4.233,4.233,0,0,1,50-2.311a6.253,6.253,0,0,1-.579-2.721v-.527a6.4,6.4,0,0,1,.568-2.772,4.226,4.226,0,0,1,1.6-1.838,4.412,4.412,0,0,1,2.369-.641,4.412,4.412,0,0,1,2.369.641,4.226,4.226,0,0,1,1.6,1.838A6.386,6.386,0,0,1,58.5-5.566Zm-2.227-.483a4.488,4.488,0,0,0-.6-2.549,1.957,1.957,0,0,0-1.714-.872,1.958,1.958,0,0,0-1.707.861,4.436,4.436,0,0,0-.608,2.523v.52a4.544,4.544,0,0,0,.6,2.534,1.952,1.952,0,0,0,1.729.9,1.935,1.935,0,0,0,1.7-.868,4.517,4.517,0,0,0,.6-2.531Zm6.694-5.09L65.706-2.93l2.725-7.734h2.886V0h-2.2V-2.915l.22-5.032L66.453,0H64.944L62.073-7.939l.22,5.024V0H60.1V-10.664ZM75.571,0h-2.2V-10.664h2.2ZM74.89-13.542H77.2l-2.029,2.271H73.447ZM83.628-2.2H79.775L79.043,0H76.707l3.97-10.664h2.036L86.7,0H84.368Zm-3.259-1.78h2.666l-1.34-3.992Z" transform="translate(866.196 2868.616)" fill="#fff"/>
    <path id="Trazado_674650" data-name="Trazado 674650" d="M7.368-4.358H3.149V0H.952V-10.664H7.9v1.78H3.149V-6.13H7.368ZM11.506,0h-2.2V-10.664h2.2ZM15.74-1.765h4.666V0H13.542V-10.664h2.2ZM29.956-5.09A6.438,6.438,0,0,1,29.4-2.329,4.192,4.192,0,0,1,27.806-.5,4.407,4.407,0,0,1,25.43.146a4.437,4.437,0,0,1-2.366-.637,4.233,4.233,0,0,1-1.611-1.82,6.253,6.253,0,0,1-.579-2.721v-.527a6.4,6.4,0,0,1,.568-2.772,4.226,4.226,0,0,1,1.6-1.838,4.412,4.412,0,0,1,2.369-.641,4.412,4.412,0,0,1,2.369.641,4.226,4.226,0,0,1,1.6,1.838,6.386,6.386,0,0,1,.568,2.765Zm-2.227-.483a4.488,4.488,0,0,0-.6-2.549,1.957,1.957,0,0,0-1.714-.872,1.958,1.958,0,0,0-1.707.861A4.436,4.436,0,0,0,23.1-5.61v.52a4.544,4.544,0,0,0,.6,2.534,1.952,1.952,0,0,0,1.729.9,1.935,1.935,0,0,0,1.7-.868,4.517,4.517,0,0,0,.6-2.531ZM39.99-1.348a3.814,3.814,0,0,1-1.677,1.1,7.024,7.024,0,0,1-2.4.392,4.759,4.759,0,0,1-2.428-.6,4.03,4.03,0,0,1-1.611-1.754,6.174,6.174,0,0,1-.582-2.7V-5.64A6.557,6.557,0,0,1,31.827-8.4a3.982,3.982,0,0,1,1.553-1.787,4.473,4.473,0,0,1,2.377-.619,4.454,4.454,0,0,1,2.966.9A3.866,3.866,0,0,1,39.99-7.273H37.852a2.126,2.126,0,0,0-.648-1.34,2.07,2.07,0,0,0-1.381-.425,1.948,1.948,0,0,0-1.707.842,4.429,4.429,0,0,0-.593,2.5v.681a4.216,4.216,0,0,0,.637,2.534,2.182,2.182,0,0,0,1.868.857,2.437,2.437,0,0,0,1.765-.527V-3.984h-2V-5.6h4.2Zm8.2-3.274H43.967v2.856h4.951V0H41.77V-10.664H48.9v1.78H43.967v2.542h4.219ZM58.879,0h-2.2L52.4-7.017V0h-2.2V-10.664h2.2l4.285,7.031v-7.031h2.19Zm4.255,0h-2.2V-10.664h2.2Zm8.057-2.2H67.339L66.606,0H64.27l3.97-10.664h2.036L74.268,0H71.931Zm-3.259-1.78H70.6l-1.34-3.992Z" transform="translate(744.477 3098.896)" fill="#fff"/>
    <path id="Trazado_674652" data-name="Trazado 674652" d="M-43.4-3.757V0h-2.2V-10.664h4.16a4.813,4.813,0,0,1,2.113.439,3.238,3.238,0,0,1,1.4,1.249,3.482,3.482,0,0,1,.491,1.842A3.062,3.062,0,0,1-38.5-4.662a4.469,4.469,0,0,1-2.97.9Zm0-1.78h1.963a1.93,1.93,0,0,0,1.329-.41,1.492,1.492,0,0,0,.458-1.172,1.759,1.759,0,0,0-.461-1.267,1.724,1.724,0,0,0-1.274-.5H-43.4ZM-31.97-3.9h-1.75V0h-2.2V-10.664h3.962a4.479,4.479,0,0,1,2.915.842,2.907,2.907,0,0,1,1.025,2.38,3.281,3.281,0,0,1-.472,1.82A3.222,3.222,0,0,1-29.919-4.46L-27.612-.1V0h-2.358Zm-1.75-1.78h1.772A1.815,1.815,0,0,0-30.667-6.1a1.505,1.505,0,0,0,.454-1.161,1.611,1.611,0,0,0-.428-1.187,1.781,1.781,0,0,0-1.315-.432h-1.765Zm16.135.593a6.438,6.438,0,0,1-.557,2.761A4.192,4.192,0,0,1-19.735-.5a4.407,4.407,0,0,1-2.377.645,4.437,4.437,0,0,1-2.366-.637,4.233,4.233,0,0,1-1.611-1.82,6.253,6.253,0,0,1-.579-2.721v-.527A6.4,6.4,0,0,1-26.1-8.331a4.226,4.226,0,0,1,1.6-1.838,4.412,4.412,0,0,1,2.369-.641,4.412,4.412,0,0,1,2.369.641,4.226,4.226,0,0,1,1.6,1.838,6.386,6.386,0,0,1,.568,2.765Zm-2.227-.483a4.488,4.488,0,0,0-.6-2.549,1.957,1.957,0,0,0-1.714-.872,1.958,1.958,0,0,0-1.707.861,4.436,4.436,0,0,0-.608,2.523v.52a4.544,4.544,0,0,0,.6,2.534,1.952,1.952,0,0,0,1.729.9,1.935,1.935,0,0,0,1.7-.868,4.517,4.517,0,0,0,.6-2.531ZM-7.617-3.552A3.774,3.774,0,0,1-8.888-.842a4.463,4.463,0,0,1-3.021.989,4.013,4.013,0,0,1-3.226-1.381,5.661,5.661,0,0,1-1.176-3.79v-.652a6.393,6.393,0,0,1,.542-2.71,4.062,4.062,0,0,1,1.549-1.8,4.339,4.339,0,0,1,2.34-.626,4.348,4.348,0,0,1,2.974.989A4.055,4.055,0,0,1-7.6-7.046H-9.8a2.227,2.227,0,0,0-.575-1.5,2.129,2.129,0,0,0-1.505-.465,1.867,1.867,0,0,0-1.644.787,4.413,4.413,0,0,0-.56,2.443v.806a4.723,4.723,0,0,0,.524,2.527,1.832,1.832,0,0,0,1.652.8,2.169,2.169,0,0,0,1.52-.465,2.1,2.1,0,0,0,.575-1.439ZM.242-4.622H-3.977v2.856H.974V0H-6.174V-10.664H.959v1.78H-3.977v2.542H.242ZM7.793-2.8a1.128,1.128,0,0,0-.439-.956,5.764,5.764,0,0,0-1.582-.7,11.215,11.215,0,0,1-1.809-.729A2.956,2.956,0,0,1,2.146-7.83a2.575,2.575,0,0,1,.487-1.542,3.177,3.177,0,0,1,1.4-1.058,5.265,5.265,0,0,1,2.047-.381,4.793,4.793,0,0,1,2.036.414A3.242,3.242,0,0,1,9.5-9.229,3.057,3.057,0,0,1,10-7.515H7.8a1.438,1.438,0,0,0-.461-1.139,1.9,1.9,0,0,0-1.3-.406,2.026,2.026,0,0,0-1.252.341,1.074,1.074,0,0,0-.447.9,1.029,1.029,0,0,0,.524.872,5.916,5.916,0,0,0,1.542.659,6.661,6.661,0,0,1,2.732,1.4A2.786,2.786,0,0,1,10-2.812,2.566,2.566,0,0,1,8.95-.641,4.585,4.585,0,0,1,6.13.146,5.445,5.445,0,0,1,3.889-.3,3.546,3.546,0,0,1,2.347-1.538a3.161,3.161,0,0,1-.531-1.816h2.2q0,1.765,2.109,1.765a2.052,2.052,0,0,0,1.223-.319A1.037,1.037,0,0,0,7.793-2.8ZM20.244-5.09a6.438,6.438,0,0,1-.557,2.761A4.192,4.192,0,0,1,18.094-.5a4.407,4.407,0,0,1-2.377.645,4.437,4.437,0,0,1-2.366-.637,4.233,4.233,0,0,1-1.611-1.82,6.253,6.253,0,0,1-.579-2.721v-.527a6.4,6.4,0,0,1,.568-2.772,4.226,4.226,0,0,1,1.6-1.838,4.412,4.412,0,0,1,2.369-.641,4.412,4.412,0,0,1,2.369.641,4.226,4.226,0,0,1,1.6,1.838,6.386,6.386,0,0,1,.568,2.765Zm-2.227-.483a4.488,4.488,0,0,0-.6-2.549A1.957,1.957,0,0,0,15.7-8.994,1.958,1.958,0,0,0,14-8.134a4.436,4.436,0,0,0-.608,2.523v.52a4.544,4.544,0,0,0,.6,2.534,1.952,1.952,0,0,0,1.729.9,1.935,1.935,0,0,0,1.7-.868,4.517,4.517,0,0,0,.6-2.531ZM25.576,0V-10.664h3.281a4.983,4.983,0,0,1,2.516.634,4.418,4.418,0,0,1,1.732,1.8,5.557,5.557,0,0,1,.623,2.655v.491a5.573,5.573,0,0,1-.612,2.644A4.38,4.38,0,0,1,31.392-.645,5.021,5.021,0,0,1,28.879,0Zm2.2-8.884v7.119h1.062a2.386,2.386,0,0,0,1.97-.842,3.806,3.806,0,0,0,.7-2.41v-.564a3.867,3.867,0,0,0-.674-2.465,2.378,2.378,0,0,0-1.97-.839ZM41.741-4.622H37.522v2.856h4.951V0H35.325V-10.664h7.134v1.78H37.522v2.542h4.219Zm-75.1,13h-4.219v2.856h4.951V13h-7.148V2.336h7.134v1.78h-4.937V6.657h4.219Zm5.962,1.978,2.417-8.02h2.446L-26.25,13h-2.292l-3.7-10.664H-29.8ZM-12.869,7.91a6.438,6.438,0,0,1-.557,2.761A4.192,4.192,0,0,1-15.018,12.5a4.407,4.407,0,0,1-2.377.645,4.437,4.437,0,0,1-2.366-.637,4.233,4.233,0,0,1-1.611-1.82,6.253,6.253,0,0,1-.579-2.721V7.441a6.4,6.4,0,0,1,.568-2.772,4.226,4.226,0,0,1,1.6-1.838,4.412,4.412,0,0,1,2.369-.641,4.412,4.412,0,0,1,2.369.641,4.226,4.226,0,0,1,1.6,1.838,6.386,6.386,0,0,1,.568,2.765ZM-15.1,7.426a4.488,4.488,0,0,0-.6-2.549,1.957,1.957,0,0,0-1.714-.872,1.958,1.958,0,0,0-1.707.861,4.436,4.436,0,0,0-.608,2.523v.52a4.544,4.544,0,0,0,.6,2.534,1.952,1.952,0,0,0,1.729.9,1.935,1.935,0,0,0,1.7-.868,4.517,4.517,0,0,0,.6-2.531Zm6.021,3.809h4.666V13h-6.863V2.336h2.2Zm13.821-8.9V9.36a3.6,3.6,0,0,1-1.095,2.769A4.221,4.221,0,0,1,.659,13.146a4.269,4.269,0,0,1-2.966-.989A3.535,3.535,0,0,1-3.428,9.44v-7.1h2.2V9.375a2.032,2.032,0,0,0,.5,1.527,1.926,1.926,0,0,0,1.388.48q1.853,0,1.882-1.948v-7.1ZM14.919,9.448a3.774,3.774,0,0,1-1.271,2.71,4.463,4.463,0,0,1-3.021.989A4.013,4.013,0,0,1,7.4,11.766a5.661,5.661,0,0,1-1.176-3.79V7.324a6.393,6.393,0,0,1,.542-2.71,4.062,4.062,0,0,1,1.549-1.8,4.339,4.339,0,0,1,2.34-.626,4.348,4.348,0,0,1,2.974.989,4.055,4.055,0,0,1,1.3,2.776h-2.2a2.227,2.227,0,0,0-.575-1.5,2.129,2.129,0,0,0-1.505-.465,1.867,1.867,0,0,0-1.644.787,4.413,4.413,0,0,0-.56,2.443v.806a4.723,4.723,0,0,0,.524,2.527,1.832,1.832,0,0,0,1.652.8,2.169,2.169,0,0,0,1.52-.465,2.1,2.1,0,0,0,.575-1.439ZM18.7,13H16.5V2.336h2.2Zm10.8-5.09a6.438,6.438,0,0,1-.557,2.761A4.192,4.192,0,0,1,27.345,12.5a4.707,4.707,0,0,1-4.742.007,4.233,4.233,0,0,1-1.611-1.82,6.253,6.253,0,0,1-.579-2.721V7.441a6.4,6.4,0,0,1,.568-2.772,4.226,4.226,0,0,1,1.6-1.838,4.7,4.7,0,0,1,4.739,0,4.226,4.226,0,0,1,1.6,1.838,6.386,6.386,0,0,1,.568,2.765Zm-2.227-.483a4.488,4.488,0,0,0-.6-2.549,2.122,2.122,0,0,0-3.42-.011,4.436,4.436,0,0,0-.608,2.523v.52a4.544,4.544,0,0,0,.6,2.534,2.1,2.1,0,0,0,3.428.033,4.517,4.517,0,0,0,.6-2.531ZM25.378-.521h2.307L25.657,1.75H23.936ZM39.763,13h-2.2L33.289,5.983V13h-2.2V2.336h2.2l4.285,7.031V2.336h2.19Z" transform="translate(1040.672 3092.317)" fill="#fff"/>
  </g>
</svg>
