<svg xmlns="http://www.w3.org/2000/svg" width="400" height="189.1" viewBox="0 0 400 189.1">
  <g id="Grupo_983640" data-name="Grupo 983640" transform="translate(6735.133 10768.597)">
    <path id="Trazado_626477" data-name="Trazado 626477" d="M12.7,0H387.3C394.315,0,400,2.816,400,6.289V182.81c0,3.474-5.685,6.289-12.7,6.289H12.7C5.685,189.1,0,186.284,0,182.81V6.289C0,2.816,5.685,0,12.7,0Z" transform="translate(-6735.133 -10768.597)" fill="#f6f6f6"/>
    <path id="Trazado_674650" data-name="Trazado 674650" d="M32.138-17.931q0,9-3.723,13.761T17.514.6Q10.425.6,6.672-4.081T2.83-17.484v-7.982q0-9.084,3.768-13.791t10.857-4.706q7.089,0,10.842,4.661t3.842,13.388ZM23.53-26.707q0-5.4-1.474-7.856a4.982,4.982,0,0,0-4.6-2.46,4.894,4.894,0,0,0-4.483,2.34q-1.445,2.34-1.534,7.319v10.554q0,5.307,1.445,7.886a4.917,4.917,0,0,0,4.632,2.579,4.834,4.834,0,0,0,4.557-2.474q1.4-2.474,1.459-7.573ZM67.672,0H37.946V-5.9L51.975-20.85a34.609,34.609,0,0,0,4.274-5.51,8.853,8.853,0,0,0,1.385-4.468,6.624,6.624,0,0,0-1.459-4.542A5.268,5.268,0,0,0,52-37.023a5.682,5.682,0,0,0-4.6,2.01,7.964,7.964,0,0,0-1.683,5.287H37.083a14.217,14.217,0,0,1,1.891-7.238A13.33,13.33,0,0,1,44.32-42.1a16.25,16.25,0,0,1,7.833-1.862q6.7,0,10.41,3.217t3.708,9.084A14.582,14.582,0,0,1,64.6-25.109a36.415,36.415,0,0,1-5.719,7.774L49.026-6.94H67.672Z" transform="translate(-6417 -10601)" fill="#e2e2e2"/>
  </g>
</svg>
