<svg xmlns="http://www.w3.org/2000/svg" xmlns:xlink="http://www.w3.org/1999/xlink" width="85.141" height="85.141" viewBox="0 0 85.141 85.141">
  <defs>
    <clipPath id="clip-path">
      <rect id="Rectángulo_34433" data-name="Rectángulo 34433" width="85.141" height="85.141" transform="translate(526 10812)" fill="#fff" stroke="#707070" stroke-width="1"/>
    </clipPath>
  </defs>
  <g id="Grupo_85315" data-name="Grupo 85315" transform="translate(-829.859 -6251)">
    <circle id="Elipse_4908" data-name="Elipse 4908" cx="42.5" cy="42.5" r="42.5" transform="translate(830 6251)" fill="#0b481e"/>
    <g id="Enmascarar_grupo_115" data-name="Enmascarar grupo 115" transform="translate(303.859 -4561)" clip-path="url(#clip-path)">
      <g id="solar" transform="translate(526.005 10812)">
        <g id="Grupo_84915" data-name="Grupo 84915" transform="translate(4.646 6.652)">
          <circle id="Elipse_4955" data-name="Elipse 4955" cx="24.944" cy="24.944" r="24.944" transform="translate(28.935 26.939)" fill="#72d8ff"/>
          <g id="Grupo_84914" data-name="Grupo 84914" transform="translate(28.935 26.939)">
            <path id="Trazado_119368" data-name="Trazado 119368" d="M51.268,43.058a7.557,7.557,0,0,1,3.961,1.066,25.027,25.027,0,0,1-7.6,9.457,10.175,10.175,0,0,1-2.6-5.847C45.032,45.151,47.824,43.058,51.268,43.058Z" transform="translate(-7.617 -8.76)" fill="#a0e892"/>
            <path id="Trazado_119369" data-name="Trazado 119369" d="M38.28,21.3A24.95,24.95,0,0,1,61.111,36.188c-8.624,4.277-10.077,16.584-14.278,16.584-3.426,0-9.793-10.811-9.793-13.651,0-5.152,10.614-1.156,10.614-5.616,0-4.009-15.738-3.168-11.953-12.069A25.4,25.4,0,0,1,38.28,21.3Z" transform="translate(-13.336 -21.305)" fill="#a0e892"/>
            <path id="Trazado_119370" data-name="Trazado 119370" d="M33.773,50.379c2.646,6.841,9.455-2.145,11.853,15.581a24.955,24.955,0,0,1-21.937-35.6c10.789,3.873,13.684,6.864,13.684,9.553C37.374,43.483,32.28,46.518,33.773,50.379Z" transform="translate(-21.302 -16.082)" fill="#a0e892"/>
          </g>
          <circle id="Elipse_4956" data-name="Elipse 4956" cx="9.977" cy="9.977" r="9.977" fill="#ffda8f"/>
        </g>
        <g id="Grupo_84916" data-name="Grupo 84916" transform="translate(0)">
          <path id="Trazado_119371" data-name="Trazado 119371" d="M11.495,27.213a1.663,1.663,0,0,0,0,2.352l4.989,4.989A1.663,1.663,0,1,0,18.835,32.2l-4.989-4.989a1.663,1.663,0,0,0-2.352,0Z" transform="translate(6.343 15.412)"/>
          <path id="Trazado_119372" data-name="Trazado 119372" d="M12.964,31.6a1.663,1.663,0,0,0,3.326,0V28.148a11.7,11.7,0,0,0,7.482-4.319l2.985,1.724a1.663,1.663,0,1,0,1.663-2.88l-2.983-1.723a11.641,11.641,0,0,0,0-8.641l2.983-1.722a1.663,1.663,0,1,0-1.663-2.88L23.771,9.429A11.7,11.7,0,0,0,16.29,5.111V1.663a1.663,1.663,0,0,0-3.326,0V5.11A11.705,11.705,0,0,0,5.483,9.429L2.5,7.706a1.663,1.663,0,0,0-1.663,2.88l2.983,1.722a11.641,11.641,0,0,0,0,8.641L.835,22.672A1.663,1.663,0,0,0,2.5,25.552l2.985-1.724a11.7,11.7,0,0,0,7.482,4.319ZM6.312,16.629a8.315,8.315,0,1,1,8.315,8.315,8.312,8.312,0,0,1-8.315-8.315Z" transform="translate(-0.003 0)"/>
          <path id="Trazado_119373" data-name="Trazado 119373" d="M27.315,11.392a1.663,1.663,0,0,0,0,2.352L32.3,18.733a1.663,1.663,0,0,0,2.352-2.352l-4.989-4.989a1.663,1.663,0,0,0-2.352,0Z" transform="translate(15.466 6.289)"/>
          <circle id="Elipse_4957" data-name="Elipse 4957" cx="1.663" cy="1.663" r="1.663" transform="translate(38.57 73.833)"/>
          <path id="Trazado_119374" data-name="Trazado 119374" d="M57.9,27.816,72.444,13.271v5.963a1.663,1.663,0,0,0,3.326,0V9.257a1.663,1.663,0,0,0-1.663-1.663H64.129a1.663,1.663,0,0,0,0,3.326h5.963L54.152,26.86l-3.813-3.813A1.663,1.663,0,0,0,47.987,25.4L50.4,27.813A26.635,26.635,0,0,0,27.807,50.4L25.4,47.99a1.663,1.663,0,1,0-2.352,2.352l3.813,3.813L10.917,70.1V64.132a1.663,1.663,0,0,0-3.326,0V74.11a1.663,1.663,0,0,0,1.663,1.663h9.977a1.663,1.663,0,1,0,0-3.326H13.268L27.806,57.909a26.292,26.292,0,0,0,2.345,7.743,1.663,1.663,0,1,0,3-1.439,23.066,23.066,0,0,1-2.279-10.057h0a23.087,23.087,0,0,1,1.625-8.56c9.145,3.453,11.121,5.944,11.121,7.45,0,1.045-.8,2.252-1.641,3.529-1.338,2.025-3,4.546-1.847,7.536,1.323,3.42,3.647,3.9,5.514,4.295a5.023,5.023,0,0,1,3.341,1.669c1.1,1.333,1.971,3.759,2.585,7.217a23.26,23.26,0,0,1-9.029-2.952,1.663,1.663,0,1,0-1.661,2.881,26.607,26.607,0,1,0,17.02-49.4Zm-5.114,3.1c.456-.026.913-.041,1.366-.041A23.3,23.3,0,0,1,74.81,43.415C70.5,46.155,68.1,50.627,66.135,54.29,65,56.4,63.6,59.016,62.706,59.016c-.492-.009-2.314-1.253-4.811-5.04-2.137-3.241-3.319-6.165-3.319-6.948,0-.436.07-.669.71-.919a13.153,13.153,0,0,1,3.345-.511,15.269,15.269,0,0,0,3.91-.624,3.638,3.638,0,0,0,2.649-3.561c0-2.719-2.959-3.765-6.092-4.873-2.575-.911-5.494-1.943-6.25-3.661a2.944,2.944,0,0,1-.062-1.962ZM69.515,71.643a7.662,7.662,0,0,1-1.229-3.458c0-1.633,2.094-3.013,4.573-3.013a6.462,6.462,0,0,1,1.682.22A23.465,23.465,0,0,1,69.515,71.643Zm6.435-9.3a9.63,9.63,0,0,0-3.091-.5c-4.355,0-7.9,2.844-7.9,6.339a11.048,11.048,0,0,0,1.9,5.477,23.017,23.017,0,0,1-11.9,3.759c-.728-4.514-1.826-7.544-3.422-9.47a8.158,8.158,0,0,0-5.222-2.8c-1.612-.337-2.422-.506-3.092-2.239-.511-1.322.245-2.572,1.52-4.5,1.028-1.555,2.192-3.317,2.192-5.362,0-3.83-3.911-7-13-10.457a23.455,23.455,0,0,1,15.4-11.212,5.813,5.813,0,0,0,.456,2.842c1.335,3.035,4.974,4.322,8.185,5.457,1.325.468,3.525,1.247,3.875,1.787,0,.156-.041.235-.455.385a13.3,13.3,0,0,1-3.026.434,15.233,15.233,0,0,0-4.308.731,4.125,4.125,0,0,0-2.824,4.016c0,2.307,2.443,6.622,3.887,8.807,2.852,4.317,5.4,6.507,7.569,6.507,2.88,0,4.492-3,6.359-6.478,1.7-3.164,3.761-7,7.088-9.342a23.376,23.376,0,0,1-.2,15.821Z" transform="translate(4.373 4.379)"/>
        </g>
      </g>
    </g>
  </g>
</svg>
