<svg xmlns="http://www.w3.org/2000/svg" width="400" height="189.1" viewBox="0 0 400 189.1">
  <g id="Grupo_983694" data-name="Grupo 983694" transform="translate(6735.133 10394.835)">
    <g id="Grupo_980297" data-name="Grupo 980297" transform="translate(569.867 -13561.796)">
      <path id="Trazado_626477" data-name="Trazado 626477" d="M12.7,0H387.3C394.315,0,400,2.816,400,6.289V182.81c0,3.474-5.685,6.289-12.7,6.289H12.7C5.685,189.1,0,186.284,0,182.81V6.289C0,2.816,5.685,0,12.7,0Z" transform="translate(-7305 3166.961)" fill="#f6f6f6"/>
    </g>
    <path id="Trazado_678209" data-name="Trazado 678209" d="M32.138-17.931q0,9-3.723,13.761T17.514.6Q10.425.6,6.672-4.081T2.83-17.484v-7.982q0-9.084,3.768-13.791t10.857-4.706q7.089,0,10.842,4.661t3.842,13.388ZM23.53-26.707q0-5.4-1.474-7.856a4.982,4.982,0,0,0-4.6-2.46,4.894,4.894,0,0,0-4.483,2.34q-1.445,2.34-1.534,7.319v10.554q0,5.307,1.445,7.886a4.917,4.917,0,0,0,4.632,2.579,4.834,4.834,0,0,0,4.557-2.474q1.4-2.474,1.459-7.573Zm43.9-11.855L50.665,0H41.58l16.8-36.427H36.814v-6.94H67.434Z" transform="translate(-6414.133 -10222.735)" fill="#e2e2e2"/>
  </g>
</svg>
