<svg xmlns="http://www.w3.org/2000/svg" width="400" height="223.687" viewBox="0 0 400 223.687">
  <g id="Grupo_983642" data-name="Grupo 983642" transform="translate(6735.133 10189.497)">
    <path id="Trazado_626477" data-name="Trazado 626477" d="M12.7,0H387.3C394.315,0,400,3.331,400,7.44V216.247c0,4.109-5.685,7.44-12.7,7.44H12.7c-7.013,0-12.7-3.331-12.7-7.44V7.44C0,3.331,5.685,0,12.7,0Z" transform="translate(-6735.133 -10189.497)" fill="#f6f6f6"/>
    <path id="Trazado_674652" data-name="Trazado 674652" d="M32.138-17.931q0,9-3.723,13.761T17.514.6Q10.425.6,6.672-4.081T2.83-17.484v-7.982q0-9.084,3.768-13.791t10.857-4.706q7.089,0,10.842,4.661t3.842,13.388ZM23.53-26.707q0-5.4-1.474-7.856a4.982,4.982,0,0,0-4.6-2.46,4.894,4.894,0,0,0-4.483,2.34q-1.445,2.34-1.534,7.319v10.554q0,5.307,1.445,7.886a4.917,4.917,0,0,0,4.632,2.579,4.834,4.834,0,0,0,4.557-2.474q1.4-2.474,1.459-7.573Zm15.7,5.381,2.5-22.041h24.3v7.178H48.788l-1.072,9.323A13.647,13.647,0,0,1,54.239-28.5q6.2,0,9.71,3.842T67.463-13.91a15.723,15.723,0,0,1-1.772,7.521,12.509,12.509,0,0,1-5.078,5.153A15.854,15.854,0,0,1,52.809.6,16.835,16.835,0,0,1,45.512-1,12.944,12.944,0,0,1,40.2-5.48a12.217,12.217,0,0,1-2.07-6.583h8.519a6.363,6.363,0,0,0,1.891,4.215,6,6,0,0,0,4.244,1.5,5.292,5.292,0,0,0,4.5-2.1,9.728,9.728,0,0,0,1.579-5.942,8.044,8.044,0,0,0-1.817-5.659,6.667,6.667,0,0,0-5.153-1.966A7.451,7.451,0,0,0,46.912-20.4l-.834.774Z" transform="translate(-6417 -9989)" fill="#e2e2e2"/>
  </g>
</svg>
