<svg xmlns="http://www.w3.org/2000/svg" xmlns:xlink="http://www.w3.org/1999/xlink" width="303.726" height="283.875" viewBox="0 0 303.726 283.875">
  <defs>
    <clipPath id="clip-path">
      <path id="Trazado_121778" data-name="Trazado 121778" d="M129.861,282.785c2-.4,2.243,1.649,1.847,2.441-.792,2.177-3.96,1.649-5.741,1.847a67.165,67.165,0,0,0-12.074,2.969c-2.573.792-5.344.792-7.918,1.188-2.771.2-5.542,1.188-8.116,1.584a25.019,25.019,0,0,1-14.252-2.177c-2.177-.99-11.283-5.74-8.511-8.907,1.584-1.781,7.821-10.176,10.394-10.176,4.355,0,7.737-1.194,12.092-1.986,4.157-.594,10.264,1.988,14.619,2.978,5.146.99,6.749,5.686,12.093,5.686Z" transform="translate(-74.576 -269.479)" fill="none"/>
    </clipPath>
    <clipPath id="clip-path-2">
      <path id="Trazado_121799" data-name="Trazado 121799" d="M173.363,344.395c2-.4,2.243,1.649,1.847,2.441-.792,2.177-3.96,1.649-5.741,1.847a67.162,67.162,0,0,0-12.074,2.969c-2.573.792-5.344.792-7.918,1.188-2.771.2-5.542,1.188-8.116,1.584a25.019,25.019,0,0,1-14.252-2.177c-2.177-.99-11.283-5.74-8.511-8.907,1.584-1.781,7.821-10.176,10.394-10.176,4.355,0,7.737-1.193,12.092-1.985,4.157-.594,10.264,1.988,14.619,2.978,5.146.99,6.749,5.685,12.093,5.685Z" transform="translate(-118.078 -331.089)" fill="none"/>
    </clipPath>
  </defs>
  <g id="Grupo_85714" data-name="Grupo 85714" transform="translate(-47.419 -88.732)">
    <g id="Grupo_85703" data-name="Grupo 85703" transform="translate(140.217 88.732)">
      <path id="Trazado_121678" data-name="Trazado 121678" d="M234.691,303.706c-6.1-1.207-58.289-9.091-53.11,4.72.764,2.036,2.037,2.036.51,3.819-1.274,1.272-4.584,1.527-6.112,1.782-3.565.509-7.894.763-9.931,4.329-8.913,15.533,26.483,27.246,36.159,30.3,14.77,4.583,29.028,8.914,44.562,9.931a43.607,43.607,0,0,0,9.931-.253c4.075-.511,6.112-2.039,9.423-4.075,5.6-3.565,13.751.764,20.117.509,5.857-.255,16.3-2.037,19.351-8.148,4.075-8.149-10.184-11.968-14.768-15.024-3.566-2.546-.764-6.112-4.33-8.658a96.456,96.456,0,0,0-27.04-12.911C251.283,307.664,243.046,305.361,234.691,303.706Z" transform="translate(-164.623 -132.804)" fill="#917f73" opacity="0.5" style="mix-blend-mode: multiply;isolation: isolate"/>
      <g id="Grupo_85702" data-name="Grupo 85702" transform="translate(27.542)">
        <g id="Grupo_85684" data-name="Grupo 85684" transform="translate(0.63 89.251)">
          <g id="Grupo_85679" data-name="Grupo 85679" transform="translate(41.587 72.248)">
            <path id="Trazado_121679" data-name="Trazado 121679" d="M254.81,338.707c-1.781.2-1.584,2.177-1.584,3.761,0,2.573-.2,3.563,2.177,4.553a9.63,9.63,0,0,0,5.74.4c.99-.4,1.188-1.584,2.177-1.386,1.583.2,1.188,1.781,1.781,2.573,1.583,1.584,3.76,1.979,5.937,2.177a33.081,33.081,0,0,0,12.47-.4c2.177-.594,5.542-3.167,3.761-6.136-1.386-2.177-6.136,0-8.511,0-3.167.2-5.74-.792-8.511-1.979-2.375-.99-4.751-2.771-7.521-2.573Z" transform="translate(-252.83 -302.286)" fill="#ccb36d"/>
            <path id="Trazado_121680" data-name="Trazado 121680" d="M252.728,294.884s.594,12.272.99,18.408c.2,2.177.2,4.157.2,6.334s-.792,3.761-.99,5.938c-.2,1.584-.4,4.355.594,5.344,1.188,1.386,4.553,1.781,6.334,1.979.792.2,2.375-.2,3.365.2,1.188.4,2.177,1.781,3.562,2.375a19.356,19.356,0,0,0,7.522,1.188c3.959,0,11.865-.43,12.47-2.573.349-5.906-3.167-6.73-7.126-8.313-1.979-.99-4.553-1.188-5.938-3.167-.99-1.781-.792-4.553-.99-6.532-.594-4.355-.792-8.709-.99-13.064-.2-2.375.2-10.293.2-10.293Z" transform="translate(-252.728 -292.707)" fill="#ffe576"/>
          </g>
          <g id="Grupo_85680" data-name="Grupo 85680" transform="translate(0.306 72.315)">
            <path id="Trazado_121681" data-name="Trazado 121681" d="M201.169,338.791c0,2.111-.66,4.618-.528,6.73a2.654,2.654,0,0,0,2.771,2.507c2.112.264,2.244,0,3.7,1.848,2.375,3.167,4.487,4.882,8.577,5.146a50.691,50.691,0,0,0,8.974.264c1.979-.264,5.674-.66,6.994-2.112,1.979-1.979,1.188-5.542-1.847-4.486-2.9,1.188-6.73,3.035-9.37.4-1.451-1.452-.923-3.431-1.847-4.883-1.055-1.584-3.3-1.847-4.883-2.375Z" transform="translate(-200.597 -302.37)" fill="#ccb36d"/>
            <path id="Trazado_121682" data-name="Trazado 121682" d="M202.877,293.055c0,6.07-.132,12.14-.4,18.078-.132,3.167-.528,6.2-.528,9.237,0,3.167-1.188,5.542-1.188,8.577,0,.66-.4,3.036,0,3.563.66.924,2.771.66,3.7,1.056,1.451.66,2.111,2.375,3.167,3.694a14.974,14.974,0,0,0,3.827,3.3c5.279,3.3,11.348,3.035,17.155,1.188a7.8,7.8,0,0,0,3.431-2.4c.69-5.389-2.243-6.445-5.279-8.028-2.9-1.451-6.6-3.167-7.257-6.73-.66-3.167,0-6.994.264-10.161.528-7.126.66-14.515,1.716-21.641Z" transform="translate(-200.59 -292.791)" fill="#ffe576"/>
          </g>
          <g id="Grupo_85683" data-name="Grupo 85683">
            <path id="Trazado_121683" data-name="Trazado 121683" d="M203.193,204.822c1.979,9.5,1.188,19.6,1.188,29.3,0,4.157-.2,8.116-.2,12.272-.2,1.979-.4,3.959-.4,5.938,0,3.365-1.188,3.365-2.771,6.136-2.375,4.553,3.167,6.928.99,11.085-1.188,2.375-3.167,3.563-.4,5.74a14.011,14.011,0,0,0,6.334,1.979,41.18,41.18,0,0,0,13.064-.594c2.375-.594,4.553-1.188,3.563-3.959-.2-.792-1.584-1.781-1.386-2.573.4-1.386,2.375-1.386,2.573-2.969.2-1.979-2.177-2.969-1.979-5.146.2-1.386,1.584-3.563,1.979-5.146.99-3.959,4.256-30.879,5.443-33.848,0,0,8.808,39.984,8.808,40.974-.2,1.979-.99.99-1.979,2.375-.99,1.188-.99,1.979,0,2.969,1.187,1.386,1.781-.2,1.385,1.979-.4,2.771-2.572,3.563.99,5.146,3.761,1.781,8.709,1.386,12.668.99,2.77-.2,10.886.4,11.876-3.167.594-2.375-2.573-3.563-2.177-5.938.2-1.188,1.188-1.386.792-2.969-.4-1.386-2.177-1.781-2.969-3.167-1.386-3.167-.4-9.105-.594-12.47a71.3,71.3,0,0,0-2.375-12.668c-1.188-3.959-.99-7.918-1.386-12.074-.792-7.918-2.77-15.835-4.354-23.555Z" transform="translate(-200.204 -201.457)" fill="#cdaa80"/>
            <g id="Grupo_85681" data-name="Grupo 85681" transform="translate(5.621 60.768)">
              <path id="Trazado_121684" data-name="Trazado 121684" d="M220.913,278.207c-3.959,1.682-9.4.99-13.559.99" transform="translate(-207.314 -278.207)" fill="none" stroke="#967654" stroke-miterlimit="10" stroke-width="1"/>
              <path id="Trazado_121685" data-name="Trazado 121685" d="M207.937,282.707c.99,1.584,5.641,1.781,7.225,1.979,2.573.1,5.245-.1,7.72,0,0,1.584-4.652,2.375-5.938,2.474a24.527,24.527,0,0,1-7.126-.594c-.4-.1-1.88-.594-2.276-.3-.792.594.594,1.682,1.188,1.979,3.266,2.177,8.313,2.078,11.975,1.584" transform="translate(-207.303 -279.144)" fill="none" stroke="#967654" stroke-miterlimit="10" stroke-width="1"/>
            </g>
            <g id="Grupo_85682" data-name="Grupo 85682" transform="translate(42.675 60.669)">
              <path id="Trazado_121686" data-name="Trazado 121686" d="M268.354,278.082a36.076,36.076,0,0,1-8.016,1.682c-1.584.3-5.344-.1-6.235,1.682,2.474.891,5.839.4,8.511.693,2.177.2,5.245.1,7.224,1.089.99.495.99.693,0,1.287a27.19,27.19,0,0,1-4.651,1.287,19.535,19.535,0,0,1-5.839.99c-1.781-.1-3.464-.693-5.245-.792" transform="translate(-254.103 -278.082)" fill="none" stroke="#967654" stroke-miterlimit="10" stroke-width="1"/>
              <path id="Trazado_121687" data-name="Trazado 121687" d="M254.6,290.7c1.781.891,4.355.792,6.235.891,3.464.2,7.323.4,10.49-1.386" transform="translate(-254.207 -280.607)" fill="none" stroke="#967654" stroke-miterlimit="10" stroke-width="1"/>
            </g>
          </g>
        </g>
        <g id="Grupo_85695" data-name="Grupo 85695" transform="translate(0 29.654)">
          <g id="Grupo_85686" data-name="Grupo 85686" transform="translate(65.375 9.546)">
            <path id="Trazado_121688" data-name="Trazado 121688" d="M289.077,175.954s.059,17.622,1.108,19.648c3.523,6.794,11.349,18.276,13.989,23.819,2.638,4.751-2.375,11.349,5.542,13.2,2.638.528,7.126-.264,7.389-3.431.264-2.9-2.9-4.487-4.222-6.862-2.64-4.751-11.013-24.38-12.07-29.394s-1.127-13.625-1.127-18.639Z" transform="translate(-283.455 -145.749)" fill="#f7a87f"/>
            <g id="Grupo_85685" data-name="Grupo 85685">
              <path id="Trazado_121689" data-name="Trazado 121689" d="M289.182,138.242c5.728,7.428,8.828,11.453,9.62,18.975.2,2.573,0,3.959,1.386,6.136a18.9,18.9,0,0,1,2.375,3.167c.792,1.781,1.188,1.188-.4,2.573-2.771,2.573-10.095,2.771-13.856,2.969a46.484,46.484,0,0,1-5.344.2c-.2-1.386.4-2.375.4-3.563a11.715,11.715,0,0,0-.99-3.761,46.671,46.671,0,0,1-.4-7.324Z" transform="translate(-281.977 -138.242)" fill="#2a495e"/>
              <path id="Trazado_121690" data-name="Trazado 121690" d="M296.461,168.867c-2.9.826-7.126,1.468-8.974,3.394,3.3,1.193,7.655-.183,11.085.551-.131,1.1-3.563,1.468-4.751,1.651-2.771.459-5.278.643-7.653-.55" transform="translate(-282.85 -144.619)" fill="none" stroke="#3c697c" stroke-miterlimit="10" stroke-width="1"/>
            </g>
          </g>
          <g id="Grupo_85687" data-name="Grupo 85687">
            <path id="Trazado_121691" data-name="Trazado 121691" d="M199.728,189.214a17.865,17.865,0,0,0,4.751,1.055,49.371,49.371,0,0,0,9.9,1.055c8.05.264,16.363.528,24.412.132,5.542-.264,10.689-2.375,16.1-3.3-.4-3.035-3.694-5.674-4.222-8.841-.528-2.244,1.847-1.32,2.9-3.167s-1.056-3.7-2.112-5.015c-1.584-1.979.527-2.639,2.243-3.959,1.583-1.188,3.035-2.375,4.618-3.563,3.036-2.243,5.542-4.882,8.314-7.257,4.751-3.959,11.876-9.5,8.313-16.231-3.563-6.6-10.161-12.141-17.55-13.46-6.73-1.188-14.12,0-20.586,1.715-6.73,1.848-12.8,4.685-18.078,9.7-5.146,5.146-9.5,9.831-12.14,16.561a92.466,92.466,0,0,0-3.563,9.5,24.6,24.6,0,0,0-.924,4.487c-.264,2.111-1.055,2.771-2.112,4.486-1.847,2.9,1.32,4.619.924,7.522-.264,1.584-1.188,3.959-1.451,5.279Z" transform="translate(-199.408 -126.185)" fill="#3c697c"/>
            <path id="Trazado_121692" data-name="Trazado 121692" d="M273.348,148.241c-1.319.527-1.979,1.319-3.3,1.715-2.9.66-5.411.528-7.918-1.188-6.2-4.222-4.619-15.307,2.639-17.419a10.467,10.467,0,0,1,11.084,3.563,9.019,9.019,0,0,1,1.583,5.807c-.131,1.451-.659,4.618-2.111,5.278Z" transform="translate(-211.668 -127.175)" fill="#dd7a66"/>
            <path id="Trazado_121693" data-name="Trazado 121693" d="M248.253,183.124c-8.709,2.771-18.738.66-27.711,1.451-1.188.132-4.618-.264-4.091,1.716.528,1.847,5.938,2.375,7.39,2.508a91.971,91.971,0,0,0,18.077-.264c1.452-.264,8.313-1.847,8.313.528,0,3.035-9.1,3.959-10.952,4.222a52.919,52.919,0,0,1-12.933.924c-4.355-.132-8.314-1.716-12.536-2.771" transform="translate(-202.408 -138.042)" fill="none" stroke="#2a495e" stroke-miterlimit="10" stroke-width="1"/>
          </g>
          <g id="Grupo_85694" data-name="Grupo 85694" transform="translate(18.266 11.926)">
            <path id="Trazado_121694" data-name="Trazado 121694" d="M231.479,174.756a163.107,163.107,0,0,1,.527,17.946,18.557,18.557,0,0,0,0,3.827c.4,1.584,1.716,2.639,2.9,3.694a42.792,42.792,0,0,0,7.522,6.2c5.146,3.3,10.292,7.389,15.834,10.028,2.112,1.056,6.334.66,4.751-2.639-1.452-2.9-5.41-5.279-7.653-7.389-2.9-2.64-5.279-5.542-8.313-8.05a25.3,25.3,0,0,1-3.827-3.7c-1.055-1.319-.792-2.243-.66-3.959.264-5.41,0-10.689,0-16.1Z" transform="translate(-224.353 -148.198)" fill="#f7a87f"/>
            <g id="Grupo_85691" data-name="Grupo 85691" transform="translate(10.806 61.379)">
              <path id="Trazado_121695" data-name="Trazado 121695" d="M265.478,218.957a19.5,19.5,0,0,0,4.354,2.244c1.979.66,5.542-.264,6.994,1.188,1.056,1.188.792,2.9,1.584,4.09.4.66,2.64,2.771,2.111,3.7-.659.792-7.257-1.32-8.314-1.716-1.188-.4-5.674-1.715-5.805-2.771Z" transform="translate(-242.239 -218.809)" fill="#f7a87f"/>
              <g id="Grupo_85688" data-name="Grupo 85688">
                <path id="Trazado_121696" data-name="Trazado 121696" d="M369.684,259.562s-108.729-33.516-128.263-40.38c-1.5-.525-3.451-.769-4.513.644-1.143,1.523-1.135,4.648.716,5.517,1.544.727,3.637.772,5.287,1.267q4.365,1.308,8.725,2.624,13.235,3.987,26.463,8,15.906,4.816,31.807,9.64,15.806,4.8,31.6,9.633,11.851,3.635,23.682,7.327c.8.248,1.593.493,2.388.745C367.574,264.576,371.531,265.1,369.684,259.562Z" transform="translate(-236.127 -218.77)" fill="#4a281e"/>
                <path id="Trazado_121697" data-name="Trazado 121697" d="M424.286,307.039c-.2-2.573-2.177-19.5-2.474-24.05a34.237,34.237,0,0,0-1.287-6.334,5.835,5.835,0,0,0-1.066-2.508c-1.248-2.008-3.677-2.542-5.7-3.363-1.386-.528-2.7-1.056-4.09-1.65-1.519-.594-3.1-1.715-4.686-2.111-2.771-.66-5.278,3.563-5.607,5.872-.133,1.254-.133,4.025.99,4.949a8.155,8.155,0,0,0,1.913.66c.594.2,1.188.527,1.848.725,1.509.549,3.526,1.321,4.533,2.712-.817,8.479-2.417,22.039-2.909,26.254-.1.99-.47,3.662.816,3.959a2.164,2.164,0,0,0,2.474-1.353c.693-1.287.495-23.06,4.058-22.862,1.439.08.495,14.944.891,21.081.089,1.386-.2,2.078,1.287,2.177s1.584-.594,1.781-1.979c.693-5.344-.58-20.914,2.078-21.279,1.892-.26,1.781,17.32,1.979,19.893.1,1.584.076,2.989,2.276,2.375C424.818,309.81,424.385,308.524,424.286,307.039Z" transform="translate(-270.11 -228.804)" fill="#728196"/>
              </g>
              <g id="Grupo_85690" data-name="Grupo 85690" transform="translate(56.216 12.685)">
                <g id="Grupo_85689" data-name="Grupo 85689" transform="translate(0 6.46)">
                  <path id="Trazado_121698" data-name="Trazado 121698" d="M310.086,249.435a16.4,16.4,0,0,0-.352-2.177c-.249-1.055-1.4-1.781-2.2-1.121-.85.66-.2,3.234.45,3.892.5.529,2.052.99,2.4.066Z" transform="translate(-307.128 -243.562)" fill="#f7a87f" stroke="#c15e4d" stroke-miterlimit="10" stroke-width="1"/>
                  <path id="Trazado_121699" data-name="Trazado 121699" d="M314.431,250.966a1.915,1.915,0,0,1-1.7.925c-1.5.065-1.652-1.254-1.952-2.9-.15-.99-.652-3.034,0-3.761a1.654,1.654,0,0,1,2.752.529,12.137,12.137,0,0,1,.4,1.253Z" transform="translate(-307.82 -243.311)" fill="#f7a87f" stroke="#c15e4d" stroke-miterlimit="10" stroke-width="1"/>
                  <path id="Trazado_121700" data-name="Trazado 121700" d="M319.027,251.5a4.084,4.084,0,0,1-2.6.529c-1.8-.066-2.151-2.244-2.252-4.29-.1-1.517-.55-3.365.8-3.959,1.15-.527,2.151-.594,2.651,1.123a13.385,13.385,0,0,1,.2,1.386Z" transform="translate(-308.563 -243.055)" fill="#f7a87f" stroke="#c15e4d" stroke-miterlimit="10" stroke-width="1"/>
                  <path id="Trazado_121701" data-name="Trazado 121701" d="M323.144,250.937c-.15,1.055-1.851.99-2.4.792-1.6-.529-1.9-2.969-2.052-4.884a13.632,13.632,0,0,1-.249-2.836c.1-.858.55-.99,1.251-1.056,1.35-.066,2,1.65,2.5,3.1a14.354,14.354,0,0,1,.3,1.584Z" transform="translate(-309.479 -242.951)" fill="#f7a87f" stroke="#c15e4d" stroke-miterlimit="10" stroke-width="1"/>
                </g>
                <path id="Trazado_121702" data-name="Trazado 121702" d="M316.971,238.485a4.962,4.962,0,0,0,1.056,3.431c1.319,1.584,3.167,1.847,5.146,1.847a18.951,18.951,0,0,0,1.781,5.014c.329.528,1.121,1.386,1.913.858.529-.4.4-1.584.4-2.177a14.65,14.65,0,0,0-.792-3.761c-.329-1.122-.725-2.969-1.648-3.7-.99-.857-2.442-1.188-3.5-2.045a15.7,15.7,0,0,1-2.7-3.167" transform="translate(-309.173 -234.791)" fill="#f7a87f" stroke="#c15e4d" stroke-miterlimit="10" stroke-width="1"/>
              </g>
              <path id="Trazado_121703" data-name="Trazado 121703" d="M274.952,227.985c-1.979,1.452.529,6.73,1.188,8.313.4,1.188,1.188,2.375,0,3.3-1.188,1.055-2.9.264-3.694-.66-.264-.4-.66-1.584-.923-1.716-.4-.264-1.452.264-1.979.264a2.821,2.821,0,0,1-2.64-2.507c-1.715.264-2.507,1.188-3.167-.792a11.386,11.386,0,0,1-.264-3.7c0-1.584-.132-5.41,1.584-6.2Z" transform="translate(-241.817 -219.92)" fill="#f7a87f"/>
            </g>
            <g id="Grupo_85693" data-name="Grupo 85693">
              <path id="Trazado_121704" data-name="Trazado 121704" d="M222.479,169.125a9.378,9.378,0,0,0,.131-1.979c0-2.111.792-2.507,1.716-4.222s.4-3.959.4-5.806a36.032,36.032,0,0,1,.4-5.411c.66-3.827,2.375-6.861,5.806-8.709,2.64-1.451,6.466-2.507,9.37-1.055a10.256,10.256,0,0,1,5.278,8.446c.131,1.319.131,2.771.131,4.222-.131,1.584-1.055,2.9-1.055,4.355-.132,1.188.528.924.924,1.979.264.792-.132,1.451-.4,2.243-.264.66-.924,1.188-.792,1.979s.792,1.056,1.055,1.848c1.188,3.694-4.75,2.771-6.861,3.035a60.393,60.393,0,0,1-6.862.66c-2.243,0-4.355-.66-6.6-.792Z" transform="translate(-222.479 -141.247)" fill="#508699"/>
              <g id="Grupo_85692" data-name="Grupo 85692" transform="translate(3.563 18.904)">
                <path id="Trazado_121705" data-name="Trazado 121705" d="M226.979,172.624c2.111,1.451,5.806,1.584,8.313,1.716,2.243.131,6.466.527,8.313-1.32" transform="translate(-226.979 -166.686)" fill="none" stroke="#3c697c" stroke-miterlimit="10" stroke-width="1"/>
                <path id="Trazado_121706" data-name="Trazado 121706" d="M241.233,169.875c-2.639,0-5.146.264-7.785.132-1.188-.132-3.827-.264-4.751-1.188-1.716-1.848,2.112-1.32,3.167-1.32,1.716,0,3.431,0,5.146.132,1.32.131,4.355,1.055,5.41.4,1.979-1.188-2.243-1.979-3.167-2.112a25.513,25.513,0,0,0-5.41-.792h-3.563" transform="translate(-227.246 -165.124)" fill="none" stroke="#3c697c" stroke-miterlimit="10" stroke-width="1"/>
              </g>
            </g>
          </g>
        </g>
        <g id="Grupo_85701" data-name="Grupo 85701" transform="translate(35.75)">
          <path id="Trazado_121707" data-name="Trazado 121707" d="M262.305,115.34c-1.188.527-1.715,2.771-1.847,3.959a8.124,8.124,0,0,0,2.9,7.257c4.355,3.959,12.139,5.015,17.815,5.542,3.3.4,6.466,1.188,9.9.528,3.563-.66,5.674-3.7,7.126-6.862,0,1.452-3.167,7.39-2.508,8.182,1.848,2.243,3.959-5.807,4.092-6.73a14.522,14.522,0,0,0-1.584-8.182c-1.056-2.111-3.3-5.41-6.071-5.41Z" transform="translate(-247.856 -93.915)" fill="#4a281e"/>
          <path id="Trazado_121708" data-name="Trazado 121708" d="M265.943,125.136c-.528,1.055-.4,2.639-.528,3.827-.132,2.243-.528,5.014.132,7.258,1.055,2.639,3.563,5.806,5.409,7.918,1.717,2.243,3.3,4.036,6.331,3.245a17.234,17.234,0,0,0,8.054-5.093,8.21,8.21,0,0,0,1.979-3.827c.527-1.847,1.319-2.375,2.771-3.827,4.751-4.751,7.653-11.217,3.3-17.287-6.07-8.577-26.128-8.841-27.712,3.827Z" transform="translate(-248.854 -93.419)" fill="#f7a87f"/>
          <path id="Trazado_121709" data-name="Trazado 121709" d="M264.483,123.1c-.792-.495-2.276-.4-3.266-.4-2.474.1-4.256,1.287-4.652,3.761-.99,5.641,3.365,7.423,7.72,7.423Z" transform="translate(-247.032 -95.805)" fill="#f7a87f"/>
          <path id="Trazado_121710" data-name="Trazado 121710" d="M264.193,119.41c0,2.969-.594,5.74-.594,8.709,0,1.089-.2,1.88.891,2.276a2.176,2.176,0,0,0,2.672-.792c.89-1.287.692-3.662.791-5.245,1.485.693,4.355-.3,5.443-1.386,1.287-1.188,2.87-3.662.792-4.652-1.584-.693-3.662-.594-5.344-.693-1.385-.1-3.463.1-4.552-.3Z" transform="translate(-248.523 -94.687)" fill="#4a281e"/>
          <g id="Grupo_85697" data-name="Grupo 85697">
            <g id="Grupo_85696" data-name="Grupo 85696" transform="translate(14.977)">
              <path id="Trazado_121711" data-name="Trazado 121711" d="M280.2,104.745c5.047.2,10.392.3,15.142-1.485a6.742,6.742,0,0,0,1.137-.607c-.047-.227-.093-.454-.147-.679-.594-2.771-.792-6.136-2.177-8.709-1.287-2.474-3.167-3.761-5.938-3.365-1.089.1-2.177.495-3.365.495-1.386,0-2.771-.1-4.256-.1-3.365,0-6.73-1.979-10.095-1.485-2.671.4-3.76,2.672-4.255,5.245-.4,2.523-.577,5.173-.872,7.809a20.129,20.129,0,0,0,6.315,1.89A62.313,62.313,0,0,0,280.2,104.745Z" transform="translate(-263.873 -88.732)" fill="#967654"/>
              <path id="Trazado_121712" data-name="Trazado 121712" d="M297.325,112.95c-.629-2.249-.772-4.579-1.238-6.842a6.742,6.742,0,0,1-1.137.607c-4.751,1.781-10.095,1.682-15.142,1.485a62.313,62.313,0,0,1-8.511-.99,20.129,20.129,0,0,1-6.315-1.89,34.214,34.214,0,0,1-1.5,7.432l1.584,1.682h.1a29.3,29.3,0,0,0,7.125,1.386c2.87.3,5.839.891,8.709.99a63.994,63.994,0,0,0,8.709-.2c2.573-.3,5.938-.4,8.215-1.584Z" transform="translate(-263.478 -92.186)" fill="#774742"/>
              <path id="Trazado_121713" data-name="Trazado 121713" d="M275.227,93.207c.4,1.682,2.375,3.068,3.86,3.86a11.54,11.54,0,0,0,11.579-.792" transform="translate(-265.925 -89.664)" fill="none" stroke="#6b533d" stroke-miterlimit="10" stroke-width="1"/>
            </g>
            <path id="Trazado_121714" data-name="Trazado 121714" d="M249.012,106.1a17.285,17.285,0,0,0,1.637,1.819c5.153,4.289,13.454,5.11,19.863,5.734,7,.681,14.419,1.025,21.39-.021a55.424,55.424,0,0,0,5.839-1.188c1.781-.495,3.959-1.386,5.74-1.386a2.275,2.275,0,0,1,2.375,1.682c.4,1.485-.485,2.092-1.682,2.573-16.726,6.729-43.06,1.85-47.086.79a21.232,21.232,0,0,1-11.4-7.421c-.693-.891-1.781-2.87-.594-3.86C246.579,103.579,247.878,104.78,249.012,106.1Z" transform="translate(-244.562 -91.974)" fill="#cdaa80"/>
          </g>
          <g id="Grupo_85700" data-name="Grupo 85700" transform="translate(25.169 28.485)">
            <g id="Grupo_85698" data-name="Grupo 85698" transform="translate(3.349)">
              <path id="Trazado_121715" data-name="Trazado 121715" d="M282.555,127.341a2.481,2.481,0,0,1-1.314.767c-.877-.055-.767-1.26-.329-1.808a4.428,4.428,0,0,1,2.9-1.589c1.041-.055,1.26.822.439,1.37Z" transform="translate(-280.58 -124.708)" fill="#4a281e"/>
              <path id="Trazado_121716" data-name="Trazado 121716" d="M297.7,130.974a2.469,2.469,0,0,0,.714,1.344c.775.414,1.314-.67,1.231-1.366a4.428,4.428,0,0,0-1.637-2.878c-.856-.593-1.5.037-1.092.935Z" transform="translate(-283.956 -125.361)" fill="#4a281e"/>
            </g>
            <path id="Trazado_121717" data-name="Trazado 121717" d="M289.1,135.091a7.119,7.119,0,0,0-.385,2.63,28.476,28.476,0,0,0,.219,4.329,2.047,2.047,0,0,1-1.314,2.575,5.453,5.453,0,0,1-3.232.329" transform="translate(-278.024 -126.87)" fill="none" stroke="#c15e4d" stroke-miterlimit="10" stroke-width="1"/>
            <path id="Trazado_121718" data-name="Trazado 121718" d="M276.361,147.063c-.11,1.424.6,3.616,1.752,4.383a4.051,4.051,0,0,0,4.767-.493Z" transform="translate(-276.35 -129.363)" fill="#fff"/>
            <g id="Grupo_85699" data-name="Grupo 85699" transform="translate(2.947 6.395)">
              <path id="Trazado_121719" data-name="Trazado 121719" d="M282.2,134.985c-.547.888-1.362,1.381-1.821,1.1s-.387-1.232.161-2.121,1.36-1.382,1.82-1.1S282.742,134.1,282.2,134.985Z" transform="translate(-280.072 -132.784)" fill="#272525"/>
              <path id="Trazado_121720" data-name="Trazado 121720" d="M293.959,139.252c-.547.889-1.363,1.381-1.822,1.1s-.386-1.232.161-2.121,1.361-1.382,1.82-1.1S294.506,138.363,293.959,139.252Z" transform="translate(-282.522 -133.673)" fill="#272525"/>
            </g>
          </g>
        </g>
      </g>
    </g>
    <g id="Grupo_85713" data-name="Grupo 85713" transform="translate(47.419 231.841)">
      <g id="Grupo_85704" data-name="Grupo 85704" transform="translate(0 54.878)">
        <path id="Trazado_121721" data-name="Trazado 121721" d="M103.989,379.03c0,.389-1.359.7-3.036.7s-3.035-.314-3.035-.7,1.359-.7,3.035-.7S103.989,378.642,103.989,379.03Z" transform="translate(-57.935 -347.024)" fill="#e2bb91"/>
        <path id="Trazado_121722" data-name="Trazado 121722" d="M108.5,387.491c0,.584-1.1,1.056-2.458,1.056s-2.458-.473-2.458-1.056,1.1-1.055,2.458-1.055S108.5,386.909,108.5,387.491Z" transform="translate(-59.116 -348.713)" fill="#e2bb91"/>
        <path id="Trazado_121723" data-name="Trazado 121723" d="M104.788,394.275c0,.464-.679.838-1.518.838s-1.518-.375-1.518-.838.68-.839,1.518-.839S104.788,393.812,104.788,394.275Z" transform="translate(-58.734 -350.17)" fill="#e2bb91"/>
        <path id="Trazado_121724" data-name="Trazado 121724" d="M98.835,385.429c0,.364-.951.66-2.124.66s-2.124-.3-2.124-.66.951-.66,2.124-.66S98.835,385.064,98.835,385.429Z" transform="translate(-57.241 -348.365)" fill="#e2bb91"/>
        <path id="Trazado_121725" data-name="Trazado 121725" d="M94.517,375.78c0,.922-1.477,1.67-3.3,1.67s-3.3-.748-3.3-1.67,1.477-1.668,3.3-1.668S94.517,374.859,94.517,375.78Z" transform="translate(-55.853 -346.146)" fill="#e2bb91"/>
        <path id="Trazado_121726" data-name="Trazado 121726" d="M84.461,383.486c0,.465-1.24.841-2.771.841s-2.771-.376-2.771-.841,1.241-.839,2.771-.839S84.461,383.023,84.461,383.486Z" transform="translate(-53.979 -347.924)" fill="#e2bb91"/>
        <path id="Trazado_121727" data-name="Trazado 121727" d="M59.864,357.239c0,.438-1.181.794-2.639.794s-2.639-.356-2.639-.794,1.181-.794,2.639-.794S59.864,356.8,59.864,357.239Z" transform="translate(-48.912 -342.467)" fill="#e2bb91"/>
        <path id="Trazado_121728" data-name="Trazado 121728" d="M64.739,352.31c0,.322-1,.583-2.243.583s-2.244-.26-2.244-.583,1-.582,2.244-.582S64.739,351.988,64.739,352.31Z" transform="translate(-50.092 -341.485)" fill="#e2bb91"/>
        <path id="Trazado_121729" data-name="Trazado 121729" d="M55.551,350.247c0,.536-.738.971-1.649.971s-1.649-.435-1.649-.971.738-.971,1.649-.971S55.551,349.711,55.551,350.247Z" transform="translate(-48.426 -340.974)" fill="#e2bb91"/>
        <path id="Trazado_121730" data-name="Trazado 121730" d="M64.531,346.611c0,.359-.473.649-1.056.649s-1.055-.291-1.055-.649.473-.649,1.055-.649S64.531,346.253,64.531,346.611Z" transform="translate(-50.543 -340.284)" fill="#e2bb91"/>
        <ellipse id="Elipse_5101" data-name="Elipse 5101" cx="2.243" cy="0.66" rx="2.243" ry="0.66" transform="translate(10.161 18.721)" fill="#e2bb91"/>
        <path id="Trazado_121731" data-name="Trazado 121731" d="M52.184,362.049c0,.442-.768.8-1.716.8s-1.715-.358-1.715-.8.768-.8,1.715-.8S52.184,361.608,52.184,362.049Z" transform="translate(-47.697 -343.468)" fill="#e2bb91"/>
        <ellipse id="Elipse_5102" data-name="Elipse 5102" cx="1.913" cy="0.594" rx="1.913" ry="0.594" transform="translate(0 22.68)" fill="#e2bb91"/>
        <path id="Trazado_121732" data-name="Trazado 121732" d="M68.265,373.2c0,.33-.712.6-1.59.6s-1.589-.268-1.589-.6.712-.6,1.589-.6S68.265,372.87,68.265,373.2Z" transform="translate(-51.098 -345.832)" fill="#e2bb91"/>
        <path id="Trazado_121733" data-name="Trazado 121733" d="M68.265,339.211c0,.232-.712.42-1.59.42s-1.589-.188-1.589-.42.712-.42,1.589-.42S68.265,338.979,68.265,339.211Z" transform="translate(-51.098 -338.791)" fill="#e2bb91"/>
        <path id="Trazado_121734" data-name="Trazado 121734" d="M114.5,385.1c0,.182-.353.33-.788.33s-.789-.148-.789-.33.353-.33.789-.33S114.5,384.917,114.5,385.1Z" transform="translate(-61.061 -348.365)" fill="#e2bb91"/>
        <path id="Trazado_121735" data-name="Trazado 121735" d="M104.413,408.293c0,.473-1,.857-2.23.857s-2.23-.384-2.23-.857,1-.858,2.23-.858S104.413,407.819,104.413,408.293Z" transform="translate(-58.359 -353.085)" fill="#e2bb91"/>
        <path id="Trazado_121736" data-name="Trazado 121736" d="M198.63,403.359c0,.511-.831.924-1.855.924s-1.856-.413-1.856-.924.831-.924,1.856-.924S198.63,402.848,198.63,403.359Z" transform="translate(-78.135 -352.044)" fill="#e2bb91"/>
        <ellipse id="Elipse_5103" data-name="Elipse 5103" cx="1.584" cy="0.792" rx="1.584" ry="0.792" transform="translate(121.799 48.807)" fill="#e2bb91"/>
        <path id="Trazado_121737" data-name="Trazado 121737" d="M206.684,405.8c0,.291-.768.528-1.716.528s-1.716-.237-1.716-.528.769-.527,1.716-.527S206.684,405.506,206.684,405.8Z" transform="translate(-79.87 -352.634)" fill="#e2bb91"/>
        <path id="Trazado_121738" data-name="Trazado 121738" d="M210.621,412.958c0,.414-.679.75-1.518.75s-1.517-.336-1.517-.75.679-.751,1.517-.751S210.621,412.543,210.621,412.958Z" transform="translate(-80.772 -354.079)" fill="#e2bb91"/>
        <path id="Trazado_121739" data-name="Trazado 121739" d="M216.392,411.54c0,.242-.591.437-1.32.437s-1.32-.195-1.32-.437.591-.438,1.32-.438S216.392,411.3,216.392,411.54Z" transform="translate(-82.056 -353.849)" fill="#e2bb91"/>
        <ellipse id="Elipse_5104" data-name="Elipse 5104" cx="2.243" cy="0.924" rx="2.243" ry="0.924" transform="translate(127.737 65.83)" fill="#e2bb91"/>
        <path id="Trazado_121740" data-name="Trazado 121740" d="M217.85,405.494c0,.4-.767.726-1.715.726s-1.716-.325-1.716-.726.768-.725,1.716-.725S217.85,405.094,217.85,405.494Z" transform="translate(-82.195 -352.53)" fill="#e2bb91"/>
        <path id="Trazado_121741" data-name="Trazado 121741" d="M200.28,434.152c0,.464-.827.841-1.847.841s-1.847-.377-1.847-.841.827-.842,1.847-.842S200.28,433.687,200.28,434.152Z" transform="translate(-78.482 -358.474)" fill="#e2bb91"/>
        <ellipse id="Elipse_5105" data-name="Elipse 5105" cx="1.452" cy="0.61" rx="1.452" ry="0.61" transform="translate(123.382 73.616)" fill="#e2bb91"/>
        <ellipse id="Elipse_5106" data-name="Elipse 5106" cx="0.726" cy="0.396" rx="0.726" ry="0.396" transform="translate(126.286 78.894)" fill="#e2bb91"/>
        <ellipse id="Elipse_5107" data-name="Elipse 5107" cx="1.781" cy="0.792" rx="1.781" ry="0.792" transform="translate(44.47 69.13)" fill="#e2bb91"/>
        <path id="Trazado_121742" data-name="Trazado 121742" d="M107.884,422.4c0,.255-.738.462-1.649.462s-1.649-.207-1.649-.462.739-.462,1.649-.462S107.884,422.142,107.884,422.4Z" transform="translate(-59.324 -356.105)" fill="#e2bb91"/>
        <ellipse id="Elipse_5108" data-name="Elipse 5108" cx="1.775" cy="0.594" rx="1.775" ry="0.594" transform="translate(39.469 63.587)" fill="#e2bb91"/>
        <path id="Trazado_121743" data-name="Trazado 121743" d="M105.187,416c0,.219-.34.4-.759.4s-.759-.177-.759-.4.34-.4.759-.4S105.187,415.779,105.187,416Z" transform="translate(-59.133 -354.786)" fill="#e2bb91"/>
        <path id="Trazado_121744" data-name="Trazado 121744" d="M88.343,411.511c0,.6-.915,1.078-2.045,1.078s-2.046-.482-2.046-1.078.916-1.076,2.046-1.076S88.343,410.917,88.343,411.511Z" transform="translate(-55.089 -353.71)" fill="#e2bb91"/>
        <path id="Trazado_121745" data-name="Trazado 121745" d="M127.176,436.227c0,.438-.915.792-2.045.792s-2.045-.354-2.045-.792.916-.792,2.045-.792S127.176,435.789,127.176,436.227Z" transform="translate(-63.176 -358.916)" fill="#e2bb91"/>
        <path id="Trazado_121746" data-name="Trazado 121746" d="M133.28,440.161c0,.4-.827.726-1.847.726s-1.847-.325-1.847-.726.827-.726,1.847-.726S133.28,439.76,133.28,440.161Z" transform="translate(-64.53 -359.749)" fill="#e2bb91"/>
        <path id="Trazado_121747" data-name="Trazado 121747" d="M139,436.831c0,.219-.5.4-1.122.4s-1.122-.177-1.122-.4.5-.4,1.122-.4S139,436.612,139,436.831Z" transform="translate(-66.022 -359.124)" fill="#e2bb91"/>
        <path id="Trazado_121748" data-name="Trazado 121748" d="M149.572,445.959c0,.474-1,.858-2.243.858s-2.243-.384-2.243-.858,1-.857,2.243-.857S149.572,445.486,149.572,445.959Z" transform="translate(-67.757 -360.929)" fill="#e2bb91"/>
        <path id="Trazado_121749" data-name="Trazado 121749" d="M160.121,438.831c0,.219-.679.4-1.518.4s-1.517-.177-1.517-.4.679-.4,1.517-.4S160.121,438.612,160.121,438.831Z" transform="translate(-70.256 -359.541)" fill="#e2bb91"/>
        <path id="Trazado_121750" data-name="Trazado 121750" d="M163.558,443.1c0,.364-.591.66-1.319.66s-1.32-.3-1.32-.66.591-.66,1.32-.66S163.558,442.73,163.558,443.1Z" transform="translate(-71.055 -360.374)" fill="#e2bb91"/>
        <path id="Trazado_121751" data-name="Trazado 121751" d="M175.288,439.194c0,.419-.679.758-1.518.758s-1.518-.34-1.518-.758.68-.759,1.518-.759S175.288,438.775,175.288,439.194Z" transform="translate(-73.414 -359.541)" fill="#e2bb91"/>
        <ellipse id="Elipse_5109" data-name="Elipse 5109" cx="1.584" cy="0.396" rx="1.584" ry="0.396" transform="translate(107.284 76.519)" fill="#e2bb91"/>
        <path id="Trazado_121752" data-name="Trazado 121752" d="M188.115,439.194c0,.419-.715.758-1.6.758s-1.6-.34-1.6-.758.716-.759,1.6-.759S188.115,438.775,188.115,439.194Z" transform="translate(-76.052 -359.541)" fill="#e2bb91"/>
        <path id="Trazado_121753" data-name="Trazado 121753" d="M193.913,440.161c0,.4-.857.726-1.914.726s-1.913-.325-1.913-.726.857-.726,1.913-.726S193.913,439.76,193.913,440.161Z" transform="translate(-77.128 -359.749)" fill="#e2bb91"/>
        <path id="Trazado_121754" data-name="Trazado 121754" d="M158.54,441.506c0,.638-1.173,1.155-2.621,1.155s-2.622-.517-2.622-1.155,1.173-1.154,2.622-1.154S158.54,440.869,158.54,441.506Z" transform="translate(-69.468 -359.94)" fill="#e2bb91"/>
      </g>
      <g id="Grupo_85708" data-name="Grupo 85708" transform="translate(17.166)">
        <path id="Trazado_121755" data-name="Trazado 121755" d="M73.3,302.731c0,10.689.594,21.18-1.979,31.67-.99,4.355-2.969,9.3,0,13.262,3.365,4.157,8.709,4.751,13.46,5.542a159.4,159.4,0,0,0,30.681,2.771c5.74,0,24.149-2.177,22.565-11.283-.792-5.146-6.73-7.72-6.532-13.262.2-2.375,1.584-4.553,1.979-6.73a18.058,18.058,0,0,0-.99-6.532c-1.386-4.553-.2-8.907-.4-13.46-.2-4.751.594-8.709-5.344-8.511-.4,0-.99.2-1.584.2Z" transform="translate(-69.237 -275.042)" fill="#917f73"/>
        <path id="Trazado_121756" data-name="Trazado 121756" d="M125.816,283.158c-4.355.594-5.74.2-9.5-1.979-4.949-3.167-10.689-3.563-16.231-2.177a67.042,67.042,0,0,1-15.439,1.584c-3.761,0-10.491.2-13.46,2.573-3.365,2.771-.792,8.709-1.386,12.668-.2,1.979-1.188,4.355-.4,6.334,1.188,2.375,4.553,3.959,6.73,5.146a37.811,37.811,0,0,0,30.681,2.771c4.553-1.584,9.105-4.949,14.054-4.355,3.365.2,8.907,2.375,11.283-.4,2.573-2.771.792-8.709.792-12.272,0-2.771.4-8.116-2.376-9.7-.533-.531-2.04-.2-2.732-.2A16.184,16.184,0,0,0,125.816,283.158Z" transform="translate(-69.101 -271.304)" fill="#af9f95"/>
        <path id="Trazado_121757" data-name="Trazado 121757" d="M129.861,285.187c2-.4,2.243,1.649,1.847,2.441-.792,2.177-3.96,1.649-5.741,1.847a67.167,67.167,0,0,0-12.074,2.969c-2.573.792-5.344.792-7.918,1.188-2.771.2-5.542,1.188-8.116,1.584a25.019,25.019,0,0,1-14.252-2.177c-2.177-.99-11.283-5.74-8.511-8.907,1.584-1.781,9.3-.99,11.876-.99a46.877,46.877,0,0,0,10.491-.792c4.157-.594,7.72-1.979,12.074-.99,5.146.99,8.644,4.553,13.988,4.553Z" transform="translate(-70.241 -271.881)" fill="#917f73"/>
        <g id="Grupo_85707" data-name="Grupo 85707" transform="translate(4.335)">
          <g id="Grupo_85706" data-name="Grupo 85706" clip-path="url(#clip-path)">
            <path id="Trazado_121758" data-name="Trazado 121758" d="M128.319,287.87c.693-.638.792-2.766-.4-2.447.1-1.064,0-2.34-1.386-1.808.4-1.17-1.089-2.127-1.88-1.383-.3-.744-1.089-.425-1.584,0-.2.319.1.851-.1,1.064s-.693-.107-.891.106c-.4.531-.4,1.383-.693,1.7-.495.425-1.287-.213-1.386.957.2-1.276-.891-2.128-1.682-1.064.495-1.169-.99-1.7-1.682-.957.4-.638.2-2.553-.693-1.6.891-.957.3-2.979-1.089-1.809a1.256,1.256,0,0,0-2.474-.425c.3-1.7-2.573-2.234-2.276-.107-.1-1.063-1.089-2.021-1.781-.956.594-.958-.2-2.872-1.287-1.7.4-1.383-1.287-3.085-1.682-1.383-.3-.85-1.88-.85-2.375-.213-.594.532-.4,1.384-.4,2.128-.065-1.119-1.24-1.04-2.1-.523-.249-.856-.816-1.39-1.171-.435-.2-2.127-2.375-2.447-2.672-.212-.4-2.021-2.276-.106-2.375,1.063-1.386-1.489-2.078.319-2.276,1.6-.3-1.064-1.682-2.021-2.474-.851-.1-1.064-1.682-1.6-1.979-.426,0-1.6-2.375-2.234-2.276-.638-1.287-1.6-2.969-.106-2.573,1.49-1.781-.639-2.177.637-1.584,2.34-.99-.532-2.969-.213-2.078,1.383-.891-.638-3.365.212-2.078,1.6-.99-.319-2.672.213-2.474,1.6l4.751,5.744c5.344,3.83,13.262,5.851,19.6,4.787a4.776,4.776,0,0,0,.742-.176,16.435,16.435,0,0,0,3.316,1.24,15.157,15.157,0,0,0,9.2-.638,45.131,45.131,0,0,1,9.2-2.34c2.078-.426,6.235-1.383,5.938-4.469a1.018,1.018,0,0,0,.1.532C128.417,290.531,129.209,288.4,128.319,287.87Z" transform="translate(-74.553 -270.686)" fill="#e2bb91"/>
            <g id="Grupo_85705" data-name="Grupo 85705" transform="translate(2.961 9.132)">
              <path id="Trazado_121759" data-name="Trazado 121759" d="M86.025,285.694c0,.365-.532.66-1.188.66s-1.188-.3-1.188-.66.532-.66,1.188-.66S86.025,285.329,86.025,285.694Z" transform="translate(-79.427 -281.85)" fill="#c96"/>
              <ellipse id="Elipse_5110" data-name="Elipse 5110" cx="1.188" cy="0.891" rx="1.188" ry="0.891" transform="translate(7.06 1.798)" fill="#c96"/>
              <ellipse id="Elipse_5111" data-name="Elipse 5111" cx="1.386" cy="0.99" rx="1.386" ry="0.99" transform="translate(10.425 5.889)" fill="#c96"/>
              <ellipse id="Elipse_5112" data-name="Elipse 5112" cx="0.891" cy="0.423" rx="0.891" ry="0.423" transform="translate(15.241 1.798)" fill="#c96"/>
              <path id="Trazado_121760" data-name="Trazado 121760" d="M109.692,282.549c0,.652-.9,1.181-2.021,1.181s-2.021-.529-2.021-1.181.9-1.181,2.021-1.181S109.692,281.9,109.692,282.549Z" transform="translate(-84.008 -281.087)" fill="#c96"/>
              <path id="Trazado_121761" data-name="Trazado 121761" d="M109.81,288.946c0,.272-.359.495-.8.495s-.8-.222-.8-.495.359-.495.8-.495S109.81,288.673,109.81,288.946Z" transform="translate(-84.54 -282.562)" fill="#c96"/>
              <path id="Trazado_121762" data-name="Trazado 121762" d="M118.848,286.008a1.685,1.685,0,1,1-1.682-1.6A1.643,1.643,0,0,1,118.848,286.008Z" transform="translate(-86.056 -281.72)" fill="#c96"/>
              <ellipse id="Elipse_5113" data-name="Elipse 5113" cx="0.841" cy="0.544" rx="0.841" ry="0.544" transform="translate(29.427 6.384)" fill="#c96"/>
              <path id="Trazado_121763" data-name="Trazado 121763" d="M122.657,283.977c0,.382-.561.693-1.253.693s-1.253-.31-1.253-.693.561-.693,1.253-.693S122.657,283.594,122.657,283.977Z" transform="translate(-87.027 -281.486)" fill="#c96"/>
              <path id="Trazado_121764" data-name="Trazado 121764" d="M90.146,292.076c0,.438-.782.792-1.748.792s-1.748-.354-1.748-.792.782-.792,1.748-.792S90.146,291.638,90.146,292.076Z" transform="translate(-80.051 -283.152)" fill="#c96"/>
              <path id="Trazado_121765" data-name="Trazado 121765" d="M102.089,293.361c0,.364-.761.66-1.7.66s-1.7-.3-1.7-.66.761-.66,1.7-.66S102.089,293,102.089,293.361Z" transform="translate(-82.559 -283.447)" fill="#c96"/>
              <path id="Trazado_121766" data-name="Trazado 121766" d="M102.536,288.5c0,.209-.381.379-.85.379s-.85-.17-.85-.379.381-.379.85-.379S102.536,288.287,102.536,288.5Z" transform="translate(-83.006 -282.493)" fill="#c96"/>
              <ellipse id="Elipse_5114" data-name="Elipse 5114" cx="0.99" cy="0.495" rx="0.99" ry="0.495" transform="translate(23.291 9.254)" fill="#c96"/>
              <path id="Trazado_121767" data-name="Trazado 121767" d="M126.191,289.2c0,.333-.532.6-1.188.6s-1.188-.27-1.188-.6.532-.6,1.188-.6S126.191,288.866,126.191,289.2Z" transform="translate(-87.791 -282.592)" fill="#c96"/>
              <path id="Trazado_121768" data-name="Trazado 121768" d="M132.456,290.58c0,.255-.591.462-1.32.462s-1.32-.207-1.32-.462.591-.461,1.32-.461S132.456,290.325,132.456,290.58Z" transform="translate(-89.04 -282.909)" fill="#c96"/>
              <path id="Trazado_121769" data-name="Trazado 121769" d="M80.428,289.488c0,.228-.473.413-1.056.413s-1.055-.185-1.055-.413.473-.413,1.055-.413S80.428,289.26,80.428,289.488Z" transform="translate(-78.316 -282.692)" fill="#c96"/>
              <path id="Trazado_121770" data-name="Trazado 121770" d="M81.671,287.866c0,.09-.266.165-.594.165s-.594-.074-.594-.165.266-.165.594-.165S81.671,287.775,81.671,287.866Z" transform="translate(-78.767 -282.406)" fill="#c96"/>
              <path id="Trazado_121771" data-name="Trazado 121771" d="M95.476,295.963c0,.236-.5.429-1.122.429s-1.121-.193-1.121-.429.5-.429,1.121-.429S95.476,295.726,95.476,295.963Z" transform="translate(-81.422 -284.037)" fill="#c96"/>
              <path id="Trazado_121772" data-name="Trazado 121772" d="M87.573,289.866c0,.091-.207.165-.462.165s-.462-.074-.462-.165.207-.165.462-.165S87.573,289.775,87.573,289.866Z" transform="translate(-80.051 -282.822)" fill="#c96"/>
              <ellipse id="Elipse_5115" data-name="Elipse 5115" cx="0.693" cy="0.165" rx="0.693" ry="0.165" transform="translate(5.674 9.914)" fill="#c96"/>
              <path id="Trazado_121773" data-name="Trazado 121773" d="M92.188,281.318c0,.169-.251.306-.561.306s-.561-.137-.561-.306.251-.3.561-.3S92.188,281.15,92.188,281.318Z" transform="translate(-80.971 -281.013)" fill="#c96"/>
              <path id="Trazado_121774" data-name="Trazado 121774" d="M124.212,292.449c0,.091-.443.165-.99.165s-.99-.074-.99-.165.443-.165.99-.165S124.212,292.358,124.212,292.449Z" transform="translate(-87.461 -283.36)" fill="#c96"/>
              <path id="Trazado_121775" data-name="Trazado 121775" d="M138.984,286.768c0,.186-.354.338-.792.338s-.792-.152-.792-.338.354-.339.792-.339S138.984,286.581,138.984,286.768Z" transform="translate(-90.62 -282.141)" fill="#c96"/>
              <path id="Trazado_121776" data-name="Trazado 121776" d="M137.862,288.056c0,.2-.458.355-1.023.355s-1.023-.159-1.023-.355.458-.355,1.023-.355S137.862,287.86,137.862,288.056Z" transform="translate(-90.29 -282.406)" fill="#c96"/>
              <path id="Trazado_121777" data-name="Trazado 121777" d="M139.994,289.518c0,.089-.133.161-.3.161s-.3-.072-.3-.161.133-.16.3-.16S139.994,289.43,139.994,289.518Z" transform="translate(-91.036 -282.751)" fill="#c96"/>
            </g>
          </g>
        </g>
      </g>
      <g id="Grupo_85712" data-name="Grupo 85712" transform="translate(51.61 48.78)">
        <path id="Trazado_121779" data-name="Trazado 121779" d="M116.8,364.34c0,10.689.594,21.18-1.979,31.67-.99,4.355-2.969,9.3,0,13.262,3.365,4.157,8.709,4.751,13.46,5.542a159.4,159.4,0,0,0,30.681,2.771c5.74,0,24.149-2.177,22.565-11.283-.792-5.146-6.73-7.72-6.532-13.262.2-2.375,1.584-4.553,1.979-6.73a18.058,18.058,0,0,0-.99-6.532c-1.386-4.553-.2-8.907-.4-13.46-.2-4.751.594-8.709-5.344-8.511-.4,0-.99.2-1.584.2Z" transform="translate(-112.739 -336.652)" fill="#917f73"/>
        <path id="Trazado_121780" data-name="Trazado 121780" d="M169.318,344.767c-4.355.594-5.74.2-9.5-1.979-4.949-3.167-10.689-3.563-16.231-2.177a67.045,67.045,0,0,1-15.439,1.584c-3.761,0-10.491.2-13.46,2.573-3.365,2.771-.792,8.709-1.386,12.668-.2,1.979-1.188,4.355-.4,6.334,1.188,2.375,4.553,3.959,6.73,5.146a37.811,37.811,0,0,0,30.681,2.771c4.553-1.584,9.105-4.948,14.054-4.355,3.365.2,8.907,2.375,11.283-.4,2.573-2.771.792-8.709.792-12.272,0-2.771.4-8.116-2.376-9.7-.533-.531-2.04-.2-2.732-.2A16.332,16.332,0,0,0,169.318,344.767Z" transform="translate(-112.603 -332.914)" fill="#af9f95"/>
        <path id="Trazado_121781" data-name="Trazado 121781" d="M173.363,346.8c2-.4,2.243,1.649,1.847,2.441-.792,2.177-3.96,1.649-5.741,1.847a67.162,67.162,0,0,0-12.074,2.969c-2.573.792-5.344.792-7.918,1.188-2.771.2-5.542,1.188-8.116,1.584a25.019,25.019,0,0,1-14.252-2.177c-2.177-.99-11.283-5.74-8.511-8.907,1.584-1.781,9.3-.99,11.876-.99a46.877,46.877,0,0,0,10.491-.792c4.157-.594,7.72-1.979,12.074-.99,5.146.99,8.644,4.553,13.988,4.553Z" transform="translate(-113.743 -333.491)" fill="#917f73"/>
        <g id="Grupo_85711" data-name="Grupo 85711" transform="translate(4.335)">
          <g id="Grupo_85710" data-name="Grupo 85710" clip-path="url(#clip-path-2)">
            <path id="Trazado_121782" data-name="Trazado 121782" d="M171.821,349.48c.693-.638.792-2.766-.4-2.447.1-1.064,0-2.34-1.386-1.809.4-1.17-1.089-2.127-1.88-1.383-.3-.744-1.089-.425-1.584,0-.2.32.1.852-.1,1.064s-.693-.107-.891.106c-.4.532-.4,1.383-.693,1.7-.495.425-1.287-.212-1.386.957.2-1.276-.891-2.127-1.682-1.063.495-1.17-.99-1.7-1.682-.957.4-.639.2-2.553-.693-1.6.891-.957.3-2.979-1.089-1.808a1.256,1.256,0,0,0-2.474-.425c.3-1.7-2.573-2.234-2.276-.107-.1-1.063-1.089-2.021-1.781-.957.594-.957-.2-2.872-1.287-1.7.4-1.383-1.287-3.085-1.682-1.383-.3-.85-1.88-.85-2.375-.212-.594.532-.4,1.383-.4,2.127-.065-1.119-1.24-1.04-2.095-.523-.249-.856-.816-1.39-1.171-.435-.2-2.127-2.375-2.446-2.672-.212-.4-2.021-2.276-.106-2.375,1.064-1.386-1.489-2.078.319-2.276,1.6-.3-1.063-1.682-2.021-2.474-.851-.1-1.064-1.682-1.6-1.979-.425,0-1.6-2.375-2.234-2.276-.639-1.287-1.595-2.969-.106-2.573,1.49-1.781-.638-2.177.638-1.584,2.34-.99-.532-2.969-.212-2.078,1.383-.891-.637-3.365.213-2.078,1.6-.99-.319-2.672.212-2.474,1.6l4.751,5.744c5.344,3.83,13.262,5.851,19.6,4.787a4.8,4.8,0,0,0,.742-.175,16.476,16.476,0,0,0,3.316,1.239,15.157,15.157,0,0,0,9.2-.638,45.185,45.185,0,0,1,9.2-2.34c2.078-.426,6.235-1.383,5.938-4.468a1.021,1.021,0,0,0,.1.532C171.919,352.14,172.711,350.012,171.821,349.48Z" transform="translate(-118.055 -332.295)" fill="#e2bb91"/>
            <g id="Grupo_85709" data-name="Grupo 85709" transform="translate(2.961 9.132)">
              <path id="Trazado_121783" data-name="Trazado 121783" d="M129.527,347.3c0,.365-.532.66-1.188.66s-1.188-.3-1.188-.66.532-.66,1.188-.66S129.527,346.938,129.527,347.3Z" transform="translate(-122.929 -343.46)" fill="#c96"/>
              <ellipse id="Elipse_5116" data-name="Elipse 5116" cx="1.188" cy="0.891" rx="1.188" ry="0.891" transform="translate(7.06 1.797)" fill="#c96"/>
              <ellipse id="Elipse_5117" data-name="Elipse 5117" cx="1.386" cy="0.99" rx="1.386" ry="0.99" transform="translate(10.425 5.888)" fill="#c96"/>
              <ellipse id="Elipse_5118" data-name="Elipse 5118" cx="0.891" cy="0.423" rx="0.891" ry="0.423" transform="translate(15.241 1.797)" fill="#c96"/>
              <path id="Trazado_121784" data-name="Trazado 121784" d="M153.194,344.158c0,.653-.9,1.182-2.021,1.182s-2.021-.529-2.021-1.182.9-1.181,2.021-1.181S153.194,343.506,153.194,344.158Z" transform="translate(-127.51 -342.697)" fill="#c96"/>
              <path id="Trazado_121785" data-name="Trazado 121785" d="M153.312,350.555c0,.273-.359.495-.8.495s-.8-.222-.8-.495.359-.495.8-.495S153.312,350.282,153.312,350.555Z" transform="translate(-128.042 -344.172)" fill="#c96"/>
              <path id="Trazado_121786" data-name="Trazado 121786" d="M162.35,347.618a1.685,1.685,0,1,1-1.682-1.6A1.643,1.643,0,0,1,162.35,347.618Z" transform="translate(-129.558 -343.33)" fill="#c96"/>
              <ellipse id="Elipse_5119" data-name="Elipse 5119" cx="0.841" cy="0.544" rx="0.841" ry="0.544" transform="translate(29.427 6.383)" fill="#c96"/>
              <ellipse id="Elipse_5120" data-name="Elipse 5120" cx="1.253" cy="0.693" rx="1.253" ry="0.693" transform="translate(33.122 1.797)" fill="#c96"/>
              <ellipse id="Elipse_5121" data-name="Elipse 5121" cx="1.748" cy="0.792" rx="1.748" ry="0.792" transform="translate(6.598 8.131)" fill="#c96"/>
              <path id="Trazado_121787" data-name="Trazado 121787" d="M145.591,354.97c0,.364-.761.66-1.7.66s-1.7-.3-1.7-.66.761-.66,1.7-.66S145.591,354.605,145.591,354.97Z" transform="translate(-126.061 -345.057)" fill="#c96"/>
              <path id="Trazado_121788" data-name="Trazado 121788" d="M146.038,350.107c0,.208-.381.378-.85.378s-.85-.17-.85-.378.381-.38.85-.38S146.038,349.9,146.038,350.107Z" transform="translate(-126.508 -344.102)" fill="#c96"/>
              <ellipse id="Elipse_5122" data-name="Elipse 5122" cx="0.99" cy="0.495" rx="0.99" ry="0.495" transform="translate(23.291 9.253)" fill="#c96"/>
              <path id="Trazado_121789" data-name="Trazado 121789" d="M169.693,350.809c0,.333-.532.6-1.188.6s-1.188-.27-1.188-.6.532-.6,1.188-.6S169.693,350.475,169.693,350.809Z" transform="translate(-131.293 -344.202)" fill="#c96"/>
              <path id="Trazado_121790" data-name="Trazado 121790" d="M175.958,352.189c0,.255-.591.462-1.32.462s-1.32-.207-1.32-.462.591-.461,1.32-.461S175.958,351.935,175.958,352.189Z" transform="translate(-132.542 -344.519)" fill="#c96"/>
              <path id="Trazado_121791" data-name="Trazado 121791" d="M123.93,351.1c0,.228-.473.413-1.056.413s-1.055-.184-1.055-.413.473-.413,1.055-.413S123.93,350.87,123.93,351.1Z" transform="translate(-121.818 -344.302)" fill="#c96"/>
              <path id="Trazado_121792" data-name="Trazado 121792" d="M125.173,349.475c0,.09-.266.165-.594.165s-.594-.074-.594-.165.266-.165.594-.165S125.173,349.384,125.173,349.475Z" transform="translate(-122.269 -344.015)" fill="#c96"/>
              <path id="Trazado_121793" data-name="Trazado 121793" d="M138.978,357.572c0,.237-.5.429-1.122.429s-1.121-.192-1.121-.429.5-.429,1.121-.429S138.978,357.335,138.978,357.572Z" transform="translate(-124.924 -345.647)" fill="#c96"/>
              <ellipse id="Elipse_5123" data-name="Elipse 5123" cx="0.462" cy="0.165" rx="0.462" ry="0.165" transform="translate(6.598 6.878)" fill="#c96"/>
              <ellipse id="Elipse_5124" data-name="Elipse 5124" cx="0.693" cy="0.165" rx="0.693" ry="0.165" transform="translate(5.674 9.914)" fill="#c96"/>
              <path id="Trazado_121794" data-name="Trazado 121794" d="M135.69,342.927c0,.169-.252.306-.561.306s-.561-.137-.561-.306.251-.3.561-.3S135.69,342.759,135.69,342.927Z" transform="translate(-124.473 -342.623)" fill="#c96"/>
              <path id="Trazado_121795" data-name="Trazado 121795" d="M167.714,354.058c0,.091-.443.165-.99.165s-.99-.074-.99-.165.443-.165.99-.165S167.714,353.967,167.714,354.058Z" transform="translate(-130.963 -344.97)" fill="#c96"/>
              <path id="Trazado_121796" data-name="Trazado 121796" d="M182.486,348.377c0,.187-.354.338-.792.338s-.792-.151-.792-.338.354-.338.792-.338S182.486,348.19,182.486,348.377Z" transform="translate(-134.122 -343.751)" fill="#c96"/>
              <path id="Trazado_121797" data-name="Trazado 121797" d="M181.364,349.665c0,.2-.458.356-1.023.356s-1.023-.16-1.023-.356.458-.355,1.023-.355S181.364,349.469,181.364,349.665Z" transform="translate(-133.792 -344.015)" fill="#c96"/>
              <path id="Trazado_121798" data-name="Trazado 121798" d="M183.5,351.127c0,.089-.133.161-.3.161s-.3-.072-.3-.161.133-.16.3-.16S183.5,351.039,183.5,351.127Z" transform="translate(-134.538 -344.361)" fill="#c96"/>
            </g>
          </g>
        </g>
      </g>
    </g>
  </g>
</svg>
