<svg xmlns="http://www.w3.org/2000/svg" xmlns:xlink="http://www.w3.org/1999/xlink" width="85" height="85" viewBox="0 0 85 85">
  <defs>
    <clipPath id="clip-path">
      <rect id="Rectángulo_34470" data-name="Rectángulo 34470" width="85" height="85" transform="translate(337 12205)" fill="#fff" stroke="#707070" stroke-width="1"/>
    </clipPath>
  </defs>
  <g id="Enmascarar_grupo_155" data-name="Enmascarar grupo 155" transform="translate(-337 -12205)" clip-path="url(#clip-path)">
    <g id="huella-de-carbono" transform="translate(336.411 12204.411)">
      <g id="Grupo_85652" data-name="Grupo 85652">
        <path id="Trazado_121588" data-name="Trazado 121588" d="M68.389,59.7A11.242,11.242,0,0,1,46.1,61.8l-4.311-2.07L46.1,57.651A11.242,11.242,0,0,1,68.389,59.7Z" fill="#f0c020"/>
        <g id="Grupo_85651" data-name="Grupo 85651">
          <path id="Trazado_121589" data-name="Trazado 121589" d="M24.057,14.741a4.713,4.713,0,0,1-5.2-3.551l-.934-3.812a4.713,4.713,0,0,1,3.958-5.794l.842-.112a4.713,4.713,0,0,1,5.331,4.562l.092,3.924a4.713,4.713,0,0,1-4.092,4.783Z" fill="#ffb69f"/>
          <path id="Trazado_121590" data-name="Trazado 121590" d="M35.6,12.584h-.283a3.106,3.106,0,0,1-3.106-3.106V7.794a3.107,3.107,0,0,1,3.107-3.106H35.6A3.107,3.107,0,0,1,38.7,7.794V9.477A3.108,3.108,0,0,1,35.6,12.584Z" fill="#ffb69f"/>
          <path id="Trazado_121591" data-name="Trazado 121591" d="M45.156,13.5l-.28-.039a3.107,3.107,0,0,1-2.643-3.509l.235-1.666A3.107,3.107,0,0,1,45.977,5.64l.28.039A3.107,3.107,0,0,1,48.9,9.188l-.235,1.666A3.107,3.107,0,0,1,45.156,13.5Z" fill="#ffb69f"/>
          <path id="Trazado_121592" data-name="Trazado 121592" d="M54.224,17.505l-.271-.08a3.107,3.107,0,0,1-2.1-3.86l.477-1.613a3.107,3.107,0,0,1,3.86-2.1l.271.08a3.107,3.107,0,0,1,2.1,3.86l-.477,1.613A3.106,3.106,0,0,1,54.224,17.505Z" fill="#ffb69f"/>
          <path id="Trazado_121593" data-name="Trazado 121593" d="M60.065,23.619l-.207-.193a3.107,3.107,0,0,1-.149-4.391l1.149-1.23a3.107,3.107,0,0,1,4.391-.149l.207.193a3.107,3.107,0,0,1,.149,4.391l-1.149,1.23a3.106,3.106,0,0,1-4.391.149Z" fill="#ffb69f"/>
        </g>
        <path id="Trazado_121594" data-name="Trazado 121594" d="M58.463,34.821l-1.633,11.3-.343,2.37A11.24,11.24,0,0,0,46.1,57.652L41.79,59.726,46.1,61.8a11.261,11.261,0,0,0,7.231,8.49l-.343,2.37L52.7,74.6A11.84,11.84,0,0,1,40.985,84.747H37.918a11.839,11.839,0,0,1-5.625-22.258,7.841,7.841,0,0,0,4.1-6.282l1.02-12.651a7.178,7.178,0,0,0-6.288-7.7l-4.777-.579A7.167,7.167,0,0,1,20.1,29.119,10.285,10.285,0,0,1,31.526,17.542L46.634,19.37A13.6,13.6,0,0,1,58.463,34.821Z" fill="#13bf6d"/>
        <path id="Trazado_121595" data-name="Trazado 121595" d="M46.1,57.652,41.79,59.726,46.1,61.8a11.261,11.261,0,0,0,7.231,8.49l-.343,2.37a13.612,13.612,0,0,1-8.917-9.22l-3.3-1.582a2.359,2.359,0,0,1,0-4.248l3.292-1.589A13.546,13.546,0,0,1,56.83,46.122l-.343,2.37A11.24,11.24,0,0,0,46.1,57.652Z" fill="#139c6e"/>
        <path id="Trazado_121596" data-name="Trazado 121596" d="M24.057,14.741a4.713,4.713,0,0,1-5.2-3.551l-.934-3.812a4.713,4.713,0,0,1,3.958-5.794l.842-.112a4.713,4.713,0,0,1,5.331,4.562l.092,3.924a4.713,4.713,0,0,1-4.092,4.783Z" fill="#13bf6d"/>
        <path id="Trazado_121597" data-name="Trazado 121597" d="M35.6,12.584h-.283a3.106,3.106,0,0,1-3.106-3.106V7.794a3.107,3.107,0,0,1,3.107-3.106H35.6A3.107,3.107,0,0,1,38.7,7.794V9.477A3.108,3.108,0,0,1,35.6,12.584Z" fill="#13bf6d"/>
        <path id="Trazado_121598" data-name="Trazado 121598" d="M45.156,13.5l-.28-.039a3.107,3.107,0,0,1-2.643-3.509l.235-1.666A3.107,3.107,0,0,1,45.977,5.64l.28.039A3.107,3.107,0,0,1,48.9,9.188l-.235,1.666A3.107,3.107,0,0,1,45.156,13.5Z" fill="#13bf6d"/>
        <path id="Trazado_121599" data-name="Trazado 121599" d="M54.224,17.505l-.271-.08a3.107,3.107,0,0,1-2.1-3.86l.477-1.613a3.107,3.107,0,0,1,3.86-2.1l.271.08a3.107,3.107,0,0,1,2.1,3.86l-.477,1.613A3.106,3.106,0,0,1,54.224,17.505Z" fill="#13bf6d"/>
        <path id="Trazado_121600" data-name="Trazado 121600" d="M60.065,23.619l-.207-.193a3.107,3.107,0,0,1-.149-4.391l1.149-1.23a3.107,3.107,0,0,1,4.391-.149l.207.193a3.107,3.107,0,0,1,.149,4.391l-1.149,1.23a3.106,3.106,0,0,1-4.391.149Z" fill="#13bf6d"/>
      </g>
      <g id="Grupo_85653" data-name="Grupo 85653">
        <path id="Trazado_121601" data-name="Trazado 121601" d="M53.4,45.23a.842.842,0,0,1-.712-.954l.145-1a.842.842,0,1,1,1.666.241l-.145,1A.842.842,0,0,1,53.4,45.23Zm.627-4.331a.842.842,0,0,1-.712-.954l.832-5.748a9.237,9.237,0,0,0-8.038-10.5L34.492,22.293a.841.841,0,1,1,.2-1.671l11.619,1.4a10.922,10.922,0,0,1,9.5,12.412l-.832,5.748a.842.842,0,0,1-.954.712Z" fill="#76ffbb"/>
      </g>
      <path id="Trazado_121602" data-name="Trazado 121602" d="M35.6,3.846h-.283a3.953,3.953,0,0,0-3.948,3.948V9.477a3.953,3.953,0,0,0,3.948,3.948H35.6a3.953,3.953,0,0,0,3.948-3.948V7.794A3.953,3.953,0,0,0,35.6,3.846Zm2.265,5.631A2.268,2.268,0,0,1,35.6,11.742h-.283a2.268,2.268,0,0,1-2.265-2.265V7.794a2.268,2.268,0,0,1,2.265-2.265H35.6a2.268,2.268,0,0,1,2.265,2.265Z"/>
      <path id="Trazado_121603" data-name="Trazado 121603" d="M46.095,4.806a3.946,3.946,0,0,0-4.46,3.359L41.4,9.832a3.953,3.953,0,0,0,3.359,4.46l.28.039a3.946,3.946,0,0,0,4.46-3.359l.235-1.666a3.953,3.953,0,0,0-3.359-4.46Zm1.972,4.265-.235,1.666a2.267,2.267,0,0,1-2.559,1.927l-.28-.039a2.268,2.268,0,0,1-1.927-2.559L43.3,8.4a2.264,2.264,0,0,1,2.238-1.95,2.29,2.29,0,0,1,.32.023l.28.039a2.268,2.268,0,0,1,1.928,2.559Z"/>
      <path id="Trazado_121604" data-name="Trazado 121604" d="M56.7,9.126l-.271-.08a3.952,3.952,0,0,0-4.906,2.666l-.477,1.614a3.946,3.946,0,0,0,2.666,4.906l.271.08a3.946,3.946,0,0,0,4.906-2.666l.477-1.613A3.946,3.946,0,0,0,56.7,9.126Zm1.052,4.429-.477,1.613A2.263,2.263,0,0,1,54.463,16.7h0l-.271-.08A2.263,2.263,0,0,1,52.662,13.8l.477-1.614a2.267,2.267,0,0,1,2.814-1.529l.271.08A2.263,2.263,0,0,1,57.755,13.556Z"/>
      <path id="Trazado_121605" data-name="Trazado 121605" d="M38.955,66.145a.859.859,0,0,0-1.145.319.84.84,0,1,0,1.145-.319Z"/>
      <path id="Trazado_121606" data-name="Trazado 121606" d="M23.275,33.128a.856.856,0,0,0-1.182.138.84.84,0,1,0,1.182-.138Z"/>
      <path id="Trazado_121607" data-name="Trazado 121607" d="M65.748,22.231a.845.845,0,0,0,1.115-.421,4.1,4.1,0,0,0-.929-4.665l-.006-.007a4.1,4.1,0,0,0-5.78.2l-.956,1.023a4.1,4.1,0,0,0,1.046,6.391.841.841,0,0,0,.8-1.478s0,0,0,0a2.411,2.411,0,0,1-.614-3.762l.956-1.023a2.41,2.41,0,0,1,3.4-.116l.006,0a2.4,2.4,0,0,1,.543,2.744.849.849,0,0,0,.421,1.115Z"/>
      <path id="Trazado_121608" data-name="Trazado 121608" d="M63.418,23.211a0,0,0,0,1,0,0,.837.837,0,0,0-.283,1.151.845.845,0,0,0,1.148.293.01.01,0,0,1,.007,0,.843.843,0,0,0-.869-1.444Z"/>
      <path id="Trazado_121609" data-name="Trazado 121609" d="M24.168,15.575a5.546,5.546,0,0,0,4.823-5.637L28.9,6.015A5.557,5.557,0,0,0,22.616.638L21.774.75a5.558,5.558,0,0,0-4.665,6.828l.933,3.812A5.546,5.546,0,0,0,24.168,15.575ZM21.995,2.418l.842-.111a3.871,3.871,0,0,1,4.379,3.747l.092,3.923a3.872,3.872,0,0,1-7.631,1.012l-.934-3.812a3.873,3.873,0,0,1,3.252-4.759Z"/>
      <path id="Trazado_121610" data-name="Trazado 121610" d="M57.461,47.638l1.835-12.7A14.431,14.431,0,0,0,46.735,18.535L31.628,16.707A11.126,11.126,0,0,0,19.262,29.22s0,.006,0,.009a8.062,8.062,0,0,0,.663,2.289.841.841,0,0,0,1.528-.7v-.007a6.25,6.25,0,0,1-.522-1.8.024.024,0,0,1,0,0A9.334,9.334,0,0,1,23.4,21.306c2.757.659,18.473,5.442,25.357,29.7q-.327.315-.63.655A24.334,24.334,0,0,0,37.832,48.79l.417-5.165a8,8,0,0,0-7.027-8.6h-.013l-4.763-.574c-.165-.021-.33-.047-.5-.084a.852.852,0,0,0-.993.66.843.843,0,0,0,.656.993c.212.04.428.077.637.1l4.773.576h0a6.321,6.321,0,0,1,5.551,6.794l-1.02,12.648a7,7,0,0,1-3.658,5.611,12.681,12.681,0,0,0,6.024,23.84h3.069a12.751,12.751,0,0,0,12.55-10.864l.484-3.341A12.082,12.082,0,0,0,69.23,59.7h0a12.069,12.069,0,0,0-11.769-12.06ZM24.93,19.975a9.34,9.34,0,0,1,6.5-1.6L43.2,19.8a32.538,32.538,0,0,1,1.356,16.912C40.076,29.158,33.191,22.49,24.93,19.975ZM45.814,38.963a34.69,34.69,0,0,0-.73-18.933l1.449.175a12.75,12.75,0,0,1,11.1,14.5L55.749,47.714a12.021,12.021,0,0,0-5.578,2.12,59.4,59.4,0,0,0-4.356-10.871Zm-7.9,44.943a11.036,11.036,0,0,1-10.77-8.786,132.8,132.8,0,0,1,16.995-2.667A18.111,18.111,0,0,1,48.26,81.13a10.979,10.979,0,0,1-7.274,2.776Zm11.747-4.271A20.27,20.27,0,0,0,41.87,68.04a.861.861,0,0,0-1.178.168.841.841,0,0,0,.165,1.178A21.985,21.985,0,0,1,42.649,70.9a136.249,136.249,0,0,0-15.712,2.543c-.009-.179-.018-.359-.018-.537A10.972,10.972,0,0,1,30.606,64.7a27.742,27.742,0,0,1,4.585,1.482.841.841,0,1,0,.646-1.552,30.742,30.742,0,0,0-3.459-1.213c.1-.061.206-.126.313-.183a8.683,8.683,0,0,0,4.535-6.955l.468-5.8A23.155,23.155,0,0,1,47.087,53a12.074,12.074,0,0,0-1.733,4.073l-3.932,1.9a.842.842,0,0,0,0,1.517l3.936,1.889A12.127,12.127,0,0,0,52.4,70.822l-.531,3.662A10.89,10.89,0,0,1,49.665,79.635Zm7.494-9.522a10.413,10.413,0,0,1-10.232-8.471.841.841,0,0,0-.463-.6L43.73,59.726l2.732-1.317a.842.842,0,0,0,.462-.6A10.4,10.4,0,1,1,57.158,70.113Z"/>
      <path id="Trazado_121611" data-name="Trazado 121611" d="M56.6,57.095a.842.842,0,1,0-1.683,0,.717.717,0,0,1-.716.716h-.406a.717.717,0,0,1-.716-.716V54.784a.717.717,0,0,1,.716-.716H54.2a.718.718,0,0,1,.716.719.842.842,0,0,0,1.683,0,2.4,2.4,0,0,0-2.4-2.4h-.406a2.4,2.4,0,0,0-2.4,2.4v2.311a2.4,2.4,0,0,0,2.4,2.4H54.2a2.4,2.4,0,0,0,2.4-2.4Z"/>
      <path id="Trazado_121612" data-name="Trazado 121612" d="M60.38,52.386h-.154A2.528,2.528,0,0,0,57.7,54.912v2.056a2.528,2.528,0,0,0,2.525,2.526h.154a2.528,2.528,0,0,0,2.525-2.526V54.912A2.528,2.528,0,0,0,60.38,52.386Zm.842,4.582a.843.843,0,0,1-.842.843h-.154a.843.843,0,0,1-.842-.843V54.912a.843.843,0,0,1,.842-.843h.154a.843.843,0,0,1,.842.843Z"/>
      <path id="Trazado_121613" data-name="Trazado 121613" d="M56.384,65.418l2.377-1.373a2.164,2.164,0,0,0-1.082-4.034H56.623a2.164,2.164,0,0,0-2.162,2.162v.175a.842.842,0,0,0,1.683,0v-.175a.48.48,0,0,1,.479-.479h1.055a.479.479,0,0,1,.24.893L55.541,63.96a2.168,2.168,0,0,0-1.08,1.872v.893a.841.841,0,0,0,.842.842H59a.842.842,0,0,0,0-1.683H56.144v-.051a.48.48,0,0,1,.239-.415Z"/>
    </g>
  </g>
</svg>
