<svg xmlns="http://www.w3.org/2000/svg" width="400" height="301.1" viewBox="0 0 400 301.1">
  <g id="Grupo_981983" data-name="Grupo 981983" transform="translate(7305 -3166.961)">
    <path id="Trazado_626477" data-name="Trazado 626477" d="M12.7,0H387.3C394.315,0,400,4.484,400,10.014V291.085c0,5.531-5.685,10.014-12.7,10.014H12.7C5.685,301.1,0,296.616,0,291.085V10.014C0,4.484,5.685,0,12.7,0Z" transform="translate(-7305 3166.961)" fill="#f6f6f6"/>
    <path id="Trazado_678196" data-name="Trazado 678196" d="M32.138-17.931q0,9-3.723,13.761T17.514.6Q10.425.6,6.672-4.081T2.83-17.484v-7.982q0-9.084,3.768-13.791t10.857-4.706q7.089,0,10.842,4.661t3.842,13.388ZM23.53-26.707q0-5.4-1.474-7.856a4.982,4.982,0,0,0-4.6-2.46,4.894,4.894,0,0,0-4.483,2.34q-1.445,2.34-1.534,7.319v10.554q0,5.307,1.445,7.886a4.917,4.917,0,0,0,4.632,2.579,4.834,4.834,0,0,0,4.557-2.474q1.4-2.474,1.459-7.573ZM46.7-25.5H51.29a6.463,6.463,0,0,0,4.855-1.638,6,6,0,0,0,1.579-4.349,5.308,5.308,0,0,0-1.564-4.081,6.06,6.06,0,0,0-4.3-1.459,6.352,6.352,0,0,0-4.14,1.355,4.333,4.333,0,0,0-1.668,3.53H37.44a10.586,10.586,0,0,1,1.832-6.091,12.206,12.206,0,0,1,5.123-4.215,17.1,17.1,0,0,1,7.253-1.519q6.88,0,10.782,3.291a11.23,11.23,0,0,1,3.9,9.07,9.125,9.125,0,0,1-1.817,5.48,11.8,11.8,0,0,1-4.766,3.842,10.775,10.775,0,0,1,5.466,3.932,10.665,10.665,0,0,1,1.8,6.2A11.416,11.416,0,0,1,62.8-2.889Q58.587.6,51.647.6A16.068,16.068,0,0,1,41.029-2.83,11.186,11.186,0,0,1,36.9-11.884h8.608a4.987,4.987,0,0,0,1.832,3.991,6.75,6.75,0,0,0,4.512,1.549,6.782,6.782,0,0,0,4.81-1.623,5.6,5.6,0,0,0,1.742-4.3q0-6.493-7.148-6.493H46.7Z" transform="translate(-6991.227 3451.061)" fill="#e2e2e2"/>
  </g>
</svg>
