<svg xmlns="http://www.w3.org/2000/svg" width="400" height="363.878" viewBox="0 0 400 363.878">
  <g id="Grupo_981994" data-name="Grupo 981994" transform="translate(7305 -3166.961)">
    <path id="Trazado_626477" data-name="Trazado 626477" d="M12.7,0H387.3C394.315,0,400,5.418,400,12.1V351.775c0,6.684-5.685,12.1-12.7,12.1H12.7c-7.013,0-12.7-5.418-12.7-12.1V12.1C0,5.418,5.685,0,12.7,0Z" transform="translate(-7305 3166.961)" fill="#f6f6f6"/>
    <path id="Trazado_678199" data-name="Trazado 678199" d="M32.138-17.931q0,9-3.723,13.761T17.514.6Q10.425.6,6.672-4.081T2.83-17.484v-7.982q0-9.084,3.768-13.791t10.857-4.706q7.089,0,10.842,4.661t3.842,13.388ZM23.53-26.707q0-5.4-1.474-7.856a4.982,4.982,0,0,0-4.6-2.46,4.894,4.894,0,0,0-4.483,2.34q-1.445,2.34-1.534,7.319v10.554q0,5.307,1.445,7.886a4.917,4.917,0,0,0,4.632,2.579,4.834,4.834,0,0,0,4.557-2.474q1.4-2.474,1.459-7.573ZM61.3-43.814v7.089h-.834a14.624,14.624,0,0,0-9.4,3.038A12.344,12.344,0,0,0,46.792-25.5a11.724,11.724,0,0,1,8.727-3.515,11.046,11.046,0,0,1,9,4.051q3.336,4.051,3.336,10.663a15.973,15.973,0,0,1-1.832,7.655,13.137,13.137,0,0,1-5.183,5.332A15.057,15.057,0,0,1,53.256.6,14.063,14.063,0,0,1,42.191-4.17q-4.215-4.766-4.215-12.718v-3.1a27.839,27.839,0,0,1,2.666-12.465,19.547,19.547,0,0,1,7.655-8.37,22.431,22.431,0,0,1,11.572-2.993ZM52.9-22.071a6.878,6.878,0,0,0-3.783,1.085,6.537,6.537,0,0,0-2.5,2.869V-15.5a11.59,11.59,0,0,0,1.7,6.734,5.486,5.486,0,0,0,4.766,2.423A5.426,5.426,0,0,0,57.56-8.529a8.912,8.912,0,0,0,1.713-5.663A8.9,8.9,0,0,0,57.545-19.9,5.63,5.63,0,0,0,52.9-22.071Z" transform="translate(-6991.227 3517.125)" fill="#e2e2e2"/>
  </g>
</svg>
