<svg xmlns="http://www.w3.org/2000/svg" width="430.911" height="294.453" viewBox="0 0 430.911 294.453">
  <g id="Grupo_85497" data-name="Grupo 85497" transform="translate(-97.282 -55.295)">
    <g id="Grupo_85458" data-name="Grupo 85458" transform="translate(97.282 55.295)">
      <g id="Grupo_85441" data-name="Grupo 85441">
        <g id="Grupo_85406" data-name="Grupo 85406" transform="translate(0 289.942)">
          <path id="Trazado_121116" data-name="Trazado 121116" d="M158.065,441.816c0,.982-13.607,1.778-30.391,1.778s-30.392-.8-30.392-1.778,13.607-1.779,30.392-1.779S158.065,440.835,158.065,441.816Z" transform="translate(-97.282 -440.038)" fill="#cee284"/>
          <path id="Trazado_121117" data-name="Trazado 121117" d="M251.08,441.816c0,.982-13.606,1.778-30.391,1.778s-30.392-.8-30.392-1.778,13.607-1.779,30.392-1.779S251.08,440.835,251.08,441.816Z" transform="translate(-120.201 -440.038)" fill="#cee284"/>
        </g>
        <g id="Grupo_85437" data-name="Grupo 85437" transform="translate(26.282 9.179)">
          <g id="Grupo_85424" data-name="Grupo 85424" transform="translate(14.927)">
            <g id="Grupo_85423" data-name="Grupo 85423">
              <g id="Grupo_85422" data-name="Grupo 85422">
                <g id="Grupo_85421" data-name="Grupo 85421">
                  <g id="Grupo_85408" data-name="Grupo 85408" transform="translate(0 112.767)">
                    <g id="Grupo_85407" data-name="Grupo 85407">
                      <path id="Trazado_121118" data-name="Trazado 121118" d="M212.945,222.088l13.9,149.589H209.636L191.89,278.05c-1.286-3.9-5.6-3.864-6.977,0l-13,92.633-16.544.332s-10.9-89.481,6.287-153.9Z" transform="translate(-151.965 -217.113)" fill="#36687a"/>
                    </g>
                  </g>
                  <g id="Grupo_85410" data-name="Grupo 85410" transform="translate(0.904 219.189)" opacity="0.46" style="mix-blend-mode: multiply;isolation: isolate">
                    <g id="Grupo_85409" data-name="Grupo 85409">
                      <path id="Trazado_121119" data-name="Trazado 121119" d="M153.164,376.534c1.01,18.723,2.5,31,2.5,31l16.544-.332,5.876-41.877C169.73,368.955,161.3,372.469,153.164,376.534Z" transform="translate(-153.164 -360.055)" fill="#36687a"/>
                      <path id="Trazado_121120" data-name="Trazado 121120" d="M219.88,372.232l6.49,34.242h17.206L239.1,358.332Q229.553,365.363,219.88,372.232Z" transform="translate(-169.603 -358.332)" fill="#36687a"/>
                    </g>
                  </g>
                  <g id="Grupo_85412" data-name="Grupo 85412" transform="translate(54.019 44.319)">
                    <path id="Trazado_121121" data-name="Trazado 121121" d="M290.148,194.478c-.13,1.2-11.122.821-11.122.821s-15.422,1.322-25.338,1.545l-20.551,1.785c-4.455-7.421-16.35-71.742-4.146-69.629,19.9,3.446,26.371,46.86,26.371,46.86l22.04,4.731-.005.161c.989-.125,10.37,1.326,10.759,1.211,0,0,18.817,7.436,20.446,10.882s-9.409-2.357-10.856-3.083S290.148,194.478,290.148,194.478Z" transform="translate(-223.646 -126.941)" fill="#f7908d"/>
                    <path id="Trazado_121122" data-name="Trazado 121122" d="M240.118,164.05c-.124,17.709-8.3,37.924-5.722,42.22l14.8-.93C244.759,198.712,243.256,192.687,240.118,164.05Z" transform="translate(-226.171 -135.59)" fill="#d46e6c"/>
                    <path id="Trazado_121123" data-name="Trazado 121123" d="M257.09,174.015s-4.43-40.23-23.067-47.486c-11.544-4.494-9.039,54.1-4.583,61.523Z" transform="translate(-224.154 -126.284)" fill="#faf1e2"/>
                    <path id="Trazado_121124" data-name="Trazado 121124" d="M251.328,179.985l-21.268,10.7c-4.455-7.421-.82-50.348,11.1-53.723Z" transform="translate(-224.774 -128.915)" fill="#f1ca79" style="mix-blend-mode: multiply;isolation: isolate"/>
                    <g id="Grupo_85411" data-name="Grupo 85411" transform="translate(3.56 41.468)">
                      <rect id="Rectángulo_34617" data-name="Rectángulo 34617" width="31.587" height="0.198" transform="translate(0 12.414) rotate(-23.143)" fill="#fff"/>
                    </g>
                  </g>
                  <g id="Grupo_85413" data-name="Grupo 85413" transform="translate(10.686 37.076)">
                    <path id="Trazado_121125" data-name="Trazado 121125" d="M174.837,136.314c5.119-16.254,22.105-17.489,22.105-17.489l7.669-2.152.095.142,8.965,10.232,4.134-1.85.191-2,3.221,1.841c1.439.472,6.542,7.7,7.6,11.76a51.245,51.245,0,0,1,1.281,15.366l-12.557,58.224-51.4-3.1S169.436,153.46,174.837,136.314Z" transform="translate(-166.145 -116.674)" fill="#faf1e2"/>
                  </g>
                  <g id="Grupo_85414" data-name="Grupo 85414" transform="translate(10.686 40.882)" opacity="0.61" style="mix-blend-mode: multiply;isolation: isolate">
                    <path id="Trazado_121126" data-name="Trazado 121126" d="M205.44,204.509a5.041,5.041,0,0,1-.153-1.723c2.077-27.663-1.015-56.72-15.132-81.062a24.464,24.464,0,0,0-15.318,15.835c-5.4,17.146-8.692,70.976-8.692,70.976l38.574,2.323C204.974,208.744,205.2,206.626,205.44,204.509Z" transform="translate(-166.145 -121.724)" fill="#f1ca79"/>
                  </g>
                  <g id="Grupo_85416" data-name="Grupo 85416" transform="translate(6.275 39.686)">
                    <path id="Trazado_121127" data-name="Trazado 121127" d="M193.661,170.678c-1.922,8.563-5.217,17.427-12.064,23.209a25.167,25.167,0,0,1-15.777,5.788,339.452,339.452,0,0,1-5.528,33.747l57.132,5.528,8.935-60.379C215.43,176.084,204.547,173.377,193.661,170.678Z" transform="translate(-160.291 -132.59)" fill="#36687a"/>
                    <path id="Trazado_121128" data-name="Trazado 121128" d="M186.644,226.732c7.848-12.436,5.855-26.659,3.946-40.583a31.9,31.9,0,0,1-8.33,11.55,25.167,25.167,0,0,1-15.777,5.788c-.9,8.614-2.322,17.234-3.5,23.609C171.074,232.6,180.636,236.251,186.644,226.732Z" transform="translate(-160.954 -136.402)" fill="#36687a" opacity="0.46" style="mix-blend-mode: multiply;isolation: isolate"/>
                    <g id="Grupo_85415" data-name="Grupo 85415" transform="translate(30.22)">
                      <path id="Trazado_121129" data-name="Trazado 121129" d="M203.542,159.551s5.011-36.982-3.15-38.088l7.721-1.326s6.4,14.152,1.765,41.35Z" transform="translate(-200.392 -120.137)" fill="#36687a"/>
                      <path id="Trazado_121130" data-name="Trazado 121130" d="M238.444,167.415c0,2.874,4.853-35.38,2.647-38.476,0,0,4.632,3.538,5.073,5.307,0,0-1.544,23.661-3.308,34.054Z" transform="translate(-209.768 -122.306)" fill="#36687a"/>
                    </g>
                  </g>
                  <g id="Grupo_85419" data-name="Grupo 85419" transform="translate(48.327)">
                    <g id="Grupo_85418" data-name="Grupo 85418">
                      <path id="Trazado_121131" data-name="Trazado 121131" d="M229.424,87.54l1.385-2.011s11.617,2.1,14.519.55,3.027-7.229,3.027-7.229,3.832.075,1.186-1.762-.044-2.8-.044-2.8,1.993-1.762-1.942-5.163-20.453-.5-20.453-.5c-4.255.814-7.422,22.123-.222,21.653" transform="translate(-217.698 -67.475)" fill="#232f33"/>
                      <path id="Trazado_121132" data-name="Trazado 121132" d="M245.3,82.622s-1.681,15.474-6.241,23.4a3.914,3.914,0,0,1-5.932.984,5,5,0,0,0-2.2-1.362,53.4,53.4,0,0,0,.225,8.987l-.011.048a5.544,5.544,0,0,1-10.162,1.546L216.093,108l5.6-15.078s-1.084.1-1.76-1.605a6.618,6.618,0,0,1,.612-5.226c1.106-1.8,4.792-.936,5.152.937.114.6.64,1.3,1.494.607.731-.593,3.111-8.651,5.479-7.961,5.12,1.491,8.012,2.424,10.523,2.791A7.91,7.91,0,0,0,245.3,82.622Z" transform="translate(-216.093 -70.471)" fill="#ff9ea0"/>
                      <path id="Trazado_121133" data-name="Trazado 121133" d="M225.326,90.556c.039.2-1.7-2.2-2.936.894" transform="translate(-217.645 -72.989)" fill="#d46e6c"/>
                      <path id="Trazado_121134" data-name="Trazado 121134" d="M236.354,113.772l-4.223-4.051,2.815,13.159Z" transform="translate(-220.045 -77.884)" fill="#d46e6c"/>
                      <g id="Grupo_85417" data-name="Grupo 85417" transform="translate(21.248 22.119)">
                        <path id="Trazado_121135" data-name="Trazado 121135" d="M249.723,100.386c-.1.548.035,1.031.3,1.078s.558-.358.656-.906-.036-1.031-.3-1.078S249.821,99.838,249.723,100.386Z" transform="translate(-245.62 -97.479)" fill="#0f1032"/>
                        <path id="Trazado_121136" data-name="Trazado 121136" d="M244.32,98.942c-.1.548.036,1.03.3,1.078s.558-.358.656-.906-.035-1.031-.3-1.078S244.419,98.394,244.32,98.942Z" transform="translate(-244.288 -97.123)" fill="#0f1032"/>
                        <path id="Trazado_121137" data-name="Trazado 121137" d="M248.178,96.826c-.143,1.578-.2,5.793-.2,5.793l-1.535-.368Z" transform="translate(-244.818 -96.826)" fill="#d46e6c"/>
                      </g>
                      <path id="Trazado_121138" data-name="Trazado 121138" d="M241.756,104.687c1.086.317,5.564,1.405,5.564,1.405s-1.583,2.267-2.94,1.769A4.786,4.786,0,0,1,241.756,104.687Z" transform="translate(-222.416 -76.644)" fill="#fff"/>
                      <path id="Trazado_121139" data-name="Trazado 121139" d="M245.392,93.764c.381.089,1.621-.909.274-1.413a4.866,4.866,0,0,0-3.8.726C241.558,93.423,243.293,93.273,245.392,93.764Z" transform="translate(-222.435 -73.566)" fill="#0f1032"/>
                      <path id="Trazado_121140" data-name="Trazado 121140" d="M252.367,95.365c.381.09,1.5-1.1.148-1.6-1.363-.51-2.357.843-2.669,1.19S250.269,94.874,252.367,95.365Z" transform="translate(-224.393 -73.925)" fill="#0f1032"/>
                    </g>
                  </g>
                  <path id="Trazado_121141" data-name="Trazado 121141" d="M327.6,208.162s5.428.182,3.981-1.088-12.484-3.446-12.484-3.446Z" transform="translate(-193.146 -101.023)" fill="#d46e6c"/>
                  <g id="Grupo_85420" data-name="Grupo 85420" transform="translate(103.233 97.884)">
                    <path id="Trazado_121142" data-name="Trazado 121142" d="M293.1,197.364l.393.085-.005.16c.989-.125,10.37,1.326,10.759,1.211,0,0,18.817,7.437,20.446,10.882s-9.409-2.357-10.856-3.083-7.6,4.716-7.6,4.716c-.13,1.2-11.122.821-11.122.821s-2.525.216-6.166.487Q291.287,205.088,293.1,197.364Z" transform="translate(-288.952 -197.364)" fill="#e35c3d"/>
                  </g>
                </g>
              </g>
            </g>
          </g>
          <g id="Grupo_85430" data-name="Grupo 85430" transform="translate(0 236.658)">
            <g id="Grupo_85426" data-name="Grupo 85426">
              <g id="Grupo_85425" data-name="Grupo 85425">
                <path id="Trazado_121143" data-name="Trazado 121143" d="M149.672,416.786l-3.482-35.115c2.482-.5,27.132.332,27.132.332l-3.639,47.431-37.525-.007v-2.439Z" transform="translate(-132.157 -381.512)" fill="#edb224"/>
              </g>
            </g>
            <g id="Grupo_85428" data-name="Grupo 85428" transform="translate(0 34.122)" opacity="0.49" style="mix-blend-mode: multiply;isolation: isolate">
              <g id="Grupo_85427" data-name="Grupo 85427">
                <path id="Trazado_121144" data-name="Trazado 121144" d="M149.558,426.791l.115,1.152-17.515,10.2v2.44l37.525.006.029-.365A210.685,210.685,0,0,0,149.558,426.791Z" transform="translate(-132.157 -426.791)" fill="#edb224"/>
              </g>
            </g>
            <g id="Grupo_85429" data-name="Grupo 85429" transform="translate(16.985 26.86)">
              <path id="Trazado_121145" data-name="Trazado 121145" d="M163.233,426.741c-.129,0-.258-.005-.387-.017l-7.664-.659.085-.992,7.664.659a3.564,3.564,0,0,0,3.864-3.557,3.566,3.566,0,0,0-3.373-3.566l-8.728-.46.052-.995,8.728.46a4.567,4.567,0,0,1-.242,9.127Z" transform="translate(-154.695 -417.154)" fill="#fff"/>
            </g>
          </g>
          <g id="Grupo_85436" data-name="Grupo 85436" transform="translate(63.334 235.994)">
            <g id="Grupo_85432" data-name="Grupo 85432">
              <g id="Grupo_85431" data-name="Grupo 85431">
                <path id="Trazado_121146" data-name="Trazado 121146" d="M245.006,416.569l-1.675-35.779c-2.482-.5-27.132.332-27.132.332l8.8,48.094,37.526-.007V426.77Z" transform="translate(-216.199 -380.631)" fill="#edb224"/>
              </g>
            </g>
            <g id="Grupo_85434" data-name="Grupo 85434" transform="translate(0 0.482)" style="mix-blend-mode: multiply;isolation: isolate">
              <g id="Grupo_85433" data-name="Grupo 85433">
                <path id="Trazado_121147" data-name="Trazado 121147" d="M272.62,439.263v-.347l-15.44-8.991C261.644,434.439,266.767,437.8,272.62,439.263Z" transform="translate(-226.297 -393.259)" fill="#edb224"/>
                <path id="Trazado_121148" data-name="Trazado 121148" d="M216.45,381.271l-.251.009,8.8,48.094,20.29,0C231.27,418.212,222,398.285,216.45,381.271Z" transform="translate(-216.199 -381.271)" fill="#edb224" opacity="0.49"/>
              </g>
            </g>
            <g id="Grupo_85435" data-name="Grupo 85435" transform="translate(15.15 25.863)">
              <path id="Trazado_121149" data-name="Trazado 121149" d="M240.653,425.086l-.042-.007a5.095,5.095,0,0,1,.775-10.128h7.892v1h-7.892a4.1,4.1,0,0,0-.664,8.14l9.207-.182.02,1Z" transform="translate(-236.303 -414.951)" fill="#fff"/>
            </g>
          </g>
        </g>
        <g id="Grupo_85440" data-name="Grupo 85440" transform="translate(80.636)">
          <g id="Grupo_85439" data-name="Grupo 85439">
            <path id="Trazado_121150" data-name="Trazado 121150" d="M221.186,77.072s-2.316-11.608.662-13.267,15.883-9.951,17.206-8.292,9.6,12.6,9.6,12.6Z" transform="translate(-208.237 -55.295)" fill="#9d5131"/>
            <g id="Grupo_85438" data-name="Grupo 85438" transform="translate(12.457 0)" style="mix-blend-mode: multiply;isolation: isolate">
              <path id="Trazado_121151" data-name="Trazado 121151" d="M241.642,55.945c-.139-.179-.255-.326-.34-.433-.891-1.116-7.025,2.274-11.85,5.116Q235.521,58.217,241.642,55.945Z" transform="translate(-222.942 -55.295)" fill="#232f33" opacity="0.47"/>
              <path id="Trazado_121152" data-name="Trazado 121152" d="M220.813,76.883c.234,1.791.493,3.094.493,3.094l27.463-8.955s-1.316-1.741-2.98-3.937Q233.186,71.678,220.813,76.883Z" transform="translate(-220.813 -58.2)" fill="#232f33" opacity="0.47"/>
            </g>
            <path id="Trazado_121153" data-name="Trazado 121153" d="M218.888,77.223s-15.551,5.971-14.559,7.629,52.279-15.589,52.609-17.579-11.911,1.659-11.911,1.659Z" transform="translate(-204.284 -58.1)" fill="#9d5131"/>
          </g>
        </g>
      </g>
      <g id="Grupo_85457" data-name="Grupo 85457" transform="translate(38.882 49.329)">
        <g id="Grupo_85453" data-name="Grupo 85453" transform="translate(46.432 19.967)">
          <g id="Grupo_85449" data-name="Grupo 85449">
            <g id="Grupo_85447" data-name="Grupo 85447" transform="translate(7.858)">
              <g id="Grupo_85442" data-name="Grupo 85442" transform="translate(18.778 2.66)">
                <ellipse id="Elipse_5056" data-name="Elipse 5056" cx="10.257" cy="10.282" rx="10.257" ry="10.282" transform="translate(0 3.057)" fill="#e35c3d"/>
                <path id="Trazado_121154" data-name="Trazado 121154" d="M249.682,164.612a15.861,15.861,0,0,1-1.063-5.459,10.261,10.261,0,1,0,16.826,11.235C259.416,173.912,252.3,171.4,249.682,164.612Z" transform="translate(-245.835 -152.841)" fill="#e35c3d" style="mix-blend-mode: multiply;isolation: isolate"/>
                <path id="Trazado_121155" data-name="Trazado 121155" d="M258.458,155.1c-1.442-.678-3.06-1.576-3.347-3.146a5.521,5.521,0,0,1,4.145,2.661,6.84,6.84,0,0,1,.76-3.4c.1-.191.234-.4.446-.434.256-.046.481.181.6.412.522,1,.041,2.207-.44,3.227,1.164-.371,2.5-.724,3.546-.09.5.3.856,1.023.461,1.449a1.237,1.237,0,0,1-.888.281,14.889,14.889,0,0,1-5.637-.9" transform="translate(-248.121 -150.777)" fill="#36687a"/>
              </g>
              <g id="Grupo_85443" data-name="Grupo 85443" transform="translate(56.663 4.483)">
                <ellipse id="Elipse_5057" data-name="Elipse 5057" cx="10.257" cy="10.282" rx="10.257" ry="10.282" transform="translate(0 3.058)" fill="#e35c3d"/>
                <path id="Trazado_121156" data-name="Trazado 121156" d="M299.954,167.033a15.877,15.877,0,0,1-1.063-5.459,10.261,10.261,0,1,0,16.826,11.235C309.689,176.333,302.577,173.817,299.954,167.033Z" transform="translate(-296.108 -155.261)" fill="#e35c3d" style="mix-blend-mode: multiply;isolation: isolate"/>
                <path id="Trazado_121157" data-name="Trazado 121157" d="M308.731,157.524c-1.442-.678-3.061-1.576-3.347-3.146a5.516,5.516,0,0,1,4.144,2.661,6.849,6.849,0,0,1,.76-3.4c.1-.191.234-.4.446-.435.256-.045.481.182.6.412.522,1,.041,2.207-.44,3.228,1.164-.371,2.5-.724,3.546-.09.5.3.856,1.023.461,1.448a1.234,1.234,0,0,1-.888.282,14.894,14.894,0,0,1-5.638-.9" transform="translate(-298.394 -153.197)" fill="#36687a"/>
              </g>
              <g id="Grupo_85444" data-name="Grupo 85444" transform="translate(0 3.99)">
                <path id="Trazado_121158" data-name="Trazado 121158" d="M241.3,167.858a10.258,10.258,0,1,0-11.786,8.477A10.279,10.279,0,0,0,241.3,167.858Z" transform="translate(-220.917 -153.371)" fill="#e35c3d"/>
                <path id="Trazado_121159" data-name="Trazado 121159" d="M225.1,164.3a15.872,15.872,0,0,1-.164-5.56,10.264,10.264,0,1,0,14.783,13.824C233.2,175.057,226.594,171.417,225.1,164.3Z" transform="translate(-220.917 -154.068)" fill="#e35c3d" style="mix-blend-mode: multiply;isolation: isolate"/>
                <path id="Trazado_121160" data-name="Trazado 121160" d="M235.659,156.48c-1.313-.9-2.765-2.054-2.794-3.65a5.526,5.526,0,0,1,3.659,3.3,6.833,6.833,0,0,1,1.3-3.232.719.719,0,0,1,.51-.356c.26,0,.445.257.527.5.353,1.071-.317,2.185-.956,3.113,1.208-.176,2.585-.308,3.513.488.442.378.68,1.148.221,1.5a1.233,1.233,0,0,1-.922.133,14.887,14.887,0,0,1-5.416-1.808" transform="translate(-223.861 -152.542)" fill="#36687a"/>
              </g>
              <g id="Grupo_85445" data-name="Grupo 85445" transform="translate(39.018)">
                <ellipse id="Elipse_5058" data-name="Elipse 5058" cx="10.257" cy="10.282" rx="10.257" ry="10.282" transform="translate(0 2.96)" fill="#e64b40"/>
                <path id="Trazado_121161" data-name="Trazado 121161" d="M276.408,164.429a15.842,15.842,0,0,1-2.962-4.7,10.255,10.255,0,1,0,19.742,4.366C288.842,169.566,281.3,169.8,276.408,164.429Z" transform="translate(-272.693 -150.323)" fill="#e35c3d" style="mix-blend-mode: multiply;isolation: isolate"/>
                <path id="Trazado_121162" data-name="Trazado 121162" d="M280.692,152.059c-1.589-.109-3.423-.358-4.258-1.718a5.512,5.512,0,0,1,4.825.977,6.844,6.844,0,0,1-.519-3.446A.722.722,0,0,1,281,147.3a.635.635,0,0,1,.709.166c.848.742.836,2.043.756,3.168.951-.768,2.069-1.583,3.272-1.371.571.1,1.168.643.953,1.183a1.238,1.238,0,0,1-.726.584,14.9,14.9,0,0,1-5.581,1.2" transform="translate(-273.614 -147.248)" fill="#36687a"/>
              </g>
              <g id="Grupo_85446" data-name="Grupo 85446" transform="translate(33.915 11.951)">
                <path id="Trazado_121163" data-name="Trazado 121163" d="M286.3,178.421a10.258,10.258,0,1,0-11.786,8.477A10.28,10.28,0,0,0,286.3,178.421Z" transform="translate(-265.921 -163.934)" fill="#e35c3d"/>
                <path id="Trazado_121164" data-name="Trazado 121164" d="M270.108,174.86a15.872,15.872,0,0,1-.164-5.56,10.264,10.264,0,1,0,14.783,13.823C278.209,185.621,271.6,181.98,270.108,174.86Z" transform="translate(-265.921 -164.632)" fill="#e35c3d" style="mix-blend-mode: multiply;isolation: isolate"/>
                <path id="Trazado_121165" data-name="Trazado 121165" d="M280.663,167.044c-1.314-.9-2.766-2.054-2.794-3.65a5.526,5.526,0,0,1,3.659,3.3,6.827,6.827,0,0,1,1.3-3.231.719.719,0,0,1,.51-.356c.26,0,.445.256.527.5.353,1.071-.317,2.185-.956,3.113,1.208-.176,2.585-.307,3.513.488.442.378.68,1.149.221,1.5a1.233,1.233,0,0,1-.922.133,14.9,14.9,0,0,1-5.416-1.807" transform="translate(-268.865 -163.106)" fill="#36687a"/>
              </g>
            </g>
            <g id="Grupo_85448" data-name="Grupo 85448" transform="translate(0 19.813)">
              <rect id="Rectángulo_34618" data-name="Rectángulo 34618" width="92.977" height="49.974" fill="#9d5131"/>
              <rect id="Rectángulo_34619" data-name="Rectángulo 34619" width="26.976" height="49.974" fill="#232f33" opacity="0.47" style="mix-blend-mode: multiply;isolation: isolate"/>
            </g>
          </g>
          <g id="Grupo_85452" data-name="Grupo 85452" transform="translate(27.463 32.582)">
            <g id="Grupo_85450" data-name="Grupo 85450">
              <rect id="Rectángulo_34620" data-name="Rectángulo 34620" width="64.852" height="0.996" fill="#bf6e52"/>
            </g>
            <g id="Grupo_85451" data-name="Grupo 85451" transform="translate(0 17.247)">
              <rect id="Rectángulo_34621" data-name="Rectángulo 34621" width="64.852" height="0.996" fill="#bf6e52"/>
            </g>
          </g>
        </g>
        <g id="Grupo_85454" data-name="Grupo 85454" transform="translate(0 9.578)">
          <path id="Trazado_121166" data-name="Trazado 121166" d="M208.295,210.529c.4-.184,10.252.616,10.676-.381.638-1.5-10.364-2.193-10.549-2.213-2.8-.31,10.5,1.075,11.186.151s-5.337-1.974-5.549-2.016c0,0-5.21-.595-5.247-.984s12-.2,11.285-1.2-8.382-2.3-10.323-2.374-4.021-1.044-5.481-1.252c-2.011-.287,7.365-3.188,5.507-5.428,0,0-8.513,1.358-11.412,2.745-1.525.729-22.939-11.25-22.939-11.25-2.24-1.24-2.276-1.751-1.1-4.028l14.836-32.974s5.808-15.37-1.815-15.838c-11.359-.7-30.217,13.956-38.093,53.481-1.788,8.969,2.26,15.416,14.008,18.765l10.189,1.78-.087.223a251.292,251.292,0,0,0,36.687,4.658c1.421.1,5.724-.053,5.941-.6C216.515,210.548,207.894,210.713,208.295,210.529Z" transform="translate(-148.878 -133.462)" fill="#ff9ea0"/>
          <path id="Trazado_121167" data-name="Trazado 121167" d="M206.091,215.622c2.827,1.35,4.99,2.232,5.436,2.018,2.9-1.387,11.413-2.745,11.413-2.745,1.858,2.24-7.518,5.141-5.507,5.428,1.46.208,3.54,1.178,5.481,1.252s9.6,1.367,10.323,2.374-9.157,1.128-9.12,1.518,3.081.668,3.081.668c.212.041,6.235,1.093,5.549,2.016s-13.985-.461-11.186-.151c.185.02,11.186.715,10.549,2.213-.424,1-10.275.2-10.676.381s8.22.019,7.726,1.266c-.216.545-4.52.7-5.941.6-1.785-.124-9.272-.381-21.016-2.02C203.445,225.484,204.719,220.54,206.091,215.622Z" transform="translate(-162.017 -153.527)" fill="#e35c3d"/>
        </g>
        <g id="Grupo_85456" data-name="Grupo 85456" transform="translate(1.596)">
          <path id="Trazado_121168" data-name="Trazado 121168" d="M189.324,121.173s11.14,14.484-7.671,49.928L151,163.658S171.039,115.8,189.324,121.173Z" transform="translate(-150.996 -120.752)" fill="#faf1e2"/>
          <g id="Grupo_85455" data-name="Grupo 85455" transform="translate(2.417 36.671)">
            <rect id="Rectángulo_34622" data-name="Rectángulo 34622" width="0.198" height="32.29" transform="translate(0 0.192) rotate(-76.039)" fill="#fff"/>
          </g>
        </g>
      </g>
    </g>
    <g id="Grupo_85477" data-name="Grupo 85477" transform="translate(224.755 231.862)">
      <path id="Trazado_121169" data-name="Trazado 121169" d="M280.991,437.492a9.608,9.608,0,0,1,12.826-5.225c9.712-8.642,20.631-16.7,33.37-19.227s27.628,1.884,33.935,13.263a10.4,10.4,0,0,1,12.92.1c1.18,1,2.16,2.3,3.564,2.947,3.366,1.561,6.993-1.179,10.256-2.947,10.338-5.6,25.016-.136,29.2,10.872" transform="translate(-270.022 -319.841)" fill="#873e1f"/>
      <g id="Grupo_85467" data-name="Grupo 85467" transform="translate(86.157)">
        <g id="Grupo_85461" data-name="Grupo 85461" transform="translate(14.309 9.703)">
          <g id="Grupo_85459" data-name="Grupo 85459" transform="translate(4.555)">
            <path id="Trazado_121170" data-name="Trazado 121170" d="M421.212,405.839c-5.26-8.773-8.112-18.975-9.178-29.109-.494-4.706-.631-9.461-.817-14.186-.553-14.081-.844-28.176-1.02-42.266-.066-5.247-.164-10.5-.051-15.749.059-2.748-4.211-2.748-4.27,0-.249,11.523.126,23.082.382,34.6.161,7.226.354,14.452.622,21.675.188,5.033.349,10.084.8,15.1,1.01,11.156,4.054,22.437,9.84,32.087,1.411,2.354,5.1.21,3.687-2.155Z" transform="translate(-405.795 -302.469)" fill="#4e8976"/>
          </g>
          <g id="Grupo_85460" data-name="Grupo 85460" transform="translate(0 64.738)">
            <path id="Trazado_121171" data-name="Trazado 121171" d="M401.878,430.614A112.281,112.281,0,0,0,408.7,398.4a67.133,67.133,0,0,0-.105-9.005c-.112-1.36-2.248-1.372-2.135,0,.89,10.8-1,21.807-3.916,32.179q-1.2,4.284-2.72,8.469c-.47,1.294,1.593,1.852,2.059.567Z" transform="translate(-399.75 -388.375)" fill="#4e8976"/>
          </g>
        </g>
        <g id="Grupo_85462" data-name="Grupo 85462" transform="translate(0.779)">
          <path id="Trazado_121172" data-name="Trazado 121172" d="M405.642,293.07c-2.3-3.179-6.823-4.08-10.615-3.1s-7,3.474-9.947,6.056l5.589.78a20.792,20.792,0,0,0-5.373,11.6,2.339,2.339,0,0,0,.168,1.49c.668,1.114,2.369.541,3.467-.151l8.946-5.645a2.45,2.45,0,0,0,1.494,3.427A3.772,3.772,0,0,0,403.2,306.1a8.9,8.9,0,0,0,1.6-3.983,29.109,29.109,0,0,0,.4-8.461" transform="translate(-382.605 -289.593)" fill="#4e8976"/>
          <path id="Trazado_121173" data-name="Trazado 121173" d="M412.037,309.961a74.941,74.941,0,0,1-.358-9.36,4.373,4.373,0,0,1,1.035-3.282c1.469-1.291,3.743-.178,5.282,1.027a54.964,54.964,0,0,1,9.67,9.761c.377.49.764,1.112.533,1.686-.339.841-1.583.7-2.378.271s-1.712-1.028-2.524-.627l1.919,8.874c.249,1.152.361,2.638-.659,3.224a2.628,2.628,0,0,1-2.414-.277,17.144,17.144,0,0,1-8.38-9.526" transform="translate(-389.154 -291.355)" fill="#4e8976"/>
          <path id="Trazado_121174" data-name="Trazado 121174" d="M398.7,328.467A14.787,14.787,0,0,0,381.8,342.808l2.106-1.494c.784,1.486.271,3.283.029,4.946s.055,3.75,1.61,4.376c1.254.506,2.638-.231,3.763-.983a27.669,27.669,0,0,0,8.385-8.1,14.2,14.2,0,0,0,1.928-11.256" transform="translate(-381.796 -299.135)" fill="#4e8976"/>
          <path id="Trazado_121175" data-name="Trazado 121175" d="M403.2,397.166c-.358-3.965-2.934-7.482-6.189-9.763A30.665,30.665,0,0,0,386,383.054a18.422,18.422,0,0,0,5.7,11.642,8.669,8.669,0,0,0,4.239,2.4,4.3,4.3,0,0,0,4.357-1.646" transform="translate(-382.832 -312.622)" fill="#4e8976"/>
          <path id="Trazado_121176" data-name="Trazado 121176" d="M408.37,363.511c2.96-7.972,11.66-11.951,19.536-15.117.96,1.9,1.948,3.965,1.606,6.066s-2.7,3.965-4.581,2.975c3.307.337,4.574,5.087,2.718,7.852s-5.439,3.765-8.752,4.026c-3.427.271-7.473-.379-9.129-3.4" transform="translate(-388.344 -304.082)" fill="#4e8976"/>
        </g>
        <g id="Grupo_85463" data-name="Grupo 85463" transform="translate(3.175 0.07)" opacity="0.49" style="mix-blend-mode: multiply;isolation: isolate">
          <path id="Trazado_121177" data-name="Trazado 121177" d="M405.838,293.093a8.894,8.894,0,0,0-6.4-3.407,4.149,4.149,0,0,1,.539,4.754c-3.274,6.375-7.853,12.339-14.1,15.73.766.745,2.253.228,3.251-.4l8.946-5.645a2.45,2.45,0,0,0,1.494,3.427,3.772,3.772,0,0,0,3.826-1.426,8.9,8.9,0,0,0,1.6-3.983,29.11,29.11,0,0,0,.4-8.461Z" transform="translate(-385.197 -289.686)" fill="#4e8976"/>
          <path id="Trazado_121178" data-name="Trazado 121178" d="M417.1,300.845a4.372,4.372,0,0,1,.974-2.43c-.028-.023-.054-.047-.082-.069-1.539-1.2-3.813-2.318-5.282-1.027a4.373,4.373,0,0,0-1.035,3.282,74.946,74.946,0,0,0,.358,9.36l1.726,1.771a17.144,17.144,0,0,0,8.38,9.526,2.628,2.628,0,0,0,2.414.277,1.676,1.676,0,0,0,.781-1.271C420.393,314.817,416.442,308.1,417.1,300.845Z" transform="translate(-391.549 -291.425)" fill="#4e8976"/>
          <path id="Trazado_121179" data-name="Trazado 121179" d="M400.4,330.3l-.916-1.828a14.964,14.964,0,0,0-9.262,1.7,4.388,4.388,0,0,1,.443,1.516,4.507,4.507,0,0,1,1.146,5.254c-1.9,4.3-3.816,8.671-6.839,12.231a2.468,2.468,0,0,0,1.35,1.465c1.254.506,2.638-.231,3.763-.983a27.66,27.66,0,0,0,8.385-8.1A14.2,14.2,0,0,0,400.4,330.3Z" transform="translate(-384.975 -299.205)" fill="#4e8976"/>
          <path id="Trazado_121180" data-name="Trazado 121180" d="M386.881,383.263c-.295-.07-.589-.142-.883-.209a18.418,18.418,0,0,0,5.7,11.642,8.664,8.664,0,0,0,4.239,2.4,4.3,4.3,0,0,0,4.357-1.646l2.906,1.714a10.812,10.812,0,0,0-.3-1.707A181.724,181.724,0,0,1,386.881,383.263Z" transform="translate(-385.227 -312.692)" fill="#4e8976"/>
          <path id="Trazado_121181" data-name="Trazado 121181" d="M413.867,364.187a4.31,4.31,0,0,1-2.072-3.063,16.99,16.99,0,0,0-3.425,5.524l1.4,2.4c1.656,3.02,5.7,3.669,9.129,3.4,3.314-.262,6.9-1.262,8.752-4.026a5.794,5.794,0,0,0,.435-5.213C423.727,365.609,419.1,366.8,413.867,364.187Z" transform="translate(-390.74 -307.288)" fill="#4e8976"/>
        </g>
        <g id="Grupo_85464" data-name="Grupo 85464" transform="translate(18.085 57.129)">
          <ellipse id="Elipse_5059" data-name="Elipse 5059" cx="8.793" cy="8.814" rx="8.793" ry="8.814" transform="translate(0 1.921)" fill="#de8b27"/>
          <path id="Trazado_121182" data-name="Trazado 121182" d="M408.182,380.858a13.553,13.553,0,0,1-3.242-3.489,8.79,8.79,0,1,0,17.322.527C419.47,383.2,413.158,384.6,408.182,380.858Z" transform="translate(-404.762 -368.35)" fill="#de8b27" style="mix-blend-mode: multiply;isolation: isolate"/>
          <path id="Trazado_121183" data-name="Trazado 121183" d="M409.835,369.543c-1.356.162-2.94.244-3.859-.768a4.721,4.721,0,0,1,4.219.053,5.859,5.859,0,0,1-.985-2.82.618.618,0,0,1,.127-.518.545.545,0,0,1,.624.026,3.211,3.211,0,0,1,1.139,2.548,3.758,3.758,0,0,1,2.539-1.677c.5-.006,1.086.356.99.845a1.06,1.06,0,0,1-.518.608,12.771,12.771,0,0,1-4.509,1.905" transform="translate(-405.06 -365.401)" fill="#36687a"/>
        </g>
        <g id="Grupo_85465" data-name="Grupo 85465" transform="translate(4.043 10.096)">
          <path id="Trazado_121184" data-name="Trazado 121184" d="M402.142,318.622a8.8,8.8,0,1,0-12.238,2.21A8.828,8.828,0,0,0,402.142,318.622Z" transform="translate(-386.127 -303.431)" fill="#e35c3d"/>
          <path id="Trazado_121185" data-name="Trazado 121185" d="M391.172,309.413a13.593,13.593,0,0,1,1.915-4.364,8.8,8.8,0,1,0,6.365,16.159C393.488,320.734,389.709,315.475,391.172,309.413Z" transform="translate(-386.127 -303.498)" fill="#e35c3d" style="mix-blend-mode: multiply;isolation: isolate"/>
          <path id="Trazado_121186" data-name="Trazado 121186" d="M403.37,306.847c-.684-1.184-1.386-2.61-.822-3.856a4.747,4.747,0,0,1,1.62,3.905,5.849,5.849,0,0,1,2.194-2.021.618.618,0,0,1,.526-.088.549.549,0,0,1,.222.586c-.12.959-1.048,1.574-1.884,2.057a3.757,3.757,0,0,1,2.54,1.674c.2.455.1,1.14-.383,1.246a1.058,1.058,0,0,1-.762-.237,12.81,12.81,0,0,1-3.528-3.4" transform="translate(-390.122 -302.991)" fill="#36687a"/>
        </g>
        <g id="Grupo_85466" data-name="Grupo 85466" transform="translate(6.615 30.987)">
          <path id="Trazado_121187" data-name="Trazado 121187" d="M405.056,346.487a8.8,8.8,0,1,0-12.39,1.058A8.83,8.83,0,0,0,405.056,346.487Z" transform="translate(-389.54 -331.027)" fill="#de8b27"/>
          <path id="Trazado_121188" data-name="Trazado 121188" d="M395,336.251a13.578,13.578,0,0,1,2.312-4.167,8.805,8.805,0,1,0,4.836,16.683C396.25,347.738,392.976,342.149,395,336.251Z" transform="translate(-389.54 -331.05)" fill="#e35c3d" style="mix-blend-mode: multiply;isolation: isolate"/>
          <path id="Trazado_121189" data-name="Trazado 121189" d="M407.619,334.628c-.571-1.243-1.137-2.728-.46-3.916a4.75,4.75,0,0,1,1.249,4.04,5.842,5.842,0,0,1,2.373-1.808.618.618,0,0,1,.531-.038.548.548,0,0,1,.167.6c-.209.944-1.19,1.469-2.067,1.871a3.764,3.764,0,0,1,2.374,1.905c.159.472,0,1.145-.5,1.2a1.059,1.059,0,0,1-.737-.307,12.814,12.814,0,0,1-3.2-3.714" transform="translate(-393.805 -330.712)" fill="#36687a"/>
        </g>
        <path id="Trazado_121190" data-name="Trazado 121190" d="M380.933,440.956a2.843,2.843,0,0,1,1.553-3.455,5.306,5.306,0,0,1,4.067.058,3.136,3.136,0,0,0,1.508.323c1.116-.17,1.528-1.522,1.864-2.6a11.9,11.9,0,0,1,22.016-1.8,10.62,10.62,0,0,1,11.815,7.539" transform="translate(-380.762 -323.425)" fill="#9d5131"/>
      </g>
      <g id="Grupo_85476" data-name="Grupo 85476" transform="translate(37.224)">
        <g id="Grupo_85470" data-name="Grupo 85470" transform="translate(14.31 9.703)">
          <g id="Grupo_85468" data-name="Grupo 85468" transform="translate(4.554)">
            <path id="Trazado_121191" data-name="Trazado 121191" d="M356.279,405.839c-5.259-8.773-8.112-18.975-9.177-29.109-.5-4.706-.632-9.461-.817-14.186-.553-14.081-.845-28.176-1.021-42.266-.066-5.247-.163-10.5-.05-15.749.06-2.748-4.21-2.748-4.27,0-.249,11.523.126,23.082.383,34.6.161,7.226.353,14.452.622,21.675.187,5.033.349,10.084.8,15.1,1.011,11.156,4.055,22.437,9.84,32.087,1.411,2.354,5.1.21,3.687-2.155Z" transform="translate(-340.862 -302.469)" fill="#4e8976"/>
          </g>
          <g id="Grupo_85469" data-name="Grupo 85469" transform="translate(0 64.738)">
            <path id="Trazado_121192" data-name="Trazado 121192" d="M336.945,430.614a112.255,112.255,0,0,0,6.818-32.21,67.133,67.133,0,0,0-.1-9.005c-.112-1.36-2.248-1.372-2.135,0,.889,10.8-1,21.807-3.916,32.179q-1.2,4.284-2.72,8.469c-.469,1.294,1.592,1.852,2.058.567Z" transform="translate(-334.818 -388.375)" fill="#4e8976"/>
          </g>
        </g>
        <g id="Grupo_85471" data-name="Grupo 85471" transform="translate(0.78)">
          <path id="Trazado_121193" data-name="Trazado 121193" d="M340.709,293.07c-2.3-3.179-6.822-4.08-10.615-3.1s-7,3.474-9.947,6.056l5.589.78a20.8,20.8,0,0,0-5.373,11.6,2.348,2.348,0,0,0,.168,1.49c.669,1.114,2.369.541,3.467-.151l8.947-5.645a2.449,2.449,0,0,0,1.494,3.427,3.774,3.774,0,0,0,3.827-1.426,8.885,8.885,0,0,0,1.6-3.983,29.083,29.083,0,0,0,.4-8.461" transform="translate(-317.673 -289.593)" fill="#4e8976"/>
          <path id="Trazado_121194" data-name="Trazado 121194" d="M347.1,309.961a75.228,75.228,0,0,1-.358-9.36,4.373,4.373,0,0,1,1.035-3.282c1.469-1.291,3.742-.178,5.281,1.027a54.936,54.936,0,0,1,9.67,9.761c.377.49.765,1.112.534,1.686-.34.841-1.584.7-2.379.271s-1.712-1.028-2.523-.627q.959,4.437,1.919,8.874c.249,1.152.362,2.638-.659,3.224a2.63,2.63,0,0,1-2.415-.277,17.144,17.144,0,0,1-8.38-9.526" transform="translate(-324.222 -291.355)" fill="#4e8976"/>
          <path id="Trazado_121195" data-name="Trazado 121195" d="M333.77,328.467a14.786,14.786,0,0,0-16.906,14.341l2.106-1.494c.783,1.486.271,3.283.029,4.946s.054,3.75,1.61,4.376c1.254.506,2.639-.231,3.763-.983a27.671,27.671,0,0,0,8.386-8.1,14.208,14.208,0,0,0,1.928-11.256" transform="translate(-316.864 -299.135)" fill="#4e8976"/>
          <path id="Trazado_121196" data-name="Trazado 121196" d="M338.269,397.166c-.358-3.965-2.935-7.482-6.189-9.763a30.669,30.669,0,0,0-11.014-4.349,18.426,18.426,0,0,0,5.7,11.642,8.669,8.669,0,0,0,4.239,2.4,4.3,4.3,0,0,0,4.357-1.646" transform="translate(-317.899 -312.622)" fill="#4e8976"/>
          <path id="Trazado_121197" data-name="Trazado 121197" d="M343.437,363.511c2.961-7.972,11.661-11.951,19.537-15.117.96,1.9,1.948,3.965,1.606,6.066s-2.7,3.965-4.582,2.975c3.308.337,4.575,5.087,2.719,7.852s-5.439,3.765-8.753,4.026c-3.427.271-7.473-.379-9.129-3.4" transform="translate(-323.412 -304.082)" fill="#4e8976"/>
        </g>
        <g id="Grupo_85472" data-name="Grupo 85472" transform="translate(3.174 0.07)" opacity="0.49" style="mix-blend-mode: multiply;isolation: isolate">
          <path id="Trazado_121198" data-name="Trazado 121198" d="M340.905,293.093a8.893,8.893,0,0,0-6.4-3.407,4.149,4.149,0,0,1,.539,4.754c-3.274,6.375-7.853,12.339-14.1,15.73.766.745,2.253.228,3.25-.4l8.947-5.645a2.449,2.449,0,0,0,1.494,3.427,3.772,3.772,0,0,0,3.826-1.426,8.88,8.88,0,0,0,1.6-3.983,29.081,29.081,0,0,0,.4-8.461Z" transform="translate(-320.264 -289.686)" fill="#4e8976"/>
          <path id="Trazado_121199" data-name="Trazado 121199" d="M352.171,300.845a4.366,4.366,0,0,1,.974-2.43c-.029-.023-.054-.047-.083-.069-1.539-1.2-3.812-2.318-5.281-1.027a4.373,4.373,0,0,0-1.035,3.282,75.233,75.233,0,0,0,.358,9.36l1.726,1.771a17.144,17.144,0,0,0,8.38,9.526,2.63,2.63,0,0,0,2.415.277,1.678,1.678,0,0,0,.781-1.271C355.46,314.817,351.51,308.1,352.171,300.845Z" transform="translate(-326.617 -291.425)" fill="#4e8976"/>
          <path id="Trazado_121200" data-name="Trazado 121200" d="M335.47,330.3l-.916-1.828a14.961,14.961,0,0,0-9.261,1.7,4.371,4.371,0,0,1,.442,1.516,4.506,4.506,0,0,1,1.147,5.254c-1.9,4.3-3.817,8.671-6.84,12.231a2.472,2.472,0,0,0,1.35,1.465c1.254.506,2.639-.231,3.763-.983a27.671,27.671,0,0,0,8.386-8.1A14.208,14.208,0,0,0,335.47,330.3Z" transform="translate(-320.042 -299.205)" fill="#4e8976"/>
          <path id="Trazado_121201" data-name="Trazado 121201" d="M321.948,383.263c-.294-.07-.588-.142-.882-.209a18.418,18.418,0,0,0,5.7,11.642,8.664,8.664,0,0,0,4.239,2.4,4.3,4.3,0,0,0,4.357-1.646l2.906,1.714a10.907,10.907,0,0,0-.3-1.707A181.839,181.839,0,0,1,321.948,383.263Z" transform="translate(-320.294 -312.692)" fill="#4e8976"/>
          <path id="Trazado_121202" data-name="Trazado 121202" d="M348.935,364.187a4.306,4.306,0,0,1-2.072-3.063,16.979,16.979,0,0,0-3.426,5.524l1.4,2.4c1.656,3.02,5.7,3.669,9.129,3.4,3.314-.262,6.9-1.262,8.753-4.026a5.8,5.8,0,0,0,.435-5.213C358.794,365.609,354.172,366.8,348.935,364.187Z" transform="translate(-325.807 -307.288)" fill="#4e8976"/>
        </g>
        <g id="Grupo_85473" data-name="Grupo 85473" transform="translate(18.084 57.129)">
          <path id="Trazado_121203" data-name="Trazado 121203" d="M356.083,372.1a8.8,8.8,0,1,0-2.812,12.142A8.781,8.781,0,0,0,356.083,372.1Z" transform="translate(-339.826 -366.029)" fill="#de8b27"/>
          <path id="Trazado_121204" data-name="Trazado 121204" d="M343.249,380.858a13.554,13.554,0,0,1-3.242-3.489,8.79,8.79,0,1,0,17.322.527C354.538,383.2,348.225,384.6,343.249,380.858Z" transform="translate(-339.829 -368.35)" fill="#de8b27" style="mix-blend-mode: multiply;isolation: isolate"/>
          <path id="Trazado_121205" data-name="Trazado 121205" d="M344.9,369.543c-1.356.162-2.94.244-3.858-.768a4.719,4.719,0,0,1,4.219.053,5.861,5.861,0,0,1-.985-2.82.619.619,0,0,1,.128-.518.545.545,0,0,1,.624.026,3.213,3.213,0,0,1,1.139,2.548,3.757,3.757,0,0,1,2.538-1.677c.5-.006,1.086.356.991.845a1.063,1.063,0,0,1-.518.608,12.78,12.78,0,0,1-4.51,1.905" transform="translate(-340.126 -365.401)" fill="#36687a"/>
        </g>
        <g id="Grupo_85474" data-name="Grupo 85474" transform="translate(4.043 10.096)">
          <path id="Trazado_121206" data-name="Trazado 121206" d="M337.209,318.622a8.8,8.8,0,1,0-12.238,2.21A8.828,8.828,0,0,0,337.209,318.622Z" transform="translate(-321.194 -303.431)" fill="#de8b27"/>
          <path id="Trazado_121207" data-name="Trazado 121207" d="M326.239,309.413a13.577,13.577,0,0,1,1.916-4.364,8.8,8.8,0,1,0,6.364,16.159C328.555,320.734,324.776,315.475,326.239,309.413Z" transform="translate(-321.194 -303.498)" fill="#e35c3d" style="mix-blend-mode: multiply;isolation: isolate"/>
          <path id="Trazado_121208" data-name="Trazado 121208" d="M338.437,306.847c-.684-1.184-1.386-2.61-.821-3.856a4.749,4.749,0,0,1,1.619,3.905,5.837,5.837,0,0,1,2.194-2.021.617.617,0,0,1,.526-.088.55.55,0,0,1,.222.586c-.121.959-1.048,1.574-1.885,2.057a3.755,3.755,0,0,1,2.54,1.674c.2.455.1,1.14-.382,1.246a1.058,1.058,0,0,1-.763-.237,12.819,12.819,0,0,1-3.528-3.4" transform="translate(-325.19 -302.991)" fill="#36687a"/>
        </g>
        <g id="Grupo_85475" data-name="Grupo 85475" transform="translate(6.615 30.987)">
          <ellipse id="Elipse_5060" data-name="Elipse 5060" cx="8.793" cy="8.814" rx="8.793" ry="8.814" transform="translate(0 0.965)" fill="#e35c3d"/>
          <path id="Trazado_121209" data-name="Trazado 121209" d="M330.063,336.251a13.581,13.581,0,0,1,2.313-4.167,8.805,8.805,0,1,0,4.835,16.683C331.317,347.738,328.043,342.149,330.063,336.251Z" transform="translate(-324.607 -331.05)" fill="#e35c3d" style="mix-blend-mode: multiply;isolation: isolate"/>
          <path id="Trazado_121210" data-name="Trazado 121210" d="M342.687,334.628c-.571-1.243-1.138-2.728-.46-3.916a4.753,4.753,0,0,1,1.249,4.04,5.834,5.834,0,0,1,2.372-1.808.619.619,0,0,1,.532-.038.549.549,0,0,1,.167.6c-.208.944-1.189,1.469-2.067,1.871a3.761,3.761,0,0,1,2.374,1.905c.159.472,0,1.145-.5,1.2a1.057,1.057,0,0,1-.736-.307,12.817,12.817,0,0,1-3.2-3.714" transform="translate(-328.873 -330.712)" fill="#36687a"/>
        </g>
        <path id="Trazado_121211" data-name="Trazado 121211" d="M316,440.956a2.844,2.844,0,0,1,1.554-3.455,5.306,5.306,0,0,1,4.067.058,3.134,3.134,0,0,0,1.508.323c1.116-.17,1.527-1.522,1.863-2.6a11.9,11.9,0,0,1,22.016-1.8,10.62,10.62,0,0,1,11.815,7.539" transform="translate(-315.83 -323.425)" fill="#9d5131"/>
      </g>
      <path id="Trazado_121212" data-name="Trazado 121212" d="M266.566,441.192c-1.2-7.455,6.051-14.495,13.584-14.615s14.363,5.277,17.789,12a7.728,7.728,0,0,1,14.785,2.651" transform="translate(-266.435 -323.346)" fill="#b8d6cc"/>
    </g>
    <g id="Grupo_85496" data-name="Grupo 85496" transform="translate(330.436 165.162)">
      <g id="Grupo_85478" data-name="Grupo 85478" transform="translate(124.23 177.873)">
        <path id="Trazado_121213" data-name="Trazado 121213" d="M649.213,444.635c0,.982-13.607,1.778-30.392,1.778s-30.392-.8-30.392-1.778,13.607-1.779,30.392-1.779S649.213,443.653,649.213,444.635Z" transform="translate(-575.685 -440.467)" fill="#cee284"/>
        <path id="Trazado_121214" data-name="Trazado 121214" d="M632.3,441.464c0,.982-13.607,1.778-30.392,1.778s-30.391-.8-30.391-1.778,13.606-1.778,30.391-1.778S632.3,440.482,632.3,441.464Z" transform="translate(-571.518 -439.686)" fill="#cee284"/>
      </g>
      <g id="Grupo_85495" data-name="Grupo 85495">
        <g id="Grupo_85491" data-name="Grupo 85491">
          <g id="Grupo_85487" data-name="Grupo 85487" transform="translate(86.386)">
            <path id="Trazado_121215" data-name="Trazado 121215" d="M536.758,275.9c10.978,2.261,46.719.323,46.719.323s-4.71-36.264-28.47-54.5c-4.834-7.854-5.739-14.162-10.533-16.168a13.727,13.727,0,0,0-9.675-.355,23.67,23.67,0,0,0-11.115,7.457c-1.375,1.731-3.115,8.067-2.054,10Z" transform="translate(-521.301 -203.858)" fill="#232f33"/>
            <g id="Grupo_85479" data-name="Grupo 85479" transform="translate(31.875 17.723)">
              <path id="Trazado_121216" data-name="Trazado 121216" d="M563.838,227.856c7.83,2.476,13.628,9.186,17.952,15.859A100.811,100.811,0,0,1,592.985,268.3a102.1,102.1,0,0,1,3.149,12.527c.079.436.745.252.666-.184a110.215,110.215,0,0,0-7.406-23.977c-3.534-8.187-8.046-16.37-14.5-22.635a27.944,27.944,0,0,0-10.873-6.844c-.425-.134-.607.532-.184.665Z" transform="translate(-563.598 -227.172)"/>
            </g>
            <path id="Trazado_121217" data-name="Trazado 121217" d="M544,223.459a.511.511,0,0,0,.672.3c1.129-.456,3.642-1.737,5.186,1.081,1.561,2.849-.619,5.671-2.3,6.447-.484.225-1.809.747-1.776,1.28,1.035,17.038,7.379,16.563,7.379,16.563s2.158,16.924-16.277,15.345c-2.558-.219-.218-4.737-.558-5.593,0,0-5.253-19.975-5.368-20.025-1.928-.833-7.521.708-8.693-12.082-1.086-11.85,6.976-14.188,9.088-14.624C533.138,211.786,539.063,209.845,544,223.459Z" transform="translate(-521.515 -205.673)" fill="#ff9ea0"/>
            <path id="Trazado_121218" data-name="Trazado 121218" d="M526.565,212.859s5.693,6.852,18.91,10.491C545.475,223.35,545.911,202.859,526.565,212.859Z" transform="translate(-522.598 -205.245)" fill="#232f33"/>
            <g id="Grupo_85480" data-name="Grupo 85480" transform="translate(0.94 15.703)">
              <path id="Trazado_121219" data-name="Trazado 121219" d="M556.5,230.656s-3.267-3.05-3.525,2.884" transform="translate(-530.046 -225.818)" fill="#d46e6c"/>
              <path id="Trazado_121220" data-name="Trazado 121220" d="M537.5,232.409a2.863,2.863,0,1,0,3.674,1.687A2.866,2.866,0,0,0,537.5,232.409Z" transform="translate(-525.773 -226.399)" fill="#ff8587"/>
              <path id="Trazado_121221" data-name="Trazado 121221" d="M523.6,237.918a2.867,2.867,0,0,0-1.057-5.257A14,14,0,0,0,523.6,237.918Z" transform="translate(-522.548 -226.505)" fill="#ff8587"/>
              <path id="Trazado_121222" data-name="Trazado 121222" d="M525.938,237.024l4.825-.628s-.9,2.481-2.334,2.418S525.938,237.024,525.938,237.024Z" transform="translate(-523.383 -227.425)" fill="#fff"/>
              <path id="Trazado_121223" data-name="Trazado 121223" d="M527.707,231.086l.509,3.152-1.653-.063a.4.4,0,0,1-.33-.609Z" transform="translate(-523.442 -226.117)" fill="#d46e6c"/>
              <path id="Trazado_121224" data-name="Trazado 121224" d="M534.47,225.979c.546.352-.338-1.283-1.072-1.448a1.278,1.278,0,0,0-1.585.852A3.988,3.988,0,0,1,534.47,225.979Z" transform="translate(-524.831 -224.492)"/>
              <path id="Trazado_121225" data-name="Trazado 121225" d="M523.12,227.2c-.516.395.233-1.307.951-1.531a1.279,1.279,0,0,1,1.649.72A3.991,3.991,0,0,0,523.12,227.2Z" transform="translate(-522.647 -224.766)"/>
              <path id="Trazado_121226" data-name="Trazado 121226" d="M532.02,230.5c0,.563-.225,1.018-.5,1.017s-.491-.459-.488-1.022.226-1.018.5-1.017S532.023,229.937,532.02,230.5Z" transform="translate(-524.639 -225.721)"/>
              <path id="Trazado_121227" data-name="Trazado 121227" d="M526.43,230.767c0,.537-.216.972-.476.971s-.469-.438-.466-.975.216-.972.476-.971S526.432,230.23,526.43,230.767Z" transform="translate(-523.272 -225.798)"/>
              <path id="Trazado_121228" data-name="Trazado 121228" d="M533.837,246.965s2.6.619,7.91-2.225c-4.082,11.341-5.907,8.6-5.907,8.6S534.869,250.2,533.837,246.965Z" transform="translate(-525.33 -229.481)" fill="#d46e6c"/>
            </g>
            <g id="Grupo_85486" data-name="Grupo 85486" transform="translate(0.111)">
              <g id="Grupo_85481" data-name="Grupo 85481" transform="translate(31.803 1.095)">
                <path id="Trazado_121229" data-name="Trazado 121229" d="M563.65,220.736a26.079,26.079,0,0,1,7.2-15.428.5.5,0,0,1,.357-.2.486.486,0,0,1,.313.21,9.014,9.014,0,0,1,1.957,6.848,11.723,11.723,0,0,1-3.123,6.494,6.162,6.162,0,0,1-2.051,1.564,7.943,7.943,0,0,1-3.922.251" transform="translate(-563.65 -205.107)" fill="#e35c3d"/>
              </g>
              <g id="Grupo_85483" data-name="Grupo 85483" transform="translate(33.28 15.458)">
                <path id="Trazado_121230" data-name="Trazado 121230" d="M566.573,224.854c3.314-1.411,7.112-.39,10.532.737a4.276,4.276,0,0,1,1.491.719,1.486,1.486,0,0,1,.544,1.48,1.874,1.874,0,0,1-.881.975,7.962,7.962,0,0,1-6.86.455,16.1,16.1,0,0,1-5.79-4.047" transform="translate(-565.609 -224.167)" fill="#e35c3d"/>
                <g id="Grupo_85482" data-name="Grupo 85482" transform="translate(0 0)" style="mix-blend-mode: multiply;isolation: isolate">
                  <path id="Trazado_121231" data-name="Trazado 121231" d="M571.489,225.162a36.7,36.7,0,0,1,4.565.093c-3.135-.971-6.5-1.669-9.482-.4l-.964.32a23.261,23.261,0,0,0,2.165,1.956A4.605,4.605,0,0,1,571.489,225.162Z" transform="translate(-565.609 -224.167)" fill="#e35c3d"/>
                </g>
              </g>
              <g id="Grupo_85485" data-name="Grupo 85485">
                <path id="Trazado_121232" data-name="Trazado 121232" d="M521.448,217.1c13.019,1.448,21.432,3.39,34.451,4.839-1.284-5.794-3.179-11.526-7.92-15.02a14.991,14.991,0,0,0-15.338-2.023c-5.042,2.023-10.135,3.525-10.991,11.678" transform="translate(-521.448 -203.655)" fill="#e35c3d"/>
                <path id="Trazado_121233" data-name="Trazado 121233" d="M560.163,214.533a20.86,20.86,0,0,1-6.907,8.715c3.254.485,6.667.951,10.48,1.375" transform="translate(-529.285 -206.335)" fill="#e35c3d"/>
                <g id="Grupo_85484" data-name="Grupo 85484" transform="translate(18.167 3.638)" opacity="0.55" style="mix-blend-mode: multiply;isolation: isolate">
                  <path id="Trazado_121234" data-name="Trazado 121234" d="M545.555,220.861c5.048.8,10.155,1.589,16.284,2.271-1.24-5.6-3.06-11.13-7.455-14.65C554.184,213.934,551.424,218.723,545.555,220.861Z" transform="translate(-545.555 -208.482)" fill="#e35c3d"/>
                </g>
              </g>
            </g>
          </g>
          <g id="Grupo_85488" data-name="Grupo 85488" transform="translate(0 64.992)">
            <path id="Trazado_121235" data-name="Trazado 121235" d="M488.891,289.9S466.1,306.46,459.875,306.875s-32.026-2.759-35.178-5.536c-1.684-1.484-6.614-4.99-7.513-4.323-1,.742,1.685,4.362,2.571,5.352s-10.2-2.543-10.764-1.558c-.728,1.268,4.391,3.159,6.8,4.253s-7.387-2.154-8.315-.306c-.328.652,7.766,3.776,7.658,3.954-.206.345-8.147-2.229-8.452-.858-.276,1.241,6.482,3.7,7.415,4.213s-3.809-.967-4.213-.1c-.448.96,21.619,7.027,29.564,9.532s19.165,4.039,25.413,2.7c9.03-1.934,33.541-15.507,33.541-15.507Z" transform="translate(-406.669 -289.897)" fill="#f58284"/>
            <path id="Trazado_121236" data-name="Trazado 121236" d="M441.618,305.027c-6.887-1.055-15.478-.116-16.921-1.387-1.684-1.484-6.614-4.99-7.513-4.323-1,.742,1.685,4.362,2.571,5.352s-10.2-2.543-10.764-1.558c-.728,1.268,4.391,3.159,6.8,4.253s-7.387-2.154-8.315-.306c-.328.652,7.766,3.775,7.659,3.954-.207.345-8.148-2.229-8.453-.858-.276,1.241,6.482,3.7,7.415,4.213s-3.809-.967-4.213-.1c-.414.887,18.384,6.132,27.515,8.9C438.114,317.894,441.137,310.322,441.618,305.027Z" transform="translate(-406.669 -292.197)" fill="#edb224"/>
          </g>
          <g id="Grupo_85489" data-name="Grupo 85489" transform="translate(61.79 44.467)">
            <path id="Trazado_121237" data-name="Trazado 121237" d="M524.274,262.661s-8.556,6.944-35.611,31.093l11.209,21.264,19.693-14.591Z" transform="translate(-488.663 -262.661)" fill="#faf1e2"/>
          </g>
          <path id="Trazado_121238" data-name="Trazado 121238" d="M564.406,265.869s-10.082-5.415-12.783-5.614c0,0-3.956,15.584-14.594,11.2-1.362-.562-.353,1-.329-.479.065-3.9-2.569-9.495-2.569-9.495-3.68,1.393-3.51,2.584-4.287,4.421a2.357,2.357,0,0,0-.286-.114c.31.755-4.686,19.107-5.76,26.447-1.122,7.661,5.7,24.318,5.7,24.318.259.371,25.518,4.164,42.728,6.544C574.9,314.467,567.7,275.117,564.406,265.869Z" transform="translate(-435.499 -217.601)" fill="#faf1e2"/>
          <path id="Trazado_121239" data-name="Trazado 121239" d="M525.846,289.439c-.891,3.846-1.689,7.53-2.048,9.984-1.122,7.661,5.7,24.318,5.7,24.318.259.371,14.874,2.791,32.084,5.171-.643-6.437.188-21.821-2.141-35.406C544.919,290.393,540.579,291.343,525.846,289.439Z" transform="translate(-435.499 -224.792)" fill="#36687a"/>
          <g id="Grupo_85490" data-name="Grupo 85490" transform="translate(90.347 42.654)">
            <path id="Trazado_121240" data-name="Trazado 121240" d="M526.556,282.549s4.106-18.57,6.758-20.341l1.552-.73s-5.561,19.533-5.883,23.878Z" transform="translate(-526.556 -260.556)" fill="#36687a"/>
            <path id="Trazado_121241" data-name="Trazado 121241" d="M545.434,284.008s8.814-22.481,11.551-23.753c0,0,3.861.821,4.583,1.464,0,0-12.281,20.921-12.121,22.772Z" transform="translate(-531.208 -260.255)" fill="#36687a"/>
          </g>
          <path id="Trazado_121242" data-name="Trazado 121242" d="M536.871,260.753l-.18.764-1.168.512A3.778,3.778,0,0,0,536.871,260.753Z" transform="translate(-438.419 -217.724)"/>
          <path id="Trazado_121243" data-name="Trazado 121243" d="M516.25,336.14c-28.484,30.041-42.32,38.593-51.332,51.457-5.782,8.253-4.509,27.959,5.413,27.8l86.829-1.472-2.983-10.207s-46.039-11.275-54.664-10.733c0,0,56.615-10.276,56.745-47.306l-1.3-5.134Z" transform="translate(-420.171 -236.299)" fill="#36687a"/>
          <path id="Trazado_121244" data-name="Trazado 121244" d="M579.031,420.673l5.578-5.729a1.26,1.26,0,0,1,1.876-.368c4.013,3.162,17.542,13.645,21.919,17.037a.634.634,0,0,1-.362,1.136c-5.336.194-17.529.38-17.529.38l-37.409.419,8.911-15.37S578.631,421.37,579.031,420.673Z" transform="translate(-442.751 -255.559)" fill="#edb224"/>
          <path id="Trazado_121245" data-name="Trazado 121245" d="M579.031,420.673l5.578-5.729a1.26,1.26,0,0,1,1.876-.368c4.013,3.162,17.542,13.645,21.919,17.037a.634.634,0,0,1-.362,1.136c-5.336.194-17.529.38-17.529.38l-37.409.419,8.911-15.37S578.631,421.37,579.031,420.673Z" transform="translate(-442.751 -255.559)" fill="#edb224" opacity="0.49" style="mix-blend-mode: multiply;isolation: isolate"/>
          <path id="Trazado_121246" data-name="Trazado 121246" d="M522.852,342.684c-1.187,3.867-4.162,10.032-7.418,12.79-11.513,9.755-28.078,19.557-37.09,32.421-5.782,8.254-4.145,31.7,5.778,31.54l86.829-1.473-4.017-9.6s-45-11.88-53.63-11.338c0,0,44.134-10.765,44.264-47.8l1.187-8.923-36.5-4.164Z" transform="translate(-423.509 -236.299)" fill="#36687a"/>
          <path id="Trazado_121247" data-name="Trazado 121247" d="M589.257,426.368l5.577-5.729a1.261,1.261,0,0,1,1.876-.368c4.013,3.162,17.541,13.646,21.919,17.038a.634.634,0,0,1-.363,1.136c-5.335.194-17.529.38-17.529.38l-37.409.418,8.91-15.369S588.857,427.065,589.257,426.368Z" transform="translate(-445.27 -256.962)" fill="#edb224"/>
          <path id="Trazado_121248" data-name="Trazado 121248" d="M561.78,340.481l9.559.941c4.1,43.676-45.513,56.8-45.513,56.8l35.955-57.743" transform="translate(-436.029 -237.369)" fill="#36687a" opacity="0.46" style="mix-blend-mode: multiply;isolation: isolate"/>
          <path id="Trazado_121249" data-name="Trazado 121249" d="M570.31,436.245l-86.829,1.473c-9.923.157-14.9-20.481-7.558-27.376C471.81,423.659,516.722,435.079,570.31,436.245Z" transform="translate(-422.869 -254.583)" fill="#36687a" opacity="0.46" style="mix-blend-mode: multiply;isolation: isolate"/>
        </g>
        <g id="Grupo_85492" data-name="Grupo 85492" transform="translate(5.228 66.314)">
          <ellipse id="Elipse_5061" data-name="Elipse 5061" cx="10.257" cy="10.282" rx="10.257" ry="10.282" transform="translate(0 2.241)" fill="#e35c3d"/>
          <path id="Trazado_121250" data-name="Trazado 121250" d="M417.6,309.683a15.823,15.823,0,0,1-3.782-4.07,10.254,10.254,0,1,0,20.208.615C430.766,312.416,423.4,314.05,417.6,309.683Z" transform="translate(-413.609 -295.092)" fill="#e35c3d" style="mix-blend-mode: multiply;isolation: isolate"/>
          <path id="Trazado_121251" data-name="Trazado 121251" d="M419.527,296.483c-1.582.189-3.43.286-4.5-.9a5.51,5.51,0,0,1,4.922.062,6.84,6.84,0,0,1-1.149-3.289.723.723,0,0,1,.149-.605.636.636,0,0,1,.728.031c.97.571,1.2,1.852,1.329,2.972.792-.931,1.74-1.941,2.961-1.956.58-.008,1.267.414,1.156.985a1.239,1.239,0,0,1-.605.71,14.908,14.908,0,0,1-5.26,2.222" transform="translate(-413.956 -291.652)" fill="#36687a"/>
        </g>
        <g id="Grupo_85493" data-name="Grupo 85493" transform="translate(114.805 83.002)">
          <path id="Trazado_121252" data-name="Trazado 121252" d="M560.323,316.158s-1.809-2.127-1.178-2.344,1.726,1.631,1.726,1.631Z" transform="translate(-559.012 -313.795)"/>
        </g>
        <path id="Trazado_121253" data-name="Trazado 121253" d="M522.549,298.941s-11.38,25.53-16.681,28.826-33.014,18.832-37.1,17.865c-2.182-.517-8.176-1.292-8.658-.28-.537,1.126,3.531,3.058,4.777,3.516s-10.2,2.555-10.233,3.69c-.048,1.463,5.357.722,7.993.555s-7.53,1.576-7.484,3.644c.016.73,8.624-.323,8.614-.115-.021.4-8.238,1.868-7.865,3.222.338,1.225,7.457.217,8.52.229s-3.815.94-3.767,1.892c.053,1.058,22.378-3.974,30.566-5.5s18.813-5.456,23.7-9.579c7.066-5.958,22.346-29.481,22.346-29.481Z" transform="translate(-418.493 -227.133)" fill="#ff9ea0"/>
        <g id="Grupo_85494" data-name="Grupo 85494" transform="translate(1.706 112.843)">
          <path id="Trazado_121254" data-name="Trazado 121254" d="M464.357,373.1h0a5.355,5.355,0,0,1-7.239,3.316l-17.457-7.571,1.93-6.14,18.642,3.5A5.373,5.373,0,0,1,464.357,373.1Z" transform="translate(-416.505 -355.688)" fill="#9d5131"/>
          <path id="Trazado_121255" data-name="Trazado 121255" d="M439.134,365.563h0a8.127,8.127,0,0,1-12.228,4.362l-16.6-10.949a3.044,3.044,0,0,1-1.227-3.455h0a3.033,3.033,0,0,1,3.135-2.118l19.812,1.582A8.152,8.152,0,0,1,439.134,365.563Z" transform="translate(-408.934 -353.393)" fill="#faf1e2"/>
        </g>
        <path id="Trazado_121256" data-name="Trazado 121256" d="M484.642,350.93c-6.054,2.941-14.278,7.889-15.872,7.512-2.182-.517-8.176-1.292-8.658-.28-.537,1.126,3.531,3.058,4.777,3.515s-10.2,2.556-10.233,3.691c-.048,1.463,5.357.722,7.993.555s-7.53,1.576-7.484,3.644c.016.73,8.624-.323,8.614-.115-.021.4-8.238,1.868-7.865,3.222.338,1.225,7.457.217,8.52.229s-3.815.94-3.767,1.891c.05.989,21.593-.16,30.826-1.979C489.416,367.273,487.876,355.936,484.642,350.93Z" transform="translate(-418.493 -239.943)" fill="#edb224"/>
        <path id="Trazado_121257" data-name="Trazado 121257" d="M541.226,334.586s43.627-53.109,22.665-68.762c-13.916-10.392-38.391,51.511-38.391,51.511Z" transform="translate(-435.949 -218.683)" fill="#faf1e2"/>
      </g>
    </g>
  </g>
</svg>
