<svg xmlns="http://www.w3.org/2000/svg" width="820" height="197.403" viewBox="0 0 820 197.403">
  <g id="Grupo_983690" data-name="Grupo 983690" transform="translate(-390 -2959.375)">
    <g id="Grupo_983561" data-name="Grupo 983561" transform="translate(337.346 2801.302)">
      <path id="Trazado_674523" data-name="Trazado 674523" d="M872.462,291.859a58.783,58.783,0,0,0-97.174-39.58,25.972,25.972,0,0,1-27.641,3.957h0a26.464,26.464,0,0,1-15.485-23.751q-.036-1.636-.164-3.29a58.819,58.819,0,0,0-117.456,4.621v.151a23.632,23.632,0,0,1-13.982,21.6l-3.124,1.4a23.026,23.026,0,0,1-24.91-3.715,59.011,59.011,0,0,0-14.856-9.913l-.171-.081c-.606-.28-1.219-.547-1.835-.806-.233-.1-.464-.2-.7-.3-.482-.2-.969-.379-1.456-.563-.379-.143-.758-.287-1.14-.422s-.76-.259-1.141-.384c-.5-.165-1-.327-1.509-.479-.294-.089-.591-.171-.888-.255q-.9-.255-1.8-.481c-.236-.06-.473-.114-.71-.17q-.989-.234-1.991-.432c-.21-.043-.423-.082-.635-.122q-1.023-.192-2.057-.346c-.224-.034-.451-.066-.677-.1q-.987-.135-1.982-.237-.43-.046-.861-.084c-.271-.024-.54-.058-.812-.079s-.559-.023-.838-.039c-.5-.03-.992-.055-1.49-.071-.465-.017-.931-.029-1.394-.034-.236,0-.469-.016-.705-.016-.316,0-.628.016-.942.022-.406.006-.81.014-1.214.028-.6.022-1.193.057-1.787.1-.352.024-.706.044-1.056.075-.668.056-1.331.129-1.993.208-.273.033-.548.06-.819.1-.814.109-1.62.237-2.423.379-.117.02-.236.036-.351.057a58.309,58.309,0,0,0-8.368,2.182l-.03.01q-1.32.453-2.612.966l-.2.085q-1.206.481-2.385,1.017l-.265.123q-1.158.531-2.287,1.109l-.24.126q-1.151.6-2.271,1.241l-.167.1q-1.177.683-2.319,1.418l-.036.023a59.1,59.1,0,0,0-6.961,5.237c-.3.261-.61.5-.918.747a26,26,0,0,1-26.518,3.052h0a26.464,26.464,0,0,1-15.485-23.751q-.036-1.636-.162-3.29a58.536,58.536,0,0,0-16.93-36.72l-.028-.028q-.824-.829-1.68-1.624c-.072-.067-.143-.137-.216-.2-.514-.473-1.037-.935-1.567-1.39-.137-.117-.27-.237-.407-.353-.476-.4-.961-.791-1.448-1.177-.2-.16-.4-.321-.6-.477-.437-.337-.883-.664-1.33-.989-.261-.191-.522-.385-.787-.572-.4-.283-.812-.555-1.221-.828-.32-.213-.638-.429-.961-.635-.372-.237-.751-.465-1.127-.695s-.739-.451-1.113-.668c-.349-.2-.7-.393-1.054-.587-.412-.227-.824-.455-1.241-.672-.332-.172-.668-.337-1-.5-.446-.222-.893-.443-1.347-.653-.32-.15-.643-.29-.966-.434-.474-.209-.95-.418-1.43-.616-.317-.131-.638-.254-.957-.379-.492-.191-.983-.382-1.48-.56-.326-.118-.656-.227-.984-.339-.5-.169-.994-.336-1.5-.492-.34-.105-.683-.2-1.026-.3-.5-.143-.992-.285-1.492-.416-.364-.1-.732-.181-1.1-.27-.484-.115-.967-.231-1.454-.335-.394-.084-.791-.159-1.188-.233-.465-.09-.932-.178-1.4-.256-.429-.071-.861-.132-1.292-.193s-.883-.126-1.326-.179c-.468-.056-.938-.1-1.409-.145-.279-.025-.554-.063-.833-.085-.12-.01-.238-.01-.359-.019-.186-.013-.37-.037-.558-.048-.478-.03-.951-.034-1.428-.053-.458-.019-.918-.043-1.373-.051-.618-.011-1.229,0-1.841.008-.477.006-.955.005-1.43.023-.568.022-1.131.065-1.7.1-.511.034-1.023.058-1.53.1-.486.046-.964.113-1.446.169-.577.068-1.155.127-1.727.211-.233.034-.462.082-.694.12a58.086,58.086,0,0,0-7.928,1.837c-.1.029-.2.053-.292.084-.79.247-1.567.521-2.343.8-.179.065-.361.122-.539.188-.747.278-1.481.578-2.213.885-.2.082-.4.16-.6.245-.724.312-1.435.645-2.144.987-.194.093-.391.181-.583.276-.705.349-1.4.715-2.087,1.09-.188.1-.377.2-.563.306-.689.385-1.366.787-2.036,1.2-.175.108-.351.213-.524.321q-1.014.637-2,1.315c-.156.108-.313.214-.469.323q-1,.7-1.963,1.437c-.136.1-.271.207-.407.312q-.983.765-1.934,1.569l-.331.283q-.974.837-1.911,1.713c-.081.076-.162.153-.242.231q-.968.917-1.9,1.877c-.047.048-.093.1-.138.146q-.968,1.01-1.889,2.064l-.018.02a58.551,58.551,0,0,0-14.435,38.736,23.634,23.634,0,0,1-13.982,21.576l-3.124,1.4a23.026,23.026,0,0,1-24.91-3.715,58.7,58.7,0,0,0-78.376-.817,25.225,25.225,0,0,1-26.939,4.031l-.435-.194a26.494,26.494,0,0,1-15.571-23.787q-.032-1.461-.137-2.937A58.881,58.881,0,1,0,150.022,278.2a25.97,25.97,0,0,1,27.64-3.957,26.463,26.463,0,0,1,15.486,23.75,60.776,60.776,0,0,0,.453,6.18,58.823,58.823,0,0,0,117.164-7.509v-.151a23.633,23.633,0,0,1,13.984-21.6l3.124-1.4a23.027,23.027,0,0,1,24.91,3.715,59,59,0,0,0,14.847,9.908l.175.085c.609.281,1.225.548,1.844.809.228.1.455.2.686.29.484.2.976.384,1.468.569.375.142.752.284,1.131.418s.765.26,1.148.387c.5.165,1,.326,1.5.477.3.09.6.174.9.259q.888.253,1.788.478c.24.06.479.115.72.172q.985.232,1.981.431.321.063.643.122,1.021.192,2.054.346c.224.034.449.066.675.1q.985.135,1.982.237.432.046.865.084c.269.024.535.058.805.077s.558.024.837.041q.748.046,1.5.071c.464.017.926.028,1.387.034.237,0,.473.016.71.016.322,0,.639-.016.959-.022.391-.006.781-.013,1.17-.027.611-.023,1.22-.058,1.827-.1.336-.022.673-.041,1.007-.068.7-.06,1.39-.136,2.081-.218.24-.029.481-.051.72-.082a58.466,58.466,0,0,0,8.415-1.754l.132-.041q1.29-.373,2.553-.8c.109-.037.217-.077.326-.115q1.172-.405,2.319-.857c.124-.048.245-.1.368-.148q1.135-.456,2.246-.959l.331-.151q1.145-.525,2.263-1.1l.222-.113q1.212-.628,2.391-1.309l.015-.008a59.125,59.125,0,0,0,8.958-6.348,26.155,26.155,0,0,1,43.351,19.577,61.13,61.13,0,0,0,.454,6.18c.063.5.176.992.252,1.492.089.572.184,1.141.289,1.709q.378,2.069.9,4.086c.036.137.07.275.108.413a59.082,59.082,0,0,0,34.058,39.007c.08.033.159.07.238.1q1.331.554,2.692,1.042,1.153.417,2.324.787c.638.2,1.277.387,1.924.564q1.6.441,3.23.8c.463.1.928.188,1.395.274,1.278.243,2.569.45,3.875.606.1.011.2.035.3.047.3.034.6.047.9.077.369.035.734.084,1.1.113.2.015.394.016.592.03.611.042,1.219.07,1.826.094.514.02,1.026.039,1.537.047.572.008,1.14,0,1.709-.008.536-.009,1.073-.016,1.607-.039s1.058-.058,1.585-.1c.564-.039,1.127-.079,1.688-.133.482-.047.96-.108,1.439-.167.595-.072,1.191-.146,1.78-.237.431-.066.858-.146,1.287-.222.626-.112,1.252-.222,1.872-.353.375-.08.747-.172,1.12-.259.663-.153,1.324-.308,1.978-.483.312-.085.62-.18.931-.269.7-.2,1.406-.407,2.1-.634.24-.079.477-.167.716-.25.753-.257,1.5-.521,2.242-.808.153-.06.3-.127.455-.188.817-.325,1.628-.661,2.426-1.021l.133-.063A58.875,58.875,0,0,0,591.7,296.477,23.632,23.632,0,0,1,605.682,274.9l3.124-1.4a23.024,23.024,0,0,1,24.909,3.715,58.7,58.7,0,0,0,77.947,1.191,26.284,26.284,0,0,1,27.889-4.173h0a26.464,26.464,0,0,1,15.485,23.752q.036,1.643.165,3.306a58.82,58.82,0,1,0,117.261-9.438Z" transform="translate(0 0)" fill="#cee284"/>
      <g id="Grupo_983551" data-name="Grupo 983551" transform="translate(64.625 186.969)">
        <circle id="Elipse_7671" data-name="Elipse 7671" cx="43.464" cy="43.464" r="43.464" transform="translate(0 86.642) rotate(-85.348)" fill="#fff"/>
        <g id="v0N5Yg.tif" transform="translate(-94.983 -519.309)">
          <g id="Grupo_983562" data-name="Grupo 983562" transform="translate(112.528 538.414)">
            <path id="Trazado_674555" data-name="Trazado 674555" d="M168.013,571.413a32.284,32.284,0,0,1-.679,3.547c-2.246,7.347-7.172,11.808-14.7,13.286a38.807,38.807,0,0,1-4.955.295.861.861,0,0,0-.6.321,9.892,9.892,0,0,1-9.726,5.006,20.647,20.647,0,0,1-19.363-18.749,26.921,26.921,0,0,1,.83-8.467,21.162,21.162,0,0,0,.236-7.5c-.211-1.537.365-2.513,1.642-2.774a2.2,2.2,0,0,1,1.781.456c.744.527,1.509,1.024,2.267,1.53a2.167,2.167,0,0,0,.287.13v-5.756a22.642,22.642,0,0,1-2.363-.016,17.345,17.345,0,0,1-3.506-.562,9.719,9.719,0,0,1-6.625-9.107c-.011-.928,0-1.855,0-2.858,2.27.11,4.512-.237,6.714.28a9.691,9.691,0,0,1,5.984,4.192c.092.137.183.275.314.471.059-.12.1-.188.128-.261A9.727,9.727,0,0,1,133.7,538.5a.861.861,0,0,0,.2-.085h5.481a35.471,35.471,0,0,1-.243,4.675,9.731,9.731,0,0,1-9.4,7.848c-.945.013-1.891,0-2.862,0v8.4c.446.131.913.3,1.4.4a24.993,24.993,0,0,1,13.379,7.39.915.915,0,0,0,.142.089c.21-.31.418-.628.636-.938a19.539,19.539,0,0,1,12.332-8.133,22.352,22.352,0,0,0,7.709-3.135,2.343,2.343,0,0,1,2.432-.267,2.028,2.028,0,0,1,1.3,1.934,32.2,32.2,0,0,0,1.392,9.581c.2.806.285,1.643.423,2.466Zm-46.492,4.558a5.875,5.875,0,0,1,2.228-5.723,3.214,3.214,0,0,0,1.293-2.563c.037-2.274.018-4.548.009-6.822a.556.556,0,0,0-.183-.41c-1.17-.757-2.352-1.5-3.535-2.233-.337-.21-.528-.106-.538.286a2.808,2.808,0,0,0,.035.446,25.341,25.341,0,0,1-.532,9.373,18.676,18.676,0,0,0,2.329,15.023,18.47,18.47,0,0,0,14.825,8.734,8.118,8.118,0,0,0,6.994-2.651,1.114,1.114,0,0,0,.263-.735,14.032,14.032,0,0,0-3.744-8.932c-.122-.133-.237-.271-.366-.42.33-.356.635-.681.933-1.013a2.843,2.843,0,0,0,.214-.323,17.134,17.134,0,0,1,4.539,7.985,21.254,21.254,0,0,0-3.641-14.726c-3.77-5.635-9.165-8.777-15.8-10a29.564,29.564,0,0,1-.024,3.359A5.648,5.648,0,0,0,128.2,569a6.676,6.676,0,0,0,1.624,1.494,3.014,3.014,0,0,0,3.256.273,11.076,11.076,0,0,1,1.865-.741,5.285,5.285,0,0,1,5.893,1.792l-1.21,1.221a4.091,4.091,0,0,0-2.611-1.493,5.517,5.517,0,0,0-2.942.771,5.616,5.616,0,0,1,1.651,2.509l-1.656.552a4.022,4.022,0,0,0-3.261-2.607,6.232,6.232,0,0,1-3.216-1.695c-.1-.09-.2-.17-.335-.28a1.094,1.094,0,0,0-.009.175,7.724,7.724,0,0,0,3.775,5.478,8.538,8.538,0,0,1,3.612,4.061c.076.179.125.37.2.586l-1.689.552a7.552,7.552,0,0,0-3.529-3.992,9.118,9.118,0,0,1-3.9-5.406c-.1-.346-.179-.7-.261-1.02a4.3,4.3,0,0,0-2.143,4.741Zm26.568,10.752a19.079,19.079,0,0,0,5.059-.374,16.6,16.6,0,0,0,12.529-20.416,30.383,30.383,0,0,1-1.258-8.642c.013-.294-.095-.75-.293-.854s-.628.056-.882.217A25.012,25.012,0,0,1,155,559.936a17.721,17.721,0,0,0-11.726,8.333.623.623,0,0,0,.026.831A23.855,23.855,0,0,1,148.089,586.723Zm-20.555-37.639c5.721.933,10.81-3.593,10-8.829-5.191-.709-10.168,2.244-10.4,6.224a12.373,12.373,0,0,1,7.616-4.464c.059.33.112.6.155.877s.082.574.123.868A10.653,10.653,0,0,0,127.533,549.084Zm-10.379-5.28a12.259,12.259,0,0,1,4.23,1.534,13.417,13.417,0,0,1,3.474,3.025c-.05-.247-.06-.319-.08-.389A8.077,8.077,0,0,0,121,543.056c-2.086-1.247-4.371-1.1-6.65-1.033-.427,4.787,3.24,9.719,10.028,8.856a10.649,10.649,0,0,0-7.509-5.336Z" transform="translate(-112.528 -538.414)" fill="#12263f"/>
            <path id="Trazado_674556" data-name="Trazado 674556" d="M250.939,933.506a13.452,13.452,0,0,0,7.57,5.88l-.561,1.681a15.088,15.088,0,0,1-8.537-6.629Z" transform="translate(-234.068 -889.222)" fill="#12263f"/>
            <path id="Trazado_674557" data-name="Trazado 674557" d="M328.665,943.665l1.677-.563a11.766,11.766,0,0,0,3.338,4.968l-1.329,1.2A12.985,12.985,0,0,1,328.665,943.665Z" transform="translate(-304.439 -897.742)" fill="#12263f"/>
            <path id="Trazado_674558" data-name="Trazado 674558" d="M478.109,800.576l1.762.3a23.685,23.685,0,0,1-11.15,16.732l-.937-1.53A21.907,21.907,0,0,0,478.109,800.576Z" transform="translate(-427.964 -771.191)" fill="#12263f"/>
            <path id="Trazado_674559" data-name="Trazado 674559" d="M451.86,789.08,453,790.215l-8.9,8.9-1.141-1.134Z" transform="translate(-405.923 -760.984)" fill="#12263f"/>
            <path id="Trazado_674560" data-name="Trazado 674560" d="M411.782,760.914l-1.257-1.272a20.137,20.137,0,0,1,11.2-5.6l.279,1.76a18.921,18.921,0,0,0-5.509,1.733A18.4,18.4,0,0,0,411.782,760.914Z" transform="translate(-377.124 -729.877)" fill="#12263f"/>
          </g>
        </g>
      </g>
      <line id="Línea_201" data-name="Línea 201" y1="16.836" transform="translate(251.949 207.447)" fill="none" stroke="#303030" stroke-linecap="round" stroke-miterlimit="10" stroke-width="2" stroke-dasharray="0 4"/>
      <line id="Línea_202" data-name="Línea 202" y1="16.836" transform="translate(532.905 207.447)" fill="none" stroke="#303030" stroke-linecap="round" stroke-miterlimit="10" stroke-width="2" stroke-dasharray="0 4"/>
      <line id="Línea_203" data-name="Línea 203" y1="16.836" transform="translate(813.861 207.447)" fill="none" stroke="#303030" stroke-linecap="round" stroke-miterlimit="10" stroke-width="2" stroke-dasharray="0 4"/>
      <line id="Línea_204" data-name="Línea 204" y2="16.836" transform="translate(111.471 306.19)" fill="none" stroke="#303030" stroke-linecap="round" stroke-miterlimit="10" stroke-width="2" stroke-dasharray="0 4"/>
      <line id="Línea_205" data-name="Línea 205" y2="16.836" transform="translate(392.427 306.19)" fill="none" stroke="#303030" stroke-linecap="round" stroke-miterlimit="10" stroke-width="2" stroke-dasharray="0 4"/>
      <line id="Línea_206" data-name="Línea 206" y2="16.836" transform="translate(673.383 306.19)" fill="none" stroke="#303030" stroke-linecap="round" stroke-miterlimit="10" stroke-width="2" stroke-dasharray="0 4"/>
      <g id="Grupo_983553" data-name="Grupo 983553" transform="translate(208.485 253.196)">
        <circle id="Elipse_7672" data-name="Elipse 7672" cx="43.464" cy="43.464" r="43.464" fill="#fff"/>
        <g id="BVaseA.tif" transform="translate(-164.085 -1204.164)">
          <g id="Grupo_983563" data-name="Grupo 983563" transform="translate(185.391 1215.201)">
            <path id="Trazado_674561" data-name="Trazado 674561" d="M207.81,1215.2a18.342,18.342,0,0,1,7.949,12.222,19.152,19.152,0,0,1-5.091,17.211c-1.664.972-1.9,2.509-1.68,4.232a9.418,9.418,0,0,1,.005,1.025c.192-.224.3-.331.386-.453a18.952,18.952,0,0,1,13.141-8.18,31.714,31.714,0,0,1,5.48-.05,1.578,1.578,0,0,1,1.544,1.569,19.523,19.523,0,0,1-14.228,21.354,18,18,0,0,1-5.943.66,2.927,2.927,0,0,0-.38.036v.759q0,6.206-.007,12.413a2.9,2.9,0,0,1-.169,1.108,1.577,1.577,0,0,1-1.766.915,1.657,1.657,0,0,1-1.277-1.605c-.017-1.245-.007-2.491-.007-3.736q0-4.56,0-9.12v-.661c-1.224-.1-2.378-.158-3.523-.3a18.422,18.422,0,0,1-8.92-3.6,19.231,19.231,0,0,1-7.474-11.524,18.634,18.634,0,0,1-.275-6.732,1.657,1.657,0,0,1,1.572-1.556,19.057,19.057,0,0,1,15.362,4.66,37.8,37.8,0,0,1,2.837,3.052c.109.119.208.247.419.5,0-1.11.024-2.068-.02-3.024-.009-.2-.238-.427-.417-.583a18.238,18.238,0,0,1-5.353-7.637c-2.687-7.614-1.4-14.493,4.063-20.486a26.05,26.05,0,0,1,3.013-2.469Zm-.433,3.767c-7.74,6.741-6.881,18.612.029,24.255A16.166,16.166,0,0,0,207.377,1218.968Zm19.019,25.4c-10.039-.867-18.082,8.224-17.1,17.135A16.142,16.142,0,0,0,226.4,1244.37Zm-37.649-.034c-.833,10.339,8.532,18.085,16.987,17.1C206.746,1251.614,197.934,1243.574,188.747,1244.337Z" transform="translate(-185.391 -1215.201)" fill="#12263f"/>
            <path id="Trazado_674562" data-name="Trazado 674562" d="M253.228,1488.135a2.486,2.486,0,0,0,.391.842c1.16,1.219,2.344,2.417,3.564,3.575a1.6,1.6,0,0,0,2.263-2.234c-1.166-1.241-2.379-2.441-3.611-3.616a1.483,1.483,0,0,0-1.72-.185A1.629,1.629,0,0,0,253.228,1488.135Z" transform="translate(-244.618 -1451.919)" fill="#12263f"/>
            <path id="Trazado_674563" data-name="Trazado 674563" d="M349.133,1313.058c0,.758.017,1.516,0,2.273a1.61,1.61,0,1,1-3.214-.049q-.018-2.273,0-4.547a1.61,1.61,0,1,1,3.214-.014C349.149,1311.5,349.133,1312.279,349.133,1313.058Z" transform="translate(-325.534 -1297.114)" fill="#12263f"/>
            <path id="Trazado_674564" data-name="Trazado 674564" d="M421.57,1488.295a3.845,3.845,0,0,1-.54.942c-1.057,1.114-2.151,2.194-3.252,3.265a1.616,1.616,0,1,1-2.283-2.284c1.083-1.119,2.19-2.215,3.3-3.306a1.594,1.594,0,0,1,1.869-.319C421.286,1486.864,421.547,1487.4,421.57,1488.295Z" transform="translate(-385.848 -1452.002)" fill="#12263f"/>
            <path id="Trazado_674565" data-name="Trazado 674565" d="M253.228,1488.135a1.629,1.629,0,0,1,.887-1.619,1.483,1.483,0,0,1,1.72.185c1.233,1.176,2.445,2.375,3.611,3.616a1.6,1.6,0,0,1-2.263,2.234c-1.22-1.158-2.4-2.357-3.564-3.575A2.486,2.486,0,0,1,253.228,1488.135Z" transform="translate(-244.618 -1451.919)" fill="#12263f"/>
          </g>
        </g>
      </g>
      <g id="Grupo_983554" data-name="Grupo 983554" transform="translate(342.499 183.887)">
        <circle id="Elipse_7673" data-name="Elipse 7673" cx="43.464" cy="43.464" r="43.464" transform="translate(0 85.781) rotate(-80.682)" fill="#fff"/>
        <g id="lTcMY4.tif" transform="translate(-110.041 -2054.345)">
          <g id="Grupo_983564" data-name="Grupo 983564" transform="translate(127.124 2092.115)">
            <path id="Trazado_674566" data-name="Trazado 674566" d="M163.23,2119.119c4.011-8.141,10.557-13.93,17.881-19.026a35.7,35.7,0,0,0-11.906,6.829,29.43,29.43,0,0,0-8.228,11.2c-4.04-9.125-11.187-14.6-20.152-18.041,7.292,5.118,13.852,10.9,17.946,19.24-1.566.35-2.978.72-4.411.976a21.32,21.32,0,0,1-9.459-.315,19.785,19.785,0,0,1-10.957-7.954,39.574,39.574,0,0,1-6.26-14.787c-.206-.913-.338-1.843-.531-2.759-.086-.408,0-.651.438-.73,2.393-.428,4.773-.971,7.182-1.262a43.073,43.073,0,0,1,6.352-.292,21.954,21.954,0,0,1,10.982,2.953c4.339,2.627,6.768,6.611,8.038,11.39.264,1,.407,2.024.612,3.035.021.106.081.205.287.32.086-.442.176-.884.259-1.327a21.55,21.55,0,0,1,3.719-9.072,17.6,17.6,0,0,1,11.038-6.74,26.894,26.894,0,0,1,8.778-.464c3.008.367,6,.866,8.994,1.344.994.159,1,.214.839,1.205a41.93,41.93,0,0,1-5.781,15.822,20.677,20.677,0,0,1-10.516,8.887,18.628,18.628,0,0,1-8.829.978c-2.091-.279-4.162-.7-6.243-1.061Z" transform="translate(-127.124 -2092.115)" fill="#12263f"/>
          </g>
        </g>
      </g>
      <g id="Grupo_983556" data-name="Grupo 983556" transform="translate(623.444 183.887)">
        <circle id="Elipse_7674" data-name="Elipse 7674" cx="43.464" cy="43.464" r="43.464" transform="translate(0 85.781) rotate(-80.682)" fill="#fff"/>
        <g id="gFV0Dx" transform="translate(-291.068 -3187.6)">
          <g id="Grupo_983566" data-name="Grupo 983566" transform="translate(307.414 3212.049)">
            <path id="Trazado_674568" data-name="Trazado 674568" d="M369.858,3285.549l-6.195-1.363-2.477,2.872-.735-.2c2.331-1.781,1.452-2.938-.151-4.311a23.313,23.313,0,0,1-3-3.929c-1.155,1.43-.778,2.6.024,3.817,1.145,1.74.79,3.293-.741,4.688,1.111-1.912.724-3.608-.458-5.3a2.493,2.493,0,0,1-.3-1.67c.213-1.346.892-2.739-.816-3.63-1.19-.621-2.369-1.264-3.586-1.826a6.989,6.989,0,0,0-1.542-.321c.243,2.43.38,4.688,2.334,6.6,1.464,1.434.848,3.939-1.2,5.916,1.316-2.823,1.747-5.16-.857-7.03l-4.779,7.123-.452-.249a26.991,26.991,0,0,1,2.143-3.683,8.716,8.716,0,0,0,2.326-5.711,3.458,3.458,0,0,0-2.084-3.461c-1.873-.987-3.757-1.961-5.683-2.835a2.173,2.173,0,0,0-1.555.143,44.659,44.659,0,0,1-4.139,1.992c-4.477,1.436-3.924,5.649-2.228,8.347.736,1.171,1.707,2.193,2.459,3.356a3.261,3.261,0,0,1,.447,2.173l-4.826-7.2c-2.55,1.767-2.275,4.138-1.223,6.722-1.512-1.576-2.3-3.56-1.037-5.217a10.961,10.961,0,0,0,2.514-7.358c-1.667.776-3.268,1.445-4.794,2.254-1.421.752-1.758,1.928-1.226,3.5a2.625,2.625,0,0,1-.218,2.07,4.356,4.356,0,0,0-.012,5.531c-2.033-1.408-2.228-2.784-1.276-4.849a23.864,23.864,0,0,0,1.022-3.462l-.705-.312a70.344,70.344,0,0,0-4.691,5.488c-.3.415.555,1.647.727,2.784l-2.652-2.8-5.9,1.283c.258-1.034,1.133-1.941,3.218-1.769,3.566.295,5.746-1.244,7.468-4.208.885-1.524,2.406-2.678,3.509-4.371-1.935.5-4.079.641-5.734,1.617-1.137.67-1.645,2.469-2.336,3.814a5.569,5.569,0,0,1-1.2,2.087q.24-1.717.48-3.433l-.394-.519c-1.866,3.886-5.1,3.911-8.893,2.917.983,2.342,1.468,4.041-.326,5.39a2.554,2.554,0,0,1-.386-.028c-.121-1.875-.542-3.822-.147-5.587.134-.6,2.506-1.295,3.538-.962a2.957,2.957,0,0,0,3.678-.974c3.079-4.174,7.546-5.256,12.292-5.849,4.452-.557,8.806-1.362,12.56-4.149a2.8,2.8,0,0,1,2.623-.02c4.182,3.189,9.157,3.717,14.071,4.414,4.113.583,7.8,1.8,10.469,5.273,1,1.3,2.242,2.116,4.193,1.21.8-.373,2.305.16,3.167.751.451.309.2,1.637.27,2.5.053.7.138,1.394.138,2.091a12.732,12.732,0,0,1-.217,1.611c-2.071-1.785-2.114-2.008-1.03-5.6-3.547.936-6.8.949-8.63-2.906l-.458.393.456,3.534-.377.166a7.541,7.541,0,0,1-.795-2.086c-.171-2.635-1.018-3.9-3.5-4.594-1.518-.424-3.083-.679-4.765-1.04,1.989,2.468,3.608,4.934,5.7,6.889,1.072,1,2.966,1.292,4.545,1.529C367.335,3283.861,369.145,3283.87,369.858,3285.549Z" transform="translate(-307.414 -3244.058)" fill="#12263f"/>
            <path id="Trazado_674569" data-name="Trazado 674569" d="M405.3,3213.2c1.505,3.827.429,7.476-2.7,9.591-1.15.777-1.838.343-2.086-.838C399.614,3217.667,401.2,3214.755,405.3,3213.2Z" transform="translate(-359.481 -3212.693)" fill="#12263f"/>
            <path id="Trazado_674570" data-name="Trazado 674570" d="M393.341,3240.266c1.3,4,.218,7.454-2.845,9.551-1.018.7-1.73.433-2.05-.642A6.865,6.865,0,0,1,393.341,3240.266Z" transform="translate(-352.658 -3227.871)" fill="#12263f"/>
            <path id="Trazado_674571" data-name="Trazado 674571" d="M414.5,3234.758a7.545,7.545,0,0,1-7.493,6.052c-1.246.016-1.815-.742-1.542-1.708A6.688,6.688,0,0,1,414.5,3234.758Z" transform="translate(-362.36 -3224.493)" fill="#12263f"/>
            <path id="Trazado_674572" data-name="Trazado 674572" d="M348.36,3247.839a6.779,6.779,0,0,1,9.089,4.354c.457,1.318-.158,1.677-1.374,1.706A7.592,7.592,0,0,1,348.36,3247.839Z" transform="translate(-330.374 -3231.833)" fill="#12263f"/>
            <path id="Trazado_674573" data-name="Trazado 674573" d="M408.045,3254.705c-1.971,3.374-4.9,4.78-8.581,4.064-.459-.09-1.206-.435-1.226-.705a2.793,2.793,0,0,1,.466-1.916C401.768,3252.781,404.949,3252.329,408.045,3254.705Z" transform="translate(-358.337 -3235.132)" fill="#12263f"/>
            <path id="Trazado_674574" data-name="Trazado 674574" d="M364.574,3221.98c-4.029-2.984-5.025-5.762-3.706-9.931a5.163,5.163,0,0,1,4.812,4.193C366.018,3218.2,366.776,3220.4,364.574,3221.98Z" transform="translate(-337.08 -3212.049)" fill="#12263f"/>
            <path id="Trazado_674575" data-name="Trazado 674575" d="M350.436,3230.868a6.747,6.747,0,0,1,9.023,4.322,1.33,1.33,0,0,1-1.4,1.764C354.415,3237,351.5,3234.728,350.436,3230.868Z" transform="translate(-331.538 -3222.346)" fill="#12263f"/>
            <path id="Trazado_674576" data-name="Trazado 674576" d="M370.7,3248.289c4.121-.591,6.395,1.677,7.408,7.51l-1.073-.342.124.986C372.73,3255.419,370.466,3252.543,370.7,3248.289Z" transform="translate(-342.893 -3232.319)" fill="#12263f"/>
            <path id="Trazado_674577" data-name="Trazado 674577" d="M375.655,3227.9c4.223.99,5.664,3.863,4.81,9.072l-1.793.428C375.28,3234.932,374.275,3232.09,375.655,3227.9Z" transform="translate(-345.343 -3220.939)" fill="#12263f"/>
            <path id="Trazado_674578" data-name="Trazado 674578" d="M388.722,3222.46l-1.177-1.5.327,1.722c-4.074-2.306-5.471-6.143-3.754-9.991C388.314,3213.849,389.635,3216.479,388.722,3222.46Z" transform="translate(-350.021 -3212.407)" fill="#12263f"/>
          </g>
        </g>
      </g>
      <g id="Grupo_983558" data-name="Grupo 983558" transform="translate(489.441 253.196)">
        <circle id="Elipse_7675" data-name="Elipse 7675" cx="43.464" cy="43.464" r="43.464" transform="translate(0)" fill="#fff"/>
        <g id="QIPCfn" transform="translate(-253.638 -2846.919)">
          <g id="Grupo_983565" data-name="Grupo 983565" transform="translate(279.06 2859.421)">
            <path id="Trazado_674567" data-name="Trazado 674567" d="M291.629,2896.766a3.823,3.823,0,0,1,2.619-2.253,4.328,4.328,0,0,0,2.647-2.622c1.115-2.636,3.027-3.5,5.685-2.491a18.642,18.642,0,0,1,2.537,1.44c1.365-4.095-.707-7.471-2.374-10.944a11.842,11.842,0,0,1-14.413-1.967c-1.664-1.819-1.7-2.836-.044-4.667a11.989,11.989,0,0,1,8.122-3.709c.918-.089,1.852-.014,2.912-.014.247-3.232,2.035-5.618,4.452-7.608a10.544,10.544,0,0,1,5.48-2.481,2.255,2.255,0,0,1,2.562,1.366c2.008,3.89.546,10.8-3.092,13.236-1.232.827-2.894,1.012-4.691,1.6a27.949,27.949,0,0,0,1.735,5.262,14.2,14.2,0,0,1-.063,14.536,8.937,8.937,0,0,0,1.049,1.356,1.834,1.834,0,0,0,1.226.562c2.942-.466,5.531.076,7.638,2.326a1.9,1.9,0,0,0,.917.41c3.421.829,5.511,3.37,5.3,6.475-.2,2.946-2.839,5.391-6.194,5.72-.4.039-.8.039-1.193.039-9.338,0-18.676.036-28.013-.037a9.957,9.957,0,0,1-3.951-.875,5.5,5.5,0,0,1-3.424-5.379,5.612,5.612,0,0,1,3.679-5.359,24.734,24.734,0,0,0,3.97-2.143C288.068,2897.681,289.794,2897.4,291.629,2896.766Zm-7.917,5.922a3.58,3.58,0,0,0-2.352,3.884,4.085,4.085,0,0,0,3.619,3.356,13.209,13.209,0,0,0,1.979.162q13.543.015,27.087,0a11.259,11.259,0,0,0,2.239-.208,4.07,4.07,0,0,0,3.278-3.549,3.548,3.548,0,0,0-2.462-3.639c-.738.35-1.321.86-1.809.781-.376-.06-.636-.857-.942-1.331a6.228,6.228,0,0,0-.925-1.413,6.034,6.034,0,0,0-5.269-1.066c-.236.041-.594.357-.6.562a4.531,4.531,0,0,1-2.331,3.6c.989.291,1.754.485,2.5.742a1.62,1.62,0,0,0,1.858-.483c.44-.42,1.341-.836,1.776-.649s.553,1.125.889,1.92c.073,0,.467.052.861.052.812,0,1.58.095,1.579,1.141,0,1.17-.88,1.171-1.7,1.113-1.264-.091-2.525-.236-3.433-.324-.522.686-.831,1.477-1.245,1.536-.477.069-1.107-.438-1.559-.826a6.552,6.552,0,0,1-.794-1.208,1.624,1.624,0,0,0-.622-.595c-1.612-.62-3.234-1.252-4.777.2a4.494,4.494,0,0,1-1.025.6,5.038,5.038,0,0,1-6.2-.923,2.347,2.347,0,0,0-2.93-.577c.112.947,1.193,1.995-.132,2.636-1.556.753-1.479-1.033-2.09-1.606a31.115,31.115,0,0,1-3.624.92c-.361.051-1.015-.5-1.163-.9-.1-.281.347-1.03.7-1.165,2.5-.95,5.037-1.795,7.578-2.678l.571-3.141a10.7,10.7,0,0,0-2.228.027c-1.482.322-2.912.786-3.485,2.478-.176.52-.526,1.28-.908,1.354C285.135,2903.563,284.542,2903.061,283.712,2902.688Zm17.823-28.714c-1.231-3.394-8.509-2.841-11.644,1.556,1.794,2.876,6.729,4.647,9.8,3.5a2.973,2.973,0,0,0,2.115-2.716c-.837.156-1.6.312-2.365.437-.738.12-1.587.361-1.811-.712s.485-1.35,1.379-1.487C299.838,2874.42,300.644,2874.181,301.536,2873.974Zm-4.283,31.487a7.768,7.768,0,0,0,1.316-.5c1.695-.938,3.368-1.917,5.04-2.9a2.774,2.774,0,0,0,1.536-3.078,3.16,3.16,0,0,0-2.551-2.536,1.908,1.908,0,0,0-1.509.572,7.168,7.168,0,0,1-5.536,3.166c-.395.023-1.085.283-1.106.488a8.877,8.877,0,0,0,.017,3.167C294.757,2904.936,295.781,2905.438,297.253,2905.46Zm12.016-43.337c-3.546.763-6.188,2.638-7.42,6.184a2.2,2.2,0,0,0,.664,2.855c.359-.681.672-1.309,1.016-1.918.426-.754.921-1.6,1.938-.993.942.563.439,1.355.066,2.082-.391.761-.725,1.551-1.093,2.348a3.307,3.307,0,0,0,3.96-1.378A8.777,8.777,0,0,0,309.269,2862.123Zm-15.661,35.257c2.067,1.068,4.019.491,5.5-1.6a3.6,3.6,0,0,1,3.781-1.593c.289.043.585.033.883.049-.029-1.942-2.206-3.558-3.85-2.912a1.293,1.293,0,0,0-.651.732,7.089,7.089,0,0,1-4.856,4.851A4.9,4.9,0,0,0,293.608,2897.38Z" transform="translate(-279.06 -2859.421)" fill="#12263f"/>
          </g>
        </g>
      </g>
      <g id="Grupo_983560" data-name="Grupo 983560" transform="translate(770.385 253.196)">
        <circle id="Elipse_7676" data-name="Elipse 7676" cx="43.464" cy="43.464" r="43.464" fill="#fff"/>
        <g id="wl1bYW" transform="translate(-183.424 -3251.832)">
          <g id="Grupo_983567" data-name="Grupo 983567" transform="translate(204.215 3261.042)">
            <path id="Trazado_674579" data-name="Trazado 674579" d="M227.674,3284.121a1.121,1.121,0,0,0,0-.282c-.742-2.755-1.473-5.514-2.238-8.261-.6-2.16-1.2-4.32-1.9-6.45a6.191,6.191,0,0,0-1.145-1.926,6.3,6.3,0,0,1-1.124-4.569,1.681,1.681,0,0,1,1.308-1.52,1.585,1.585,0,0,1,1.629.58,3.385,3.385,0,0,1,1.015,2.892,20.47,20.47,0,0,0-.085,3.78,33.44,33.44,0,0,0,.889,3.991c.2.832.407,1.661.614,2.491a1.415,1.415,0,0,0,.158.518.708.708,0,0,0,.477.3.591.591,0,0,0,.431-.353c.446-2.015,1.794-3.544,2.772-5.274a7.912,7.912,0,0,0,.941-2.428,4.06,4.06,0,0,1,2.767-2.759,1.545,1.545,0,0,1,1.706,2.111,5.479,5.479,0,0,1-2.922,3.5,7.289,7.289,0,0,0-3.64,4.343,13.637,13.637,0,0,0-.769,6.87c.214,1.266.542,2.512.794,3.772.216,1.078.393,2.164.6,3.244a1.845,1.845,0,0,0,.223.446c.112-.1.286-.184.326-.308.875-2.7,2.757-4.779,4.34-7.047a25.968,25.968,0,0,0,1.822-3.3,4.907,4.907,0,0,1,2.226-2.1,1.36,1.36,0,0,1,1.871.329,1.724,1.724,0,0,1,.355,2.077,5.783,5.783,0,0,1-2.642,2.629,2.581,2.581,0,0,1-.878.221,1.586,1.586,0,0,0-1.251.658,26.917,26.917,0,0,0-3.949,5.865,31.462,31.462,0,0,0-1.217,3.771,3.1,3.1,0,0,0-.008.764,1.97,1.97,0,0,0,.554-.254c.864-.906,2.08-1.174,3.122-1.757,1.932-1.081,3.848-2.191,5.781-3.269a4.172,4.172,0,0,1,1.327-.55c.794-.12,1.415.382,1.79,1.282.225.541.033,1.03-.63,1.573a7.01,7.01,0,0,1-3.822,1.29,12.332,12.332,0,0,0-5.751,1.866,5.473,5.473,0,0,0-2.408,4.395,15.227,15.227,0,0,0,.606,4.473q.542,2.26,1.1,4.517a7.093,7.093,0,0,0,.291.743,6.842,6.842,0,0,0,.573-.646c1.4-2.107,2.744-4.246,4.2-6.312a4.735,4.735,0,0,1,1.651-1.3,1.153,1.153,0,0,1,1.654.973,3.928,3.928,0,0,1-2.868,4.3,4.32,4.32,0,0,0-2.924,2.207,6.925,6.925,0,0,0-.943,3.192,7.239,7.239,0,0,0,1.3,3.828,31.009,31.009,0,0,0,8.3,9.618,15.6,15.6,0,0,0,1.668,1q.339.2.665.427c.274.189.631.456.381.77a1.257,1.257,0,0,1-.972.422,10.253,10.253,0,0,1-2.059-.556c-1.55-.553-3.105-1.1-4.623-1.737-1.818-.761-3.621-1.566-5.39-2.435a35.905,35.905,0,0,0-6.2-2.69,12.334,12.334,0,0,0-4.615-.425,1.567,1.567,0,0,0-1.589,1.485,1.39,1.39,0,0,1-2.232.861,16.843,16.843,0,0,1-1.679-1.52c-.358-.367-.584-.852-.185-1.319a5.712,5.712,0,0,1,1.4-1.337,2.41,2.41,0,0,1,1.4-.005c.634.1,1.246.386,1.879.428,1.444.095,2.894.089,4.341.126a2.464,2.464,0,0,0,.488.021,2.39,2.39,0,0,0,.474-.188,1.517,1.517,0,0,0-.224-.467c-.912-.878-1.819-1.765-2.768-2.6a20.875,20.875,0,0,0-6.51-4.034,38.372,38.372,0,0,0-4.368-1.153,14.52,14.52,0,0,0-2.58-.478,4.944,4.944,0,0,0-2,.334,3.883,3.883,0,0,1-4.233-1.541c-.656-1.057-.214-1.722.552-2.5a1.988,1.988,0,0,1,2.634-.149,15.293,15.293,0,0,0,1.819,1.535,11.566,11.566,0,0,0,2.7,1.1c1.493.407,3.022.685,4.539,1,.11.022.347-.068.35-.116a.688.688,0,0,0-.122-.432c-.513-.661-1.1-1.269-1.557-1.966q-1.546-2.38-2.976-4.835a5.428,5.428,0,0,0-1.556-1.77,4.376,4.376,0,0,1-1.669-1.907,1.585,1.585,0,0,1,.345-1.749,1.434,1.434,0,0,1,1.669-.408,5.778,5.778,0,0,1,2.769,2.487,2.037,2.037,0,0,1,.033,1.771,1.7,1.7,0,0,0,.061,1.569,31.651,31.651,0,0,0,7.913,9.56c2.9,2.513,5.754,5.078,8.712,7.519a28.05,28.05,0,0,0,6.827,3.994c.764.33,1.518.684,2.288,1a1.639,1.639,0,0,0,.565.02,1.513,1.513,0,0,0-.207-.505,35.685,35.685,0,0,1-4.791-5.874,29.808,29.808,0,0,1-3.212-6.633c-.556-1.724-.933-3.51-1.559-5.206a7.7,7.7,0,0,0-1.569-2.44,40.614,40.614,0,0,0-6.345-5.371,2.365,2.365,0,0,0-1.311-.414,4.478,4.478,0,0,1-4.035-3.049,2.377,2.377,0,0,1,.194-2.013,1.052,1.052,0,0,1,1.46-.5,20.317,20.317,0,0,1,2.475,1.44,2.566,2.566,0,0,1,1.032,1.935,1.585,1.585,0,0,0,.509.963c1.932,1.6,3.9,3.158,5.858,4.719a.622.622,0,0,0,.48.156c.107-.041.2-.3.186-.452-.168-1.646-.3-3.3-.561-4.929a33.205,33.205,0,0,0-.9-3.933,19.549,19.549,0,0,0-4.511-8.019,1.5,1.5,0,0,0-1.427-.516c-1.911.319-4.35-1.766-4.84-3.305a2.049,2.049,0,0,1,.515-1.978,1.848,1.848,0,0,1,2.055-.186,9.4,9.4,0,0,1,4.164,4.052,45.025,45.025,0,0,0,3.375,4.317Z" transform="translate(-204.215 -3261.042)" fill="#12263f"/>
          </g>
        </g>
      </g>
    </g>
    <path id="Trazado_678195" data-name="Trazado 678195" d="M18.48,14.016A1.2,1.2,0,0,0,18.012,13a6.148,6.148,0,0,0-1.687-.75,11.963,11.963,0,0,1-1.93-.777,3.153,3.153,0,0,1-1.937-2.82A2.747,2.747,0,0,1,12.977,7a3.389,3.389,0,0,1,1.492-1.129,5.616,5.616,0,0,1,2.184-.406,5.112,5.112,0,0,1,2.172.441A3.458,3.458,0,0,1,20.3,7.156a3.261,3.261,0,0,1,.527,1.828H18.488A1.534,1.534,0,0,0,18,7.77a2.023,2.023,0,0,0-1.383-.434,2.162,2.162,0,0,0-1.336.363,1.146,1.146,0,0,0-.477.957,1.1,1.1,0,0,0,.559.93,6.311,6.311,0,0,0,1.645.7,7.106,7.106,0,0,1,2.914,1.492A2.972,2.972,0,0,1,20.832,14a2.737,2.737,0,0,1-1.117,2.316,4.891,4.891,0,0,1-3.008.84,5.808,5.808,0,0,1-2.391-.48,3.783,3.783,0,0,1-1.645-1.316,3.371,3.371,0,0,1-.566-1.937h2.352q0,1.883,2.25,1.883a2.189,2.189,0,0,0,1.3-.34A1.106,1.106,0,0,0,18.48,14.016Zm7.68,3.141a4.15,4.15,0,0,1-3.027-1.141,4.054,4.054,0,0,1-1.168-3.039v-.219a5.106,5.106,0,0,1,.492-2.277,3.612,3.612,0,0,1,1.395-1.547,3.914,3.914,0,0,1,2.059-.543,3.508,3.508,0,0,1,2.73,1.094,4.444,4.444,0,0,1,1,3.1v.922H24.254a2.1,2.1,0,0,0,.66,1.328,2,2,0,0,0,1.395.5,2.437,2.437,0,0,0,2.039-.945l1.109,1.242a3.389,3.389,0,0,1-1.375,1.121A4.511,4.511,0,0,1,26.16,17.156ZM25.9,10.211a1.411,1.411,0,0,0-1.09.455,2.357,2.357,0,0,0-.535,1.3h3.141v-.181a1.681,1.681,0,0,0-.406-1.165A1.456,1.456,0,0,0,25.9,10.211Zm7.133-1.664.07.945a2.971,2.971,0,0,1,2.43-1.1A2.255,2.255,0,0,1,37.777,9.68a2.9,2.9,0,0,1,2.539-1.289,2.521,2.521,0,0,1,2.047.8,3.681,3.681,0,0,1,.672,2.41V17H40.77V11.609a1.61,1.61,0,0,0-.281-1.051,1.246,1.246,0,0,0-.992-.332,1.409,1.409,0,0,0-1.406.969L38.1,17H35.84V11.617a1.59,1.59,0,0,0-.289-1.062,1.259,1.259,0,0,0-.984-.328,1.463,1.463,0,0,0-1.391.8V17H30.918V8.547ZM47.152,17H44.887V8.547h2.266Zm-2.4-10.641a1.112,1.112,0,0,1,.34-.836,1.465,1.465,0,0,1,1.848,0,1.105,1.105,0,0,1,.344.836,1.108,1.108,0,0,1-.348.844,1.448,1.448,0,0,1-1.836,0A1.108,1.108,0,0,1,44.754,6.359ZM51.395,17H49.129V5h2.266Zm4.242,0H53.371V5h2.266Zm6.758,0a2.507,2.507,0,0,1-.227-.758,2.732,2.732,0,0,1-2.133.914,3,3,0,0,1-2.059-.719,2.312,2.312,0,0,1-.816-1.812,2.389,2.389,0,0,1,1-2.062,4.915,4.915,0,0,1,2.879-.727h1.039v-.484a1.393,1.393,0,0,0-.3-.937,1.183,1.183,0,0,0-.949-.352,1.345,1.345,0,0,0-.895.273.929.929,0,0,0-.324.75H57.348A2.268,2.268,0,0,1,57.8,9.727a3,3,0,0,1,1.281-.98,4.669,4.669,0,0,1,1.859-.355,3.689,3.689,0,0,1,2.48.785,2.747,2.747,0,0,1,.918,2.207v3.664a4.041,4.041,0,0,0,.336,1.82V17Zm-1.867-1.57a1.945,1.945,0,0,0,.922-.223,1.462,1.462,0,0,0,.625-.6V13.156H61.23q-1.7,0-1.8,1.172l-.008.133a.9.9,0,0,0,.3.7A1.153,1.153,0,0,0,60.527,15.43Zm10.125-.766a.727.727,0,0,0-.41-.652,4.659,4.659,0,0,0-1.316-.426q-3.016-.633-3.016-2.562a2.323,2.323,0,0,1,.934-1.879,3.766,3.766,0,0,1,2.441-.754,4.053,4.053,0,0,1,2.574.758,2.388,2.388,0,0,1,.965,1.969H70.566a1.092,1.092,0,0,0-.312-.8A1.322,1.322,0,0,0,69.277,10a1.351,1.351,0,0,0-.883.258.814.814,0,0,0-.312.656.7.7,0,0,0,.355.605,3.657,3.657,0,0,0,1.2.4,9.8,9.8,0,0,1,1.422.379,2.336,2.336,0,0,1,1.789,2.273,2.2,2.2,0,0,1-.992,1.871,4.28,4.28,0,0,1-2.562.715,4.47,4.47,0,0,1-1.887-.379,3.166,3.166,0,0,1-1.293-1.039,2.414,2.414,0,0,1-.469-1.426h2.141a1.179,1.179,0,0,0,.445.922,1.766,1.766,0,0,0,1.109.32,1.635,1.635,0,0,0,.98-.246A.766.766,0,0,0,70.652,14.664Z" transform="translate(406 3136)" fill="#12263f"/>
    <path id="Trazado_678196" data-name="Trazado 678196" d="M32.117,17H29.773V12.125H25.2V17H22.859V5.625H25.2v4.609h4.57V5.625h2.344Zm1.547-4.3a5.013,5.013,0,0,1,.484-2.242A3.546,3.546,0,0,1,35.543,8.93a4.069,4.069,0,0,1,2.113-.539,3.849,3.849,0,0,1,2.793,1.047,4.2,4.2,0,0,1,1.207,2.844l.016.578a4.418,4.418,0,0,1-1.086,3.121,4.209,4.209,0,0,1-5.832,0,4.5,4.5,0,0,1-1.09-3.187Zm2.258.16a3.16,3.16,0,0,0,.453,1.843,1.628,1.628,0,0,0,2.578.008,3.457,3.457,0,0,0,.461-2.015,3.128,3.128,0,0,0-.461-1.831,1.5,1.5,0,0,0-1.3-.649,1.474,1.474,0,0,0-1.281.646A3.516,3.516,0,0,0,35.922,12.856Zm9.531-4.309v8.914a3.024,3.024,0,0,1-.742,2.176,2.821,2.821,0,0,1-2.141.777,4.591,4.591,0,0,1-1.117-.133V18.492a4.238,4.238,0,0,0,.711.07q1.023,0,1.023-1.086V8.547ZM43.008,6.359a1.112,1.112,0,0,1,.34-.836,1.47,1.47,0,0,1,1.852,0,1.112,1.112,0,0,1,.34.836,1.108,1.108,0,0,1-.348.844,1.448,1.448,0,0,1-1.836,0A1.108,1.108,0,0,1,43.008,6.359ZM52.117,17a2.507,2.507,0,0,1-.227-.758,2.732,2.732,0,0,1-2.133.914,3,3,0,0,1-2.059-.719,2.312,2.312,0,0,1-.816-1.812,2.389,2.389,0,0,1,1-2.062,4.915,4.915,0,0,1,2.879-.727H51.8v-.484a1.393,1.393,0,0,0-.3-.937,1.183,1.183,0,0,0-.949-.352,1.345,1.345,0,0,0-.895.273.929.929,0,0,0-.324.75H47.07a2.268,2.268,0,0,1,.453-1.359,3,3,0,0,1,1.281-.98,4.669,4.669,0,0,1,1.859-.355,3.689,3.689,0,0,1,2.48.785,2.747,2.747,0,0,1,.918,2.207v3.664a4.041,4.041,0,0,0,.336,1.82V17ZM50.25,15.43a1.945,1.945,0,0,0,.922-.223,1.462,1.462,0,0,0,.625-.6V13.156h-.844q-1.7,0-1.8,1.172l-.008.133a.9.9,0,0,0,.3.7A1.153,1.153,0,0,0,50.25,15.43Zm10.125-.766a.727.727,0,0,0-.41-.652,4.659,4.659,0,0,0-1.316-.426q-3.016-.633-3.016-2.562a2.323,2.323,0,0,1,.934-1.879,3.766,3.766,0,0,1,2.441-.754,4.053,4.053,0,0,1,2.574.758,2.388,2.388,0,0,1,.965,1.969H60.289a1.092,1.092,0,0,0-.312-.8A1.322,1.322,0,0,0,59,10a1.351,1.351,0,0,0-.883.258.814.814,0,0,0-.312.656.7.7,0,0,0,.355.605,3.657,3.657,0,0,0,1.2.4,9.8,9.8,0,0,1,1.422.379A2.336,2.336,0,0,1,62.57,14.57a2.2,2.2,0,0,1-.992,1.871,4.28,4.28,0,0,1-2.562.715,4.47,4.47,0,0,1-1.887-.379,3.166,3.166,0,0,1-1.293-1.039,2.414,2.414,0,0,1-.469-1.426h2.141a1.179,1.179,0,0,0,.445.922,1.766,1.766,0,0,0,1.109.32,1.635,1.635,0,0,0,.98-.246A.766.766,0,0,0,60.375,14.664Z" transform="translate(685 3136)" fill="#12263f"/>
    <path id="Trazado_678197" data-name="Trazado 678197" d="M23.531,12.836H21.664V17H19.32V5.625h4.227a4.778,4.778,0,0,1,3.109.9A3.1,3.1,0,0,1,27.75,9.063a3.5,3.5,0,0,1-.5,1.941,3.437,3.437,0,0,1-1.527,1.238l2.461,4.648V17H25.664Zm-1.867-1.9h1.891a1.936,1.936,0,0,0,1.367-.449,1.606,1.606,0,0,0,.484-1.238,1.719,1.719,0,0,0-.457-1.266,1.9,1.9,0,0,0-1.4-.461H21.664ZM34.281,17a2.507,2.507,0,0,1-.227-.758,2.732,2.732,0,0,1-2.133.914,3,3,0,0,1-2.059-.719,2.312,2.312,0,0,1-.816-1.812,2.389,2.389,0,0,1,1-2.062,4.915,4.915,0,0,1,2.879-.727h1.039v-.484a1.393,1.393,0,0,0-.3-.937,1.183,1.183,0,0,0-.949-.352,1.345,1.345,0,0,0-.895.273.929.929,0,0,0-.324.75H29.234a2.268,2.268,0,0,1,.453-1.359,3,3,0,0,1,1.281-.98,4.669,4.669,0,0,1,1.859-.355,3.689,3.689,0,0,1,2.48.785,2.747,2.747,0,0,1,.918,2.207v3.664a4.041,4.041,0,0,0,.336,1.82V17Zm-1.867-1.57a1.945,1.945,0,0,0,.922-.223,1.462,1.462,0,0,0,.625-.6V13.156h-.844q-1.7,0-1.8,1.172l-.008.133a.9.9,0,0,0,.3.7A1.153,1.153,0,0,0,32.414,15.43ZM40.4,17H38.141V8.547H40.4ZM39.734,5.117H42.2L40.031,7.539H38.2Zm6.125,10.219a1.481,1.481,0,0,0,1.016-.344,1.2,1.2,0,0,0,.406-.914H49.4a2.9,2.9,0,0,1-.469,1.574,3.093,3.093,0,0,1-1.262,1.109,3.949,3.949,0,0,1-1.77.395A3.67,3.67,0,0,1,43.039,16a4.56,4.56,0,0,1-1.047-3.184v-.148a4.508,4.508,0,0,1,1.039-3.117,3.627,3.627,0,0,1,2.852-1.164,3.555,3.555,0,0,1,2.543.9,3.2,3.2,0,0,1,.973,2.4H47.281a1.551,1.551,0,0,0-.406-1.072,1.51,1.51,0,0,0-2.223.163,3.333,3.333,0,0,0-.4,1.866v.235a3.375,3.375,0,0,0,.4,1.878A1.377,1.377,0,0,0,45.859,15.336Zm8.719,1.82a4.15,4.15,0,0,1-3.027-1.141,4.054,4.054,0,0,1-1.168-3.039v-.219a5.106,5.106,0,0,1,.492-2.277A3.612,3.612,0,0,1,52.27,8.934a3.914,3.914,0,0,1,2.059-.543,3.508,3.508,0,0,1,2.73,1.094,4.444,4.444,0,0,1,1,3.1v.922H52.672a2.1,2.1,0,0,0,.66,1.328,2,2,0,0,0,1.395.5,2.437,2.437,0,0,0,2.039-.945l1.109,1.242A3.389,3.389,0,0,1,56.5,16.754,4.511,4.511,0,0,1,54.578,17.156Zm-.258-6.945a1.411,1.411,0,0,0-1.09.455,2.357,2.357,0,0,0-.535,1.3h3.141v-.181a1.681,1.681,0,0,0-.406-1.165A1.456,1.456,0,0,0,54.32,10.211Zm9.594,4.453a.727.727,0,0,0-.41-.652,4.659,4.659,0,0,0-1.316-.426q-3.016-.633-3.016-2.562a2.323,2.323,0,0,1,.934-1.879,3.766,3.766,0,0,1,2.441-.754,4.053,4.053,0,0,1,2.574.758,2.388,2.388,0,0,1,.965,1.969H63.828a1.092,1.092,0,0,0-.312-.8A1.322,1.322,0,0,0,62.539,10a1.351,1.351,0,0,0-.883.258.814.814,0,0,0-.312.656.7.7,0,0,0,.355.605,3.657,3.657,0,0,0,1.2.4,9.8,9.8,0,0,1,1.422.379,2.336,2.336,0,0,1,1.789,2.273,2.2,2.2,0,0,1-.992,1.871,4.28,4.28,0,0,1-2.562.715,4.47,4.47,0,0,1-1.887-.379,3.166,3.166,0,0,1-1.293-1.039,2.414,2.414,0,0,1-.469-1.426h2.141a1.179,1.179,0,0,0,.445.922,1.766,1.766,0,0,0,1.109.32,1.635,1.635,0,0,0,.98-.246A.766.766,0,0,0,63.914,14.664Z" transform="translate(968 3136)" fill="#12263f"/>
    <path id="Trazado_678198" data-name="Trazado 678198" d="M33.531,7.523H30.047V17H27.7V7.523H24.266v-1.9h9.266ZM38.3,17a2.507,2.507,0,0,1-.227-.758,2.732,2.732,0,0,1-2.133.914,3,3,0,0,1-2.059-.719,2.312,2.312,0,0,1-.816-1.812,2.389,2.389,0,0,1,1-2.062,4.915,4.915,0,0,1,2.879-.727h1.039v-.484a1.393,1.393,0,0,0-.3-.937,1.183,1.183,0,0,0-.949-.352,1.345,1.345,0,0,0-.895.273.929.929,0,0,0-.324.75H33.258a2.268,2.268,0,0,1,.453-1.359,3,3,0,0,1,1.281-.98,4.669,4.669,0,0,1,1.859-.355,3.689,3.689,0,0,1,2.48.785,2.747,2.747,0,0,1,.918,2.207v3.664a4.041,4.041,0,0,0,.336,1.82V17Zm-1.867-1.57a1.945,1.945,0,0,0,.922-.223,1.462,1.462,0,0,0,.625-.6V13.156h-.844q-1.7,0-1.8,1.172l-.008.133a.9.9,0,0,0,.3.7A1.153,1.153,0,0,0,36.438,15.43ZM44.367,17H42.1V5h2.266Zm4.242,0H46.344V5h2.266Zm1.508-4.3a5.013,5.013,0,0,1,.484-2.242A3.546,3.546,0,0,1,52,8.93a4.069,4.069,0,0,1,2.113-.539A3.849,3.849,0,0,1,56.9,9.438a4.2,4.2,0,0,1,1.207,2.844l.016.578a4.418,4.418,0,0,1-1.086,3.121,4.209,4.209,0,0,1-5.832,0,4.5,4.5,0,0,1-1.09-3.187Zm2.258.16a3.16,3.16,0,0,0,.453,1.843,1.628,1.628,0,0,0,2.578.008,3.457,3.457,0,0,0,.461-2.015,3.128,3.128,0,0,0-.461-1.831,1.5,1.5,0,0,0-1.3-.649,1.474,1.474,0,0,0-1.281.646A3.516,3.516,0,0,0,52.375,12.856Zm11.719,1.808a.727.727,0,0,0-.41-.652,4.659,4.659,0,0,0-1.316-.426q-3.016-.633-3.016-2.562a2.323,2.323,0,0,1,.934-1.879,3.766,3.766,0,0,1,2.441-.754,4.053,4.053,0,0,1,2.574.758,2.388,2.388,0,0,1,.965,1.969H64.008a1.092,1.092,0,0,0-.312-.8A1.322,1.322,0,0,0,62.719,10a1.351,1.351,0,0,0-.883.258.814.814,0,0,0-.312.656.7.7,0,0,0,.355.605,3.657,3.657,0,0,0,1.2.4A9.8,9.8,0,0,1,64.5,12.3a2.336,2.336,0,0,1,1.789,2.273,2.2,2.2,0,0,1-.992,1.871,4.28,4.28,0,0,1-2.562.715,4.47,4.47,0,0,1-1.887-.379,3.166,3.166,0,0,1-1.293-1.039,2.414,2.414,0,0,1-.469-1.426h2.141a1.179,1.179,0,0,0,.445.922,1.766,1.766,0,0,0,1.109.32,1.635,1.635,0,0,0,.98-.246A.766.766,0,0,0,64.094,14.664Zm7.734-2.289A11.99,11.99,0,0,1,72.3,8.969a8.989,8.989,0,0,1,1.406-2.863,5.251,5.251,0,0,1,2.016-1.73l.438,1.219A5.438,5.438,0,0,0,74.383,8.2a12.082,12.082,0,0,0-.641,4.125v.242a12.313,12.313,0,0,0,.633,4.141,5.544,5.544,0,0,0,1.789,2.648l-.437,1.2a5.253,5.253,0,0,1-1.98-1.684,8.838,8.838,0,0,1-1.4-2.785,11.918,11.918,0,0,1-.516-3.3ZM82.242,17a2.507,2.507,0,0,1-.227-.758,2.732,2.732,0,0,1-2.133.914,3,3,0,0,1-2.059-.719,2.312,2.312,0,0,1-.816-1.812,2.389,2.389,0,0,1,1-2.062,4.915,4.915,0,0,1,2.879-.727h1.039v-.484a1.393,1.393,0,0,0-.3-.937,1.183,1.183,0,0,0-.949-.352,1.345,1.345,0,0,0-.895.273.929.929,0,0,0-.324.75H77.2a2.268,2.268,0,0,1,.453-1.359,3,3,0,0,1,1.281-.98,4.669,4.669,0,0,1,1.859-.355,3.689,3.689,0,0,1,2.48.785,2.747,2.747,0,0,1,.918,2.207v3.664a4.041,4.041,0,0,0,.336,1.82V17Zm-1.867-1.57a1.945,1.945,0,0,0,.922-.223,1.462,1.462,0,0,0,.625-.6V13.156h-.844q-1.7,0-1.8,1.172l-.008.133a.9.9,0,0,0,.3.7A1.153,1.153,0,0,0,80.375,15.43Zm8.766-4.359,1.422-2.523h2.414L90.57,12.688,93.078,17H90.656l-1.508-2.656L87.648,17h-2.43l2.508-4.312-2.4-4.141H87.75Zm7.3,5.93H94.18V8.547h2.266Zm-2.4-10.641a1.112,1.112,0,0,1,.34-.836,1.465,1.465,0,0,1,1.848,0,1.105,1.105,0,0,1,.344.836,1.108,1.108,0,0,1-.348.844,1.448,1.448,0,0,1-1.836,0A1.108,1.108,0,0,1,94.047,6.359ZM97.953,12.7a5.013,5.013,0,0,1,.484-2.242A3.546,3.546,0,0,1,99.832,8.93a4.069,4.069,0,0,1,2.113-.539,3.849,3.849,0,0,1,2.793,1.047,4.2,4.2,0,0,1,1.207,2.844l.016.578a4.418,4.418,0,0,1-1.086,3.121,4.209,4.209,0,0,1-5.832,0,4.5,4.5,0,0,1-1.09-3.187Zm2.258.16a3.16,3.16,0,0,0,.453,1.843,1.628,1.628,0,0,0,2.578.008,3.457,3.457,0,0,0,.461-2.015,3.128,3.128,0,0,0-.461-1.831,1.5,1.5,0,0,0-1.3-.649,1.474,1.474,0,0,0-1.281.646A3.516,3.516,0,0,0,100.211,12.856Zm9.258-4.309.07.945a2.971,2.971,0,0,1,2.43-1.1,2.255,2.255,0,0,1,2.242,1.289,2.9,2.9,0,0,1,2.539-1.289,2.521,2.521,0,0,1,2.047.8,3.681,3.681,0,0,1,.672,2.41V17H117.2V11.609a1.61,1.61,0,0,0-.281-1.051,1.246,1.246,0,0,0-.992-.332,1.409,1.409,0,0,0-1.406.969l.008,5.8h-2.258V11.617a1.59,1.59,0,0,0-.289-1.062,1.259,1.259,0,0,0-.984-.328,1.463,1.463,0,0,0-1.391.8V17h-2.258V8.547ZM126.1,17a2.507,2.507,0,0,1-.227-.758,2.732,2.732,0,0,1-2.133.914,3,3,0,0,1-2.059-.719,2.312,2.312,0,0,1-.816-1.812,2.389,2.389,0,0,1,1-2.062,4.915,4.915,0,0,1,2.879-.727h1.039v-.484a1.393,1.393,0,0,0-.3-.937,1.183,1.183,0,0,0-.949-.352,1.345,1.345,0,0,0-.895.273.929.929,0,0,0-.324.75h-2.258a2.268,2.268,0,0,1,.453-1.359,3,3,0,0,1,1.281-.98,4.669,4.669,0,0,1,1.859-.355,3.689,3.689,0,0,1,2.48.785,2.747,2.747,0,0,1,.918,2.207v3.664a4.041,4.041,0,0,0,.336,1.82V17Zm-1.867-1.57a1.945,1.945,0,0,0,.922-.223,1.462,1.462,0,0,0,.625-.6V13.156h-.844q-1.7,0-1.8,1.172l-.008.133a.9.9,0,0,0,.3.7A1.153,1.153,0,0,0,124.234,15.43Zm10.125-.766a.727.727,0,0,0-.41-.652,4.659,4.659,0,0,0-1.316-.426q-3.016-.633-3.016-2.562a2.323,2.323,0,0,1,.934-1.879,3.766,3.766,0,0,1,2.441-.754,4.053,4.053,0,0,1,2.574.758,2.388,2.388,0,0,1,.965,1.969h-2.258a1.092,1.092,0,0,0-.312-.8,1.322,1.322,0,0,0-.977-.316,1.351,1.351,0,0,0-.883.258.814.814,0,0,0-.312.656.7.7,0,0,0,.355.605,3.657,3.657,0,0,0,1.2.4,9.8,9.8,0,0,1,1.422.379,2.336,2.336,0,0,1,1.789,2.273,2.205,2.205,0,0,1-.992,1.871,4.28,4.28,0,0,1-2.562.715,4.47,4.47,0,0,1-1.887-.379,3.166,3.166,0,0,1-1.293-1.039,2.414,2.414,0,0,1-.469-1.426h2.141a1.179,1.179,0,0,0,.445.922,1.766,1.766,0,0,0,1.109.32,1.635,1.635,0,0,0,.98-.246A.766.766,0,0,0,134.359,14.664Zm4.234,5.188-1.18-.617.281-.508a4.059,4.059,0,0,0,.539-1.9v-1.75h1.906l-.008,1.563a4.059,4.059,0,0,1-.437,1.75A4.486,4.486,0,0,1,138.594,19.852ZM10.051,24.469v2.078H11.5V28.2H10.051v4.219a1.007,1.007,0,0,0,.18.672.9.9,0,0,0,.688.2,3.6,3.6,0,0,0,.664-.055v1.711a4.648,4.648,0,0,1-1.367.2,2.156,2.156,0,0,1-2.422-2.4V28.2H6.559V26.547H7.793V24.469Zm7.766,9.672A2.831,2.831,0,0,1,15.5,35.156a2.67,2.67,0,0,1-2.074-.781,3.335,3.335,0,0,1-.73-2.289V26.547h2.258v5.467q0,1.322,1.2,1.322a1.63,1.63,0,0,0,1.578-.8V26.547H20V35H17.879Zm11.508-3.289a5.119,5.119,0,0,1-.867,3.168,2.872,2.872,0,0,1-2.422,1.137,2.639,2.639,0,0,1-2.2-1.055l-.1.9H21.707V23h2.258v4.3a2.571,2.571,0,0,1,2.055-.914,2.9,2.9,0,0,1,2.426,1.137,5.126,5.126,0,0,1,.879,3.2Zm-2.258-.164a3.363,3.363,0,0,0-.406-1.871,1.374,1.374,0,0,0-1.211-.59,1.489,1.489,0,0,0-1.484.883v3.336a1.509,1.509,0,0,0,1.5.891A1.394,1.394,0,0,0,26.9,32.258,5.562,5.562,0,0,0,27.066,30.688Zm7.539,4.469a4.15,4.15,0,0,1-3.027-1.141,4.054,4.054,0,0,1-1.168-3.039v-.219A5.106,5.106,0,0,1,30.9,28.48,3.612,3.612,0,0,1,32.3,26.934a3.914,3.914,0,0,1,2.059-.543,3.508,3.508,0,0,1,2.73,1.094,4.444,4.444,0,0,1,1,3.1v.922H32.7a2.1,2.1,0,0,0,.66,1.328,2,2,0,0,0,1.395.5,2.437,2.437,0,0,0,2.039-.945L37.9,33.633a3.389,3.389,0,0,1-1.375,1.121A4.511,4.511,0,0,1,34.605,35.156Zm-.258-6.945a1.411,1.411,0,0,0-1.09.455,2.357,2.357,0,0,0-.535,1.3h3.141v-.181a1.681,1.681,0,0,0-.406-1.165A1.456,1.456,0,0,0,34.348,28.211Zm.2-5.211h2.461l-2.164,2.422H33.012Zm9.563,5.664A6.134,6.134,0,0,0,43.3,28.6a1.654,1.654,0,0,0-1.68.867V35H39.363V26.547H41.5l.063,1.008a2.092,2.092,0,0,1,1.883-1.164,2.366,2.366,0,0,1,.7.1Zm4.453,4.672a1.481,1.481,0,0,0,1.016-.344,1.2,1.2,0,0,0,.406-.914h2.117a2.9,2.9,0,0,1-.469,1.574,3.093,3.093,0,0,1-1.262,1.109,3.949,3.949,0,0,1-1.77.395A3.67,3.67,0,0,1,45.746,34,4.56,4.56,0,0,1,44.7,30.82v-.148a4.508,4.508,0,0,1,1.039-3.117,3.627,3.627,0,0,1,2.852-1.164,3.555,3.555,0,0,1,2.543.9,3.2,3.2,0,0,1,.973,2.4H49.988a1.551,1.551,0,0,0-.406-1.072,1.51,1.51,0,0,0-2.223.163,3.333,3.333,0,0,0-.4,1.866v.235a3.375,3.375,0,0,0,.4,1.878A1.377,1.377,0,0,0,48.566,33.336Zm9.891.8a2.831,2.831,0,0,1-2.312,1.016,2.67,2.67,0,0,1-2.074-.781,3.335,3.335,0,0,1-.73-2.289V26.547H55.6v5.467q0,1.322,1.2,1.322a1.63,1.63,0,0,0,1.578-.8V26.547h2.266V35H58.52ZM64.73,35H62.465V23H64.73Zm1.508-4.3a5.013,5.013,0,0,1,.484-2.242,3.546,3.546,0,0,1,1.395-1.523,4.069,4.069,0,0,1,2.113-.539,3.849,3.849,0,0,1,2.793,1.047,4.2,4.2,0,0,1,1.207,2.844l.016.578A4.418,4.418,0,0,1,73.16,33.98a4.209,4.209,0,0,1-5.832,0,4.5,4.5,0,0,1-1.09-3.187Zm2.258.16a3.16,3.16,0,0,0,.453,1.843,1.628,1.628,0,0,0,2.578.008,3.457,3.457,0,0,0,.461-2.015,3.128,3.128,0,0,0-.461-1.831,1.5,1.5,0,0,0-1.3-.649,1.474,1.474,0,0,0-1.281.646A3.516,3.516,0,0,0,68.5,30.856Zm7.727,7-1.18-.617.281-.508a4.059,4.059,0,0,0,.539-1.9v-1.75H77.77l-.008,1.563a4.059,4.059,0,0,1-.437,1.75A4.486,4.486,0,0,1,76.223,37.852Zm11.2-2.7a4.15,4.15,0,0,1-3.027-1.141,4.054,4.054,0,0,1-1.168-3.039v-.219a5.106,5.106,0,0,1,.492-2.277,3.612,3.612,0,0,1,1.395-1.547,3.914,3.914,0,0,1,2.059-.543,3.508,3.508,0,0,1,2.73,1.094,4.444,4.444,0,0,1,1,3.1v.922H85.512a2.1,2.1,0,0,0,.66,1.328,2,2,0,0,0,1.395.5,2.437,2.437,0,0,0,2.039-.945l1.109,1.242a3.389,3.389,0,0,1-1.375,1.121A4.511,4.511,0,0,1,87.418,35.156Zm-.258-6.945a1.411,1.411,0,0,0-1.09.455,2.357,2.357,0,0,0-.535,1.3h3.141v-.181a1.681,1.681,0,0,0-.406-1.165A1.456,1.456,0,0,0,87.16,28.211Zm9.594,4.453a.727.727,0,0,0-.41-.652,4.659,4.659,0,0,0-1.316-.426q-3.016-.633-3.016-2.562a2.323,2.323,0,0,1,.934-1.879,3.766,3.766,0,0,1,2.441-.754,4.053,4.053,0,0,1,2.574.758,2.388,2.388,0,0,1,.965,1.969H96.668a1.092,1.092,0,0,0-.312-.8A1.322,1.322,0,0,0,95.379,28a1.351,1.351,0,0,0-.883.258.814.814,0,0,0-.312.656.7.7,0,0,0,.355.605,3.657,3.657,0,0,0,1.2.4,9.8,9.8,0,0,1,1.422.379,2.336,2.336,0,0,1,1.789,2.273,2.2,2.2,0,0,1-.992,1.871,4.28,4.28,0,0,1-2.562.715,4.47,4.47,0,0,1-1.887-.379,3.166,3.166,0,0,1-1.293-1.039,2.414,2.414,0,0,1-.469-1.426h2.141a1.179,1.179,0,0,0,.445.922,1.766,1.766,0,0,0,1.109.32,1.635,1.635,0,0,0,.98-.246A.766.766,0,0,0,96.754,32.664Zm6.352-8.2v2.078h1.445V28.2h-1.445v4.219a1.007,1.007,0,0,0,.18.672.9.9,0,0,0,.688.2,3.6,3.6,0,0,0,.664-.055v1.711a4.648,4.648,0,0,1-1.367.2,2.156,2.156,0,0,1-2.422-2.4V28.2H99.613V26.547h1.234V24.469Zm2.117,6.227a5.013,5.013,0,0,1,.484-2.242A3.546,3.546,0,0,1,107.1,26.93a4.069,4.069,0,0,1,2.113-.539,3.849,3.849,0,0,1,2.793,1.047,4.2,4.2,0,0,1,1.207,2.844l.016.578a4.418,4.418,0,0,1-1.086,3.121,4.209,4.209,0,0,1-5.832,0,4.5,4.5,0,0,1-1.09-3.187Zm2.258.16a3.16,3.16,0,0,0,.453,1.843,1.628,1.628,0,0,0,2.578.008,3.457,3.457,0,0,0,.461-2.015,3.128,3.128,0,0,0-.461-1.831,1.5,1.5,0,0,0-1.3-.649,1.474,1.474,0,0,0-1.281.646A3.516,3.516,0,0,0,107.48,30.856ZM117,35h-2.266V23H117Zm1.508-4.3A5.013,5.013,0,0,1,119,28.453a3.546,3.546,0,0,1,1.395-1.523,4.069,4.069,0,0,1,2.113-.539,3.849,3.849,0,0,1,2.793,1.047,4.2,4.2,0,0,1,1.207,2.844l.016.578a4.418,4.418,0,0,1-1.086,3.121,4.209,4.209,0,0,1-5.832,0,4.5,4.5,0,0,1-1.09-3.187Zm2.258.16a3.16,3.16,0,0,0,.453,1.843,1.628,1.628,0,0,0,2.578.008,3.457,3.457,0,0,0,.461-2.015,3.128,3.128,0,0,0-.461-1.831,1.5,1.5,0,0,0-1.3-.649,1.474,1.474,0,0,0-1.281.646A3.516,3.516,0,0,0,120.77,30.856Zm9.219-4.309.07.977a2.951,2.951,0,0,1,2.43-1.133,2.453,2.453,0,0,1,2,.789,3.682,3.682,0,0,1,.672,2.359V35H132.9V29.594a1.465,1.465,0,0,0-.312-1.043,1.4,1.4,0,0,0-1.039-.324,1.553,1.553,0,0,0-1.43.813V35h-2.258V26.547Zm10.773,8.609a4.15,4.15,0,0,1-3.027-1.141,4.054,4.054,0,0,1-1.168-3.039v-.219a5.106,5.106,0,0,1,.492-2.277,3.612,3.612,0,0,1,1.395-1.547,3.914,3.914,0,0,1,2.059-.543,3.508,3.508,0,0,1,2.73,1.094,4.444,4.444,0,0,1,1,3.1v.922h-5.383a2.1,2.1,0,0,0,.66,1.328,2,2,0,0,0,1.395.5,2.437,2.437,0,0,0,2.039-.945l1.109,1.242a3.389,3.389,0,0,1-1.375,1.121A4.511,4.511,0,0,1,140.762,35.156Zm-.258-6.945a1.411,1.411,0,0,0-1.09.455,2.357,2.357,0,0,0-.535,1.3h3.141v-.181a1.681,1.681,0,0,0-.406-1.165A1.456,1.456,0,0,0,140.5,28.211Zm9.594,4.453a.727.727,0,0,0-.41-.652,4.659,4.659,0,0,0-1.316-.426q-3.016-.633-3.016-2.562a2.323,2.323,0,0,1,.934-1.879,3.766,3.766,0,0,1,2.441-.754,4.053,4.053,0,0,1,2.574.758,2.388,2.388,0,0,1,.965,1.969h-2.258a1.092,1.092,0,0,0-.312-.8,1.322,1.322,0,0,0-.977-.316,1.351,1.351,0,0,0-.883.258.814.814,0,0,0-.312.656.7.7,0,0,0,.355.605,3.657,3.657,0,0,0,1.2.4,9.8,9.8,0,0,1,1.422.379,2.336,2.336,0,0,1,1.789,2.273,2.205,2.205,0,0,1-.992,1.871,4.28,4.28,0,0,1-2.562.715,4.47,4.47,0,0,1-1.887-.379,3.166,3.166,0,0,1-1.293-1.039,2.414,2.414,0,0,1-.469-1.426h2.141a1.179,1.179,0,0,0,.445.922,1.766,1.766,0,0,0,1.109.32,1.635,1.635,0,0,0,.98-.246A.766.766,0,0,0,150.1,32.664Zm7.539-2.109a11.377,11.377,0,0,1-.508,3.4,9.225,9.225,0,0,1-1.461,2.883,5.264,5.264,0,0,1-2.039,1.719l-.437-1.2a5.494,5.494,0,0,0,1.75-2.578,11.939,11.939,0,0,0,.664-4.008v-.414a12.208,12.208,0,0,0-.637-4.117,5.727,5.727,0,0,0-1.777-2.672l.438-1.2a5.265,5.265,0,0,1,2,1.672,9.106,9.106,0,0,1,1.461,2.82,11.3,11.3,0,0,1,.543,3.336Z" transform="translate(507 2955)" fill="#12263f"/>
    <path id="Trazado_678199" data-name="Trazado 678199" d="M31.844,10.75l2.367-5.125h2.563l-3.734,7.25V17H30.656V12.875l-3.734-7.25h2.57Zm9.711,6.406a4.15,4.15,0,0,1-3.027-1.141,4.054,4.054,0,0,1-1.168-3.039v-.219a5.106,5.106,0,0,1,.492-2.277,3.612,3.612,0,0,1,1.395-1.547A3.914,3.914,0,0,1,41.3,8.391a3.508,3.508,0,0,1,2.73,1.094,4.444,4.444,0,0,1,1,3.1v.922H39.648a2.1,2.1,0,0,0,.66,1.328,2,2,0,0,0,1.395.5,2.437,2.437,0,0,0,2.039-.945l1.109,1.242a3.389,3.389,0,0,1-1.375,1.121A4.511,4.511,0,0,1,41.555,17.156ZM41.3,10.211a1.411,1.411,0,0,0-1.09.455,2.357,2.357,0,0,0-.535,1.3h3.141v-.181a1.681,1.681,0,0,0-.406-1.165A1.456,1.456,0,0,0,41.3,10.211ZM48.43,8.547l.07.945a2.971,2.971,0,0,1,2.43-1.1A2.255,2.255,0,0,1,53.172,9.68a2.9,2.9,0,0,1,2.539-1.289,2.521,2.521,0,0,1,2.047.8,3.681,3.681,0,0,1,.672,2.41V17H56.164V11.609a1.61,1.61,0,0,0-.281-1.051,1.246,1.246,0,0,0-.992-.332,1.409,1.409,0,0,0-1.406.969l.008,5.8H51.234V11.617a1.59,1.59,0,0,0-.289-1.062,1.259,1.259,0,0,0-.984-.328,1.463,1.463,0,0,0-1.391.8V17H46.313V8.547ZM65.063,17a2.507,2.507,0,0,1-.227-.758,2.732,2.732,0,0,1-2.133.914,3,3,0,0,1-2.059-.719,2.312,2.312,0,0,1-.816-1.812,2.389,2.389,0,0,1,1-2.062,4.915,4.915,0,0,1,2.879-.727h1.039v-.484a1.393,1.393,0,0,0-.3-.937,1.183,1.183,0,0,0-.949-.352,1.345,1.345,0,0,0-.895.273.929.929,0,0,0-.324.75H60.016a2.268,2.268,0,0,1,.453-1.359,3,3,0,0,1,1.281-.98,4.669,4.669,0,0,1,1.859-.355,3.689,3.689,0,0,1,2.48.785,2.747,2.747,0,0,1,.918,2.207v3.664a4.041,4.041,0,0,0,.336,1.82V17ZM63.2,15.43a1.945,1.945,0,0,0,.922-.223,1.462,1.462,0,0,0,.625-.6V13.156H63.9q-1.7,0-1.8,1.172l-.008.133a.9.9,0,0,0,.3.7A1.153,1.153,0,0,0,63.2,15.43Zm10.125-.766a.727.727,0,0,0-.41-.652,4.659,4.659,0,0,0-1.316-.426q-3.016-.633-3.016-2.562a2.323,2.323,0,0,1,.934-1.879,3.766,3.766,0,0,1,2.441-.754,4.053,4.053,0,0,1,2.574.758,2.388,2.388,0,0,1,.965,1.969H73.234a1.092,1.092,0,0,0-.312-.8A1.322,1.322,0,0,0,71.945,10a1.351,1.351,0,0,0-.883.258.814.814,0,0,0-.312.656.7.7,0,0,0,.355.605,3.657,3.657,0,0,0,1.2.4,9.8,9.8,0,0,1,1.422.379,2.336,2.336,0,0,1,1.789,2.273,2.2,2.2,0,0,1-.992,1.871,4.28,4.28,0,0,1-2.562.715,4.47,4.47,0,0,1-1.887-.379,3.166,3.166,0,0,1-1.293-1.039,2.414,2.414,0,0,1-.469-1.426h2.141a1.179,1.179,0,0,0,.445.922,1.766,1.766,0,0,0,1.109.32,1.635,1.635,0,0,0,.98-.246A.766.766,0,0,0,73.32,14.664Zm7.734-2.289a11.99,11.99,0,0,1,.477-3.406,8.989,8.989,0,0,1,1.406-2.863,5.251,5.251,0,0,1,2.016-1.73l.438,1.219A5.438,5.438,0,0,0,83.609,8.2a12.082,12.082,0,0,0-.641,4.125v.242a12.313,12.313,0,0,0,.633,4.141,5.544,5.544,0,0,0,1.789,2.648l-.437,1.2a5.253,5.253,0,0,1-1.98-1.684,8.838,8.838,0,0,1-1.4-2.785,11.918,11.918,0,0,1-.516-3.3Zm13.133.477a5.119,5.119,0,0,1-.867,3.168A2.872,2.872,0,0,1,90.9,17.156,2.639,2.639,0,0,1,88.7,16.1l-.1.9H86.57V5h2.258V9.3a2.571,2.571,0,0,1,2.055-.914,2.9,2.9,0,0,1,2.426,1.137,5.126,5.126,0,0,1,.879,3.2Zm-2.258-.164a3.363,3.363,0,0,0-.406-1.871,1.374,1.374,0,0,0-1.211-.59,1.489,1.489,0,0,0-1.484.883v3.336a1.509,1.509,0,0,0,1.5.891,1.394,1.394,0,0,0,1.438-1.078A5.562,5.562,0,0,0,91.93,12.688Zm8.711,3.453a2.831,2.831,0,0,1-2.312,1.016,2.67,2.67,0,0,1-2.074-.781,3.335,3.335,0,0,1-.73-2.289V8.547h2.258v5.467q0,1.322,1.2,1.322a1.63,1.63,0,0,0,1.578-.8V8.547h2.266V17H100.7Zm6.273.859h-2.266V5h2.266Zm9.477-4.148a5.119,5.119,0,0,1-.867,3.168,2.872,2.872,0,0,1-2.422,1.137,2.639,2.639,0,0,1-2.2-1.055l-.1.9h-2.031V5h2.258V9.3a2.571,2.571,0,0,1,2.055-.914,2.9,2.9,0,0,1,2.426,1.137,5.126,5.126,0,0,1,.879,3.2Zm-2.258-.164a3.363,3.363,0,0,0-.406-1.871,1.374,1.374,0,0,0-1.211-.59,1.489,1.489,0,0,0-1.484.883v3.336a1.509,1.509,0,0,0,1.5.891,1.394,1.394,0,0,0,1.438-1.078A5.562,5.562,0,0,0,114.133,12.688Zm3.3.008a5.013,5.013,0,0,1,.484-2.242,3.546,3.546,0,0,1,1.395-1.523,4.069,4.069,0,0,1,2.113-.539,3.849,3.849,0,0,1,2.793,1.047,4.2,4.2,0,0,1,1.207,2.844l.016.578a4.418,4.418,0,0,1-1.086,3.121,4.209,4.209,0,0,1-5.832,0,4.5,4.5,0,0,1-1.09-3.187Zm2.258.16a3.16,3.16,0,0,0,.453,1.843,1.628,1.628,0,0,0,2.578.008,3.457,3.457,0,0,0,.461-2.015,3.128,3.128,0,0,0-.461-1.831,1.5,1.5,0,0,0-1.3-.649,1.474,1.474,0,0,0-1.281.646A3.516,3.516,0,0,0,119.688,12.856Zm11.719,1.808a.727.727,0,0,0-.41-.652,4.659,4.659,0,0,0-1.316-.426q-3.016-.633-3.016-2.562a2.323,2.323,0,0,1,.934-1.879,3.766,3.766,0,0,1,2.441-.754,4.053,4.053,0,0,1,2.574.758,2.388,2.388,0,0,1,.965,1.969H131.32a1.092,1.092,0,0,0-.312-.8,1.322,1.322,0,0,0-.977-.316,1.351,1.351,0,0,0-.883.258.814.814,0,0,0-.312.656.7.7,0,0,0,.355.605,3.657,3.657,0,0,0,1.2.4,9.8,9.8,0,0,1,1.422.379A2.336,2.336,0,0,1,133.6,14.57a2.205,2.205,0,0,1-.992,1.871,4.28,4.28,0,0,1-2.562.715,4.47,4.47,0,0,1-1.887-.379,3.166,3.166,0,0,1-1.293-1.039,2.414,2.414,0,0,1-.469-1.426h2.141a1.179,1.179,0,0,0,.445.922,1.766,1.766,0,0,0,1.109.32,1.635,1.635,0,0,0,.98-.246A.766.766,0,0,0,131.406,14.664Zm4.234,5.188-1.18-.617.281-.508a4.059,4.059,0,0,0,.539-1.9v-1.75h1.906l-.008,1.563a4.059,4.059,0,0,1-.437,1.75A4.486,4.486,0,0,1,135.641,19.852ZM55.59,35H53.324V26.547H55.59Zm-2.4-10.641a1.112,1.112,0,0,1,.34-.836,1.465,1.465,0,0,1,1.848,0,1.193,1.193,0,0,1,0,1.68,1.448,1.448,0,0,1-1.836,0A1.108,1.108,0,0,1,53.191,24.359Zm6.336,2.188.07.977a2.951,2.951,0,0,1,2.43-1.133,2.453,2.453,0,0,1,2,.789,3.682,3.682,0,0,1,.672,2.359V35H62.441V29.594a1.465,1.465,0,0,0-.312-1.043,1.4,1.4,0,0,0-1.039-.324,1.553,1.553,0,0,0-1.43.813V35H57.4V26.547Zm9.273,0v8.914a3.024,3.024,0,0,1-.742,2.176,2.821,2.821,0,0,1-2.141.777,4.591,4.591,0,0,1-1.117-.133V36.492a4.238,4.238,0,0,0,.711.07q1.023,0,1.023-1.086v-8.93Zm-2.445-2.187a1.112,1.112,0,0,1,.34-.836,1.47,1.47,0,0,1,1.852,0,1.2,1.2,0,0,1-.008,1.68,1.448,1.448,0,0,1-1.836,0A1.108,1.108,0,0,1,66.355,24.359Zm8.1,10.8a4.15,4.15,0,0,1-3.027-1.141,4.054,4.054,0,0,1-1.168-3.039v-.219a5.106,5.106,0,0,1,.492-2.277,3.612,3.612,0,0,1,1.395-1.547,3.914,3.914,0,0,1,2.059-.543,3.508,3.508,0,0,1,2.73,1.094,4.444,4.444,0,0,1,1,3.1v.922H72.551a2.1,2.1,0,0,0,.66,1.328,2,2,0,0,0,1.395.5,2.437,2.437,0,0,0,2.039-.945l1.109,1.242a3.389,3.389,0,0,1-1.375,1.121A4.511,4.511,0,0,1,74.457,35.156ZM74.2,28.211a1.411,1.411,0,0,0-1.09.455,2.357,2.357,0,0,0-.535,1.3h3.141v-.181a1.681,1.681,0,0,0-.406-1.165A1.456,1.456,0,0,0,74.2,28.211Zm9.766.453a6.134,6.134,0,0,0-.812-.062,1.654,1.654,0,0,0-1.68.867V35H79.215V26.547h2.133l.063,1.008a2.092,2.092,0,0,1,1.883-1.164,2.366,2.366,0,0,1,.7.1Zm4.18-4.2v2.078H89.59V28.2H88.145v4.219a1.007,1.007,0,0,0,.18.672.9.9,0,0,0,.688.2,3.6,3.6,0,0,0,.664-.055v1.711a4.648,4.648,0,0,1-1.367.2,2.156,2.156,0,0,1-2.422-2.4V28.2H84.652V26.547h1.234V24.469ZM90.262,30.7a5.013,5.013,0,0,1,.484-2.242,3.546,3.546,0,0,1,1.395-1.523,4.069,4.069,0,0,1,2.113-.539,3.849,3.849,0,0,1,2.793,1.047,4.2,4.2,0,0,1,1.207,2.844l.016.578a4.418,4.418,0,0,1-1.086,3.121,4.209,4.209,0,0,1-5.832,0,4.5,4.5,0,0,1-1.09-3.187Zm2.258.16a3.16,3.16,0,0,0,.453,1.843,1.628,1.628,0,0,0,2.578.008,3.457,3.457,0,0,0,.461-2.015,3.128,3.128,0,0,0-.461-1.831,1.5,1.5,0,0,0-1.3-.649,1.474,1.474,0,0,0-1.281.646A3.516,3.516,0,0,0,92.52,30.856Zm11.719,1.808a.727.727,0,0,0-.41-.652,4.659,4.659,0,0,0-1.316-.426Q99.5,30.953,99.5,29.023a2.323,2.323,0,0,1,.934-1.879,3.766,3.766,0,0,1,2.441-.754,4.053,4.053,0,0,1,2.574.758,2.388,2.388,0,0,1,.965,1.969h-2.258a1.092,1.092,0,0,0-.312-.8,1.322,1.322,0,0,0-.977-.316,1.351,1.351,0,0,0-.883.258.814.814,0,0,0-.312.656.7.7,0,0,0,.355.605,3.657,3.657,0,0,0,1.2.4,9.8,9.8,0,0,1,1.422.379,2.336,2.336,0,0,1,1.789,2.273,2.2,2.2,0,0,1-.992,1.871,4.28,4.28,0,0,1-2.562.715,4.47,4.47,0,0,1-1.887-.379A3.166,3.166,0,0,1,99.7,33.738a2.414,2.414,0,0,1-.469-1.426h2.141a1.179,1.179,0,0,0,.445.922,1.766,1.766,0,0,0,1.109.32,1.635,1.635,0,0,0,.98-.246A.766.766,0,0,0,104.238,32.664Zm7.539-2.109a11.377,11.377,0,0,1-.508,3.4,9.225,9.225,0,0,1-1.461,2.883,5.263,5.263,0,0,1-2.039,1.719l-.437-1.2a5.494,5.494,0,0,0,1.75-2.578,11.939,11.939,0,0,0,.664-4.008v-.414a12.209,12.209,0,0,0-.637-4.117,5.727,5.727,0,0,0-1.777-2.672l.438-1.2a5.265,5.265,0,0,1,2,1.672,9.106,9.106,0,0,1,1.461,2.82,11.3,11.3,0,0,1,.543,3.336Z" transform="translate(790 2955)" fill="#12263f"/>
    <path id="Trazado_678200" data-name="Trazado 678200" d="M27.379,12.836H25.512V17H23.168V5.625h4.227a4.778,4.778,0,0,1,3.109.9A3.1,3.1,0,0,1,31.6,9.063a3.5,3.5,0,0,1-.5,1.941,3.437,3.437,0,0,1-1.527,1.238l2.461,4.648V17H29.512Zm-1.867-1.9H27.4a1.936,1.936,0,0,0,1.367-.449,1.606,1.606,0,0,0,.484-1.238A1.719,1.719,0,0,0,28.8,7.984a1.9,1.9,0,0,0-1.4-.461H25.512ZM38.129,17a2.507,2.507,0,0,1-.227-.758,2.732,2.732,0,0,1-2.133.914,3,3,0,0,1-2.059-.719,2.312,2.312,0,0,1-.816-1.812,2.389,2.389,0,0,1,1-2.062,4.915,4.915,0,0,1,2.879-.727h1.039v-.484a1.393,1.393,0,0,0-.3-.937,1.183,1.183,0,0,0-.949-.352,1.345,1.345,0,0,0-.895.273.929.929,0,0,0-.324.75H33.082a2.268,2.268,0,0,1,.453-1.359,3,3,0,0,1,1.281-.98,4.669,4.669,0,0,1,1.859-.355,3.689,3.689,0,0,1,2.48.785,2.747,2.747,0,0,1,.918,2.207v3.664a4.041,4.041,0,0,0,.336,1.82V17Zm-1.867-1.57a1.945,1.945,0,0,0,.922-.223,1.462,1.462,0,0,0,.625-.6V13.156h-.844q-1.7,0-1.8,1.172l-.008.133a.9.9,0,0,0,.3.7A1.153,1.153,0,0,0,36.262,15.43Zm7.664-6.883.07.945a2.971,2.971,0,0,1,2.43-1.1A2.255,2.255,0,0,1,48.668,9.68a2.9,2.9,0,0,1,2.539-1.289,2.521,2.521,0,0,1,2.047.8,3.681,3.681,0,0,1,.672,2.41V17H51.66V11.609a1.61,1.61,0,0,0-.281-1.051,1.246,1.246,0,0,0-.992-.332,1.409,1.409,0,0,0-1.406.969l.008,5.8H46.73V11.617a1.59,1.59,0,0,0-.289-1.062,1.259,1.259,0,0,0-.984-.328,1.463,1.463,0,0,0-1.391.8V17H41.809V8.547ZM60.559,17a2.507,2.507,0,0,1-.227-.758,2.732,2.732,0,0,1-2.133.914,3,3,0,0,1-2.059-.719,2.312,2.312,0,0,1-.816-1.812,2.389,2.389,0,0,1,1-2.062,4.915,4.915,0,0,1,2.879-.727h1.039v-.484a1.393,1.393,0,0,0-.3-.937,1.183,1.183,0,0,0-.949-.352,1.345,1.345,0,0,0-.895.273.929.929,0,0,0-.324.75H55.512a2.268,2.268,0,0,1,.453-1.359,3,3,0,0,1,1.281-.98,4.669,4.669,0,0,1,1.859-.355,3.689,3.689,0,0,1,2.48.785,2.747,2.747,0,0,1,.918,2.207v3.664a4.041,4.041,0,0,0,.336,1.82V17Zm-1.867-1.57a1.945,1.945,0,0,0,.922-.223,1.462,1.462,0,0,0,.625-.6V13.156h-.844q-1.7,0-1.8,1.172l-.008.133a.9.9,0,0,0,.3.7A1.153,1.153,0,0,0,58.691,15.43Zm10.125-.766a.727.727,0,0,0-.41-.652,4.659,4.659,0,0,0-1.316-.426q-3.016-.633-3.016-2.562a2.323,2.323,0,0,1,.934-1.879,3.766,3.766,0,0,1,2.441-.754,4.053,4.053,0,0,1,2.574.758,2.388,2.388,0,0,1,.965,1.969H68.73a1.092,1.092,0,0,0-.312-.8A1.322,1.322,0,0,0,67.441,10a1.351,1.351,0,0,0-.883.258.814.814,0,0,0-.312.656.7.7,0,0,0,.355.605,3.657,3.657,0,0,0,1.2.4,9.8,9.8,0,0,1,1.422.379,2.336,2.336,0,0,1,1.789,2.273,2.2,2.2,0,0,1-.992,1.871,4.28,4.28,0,0,1-2.562.715,4.47,4.47,0,0,1-1.887-.379,3.166,3.166,0,0,1-1.293-1.039,2.414,2.414,0,0,1-.469-1.426h2.141a1.179,1.179,0,0,0,.445.922,1.766,1.766,0,0,0,1.109.32,1.635,1.635,0,0,0,.98-.246A.766.766,0,0,0,68.816,14.664Zm7.734-2.289a11.99,11.99,0,0,1,.477-3.406,8.989,8.989,0,0,1,1.406-2.863,5.251,5.251,0,0,1,2.016-1.73l.438,1.219A5.438,5.438,0,0,0,79.105,8.2a12.082,12.082,0,0,0-.641,4.125v.242a12.313,12.313,0,0,0,.633,4.141,5.544,5.544,0,0,0,1.789,2.648l-.437,1.2a5.253,5.253,0,0,1-1.98-1.684,8.838,8.838,0,0,1-1.4-2.785,11.918,11.918,0,0,1-.516-3.3Zm9.406,4.781a4.15,4.15,0,0,1-3.027-1.141,4.054,4.054,0,0,1-1.168-3.039v-.219a5.106,5.106,0,0,1,.492-2.277,3.612,3.612,0,0,1,1.395-1.547,3.914,3.914,0,0,1,2.059-.543,3.508,3.508,0,0,1,2.73,1.094,4.444,4.444,0,0,1,1,3.1v.922H84.051a2.1,2.1,0,0,0,.66,1.328,2,2,0,0,0,1.395.5,2.437,2.437,0,0,0,2.039-.945l1.109,1.242a3.389,3.389,0,0,1-1.375,1.121A4.511,4.511,0,0,1,85.957,17.156ZM85.7,10.211a1.411,1.411,0,0,0-1.09.455,2.357,2.357,0,0,0-.535,1.3h3.141v-.181a1.681,1.681,0,0,0-.406-1.165A1.456,1.456,0,0,0,85.7,10.211Zm9.594,4.453a.727.727,0,0,0-.41-.652,4.659,4.659,0,0,0-1.316-.426q-3.016-.633-3.016-2.562a2.323,2.323,0,0,1,.934-1.879,3.766,3.766,0,0,1,2.441-.754,4.053,4.053,0,0,1,2.574.758,2.388,2.388,0,0,1,.965,1.969H95.207a1.092,1.092,0,0,0-.312-.8A1.322,1.322,0,0,0,93.918,10a1.351,1.351,0,0,0-.883.258.814.814,0,0,0-.312.656.7.7,0,0,0,.355.605,3.657,3.657,0,0,0,1.2.4A9.8,9.8,0,0,1,95.7,12.3a2.336,2.336,0,0,1,1.789,2.273,2.2,2.2,0,0,1-.992,1.871,4.28,4.28,0,0,1-2.562.715,4.47,4.47,0,0,1-1.887-.379,3.166,3.166,0,0,1-1.293-1.039,2.414,2.414,0,0,1-.469-1.426h2.141a1.179,1.179,0,0,0,.445.922,1.766,1.766,0,0,0,1.109.32,1.635,1.635,0,0,0,.98-.246A.766.766,0,0,0,95.293,14.664Zm6.352-8.2V8.547h1.445V10.2h-1.445v4.219a1.007,1.007,0,0,0,.18.672.9.9,0,0,0,.688.2,3.6,3.6,0,0,0,.664-.055v1.711a4.648,4.648,0,0,1-1.367.2,2.156,2.156,0,0,1-2.422-2.4V10.2H98.152V8.547h1.234V6.469ZM109.246,17a2.507,2.507,0,0,1-.227-.758,2.732,2.732,0,0,1-2.133.914,3,3,0,0,1-2.059-.719,2.312,2.312,0,0,1-.816-1.812,2.389,2.389,0,0,1,1-2.062,4.915,4.915,0,0,1,2.879-.727h1.039v-.484a1.393,1.393,0,0,0-.3-.937,1.183,1.183,0,0,0-.949-.352,1.345,1.345,0,0,0-.895.273.929.929,0,0,0-.324.75H104.2a2.268,2.268,0,0,1,.453-1.359,3,3,0,0,1,1.281-.98,4.669,4.669,0,0,1,1.859-.355,3.689,3.689,0,0,1,2.48.785,2.747,2.747,0,0,1,.918,2.207v3.664a4.041,4.041,0,0,0,.336,1.82V17Zm-1.867-1.57a1.945,1.945,0,0,0,.922-.223,1.462,1.462,0,0,0,.625-.6V13.156h-.844q-1.7,0-1.8,1.172l-.008.133a.9.9,0,0,0,.3.7A1.153,1.153,0,0,0,107.379,15.43Zm9.063-.094a1.481,1.481,0,0,0,1.016-.344,1.2,1.2,0,0,0,.406-.914h2.117a2.9,2.9,0,0,1-.469,1.574,3.093,3.093,0,0,1-1.262,1.109,3.949,3.949,0,0,1-1.77.395A3.67,3.67,0,0,1,113.621,16a4.56,4.56,0,0,1-1.047-3.184v-.148a4.508,4.508,0,0,1,1.039-3.117,3.627,3.627,0,0,1,2.852-1.164,3.555,3.555,0,0,1,2.543.9,3.2,3.2,0,0,1,.973,2.4h-2.117a1.551,1.551,0,0,0-.406-1.072,1.51,1.51,0,0,0-2.223.163,3.333,3.333,0,0,0-.4,1.866v.235a3.375,3.375,0,0,0,.4,1.878A1.377,1.377,0,0,0,116.441,15.336ZM126.168,17a2.507,2.507,0,0,1-.227-.758,2.732,2.732,0,0,1-2.133.914,3,3,0,0,1-2.059-.719,2.312,2.312,0,0,1-.816-1.812,2.389,2.389,0,0,1,1-2.062,4.915,4.915,0,0,1,2.879-.727h1.039v-.484a1.393,1.393,0,0,0-.3-.937,1.183,1.183,0,0,0-.949-.352,1.345,1.345,0,0,0-.895.273.929.929,0,0,0-.324.75h-2.258a2.268,2.268,0,0,1,.453-1.359,3,3,0,0,1,1.281-.98,4.669,4.669,0,0,1,1.859-.355,3.689,3.689,0,0,1,2.48.785,2.747,2.747,0,0,1,.918,2.207v3.664a4.041,4.041,0,0,0,.336,1.82V17ZM124.3,15.43a1.945,1.945,0,0,0,.922-.223,1.462,1.462,0,0,0,.625-.6V13.156H125q-1.7,0-1.8,1.172l-.008.133a.9.9,0,0,0,.3.7A1.153,1.153,0,0,0,124.3,15.43Zm10.125-.766a.727.727,0,0,0-.41-.652,4.659,4.659,0,0,0-1.316-.426q-3.016-.633-3.016-2.562a2.323,2.323,0,0,1,.934-1.879,3.766,3.766,0,0,1,2.441-.754,4.053,4.053,0,0,1,2.574.758,2.388,2.388,0,0,1,.965,1.969H134.34a1.092,1.092,0,0,0-.312-.8,1.322,1.322,0,0,0-.977-.316,1.351,1.351,0,0,0-.883.258.814.814,0,0,0-.312.656.7.7,0,0,0,.355.605,3.657,3.657,0,0,0,1.2.4,9.8,9.8,0,0,1,1.422.379,2.336,2.336,0,0,1,1.789,2.273,2.205,2.205,0,0,1-.992,1.871,4.28,4.28,0,0,1-2.562.715,4.47,4.47,0,0,1-1.887-.379,3.166,3.166,0,0,1-1.293-1.039,2.414,2.414,0,0,1-.469-1.426h2.141a1.179,1.179,0,0,0,.445.922,1.766,1.766,0,0,0,1.109.32,1.635,1.635,0,0,0,.98-.246A.766.766,0,0,0,134.426,14.664Zm7.539-2.109a11.377,11.377,0,0,1-.508,3.4A9.225,9.225,0,0,1,140,18.836a5.264,5.264,0,0,1-2.039,1.719l-.437-1.2a5.494,5.494,0,0,0,1.75-2.578,11.939,11.939,0,0,0,.664-4.008v-.414a12.208,12.208,0,0,0-.637-4.117A5.727,5.727,0,0,0,137.52,5.57l.438-1.2a5.265,5.265,0,0,1,2,1.672,9.106,9.106,0,0,1,1.461,2.82,11.3,11.3,0,0,1,.543,3.336Z" transform="translate(1065 2955)" fill="#12263f"/>
  </g>
</svg>
